<?xml version="1.0" encoding="UTF-8"?>
<svg xmlns="http://www.w3.org/2000/svg" width="900" height="600" viewBox="0 0 900 600">
<rect width="900" height="600" fill="#0f172a"/>
<text x="450" y="30" font-family="sans-serif" font-size="18" font-weight="bold" fill="#f1f5f9" text-anchor="middle">PLL Block Diagram — sky130A TinyTapeout</text>
<defs><marker id="arr" markerWidth="8" markerHeight="8" refX="6" refY="3" orient="auto"><path d="M0,0 L0,6 L8,3 Z" fill="#CBD5E1"/></marker></defs>
<line x1="180" y1="255" x2="250" y2="255" stroke="#CBD5E1" stroke-width="2" marker-end="url(#arr)"/>
<text x="215" y="249" font-family="monospace" font-size="10" fill="#94A3B8" text-anchor="middle">UP/DN</text>
<defs><marker id="arr" markerWidth="8" markerHeight="8" refX="6" refY="3" orient="auto"><path d="M0,0 L0,6 L8,3 Z" fill="#CBD5E1"/></marker></defs>
<line x1="380" y1="255" x2="430" y2="255" stroke="#CBD5E1" stroke-width="2" marker-end="url(#arr)"/>
<text x="405" y="249" font-family="monospace" font-size="10" fill="#94A3B8" text-anchor="middle">Icp</text>
<defs><marker id="arr" markerWidth="8" markerHeight="8" refX="6" refY="3" orient="auto"><path d="M0,0 L0,6 L8,3 Z" fill="#CBD5E1"/></marker></defs>
<line x1="560" y1="255" x2="610" y2="255" stroke="#CBD5E1" stroke-width="2" marker-end="url(#arr)"/>
<text x="585" y="249" font-family="monospace" font-size="10" fill="#94A3B8" text-anchor="middle">Vctrl</text>
<defs><marker id="arr" markerWidth="8" markerHeight="8" refX="6" refY="3" orient="auto"><path d="M0,0 L0,6 L8,3 Z" fill="#CBD5E1"/></marker></defs>
<line x1="675" y1="290" x2="675" y2="360" stroke="#CBD5E1" stroke-width="2" marker-end="url(#arr)"/>
<text x="675" y="319" font-family="monospace" font-size="10" fill="#94A3B8" text-anchor="middle">out</text>
<defs><marker id="arr" markerWidth="8" markerHeight="8" refX="6" refY="3" orient="auto"><path d="M0,0 L0,6 L8,3 Z" fill="#CBD5E1"/></marker></defs>
<line x1="740" y1="255" x2="820" y2="255" stroke="#CBD5E1" stroke-width="2" marker-end="url(#arr)"/>
<text x="780" y="249" font-family="monospace" font-size="10" fill="#94A3B8" text-anchor="middle">ua[0]</text>
<defs><marker id="arr" markerWidth="8" markerHeight="8" refX="6" refY="3" orient="auto"><path d="M0,0 L0,6 L8,3 Z" fill="#CBD5E1"/></marker></defs>
<line x1="250" y1="110" x2="180" y2="220" stroke="#CBD5E1" stroke-width="2" marker-end="url(#arr)"/>
<text x="215" y="159" font-family="monospace" font-size="10" fill="#94A3B8" text-anchor="middle">fb</text>
<defs><marker id="arr" markerWidth="8" markerHeight="8" refX="6" refY="3" orient="auto"><path d="M0,0 L0,6 L8,3 Z" fill="#CBD5E1"/></marker></defs>
<line x1="430" y1="110" x2="250" y2="110" stroke="#CBD5E1" stroke-width="2" marker-end="url(#arr)"/>
<text x="340" y="104" font-family="monospace" font-size="10" fill="#94A3B8" text-anchor="middle">fb_clk</text>
<defs><marker id="arr" markerWidth="8" markerHeight="8" refX="6" refY="3" orient="auto"><path d="M0,0 L0,6 L8,3 Z" fill="#CBD5E1"/></marker></defs>
<line x1="610" y1="110" x2="430" y2="110" stroke="#CBD5E1" stroke-width="2" marker-end="url(#arr)"/>
<text x="520" y="104" font-family="monospace" font-size="10" fill="#94A3B8" text-anchor="middle">÷4</text>
<rect x="50" y="220" width="130" height="70" rx="6" fill="#2563EB" fill-opacity="0.85" stroke="#2563EB" stroke-width="2"/>
<text x="115" y="249" font-family="sans-serif" font-size="15" font-weight="bold" fill="white" text-anchor="middle">PFD</text>
<text x="115" y="265" font-family="monospace" font-size="10" fill="#e2e8f0" text-anchor="middle">Phase/Freq</text>
<text x="115" y="278" font-family="monospace" font-size="10" fill="#e2e8f0" text-anchor="middle">Detector</text>
<rect x="250" y="220" width="130" height="70" rx="6" fill="#7C3AED" fill-opacity="0.85" stroke="#7C3AED" stroke-width="2"/>
<text x="315" y="249" font-family="sans-serif" font-size="15" font-weight="bold" fill="white" text-anchor="middle">CP</text>
<text x="315" y="265" font-family="monospace" font-size="10" fill="#e2e8f0" text-anchor="middle">Charge</text>
<text x="315" y="278" font-family="monospace" font-size="10" fill="#e2e8f0" text-anchor="middle">Pump</text>
<rect x="430" y="220" width="130" height="70" rx="6" fill="#059669" fill-opacity="0.85" stroke="#059669" stroke-width="2"/>
<text x="495" y="249" font-family="sans-serif" font-size="15" font-weight="bold" fill="white" text-anchor="middle">LF</text>
<text x="495" y="265" font-family="monospace" font-size="10" fill="#e2e8f0" text-anchor="middle">Loop</text>
<text x="495" y="278" font-family="monospace" font-size="10" fill="#e2e8f0" text-anchor="middle">Filter R/C</text>
<rect x="610" y="220" width="130" height="70" rx="6" fill="#DC2626" fill-opacity="0.85" stroke="#DC2626" stroke-width="2"/>
<text x="675" y="249" font-family="sans-serif" font-size="15" font-weight="bold" fill="white" text-anchor="middle">VCO</text>
<text x="675" y="265" font-family="monospace" font-size="10" fill="#e2e8f0" text-anchor="middle">5-Stage Ring</text>
<text x="675" y="278" font-family="monospace" font-size="10" fill="#e2e8f0" text-anchor="middle">Oscillator</text>
<rect x="430" y="80" width="130" height="60" rx="6" fill="#D97706" fill-opacity="0.85" stroke="#D97706" stroke-width="2"/>
<text x="495" y="104" font-family="sans-serif" font-size="15" font-weight="bold" fill="white" text-anchor="middle">DIV</text>
<text x="495" y="120" font-family="monospace" font-size="10" fill="#e2e8f0" text-anchor="middle">/4 Divider</text>
<rect x="250" y="80" width="130" height="60" rx="6" fill="#1D4ED8" fill-opacity="0.85" stroke="#1D4ED8" stroke-width="2"/>
<text x="315" y="104" font-family="sans-serif" font-size="15" font-weight="bold" fill="white" text-anchor="middle">ua[0]</text>
<text x="315" y="120" font-family="monospace" font-size="10" fill="#e2e8f0" text-anchor="middle">Output</text>
<text x="315" y="133" font-family="monospace" font-size="10" fill="#e2e8f0" text-anchor="middle">ua[0] CLK</text>
<rect x="610" y="360" width="130" height="60" rx="6" fill="#6B7280" fill-opacity="0.85" stroke="#6B7280" stroke-width="2"/>
<text x="675" y="384" font-family="sans-serif" font-size="15" font-weight="bold" fill="white" text-anchor="middle">BUF</text>
<text x="675" y="400" font-family="monospace" font-size="10" fill="#e2e8f0" text-anchor="middle">Output</text>
<text x="675" y="413" font-family="monospace" font-size="10" fill="#e2e8f0" text-anchor="middle">Buffer</text>
<rect x="40" y="40" width="480" height="70" rx="4" fill="#1e293b" stroke="#475569" stroke-width="1"/>
<text x="50" y="50" font-family="monospace" font-size="11" fill="#94A3B8">VDPWR → 1.8V met4 stripe  x=1.0–3.0 µm</text>
<text x="50" y="75" font-family="monospace" font-size="11" fill="#94A3B8">VGND  → GND   met4 stripe  x=4.5–6.5 µm</text>
<text x="50" y="100" font-family="monospace" font-size="11" fill="#94A3B8">Power mesh: met1 trunks + horizontal feeders to each block</text>
<text x="40" y="480" font-family="sans-serif" font-size="13" font-weight="bold" fill="#CBD5E1">Analog Pins:</text>
<text x="50" y="490" font-family="monospace" font-size="11" fill="#EF4444">ua[0] ← VCO output (CLK out via buffer)</text>
<text x="50" y="515" font-family="monospace" font-size="11" fill="#F59E0B">ua[1] ← VCO output (same, divider TBD)</text>
<text x="50" y="540" font-family="monospace" font-size="11" fill="#3B82F6">clk   ← REF clock input (digital, driven externally)</text>
<text x="50" y="565" font-family="monospace" font-size="11" fill="#6366F1">rst_n ← Reset (active low)</text>
<path d="M 610,255 Q 580,255 565,235 Q 550,215 580,200 Q 610,185 640,200 Q 670,215 660,235 Q 650,250 640,258" fill="none" stroke="#FCA5A5" stroke-width="1.5" stroke-dasharray="4,2"/>
<text x="690" y="210" font-family="monospace" font-size="9" fill="#FCA5A5">5-stage ring</text>
</svg>