<?xml version="1.0" encoding="UTF-8"?>
<svg xmlns="http://www.w3.org/2000/svg" width="684.0" height="968.0"
     viewBox="0 0 684.0 968.0">
  <rect width="100%" height="100%" fill="#1a1a2e"/>
  <text x="342.0" y="18" font-family="sans-serif" font-size="16" fill="#222" text-anchor="middle" font-weight="bold">tt_um_hvt006_cs_amp — Combined Layout</text>
  <g transform="translate(0, 25)">
    <path d="M 20.00,923.04 L 664.00,923.04 L 664.00,20.00 L 20.00,20.00 Z" fill="none" fill-opacity="1.0" stroke="#555555" stroke-width="1.5" stroke-dasharray="4,2"/>
    <path d="M 327.74,477.66 L 332.94,477.66 L 332.94,476.98 L 327.74,476.98 Z M 334.78,477.66 L 339.98,477.66 L 339.98,476.98 L 334.78,476.98 Z M 341.82,477.66 L 347.02,477.66 L 347.02,476.98 L 341.82,476.98 Z M 348.86,477.66 L 354.06,477.66 L 354.06,476.98 L 348.86,476.98 Z M 355.90,477.66 L 360.24,477.66 L 360.24,476.98 L 355.90,476.98 Z M 355.22,478.00 L 356.58,478.00 L 356.58,476.64 L 355.22,476.64 Z M 325.22,478.00 L 326.58,478.00 L 326.58,476.64 L 325.22,476.64 Z M 366.92,478.00 L 368.28,478.00 L 368.28,476.64 L 366.92,476.64 Z" fill="#00BFFF" fill-opacity="0.55" stroke="#0099cc" stroke-width="0.5" stroke-dasharray="none"/>
    <path d="M 355.56,477.66 L 356.24,477.66 L 356.24,476.98 L 355.56,476.98 Z M 325.56,477.66 L 326.24,477.66 L 326.24,476.98 L 325.56,476.98 Z M 367.26,477.66 L 367.94,477.66 L 367.94,476.98 L 367.26,476.98 Z" fill="#FFD700" fill-opacity="0.7" stroke="#ccaa00" stroke-width="0.5" stroke-dasharray="none"/>
    <path d="M 355.22,478.00 L 356.58,478.00 L 356.58,476.64 L 355.22,476.64 Z M 325.22,478.00 L 326.58,478.00 L 326.58,476.64 L 325.22,476.64 Z M 355.34,477.88 L 356.46,477.88 L 356.46,468.48 L 355.34,468.48 Z M 325.34,469.60 L 356.46,469.60 L 356.46,468.48 L 325.34,468.48 Z M 325.34,477.88 L 326.46,477.88 L 326.46,468.48 L 325.34,468.48 Z M 320.00,472.16 L 374.64,472.16 L 374.64,470.24 L 320.00,470.24 Z M 320.00,483.04 L 374.64,483.04 L 374.64,481.12 L 320.00,481.12 Z M 323.00,472.20 L 325.00,472.20 L 325.00,470.20 L 323.00,470.20 Z M 323.00,483.08 L 325.00,483.08 L 325.00,481.08 L 323.00,481.08 Z M 628.04,900.04 L 630.04,900.04 L 630.04,898.04 L 628.04,898.04 Z M 325.34,899.60 L 629.60,899.60 L 629.60,898.48 L 325.34,898.48 Z M 325.34,899.04 L 326.46,899.04 L 326.46,477.32 L 325.34,477.32 Z M 550.76,900.04 L 552.76,900.04 L 552.76,898.04 L 550.76,898.04 Z M 366.92,478.00 L 368.28,478.00 L 368.28,476.64 L 366.92,476.64 Z M 367.04,899.60 L 552.32,899.60 L 552.32,898.48 L 367.04,898.48 Z M 367.04,899.04 L 368.16,899.04 L 368.16,477.32 L 367.04,477.32 Z" fill="#4169E1" fill-opacity="0.5" stroke="#2a4a9e" stroke-width="0.5" stroke-dasharray="none"/>
    <path d="M 323.70,471.50 L 324.30,471.50 L 324.30,470.90 L 323.70,470.90 Z M 323.70,482.38 L 324.30,482.38 L 324.30,481.78 L 323.70,481.78 Z M 628.74,899.34 L 629.34,899.34 L 629.34,898.74 L 628.74,898.74 Z M 551.46,899.34 L 552.06,899.34 L 552.06,898.74 L 551.46,898.74 Z" fill="#FFFFFF" fill-opacity="0.8" stroke="#aaaaaa" stroke-width="0.5" stroke-dasharray="none"/>
    <path d="M 323.00,472.20 L 325.00,472.20 L 325.00,470.20 L 323.00,470.20 Z M 323.00,483.08 L 325.00,483.08 L 325.00,481.08 L 323.00,481.08 Z M 628.04,900.04 L 630.04,900.04 L 630.04,898.04 L 628.04,898.04 Z M 550.76,900.04 L 552.76,900.04 L 552.76,898.04 L 550.76,898.04 Z" fill="#FF8C00" fill-opacity="0.45" stroke="#cc7000" stroke-width="0.5" stroke-dasharray="none"/>
    <path d="M 323.60,471.60 L 324.40,471.60 L 324.40,470.80 L 323.60,470.80 Z M 323.60,482.48 L 324.40,482.48 L 324.40,481.68 L 323.60,481.68 Z M 628.64,899.44 L 629.44,899.44 L 629.44,898.64 L 628.64,898.64 Z M 551.36,899.44 L 552.16,899.44 L 552.16,898.64 L 551.36,898.64 Z" fill="#FFFFFF" fill-opacity="0.8" stroke="#aaaaaa" stroke-width="0.5" stroke-dasharray="none"/>
    <path d="M 323.00,472.20 L 325.00,472.20 L 325.00,470.20 L 323.00,470.20 Z M 323.00,483.08 L 325.00,483.08 L 325.00,481.08 L 323.00,481.08 Z M 628.04,900.04 L 630.04,900.04 L 630.04,898.04 L 628.04,898.04 Z M 550.76,900.04 L 552.76,900.04 L 552.76,898.04 L 550.76,898.04 Z" fill="#32CD32" fill-opacity="0.45" stroke="#28a428" stroke-width="0.5" stroke-dasharray="none"/>
    <path d="M 323.60,471.60 L 324.40,471.60 L 324.40,470.80 L 323.60,470.80 Z M 323.60,482.48 L 324.40,482.48 L 324.40,481.68 L 323.60,481.68 Z M 628.64,899.44 L 629.44,899.44 L 629.44,898.64 L 628.64,898.64 Z M 551.36,899.44 L 552.16,899.44 L 552.16,898.64 L 551.36,898.64 Z" fill="#FFFFFF" fill-opacity="0.8" stroke="#aaaaaa" stroke-width="0.5" stroke-dasharray="none"/>
    <path d="M 323.00,472.20 L 325.00,472.20 L 325.00,470.20 L 323.00,470.20 Z M 27.00,472.20 L 325.00,472.20 L 325.00,470.20 L 27.00,470.20 Z M 323.00,483.08 L 325.00,483.08 L 325.00,481.08 L 323.00,481.08 Z M 41.00,483.08 L 325.00,483.08 L 325.00,481.08 L 41.00,481.08 Z M 628.04,900.04 L 630.04,900.04 L 630.04,898.04 L 628.04,898.04 Z M 550.76,900.04 L 552.76,900.04 L 552.76,898.04 L 550.76,898.04 Z M 627.24,923.04 L 630.84,923.04 L 630.84,919.04 L 627.24,919.04 Z M 549.96,923.04 L 553.56,923.04 L 553.56,919.04 L 549.96,919.04 Z M 472.68,923.04 L 476.28,923.04 L 476.28,919.04 L 472.68,919.04 Z M 395.40,923.04 L 399.00,923.04 L 399.00,919.04 L 395.40,919.04 Z M 318.12,923.04 L 321.72,923.04 L 321.72,919.04 L 318.12,919.04 Z M 240.84,923.04 L 244.44,923.04 L 244.44,919.04 L 240.84,919.04 Z M 163.56,923.04 L 167.16,923.04 L 167.16,919.04 L 163.56,919.04 Z M 86.28,923.04 L 89.88,923.04 L 89.88,919.04 L 86.28,919.04 Z M 627.24,919.04 L 630.84,919.04 L 630.84,895.04 L 627.24,895.04 Z M 549.96,919.04 L 553.56,919.04 L 553.56,895.04 L 549.96,895.04 Z M 595.32,24.00 L 596.52,24.00 L 596.52,20.00 L 595.32,20.00 Z M 606.36,24.00 L 607.56,24.00 L 607.56,20.00 L 606.36,20.00 Z M 584.28,24.00 L 585.48,24.00 L 585.48,20.00 L 584.28,20.00 Z M 573.24,24.00 L 574.44,24.00 L 574.44,20.00 L 573.24,20.00 Z M 396.60,24.00 L 397.80,24.00 L 397.80,20.00 L 396.60,20.00 Z M 484.92,24.00 L 486.12,24.00 L 486.12,20.00 L 484.92,20.00 Z M 308.28,24.00 L 309.48,24.00 L 309.48,20.00 L 308.28,20.00 Z M 219.96,24.00 L 221.16,24.00 L 221.16,20.00 L 219.96,20.00 Z M 562.20,24.00 L 563.40,24.00 L 563.40,20.00 L 562.20,20.00 Z M 385.56,24.00 L 386.76,24.00 L 386.76,20.00 L 385.56,20.00 Z M 473.88,24.00 L 475.08,24.00 L 475.08,20.00 L 473.88,20.00 Z M 297.24,24.00 L 298.44,24.00 L 298.44,20.00 L 297.24,20.00 Z M 208.92,24.00 L 210.12,24.00 L 210.12,20.00 L 208.92,20.00 Z M 551.16,24.00 L 552.36,24.00 L 552.36,20.00 L 551.16,20.00 Z M 374.52,24.00 L 375.72,24.00 L 375.72,20.00 L 374.52,20.00 Z M 462.84,24.00 L 464.04,24.00 L 464.04,20.00 L 462.84,20.00 Z M 286.20,24.00 L 287.40,24.00 L 287.40,20.00 L 286.20,20.00 Z M 197.88,24.00 L 199.08,24.00 L 199.08,20.00 L 197.88,20.00 Z M 540.12,24.00 L 541.32,24.00 L 541.32,20.00 L 540.12,20.00 Z M 363.48,24.00 L 364.68,24.00 L 364.68,20.00 L 363.48,20.00 Z M 451.80,24.00 L 453.00,24.00 L 453.00,20.00 L 451.80,20.00 Z M 275.16,24.00 L 276.36,24.00 L 276.36,20.00 L 275.16,20.00 Z M 186.84,24.00 L 188.04,24.00 L 188.04,20.00 L 186.84,20.00 Z M 529.08,24.00 L 530.28,24.00 L 530.28,20.00 L 529.08,20.00 Z M 352.44,24.00 L 353.64,24.00 L 353.64,20.00 L 352.44,20.00 Z M 440.76,24.00 L 441.96,24.00 L 441.96,20.00 L 440.76,20.00 Z M 264.12,24.00 L 265.32,24.00 L 265.32,20.00 L 264.12,20.00 Z M 175.80,24.00 L 177.00,24.00 L 177.00,20.00 L 175.80,20.00 Z M 518.04,24.00 L 519.24,24.00 L 519.24,20.00 L 518.04,20.00 Z M 341.40,24.00 L 342.60,24.00 L 342.60,20.00 L 341.40,20.00 Z M 429.72,24.00 L 430.92,24.00 L 430.92,20.00 L 429.72,20.00 Z M 253.08,24.00 L 254.28,24.00 L 254.28,20.00 L 253.08,20.00 Z M 164.76,24.00 L 165.96,24.00 L 165.96,20.00 L 164.76,20.00 Z M 507.00,24.00 L 508.20,24.00 L 508.20,20.00 L 507.00,20.00 Z M 330.36,24.00 L 331.56,24.00 L 331.56,20.00 L 330.36,20.00 Z M 418.68,24.00 L 419.88,24.00 L 419.88,20.00 L 418.68,20.00 Z M 242.04,24.00 L 243.24,24.00 L 243.24,20.00 L 242.04,20.00 Z M 153.72,24.00 L 154.92,24.00 L 154.92,20.00 L 153.72,20.00 Z M 495.96,24.00 L 497.16,24.00 L 497.16,20.00 L 495.96,20.00 Z M 319.32,24.00 L 320.52,24.00 L 320.52,20.00 L 319.32,20.00 Z M 407.64,24.00 L 408.84,24.00 L 408.84,20.00 L 407.64,20.00 Z M 231.00,24.00 L 232.20,24.00 L 232.20,20.00 L 231.00,20.00 Z M 142.68,24.00 L 143.88,24.00 L 143.88,20.00 L 142.68,20.00 Z M 24.00,903.04 L 32.00,903.04 L 32.00,40.00 L 24.00,40.00 Z M 38.00,903.04 L 46.00,903.04 L 46.00,40.00 L 38.00,40.00 Z" fill="#DA70D6" fill-opacity="0.5" stroke="#b05aaa" stroke-width="0.5" stroke-dasharray="none"/>
    <path d="M 627.24,923.04 L 630.84,923.04 L 630.84,919.04 L 627.24,919.04 Z M 549.96,923.04 L 553.56,923.04 L 553.56,919.04 L 549.96,919.04 Z M 472.68,923.04 L 476.28,923.04 L 476.28,919.04 L 472.68,919.04 Z M 395.40,923.04 L 399.00,923.04 L 399.00,919.04 L 395.40,919.04 Z M 318.12,923.04 L 321.72,923.04 L 321.72,919.04 L 318.12,919.04 Z M 240.84,923.04 L 244.44,923.04 L 244.44,919.04 L 240.84,919.04 Z M 163.56,923.04 L 167.16,923.04 L 167.16,919.04 L 163.56,919.04 Z M 86.28,923.04 L 89.88,923.04 L 89.88,919.04 L 86.28,919.04 Z M 595.32,24.00 L 596.52,24.00 L 596.52,20.00 L 595.32,20.00 Z M 606.36,24.00 L 607.56,24.00 L 607.56,20.00 L 606.36,20.00 Z M 584.28,24.00 L 585.48,24.00 L 585.48,20.00 L 584.28,20.00 Z M 573.24,24.00 L 574.44,24.00 L 574.44,20.00 L 573.24,20.00 Z M 396.60,24.00 L 397.80,24.00 L 397.80,20.00 L 396.60,20.00 Z M 484.92,24.00 L 486.12,24.00 L 486.12,20.00 L 484.92,20.00 Z M 308.28,24.00 L 309.48,24.00 L 309.48,20.00 L 308.28,20.00 Z M 219.96,24.00 L 221.16,24.00 L 221.16,20.00 L 219.96,20.00 Z M 562.20,24.00 L 563.40,24.00 L 563.40,20.00 L 562.20,20.00 Z M 385.56,24.00 L 386.76,24.00 L 386.76,20.00 L 385.56,20.00 Z M 473.88,24.00 L 475.08,24.00 L 475.08,20.00 L 473.88,20.00 Z M 297.24,24.00 L 298.44,24.00 L 298.44,20.00 L 297.24,20.00 Z M 208.92,24.00 L 210.12,24.00 L 210.12,20.00 L 208.92,20.00 Z M 551.16,24.00 L 552.36,24.00 L 552.36,20.00 L 551.16,20.00 Z M 374.52,24.00 L 375.72,24.00 L 375.72,20.00 L 374.52,20.00 Z M 462.84,24.00 L 464.04,24.00 L 464.04,20.00 L 462.84,20.00 Z M 286.20,24.00 L 287.40,24.00 L 287.40,20.00 L 286.20,20.00 Z M 197.88,24.00 L 199.08,24.00 L 199.08,20.00 L 197.88,20.00 Z M 540.12,24.00 L 541.32,24.00 L 541.32,20.00 L 540.12,20.00 Z M 363.48,24.00 L 364.68,24.00 L 364.68,20.00 L 363.48,20.00 Z M 451.80,24.00 L 453.00,24.00 L 453.00,20.00 L 451.80,20.00 Z M 275.16,24.00 L 276.36,24.00 L 276.36,20.00 L 275.16,20.00 Z M 186.84,24.00 L 188.04,24.00 L 188.04,20.00 L 186.84,20.00 Z M 529.08,24.00 L 530.28,24.00 L 530.28,20.00 L 529.08,20.00 Z M 352.44,24.00 L 353.64,24.00 L 353.64,20.00 L 352.44,20.00 Z M 440.76,24.00 L 441.96,24.00 L 441.96,20.00 L 440.76,20.00 Z M 264.12,24.00 L 265.32,24.00 L 265.32,20.00 L 264.12,20.00 Z M 175.80,24.00 L 177.00,24.00 L 177.00,20.00 L 175.80,20.00 Z M 518.04,24.00 L 519.24,24.00 L 519.24,20.00 L 518.04,20.00 Z M 341.40,24.00 L 342.60,24.00 L 342.60,20.00 L 341.40,20.00 Z M 429.72,24.00 L 430.92,24.00 L 430.92,20.00 L 429.72,20.00 Z M 253.08,24.00 L 254.28,24.00 L 254.28,20.00 L 253.08,20.00 Z M 164.76,24.00 L 165.96,24.00 L 165.96,20.00 L 164.76,20.00 Z M 507.00,24.00 L 508.20,24.00 L 508.20,20.00 L 507.00,20.00 Z M 330.36,24.00 L 331.56,24.00 L 331.56,20.00 L 330.36,20.00 Z M 418.68,24.00 L 419.88,24.00 L 419.88,20.00 L 418.68,20.00 Z M 242.04,24.00 L 243.24,24.00 L 243.24,20.00 L 242.04,20.00 Z M 153.72,24.00 L 154.92,24.00 L 154.92,20.00 L 153.72,20.00 Z M 495.96,24.00 L 497.16,24.00 L 497.16,20.00 L 495.96,20.00 Z M 319.32,24.00 L 320.52,24.00 L 320.52,20.00 L 319.32,20.00 Z M 407.64,24.00 L 408.84,24.00 L 408.84,20.00 L 407.64,20.00 Z M 231.00,24.00 L 232.20,24.00 L 232.20,20.00 L 231.00,20.00 Z M 142.68,24.00 L 143.88,24.00 L 143.88,20.00 L 142.68,20.00 Z M 24.00,903.04 L 32.00,903.04 L 32.00,40.00 L 24.00,40.00 Z M 38.00,903.04 L 46.00,903.04 L 46.00,40.00 L 38.00,40.00 Z" fill="#FF6347" fill-opacity="0.4" stroke="#cc4f38" stroke-width="0.5" stroke-dasharray="none"/>
    <text x="629.04" y="921.04" font-family="monospace" font-size="10.0" fill="#ffffff" stroke="#000000" stroke-width="0.3" text-anchor="middle" dominant-baseline="central">ua[0]</text>
    <text x="551.76" y="921.04" font-family="monospace" font-size="10.0" fill="#ffffff" stroke="#000000" stroke-width="0.3" text-anchor="middle" dominant-baseline="central">ua[1]</text>
    <text x="474.48" y="921.04" font-family="monospace" font-size="10.0" fill="#ffffff" stroke="#000000" stroke-width="0.3" text-anchor="middle" dominant-baseline="central">ua[2]</text>
    <text x="397.20" y="921.04" font-family="monospace" font-size="10.0" fill="#ffffff" stroke="#000000" stroke-width="0.3" text-anchor="middle" dominant-baseline="central">ua[3]</text>
    <text x="319.92" y="921.04" font-family="monospace" font-size="10.0" fill="#ffffff" stroke="#000000" stroke-width="0.3" text-anchor="middle" dominant-baseline="central">ua[4]</text>
    <text x="242.64" y="921.04" font-family="monospace" font-size="10.0" fill="#ffffff" stroke="#000000" stroke-width="0.3" text-anchor="middle" dominant-baseline="central">ua[5]</text>
    <text x="165.36" y="921.04" font-family="monospace" font-size="10.0" fill="#ffffff" stroke="#000000" stroke-width="0.3" text-anchor="middle" dominant-baseline="central">ua[6]</text>
    <text x="88.08" y="921.04" font-family="monospace" font-size="10.0" fill="#ffffff" stroke="#000000" stroke-width="0.3" text-anchor="middle" dominant-baseline="central">ua[7]</text>
    <text x="595.92" y="22.00" font-family="monospace" font-size="10.0" fill="#ffffff" stroke="#000000" stroke-width="0.3" text-anchor="middle" dominant-baseline="central">clk</text>
    <text x="606.96" y="22.00" font-family="monospace" font-size="10.0" fill="#ffffff" stroke="#000000" stroke-width="0.3" text-anchor="middle" dominant-baseline="central">ena</text>
    <text x="584.88" y="22.00" font-family="monospace" font-size="10.0" fill="#ffffff" stroke="#000000" stroke-width="0.3" text-anchor="middle" dominant-baseline="central">rst_n</text>
    <text x="573.84" y="22.00" font-family="monospace" font-size="10.0" fill="#ffffff" stroke="#000000" stroke-width="0.3" text-anchor="middle" dominant-baseline="central">ui_in[0]</text>
    <text x="397.20" y="22.00" font-family="monospace" font-size="10.0" fill="#ffffff" stroke="#000000" stroke-width="0.3" text-anchor="middle" dominant-baseline="central">uo_out[0]</text>
    <text x="485.52" y="22.00" font-family="monospace" font-size="10.0" fill="#ffffff" stroke="#000000" stroke-width="0.3" text-anchor="middle" dominant-baseline="central">uio_in[0]</text>
    <text x="308.88" y="22.00" font-family="monospace" font-size="10.0" fill="#ffffff" stroke="#000000" stroke-width="0.3" text-anchor="middle" dominant-baseline="central">uio_out[0]</text>
    <text x="220.56" y="22.00" font-family="monospace" font-size="10.0" fill="#ffffff" stroke="#000000" stroke-width="0.3" text-anchor="middle" dominant-baseline="central">uio_oe[0]</text>
    <text x="562.80" y="22.00" font-family="monospace" font-size="10.0" fill="#ffffff" stroke="#000000" stroke-width="0.3" text-anchor="middle" dominant-baseline="central">ui_in[1]</text>
    <text x="386.16" y="22.00" font-family="monospace" font-size="10.0" fill="#ffffff" stroke="#000000" stroke-width="0.3" text-anchor="middle" dominant-baseline="central">uo_out[1]</text>
    <text x="474.48" y="22.00" font-family="monospace" font-size="10.0" fill="#ffffff" stroke="#000000" stroke-width="0.3" text-anchor="middle" dominant-baseline="central">uio_in[1]</text>
    <text x="297.84" y="22.00" font-family="monospace" font-size="10.0" fill="#ffffff" stroke="#000000" stroke-width="0.3" text-anchor="middle" dominant-baseline="central">uio_out[1]</text>
    <text x="209.52" y="22.00" font-family="monospace" font-size="10.0" fill="#ffffff" stroke="#000000" stroke-width="0.3" text-anchor="middle" dominant-baseline="central">uio_oe[1]</text>
    <text x="551.76" y="22.00" font-family="monospace" font-size="10.0" fill="#ffffff" stroke="#000000" stroke-width="0.3" text-anchor="middle" dominant-baseline="central">ui_in[2]</text>
    <text x="375.12" y="22.00" font-family="monospace" font-size="10.0" fill="#ffffff" stroke="#000000" stroke-width="0.3" text-anchor="middle" dominant-baseline="central">uo_out[2]</text>
    <text x="463.44" y="22.00" font-family="monospace" font-size="10.0" fill="#ffffff" stroke="#000000" stroke-width="0.3" text-anchor="middle" dominant-baseline="central">uio_in[2]</text>
    <text x="286.80" y="22.00" font-family="monospace" font-size="10.0" fill="#ffffff" stroke="#000000" stroke-width="0.3" text-anchor="middle" dominant-baseline="central">uio_out[2]</text>
    <text x="198.48" y="22.00" font-family="monospace" font-size="10.0" fill="#ffffff" stroke="#000000" stroke-width="0.3" text-anchor="middle" dominant-baseline="central">uio_oe[2]</text>
    <text x="540.72" y="22.00" font-family="monospace" font-size="10.0" fill="#ffffff" stroke="#000000" stroke-width="0.3" text-anchor="middle" dominant-baseline="central">ui_in[3]</text>
    <text x="364.08" y="22.00" font-family="monospace" font-size="10.0" fill="#ffffff" stroke="#000000" stroke-width="0.3" text-anchor="middle" dominant-baseline="central">uo_out[3]</text>
    <text x="452.40" y="22.00" font-family="monospace" font-size="10.0" fill="#ffffff" stroke="#000000" stroke-width="0.3" text-anchor="middle" dominant-baseline="central">uio_in[3]</text>
    <text x="275.76" y="22.00" font-family="monospace" font-size="10.0" fill="#ffffff" stroke="#000000" stroke-width="0.3" text-anchor="middle" dominant-baseline="central">uio_out[3]</text>
    <text x="187.44" y="22.00" font-family="monospace" font-size="10.0" fill="#ffffff" stroke="#000000" stroke-width="0.3" text-anchor="middle" dominant-baseline="central">uio_oe[3]</text>
    <text x="529.68" y="22.00" font-family="monospace" font-size="10.0" fill="#ffffff" stroke="#000000" stroke-width="0.3" text-anchor="middle" dominant-baseline="central">ui_in[4]</text>
    <text x="353.04" y="22.00" font-family="monospace" font-size="10.0" fill="#ffffff" stroke="#000000" stroke-width="0.3" text-anchor="middle" dominant-baseline="central">uo_out[4]</text>
    <text x="441.36" y="22.00" font-family="monospace" font-size="10.0" fill="#ffffff" stroke="#000000" stroke-width="0.3" text-anchor="middle" dominant-baseline="central">uio_in[4]</text>
    <text x="264.72" y="22.00" font-family="monospace" font-size="10.0" fill="#ffffff" stroke="#000000" stroke-width="0.3" text-anchor="middle" dominant-baseline="central">uio_out[4]</text>
    <text x="176.40" y="22.00" font-family="monospace" font-size="10.0" fill="#ffffff" stroke="#000000" stroke-width="0.3" text-anchor="middle" dominant-baseline="central">uio_oe[4]</text>
    <text x="518.64" y="22.00" font-family="monospace" font-size="10.0" fill="#ffffff" stroke="#000000" stroke-width="0.3" text-anchor="middle" dominant-baseline="central">ui_in[5]</text>
    <text x="342.00" y="22.00" font-family="monospace" font-size="10.0" fill="#ffffff" stroke="#000000" stroke-width="0.3" text-anchor="middle" dominant-baseline="central">uo_out[5]</text>
    <text x="430.32" y="22.00" font-family="monospace" font-size="10.0" fill="#ffffff" stroke="#000000" stroke-width="0.3" text-anchor="middle" dominant-baseline="central">uio_in[5]</text>
    <text x="253.68" y="22.00" font-family="monospace" font-size="10.0" fill="#ffffff" stroke="#000000" stroke-width="0.3" text-anchor="middle" dominant-baseline="central">uio_out[5]</text>
    <text x="165.36" y="22.00" font-family="monospace" font-size="10.0" fill="#ffffff" stroke="#000000" stroke-width="0.3" text-anchor="middle" dominant-baseline="central">uio_oe[5]</text>
    <text x="507.60" y="22.00" font-family="monospace" font-size="10.0" fill="#ffffff" stroke="#000000" stroke-width="0.3" text-anchor="middle" dominant-baseline="central">ui_in[6]</text>
    <text x="330.96" y="22.00" font-family="monospace" font-size="10.0" fill="#ffffff" stroke="#000000" stroke-width="0.3" text-anchor="middle" dominant-baseline="central">uo_out[6]</text>
    <text x="419.28" y="22.00" font-family="monospace" font-size="10.0" fill="#ffffff" stroke="#000000" stroke-width="0.3" text-anchor="middle" dominant-baseline="central">uio_in[6]</text>
    <text x="242.64" y="22.00" font-family="monospace" font-size="10.0" fill="#ffffff" stroke="#000000" stroke-width="0.3" text-anchor="middle" dominant-baseline="central">uio_out[6]</text>
    <text x="154.32" y="22.00" font-family="monospace" font-size="10.0" fill="#ffffff" stroke="#000000" stroke-width="0.3" text-anchor="middle" dominant-baseline="central">uio_oe[6]</text>
    <text x="496.56" y="22.00" font-family="monospace" font-size="10.0" fill="#ffffff" stroke="#000000" stroke-width="0.3" text-anchor="middle" dominant-baseline="central">ui_in[7]</text>
    <text x="319.92" y="22.00" font-family="monospace" font-size="10.0" fill="#ffffff" stroke="#000000" stroke-width="0.3" text-anchor="middle" dominant-baseline="central">uo_out[7]</text>
    <text x="408.24" y="22.00" font-family="monospace" font-size="10.0" fill="#ffffff" stroke="#000000" stroke-width="0.3" text-anchor="middle" dominant-baseline="central">uio_in[7]</text>
    <text x="231.60" y="22.00" font-family="monospace" font-size="10.0" fill="#ffffff" stroke="#000000" stroke-width="0.3" text-anchor="middle" dominant-baseline="central">uio_out[7]</text>
    <text x="143.28" y="22.00" font-family="monospace" font-size="10.0" fill="#ffffff" stroke="#000000" stroke-width="0.3" text-anchor="middle" dominant-baseline="central">uio_oe[7]</text>
    <text x="28.00" y="471.52" font-family="monospace" font-size="10.0" fill="#ffffff" stroke="#000000" stroke-width="0.3" text-anchor="middle" dominant-baseline="central">VDPWR</text>
    <text x="42.00" y="471.52" font-family="monospace" font-size="10.0" fill="#ffffff" stroke="#000000" stroke-width="0.3" text-anchor="middle" dominant-baseline="central">VGND</text>
    <rect x="10" y="928.04" width="12" height="12" fill="#333333" opacity="0.8" stroke="#fff" stroke-width="0.5"/>
    <text x="26" y="938.04" font-family="sans-serif" font-size="10" fill="#cccccc">prbndry (235,4)</text>
    <rect x="210" y="928.04" width="12" height="12" fill="#8B4513" opacity="0.8" stroke="#fff" stroke-width="0.5"/>
    <text x="226" y="938.04" font-family="sans-serif" font-size="10" fill="#cccccc">nwell (64,20)</text>
    <rect x="410" y="928.04" width="12" height="12" fill="#228B22" opacity="0.8" stroke="#fff" stroke-width="0.5"/>
    <text x="426" y="938.04" font-family="sans-serif" font-size="10" fill="#cccccc">diff (65,20)</text>
    <rect x="610" y="928.04" width="12" height="12" fill="#FF0000" opacity="0.8" stroke="#fff" stroke-width="0.5"/>
    <text x="626" y="938.04" font-family="sans-serif" font-size="10" fill="#cccccc">poly (66,20)</text>
    <rect x="810" y="928.04" width="12" height="12" fill="#FFD700" opacity="0.8" stroke="#fff" stroke-width="0.5"/>
    <text x="826" y="938.04" font-family="sans-serif" font-size="10" fill="#cccccc">licon (66,44)</text>
    <rect x="1010" y="928.04" width="12" height="12" fill="#00CED1" opacity="0.8" stroke="#fff" stroke-width="0.5"/>
    <text x="1026" y="938.04" font-family="sans-serif" font-size="10" fill="#cccccc">nsdm (93,44)</text>
    <rect x="1210" y="928.04" width="12" height="12" fill="#FF69B4" opacity="0.8" stroke="#fff" stroke-width="0.5"/>
    <text x="1226" y="938.04" font-family="sans-serif" font-size="10" fill="#cccccc">psdm (94,20)</text>
    <rect x="1410" y="928.04" width="12" height="12" fill="#9400D3" opacity="0.8" stroke="#fff" stroke-width="0.5"/>
    <text x="1426" y="938.04" font-family="sans-serif" font-size="10" fill="#cccccc">npc (95,20)</text>
    <rect x="1610" y="928.04" width="12" height="12" fill="#00BFFF" opacity="0.8" stroke="#fff" stroke-width="0.5"/>
    <text x="1626" y="938.04" font-family="sans-serif" font-size="10" fill="#cccccc">li1 (67,20)</text>
    <rect x="1810" y="928.04" width="12" height="12" fill="#FFD700" opacity="0.8" stroke="#fff" stroke-width="0.5"/>
    <text x="1826" y="938.04" font-family="sans-serif" font-size="10" fill="#cccccc">mcon (67,44)</text>
    <rect x="2010" y="928.04" width="12" height="12" fill="#4169E1" opacity="0.8" stroke="#fff" stroke-width="0.5"/>
    <text x="2026" y="938.04" font-family="sans-serif" font-size="10" fill="#cccccc">met1 (68,20)</text>
    <rect x="2210" y="928.04" width="12" height="12" fill="#FFFFFF" opacity="0.8" stroke="#fff" stroke-width="0.5"/>
    <text x="2226" y="938.04" font-family="sans-serif" font-size="10" fill="#cccccc">via (68,44)</text>
    <rect x="2410" y="928.04" width="12" height="12" fill="#FF8C00" opacity="0.8" stroke="#fff" stroke-width="0.5"/>
    <text x="2426" y="938.04" font-family="sans-serif" font-size="10" fill="#cccccc">met2 (69,20)</text>
    <rect x="2610" y="928.04" width="12" height="12" fill="#FFFFFF" opacity="0.8" stroke="#fff" stroke-width="0.5"/>
    <text x="2626" y="938.04" font-family="sans-serif" font-size="10" fill="#cccccc">via2 (69,44)</text>
    <rect x="2810" y="928.04" width="12" height="12" fill="#32CD32" opacity="0.8" stroke="#fff" stroke-width="0.5"/>
    <text x="2826" y="938.04" font-family="sans-serif" font-size="10" fill="#cccccc">met3 (70,20)</text>
    <rect x="3010" y="928.04" width="12" height="12" fill="#FFFFFF" opacity="0.8" stroke="#fff" stroke-width="0.5"/>
    <text x="3026" y="938.04" font-family="sans-serif" font-size="10" fill="#cccccc">via3 (70,44)</text>
    <rect x="3210" y="928.04" width="12" height="12" fill="#DA70D6" opacity="0.8" stroke="#fff" stroke-width="0.5"/>
    <text x="3226" y="938.04" font-family="sans-serif" font-size="10" fill="#cccccc">met4_draw (71,20)</text>
    <rect x="3410" y="928.04" width="12" height="12" fill="#FF6347" opacity="0.8" stroke="#fff" stroke-width="0.5"/>
    <text x="3426" y="938.04" font-family="sans-serif" font-size="10" fill="#cccccc">met4_pin (71,16)</text>
  </g>
</svg>
