<svg xmlns="http://www.w3.org/2000/svg" width="483" height="677" viewBox="0 0 483 677">
<rect width="483" height="677" fill="#1a1a2e"/>
<!-- prbndry -->
<rect x="0.00" y="0.00" width="483.00" height="677.28" fill="none" fill-opacity="0.60" stroke="#888888" stroke-opacity="1.00" stroke-width="0.50"/>
<!-- nwell -->
<rect x="231.00" y="577.83" width="2.52" height="4.82" fill="#c0e0ff" fill-opacity="0.30" stroke="#3080c0" stroke-opacity="0.50" stroke-width="0.50"/>
<!-- nwell -->
<rect x="233.52" y="577.83" width="10.80" height="4.82" fill="#c0e0ff" fill-opacity="0.30" stroke="#3080c0" stroke-opacity="0.50" stroke-width="0.50"/>
<!-- nwell -->
<rect x="244.32" y="577.83" width="2.52" height="4.82" fill="#c0e0ff" fill-opacity="0.30" stroke="#3080c0" stroke-opacity="0.50" stroke-width="0.50"/>
<!-- diff -->
<rect x="234.50" y="579.11" width="8.85" height="3.00" fill="#90ee90" fill-opacity="0.50" stroke="#006600" stroke-opacity="0.70" stroke-width="0.50"/>
<!-- diff -->
<rect x="234.65" y="583.90" width="8.70" height="1.95" fill="#90ee90" fill-opacity="0.50" stroke="#006600" stroke-opacity="0.70" stroke-width="0.50"/>
<!-- poly -->
<rect x="234.26" y="568.98" width="1.05" height="5.70" fill="#ff6060" fill-opacity="0.60" stroke="#cc0000" stroke-opacity="0.80" stroke-width="0.50"/>
<!-- poly -->
<rect x="234.41" y="578.71" width="8.13" height="7.53" fill="#ff6060" fill-opacity="0.60" stroke="#cc0000" stroke-opacity="0.80" stroke-width="0.50"/>
<!-- nsdm -->
<rect x="231.57" y="585.99" width="1.38" height="1.14" fill="#00cc00" fill-opacity="0.30" stroke="#004400" stroke-opacity="0.60" stroke-width="0.50"/>
<!-- nsdm -->
<rect x="231.57" y="578.97" width="1.38" height="3.41" fill="#00cc00" fill-opacity="0.30" stroke="#004400" stroke-opacity="0.60" stroke-width="0.50"/>
<!-- nsdm -->
<rect x="234.09" y="583.51" width="9.66" height="3.62" fill="#00cc00" fill-opacity="0.30" stroke="#004400" stroke-opacity="0.60" stroke-width="0.50"/>
<!-- nsdm -->
<rect x="244.89" y="585.99" width="1.38" height="1.14" fill="#00cc00" fill-opacity="0.30" stroke="#004400" stroke-opacity="0.60" stroke-width="0.50"/>
<!-- nsdm -->
<rect x="244.89" y="578.97" width="1.38" height="3.41" fill="#00cc00" fill-opacity="0.30" stroke="#004400" stroke-opacity="0.60" stroke-width="0.50"/>
<!-- psdm -->
<rect x="231.57" y="583.63" width="1.38" height="2.36" fill="#cc8800" fill-opacity="0.30" stroke="#664400" stroke-opacity="0.60" stroke-width="0.50"/>
<!-- psdm -->
<rect x="231.57" y="577.83" width="1.38" height="1.14" fill="#cc8800" fill-opacity="0.30" stroke="#664400" stroke-opacity="0.60" stroke-width="0.50"/>
<!-- psdm -->
<rect x="234.09" y="577.83" width="9.66" height="4.67" fill="#cc8800" fill-opacity="0.30" stroke="#664400" stroke-opacity="0.60" stroke-width="0.50"/>
<!-- psdm -->
<rect x="244.89" y="583.63" width="1.38" height="2.36" fill="#cc8800" fill-opacity="0.30" stroke="#664400" stroke-opacity="0.60" stroke-width="0.50"/>
<!-- psdm -->
<rect x="244.89" y="577.83" width="1.38" height="1.14" fill="#cc8800" fill-opacity="0.30" stroke="#664400" stroke-opacity="0.60" stroke-width="0.50"/>
<!-- licon -->
<rect x="234.52" y="573.90" width="0.51" height="0.51" fill="#b060b0" fill-opacity="0.80" stroke="#600060" stroke-opacity="0.90" stroke-width="0.50"/>
<!-- licon -->
<rect x="234.52" y="569.25" width="0.51" height="0.51" fill="#b060b0" fill-opacity="0.80" stroke="#600060" stroke-opacity="0.90" stroke-width="0.50"/>
<!-- licon -->
<rect x="232.00" y="584.38" width="0.51" height="0.51" fill="#b060b0" fill-opacity="0.80" stroke="#600060" stroke-opacity="0.90" stroke-width="0.50"/>
<!-- licon -->
<rect x="232.00" y="581.12" width="0.51" height="0.51" fill="#b060b0" fill-opacity="0.80" stroke="#600060" stroke-opacity="0.90" stroke-width="0.50"/>
<!-- licon -->
<rect x="232.00" y="579.72" width="0.51" height="0.51" fill="#b060b0" fill-opacity="0.80" stroke="#600060" stroke-opacity="0.90" stroke-width="0.50"/>
<!-- licon -->
<rect x="241.42" y="579.28" width="0.51" height="0.51" fill="#b060b0" fill-opacity="0.80" stroke="#600060" stroke-opacity="0.90" stroke-width="0.50"/>
<!-- licon -->
<rect x="234.62" y="579.28" width="0.51" height="0.51" fill="#b060b0" fill-opacity="0.80" stroke="#600060" stroke-opacity="0.90" stroke-width="0.50"/>
<!-- licon -->
<rect x="234.62" y="580.31" width="0.51" height="0.51" fill="#b060b0" fill-opacity="0.80" stroke="#600060" stroke-opacity="0.90" stroke-width="0.50"/>
<!-- licon -->
<rect x="234.62" y="581.32" width="0.51" height="0.51" fill="#b060b0" fill-opacity="0.80" stroke="#600060" stroke-opacity="0.90" stroke-width="0.50"/>
<!-- licon -->
<rect x="234.65" y="582.82" width="0.51" height="0.51" fill="#b060b0" fill-opacity="0.80" stroke="#600060" stroke-opacity="0.90" stroke-width="0.50"/>
<!-- licon -->
<rect x="234.76" y="585.16" width="0.51" height="0.51" fill="#b060b0" fill-opacity="0.80" stroke="#600060" stroke-opacity="0.90" stroke-width="0.50"/>
<!-- licon -->
<rect x="236.38" y="580.31" width="0.51" height="0.51" fill="#b060b0" fill-opacity="0.80" stroke="#600060" stroke-opacity="0.90" stroke-width="0.50"/>
<!-- licon -->
<rect x="240.17" y="579.28" width="0.51" height="0.51" fill="#b060b0" fill-opacity="0.80" stroke="#600060" stroke-opacity="0.90" stroke-width="0.50"/>
<!-- licon -->
<rect x="236.38" y="579.28" width="0.51" height="0.51" fill="#b060b0" fill-opacity="0.80" stroke="#600060" stroke-opacity="0.90" stroke-width="0.50"/>
<!-- licon -->
<rect x="239.92" y="582.82" width="0.51" height="0.51" fill="#b060b0" fill-opacity="0.80" stroke="#600060" stroke-opacity="0.90" stroke-width="0.50"/>
<!-- licon -->
<rect x="238.91" y="585.04" width="0.51" height="0.51" fill="#b060b0" fill-opacity="0.80" stroke="#600060" stroke-opacity="0.90" stroke-width="0.50"/>
<!-- licon -->
<rect x="240.17" y="580.31" width="0.51" height="0.51" fill="#b060b0" fill-opacity="0.80" stroke="#600060" stroke-opacity="0.90" stroke-width="0.50"/>
<!-- licon -->
<rect x="238.91" y="581.32" width="0.51" height="0.51" fill="#b060b0" fill-opacity="0.80" stroke="#600060" stroke-opacity="0.90" stroke-width="0.50"/>
<!-- licon -->
<rect x="238.91" y="580.31" width="0.51" height="0.51" fill="#b060b0" fill-opacity="0.80" stroke="#600060" stroke-opacity="0.90" stroke-width="0.50"/>
<!-- licon -->
<rect x="238.91" y="579.28" width="0.51" height="0.51" fill="#b060b0" fill-opacity="0.80" stroke="#600060" stroke-opacity="0.90" stroke-width="0.50"/>
<!-- licon -->
<rect x="238.67" y="582.82" width="0.51" height="0.51" fill="#b060b0" fill-opacity="0.80" stroke="#600060" stroke-opacity="0.90" stroke-width="0.50"/>
<!-- licon -->
<rect x="240.17" y="585.16" width="0.51" height="0.51" fill="#b060b0" fill-opacity="0.80" stroke="#600060" stroke-opacity="0.90" stroke-width="0.50"/>
<!-- licon -->
<rect x="237.65" y="585.16" width="0.51" height="0.51" fill="#b060b0" fill-opacity="0.80" stroke="#600060" stroke-opacity="0.90" stroke-width="0.50"/>
<!-- licon -->
<rect x="237.65" y="580.31" width="0.51" height="0.51" fill="#b060b0" fill-opacity="0.80" stroke="#600060" stroke-opacity="0.90" stroke-width="0.50"/>
<!-- licon -->
<rect x="237.65" y="579.28" width="0.51" height="0.51" fill="#b060b0" fill-opacity="0.80" stroke="#600060" stroke-opacity="0.90" stroke-width="0.50"/>
<!-- licon -->
<rect x="241.19" y="582.82" width="0.51" height="0.51" fill="#b060b0" fill-opacity="0.80" stroke="#600060" stroke-opacity="0.90" stroke-width="0.50"/>
<!-- licon -->
<rect x="236.38" y="585.04" width="0.51" height="0.51" fill="#b060b0" fill-opacity="0.80" stroke="#600060" stroke-opacity="0.90" stroke-width="0.50"/>
<!-- licon -->
<rect x="236.38" y="581.32" width="0.51" height="0.51" fill="#b060b0" fill-opacity="0.80" stroke="#600060" stroke-opacity="0.90" stroke-width="0.50"/>
<!-- licon -->
<rect x="241.42" y="580.31" width="0.51" height="0.51" fill="#b060b0" fill-opacity="0.80" stroke="#600060" stroke-opacity="0.90" stroke-width="0.50"/>
<!-- licon -->
<rect x="241.42" y="581.32" width="0.51" height="0.51" fill="#b060b0" fill-opacity="0.80" stroke="#600060" stroke-opacity="0.90" stroke-width="0.50"/>
<!-- licon -->
<rect x="241.42" y="585.04" width="0.51" height="0.51" fill="#b060b0" fill-opacity="0.80" stroke="#600060" stroke-opacity="0.90" stroke-width="0.50"/>
<!-- licon -->
<rect x="242.69" y="585.15" width="0.51" height="0.51" fill="#b060b0" fill-opacity="0.80" stroke="#600060" stroke-opacity="0.90" stroke-width="0.50"/>
<!-- licon -->
<rect x="242.69" y="579.28" width="0.51" height="0.51" fill="#b060b0" fill-opacity="0.80" stroke="#600060" stroke-opacity="0.90" stroke-width="0.50"/>
<!-- licon -->
<rect x="245.32" y="584.38" width="0.51" height="0.51" fill="#b060b0" fill-opacity="0.80" stroke="#600060" stroke-opacity="0.90" stroke-width="0.50"/>
<!-- licon -->
<rect x="245.32" y="581.12" width="0.51" height="0.51" fill="#b060b0" fill-opacity="0.80" stroke="#600060" stroke-opacity="0.90" stroke-width="0.50"/>
<!-- licon -->
<rect x="245.32" y="579.72" width="0.51" height="0.51" fill="#b060b0" fill-opacity="0.80" stroke="#600060" stroke-opacity="0.90" stroke-width="0.50"/>
<!-- li1 -->
<rect x="234.26" y="573.63" width="1.05" height="1.05" fill="#ffa0a0" fill-opacity="0.50" stroke="#cc4444" stroke-opacity="0.70" stroke-width="0.50"/>
<!-- li1 -->
<rect x="234.26" y="568.98" width="1.05" height="1.05" fill="#ffa0a0" fill-opacity="0.50" stroke="#cc4444" stroke-opacity="0.70" stroke-width="0.50"/>
<!-- li1 -->
<rect x="234.52" y="573.90" width="0.51" height="9.09" fill="#ffa0a0" fill-opacity="0.50" stroke="#cc4444" stroke-opacity="0.70" stroke-width="0.50"/>
<!-- li1 -->
<rect x="234.26" y="568.98" width="1.05" height="1.05" fill="#ffa0a0" fill-opacity="0.50" stroke="#cc4444" stroke-opacity="0.70" stroke-width="0.50"/>
<!-- li1 -->
<rect x="231.82" y="584.13" width="0.87" height="2.43" fill="#ffa0a0" fill-opacity="0.50" stroke="#cc4444" stroke-opacity="0.70" stroke-width="0.50"/>
<!-- li1 -->
<rect x="231.82" y="578.40" width="0.87" height="3.75" fill="#ffa0a0" fill-opacity="0.50" stroke="#cc4444" stroke-opacity="0.70" stroke-width="0.50"/>
<!-- li1 -->
<rect x="231.57" y="578.14" width="1.38" height="0.51" fill="#ffa0a0" fill-opacity="0.50" stroke="#cc4444" stroke-opacity="0.70" stroke-width="0.50"/>
<!-- li1 -->
<rect x="231.57" y="586.31" width="1.38" height="0.51" fill="#ffa0a0" fill-opacity="0.50" stroke="#cc4444" stroke-opacity="0.70" stroke-width="0.50"/>
<!-- li1 -->
<rect x="234.41" y="582.59" width="7.53" height="0.75" fill="#ffa0a0" fill-opacity="0.50" stroke="#cc4444" stroke-opacity="0.70" stroke-width="0.50"/>
<!-- li1 -->
<rect x="236.15" y="579.16" width="7.35" height="6.63" fill="#ffa0a0" fill-opacity="0.50" stroke="#cc4444" stroke-opacity="0.70" stroke-width="0.50"/>
<!-- li1 -->
<rect x="234.09" y="578.14" width="9.66" height="3.93" fill="#ffa0a0" fill-opacity="0.50" stroke="#cc4444" stroke-opacity="0.70" stroke-width="0.50"/>
<!-- li1 -->
<rect x="234.09" y="584.91" width="9.66" height="1.91" fill="#ffa0a0" fill-opacity="0.50" stroke="#cc4444" stroke-opacity="0.70" stroke-width="0.50"/>
<!-- li1 -->
<rect x="245.14" y="584.13" width="0.87" height="2.43" fill="#ffa0a0" fill-opacity="0.50" stroke="#cc4444" stroke-opacity="0.70" stroke-width="0.50"/>
<!-- li1 -->
<rect x="245.14" y="578.40" width="0.87" height="3.75" fill="#ffa0a0" fill-opacity="0.50" stroke="#cc4444" stroke-opacity="0.70" stroke-width="0.50"/>
<!-- li1 -->
<rect x="244.89" y="578.14" width="1.38" height="0.51" fill="#ffa0a0" fill-opacity="0.50" stroke="#cc4444" stroke-opacity="0.70" stroke-width="0.50"/>
<!-- li1 -->
<rect x="244.89" y="586.31" width="1.38" height="0.51" fill="#ffa0a0" fill-opacity="0.50" stroke="#cc4444" stroke-opacity="0.70" stroke-width="0.50"/>
<!-- mcon -->
<rect x="234.52" y="569.25" width="0.51" height="0.51" fill="#808040" fill-opacity="0.80" stroke="#404000" stroke-opacity="0.90" stroke-width="0.50"/>
<!-- mcon -->
<rect x="232.00" y="586.31" width="0.51" height="0.51" fill="#808040" fill-opacity="0.80" stroke="#404000" stroke-opacity="0.90" stroke-width="0.50"/>
<!-- mcon -->
<rect x="232.00" y="578.14" width="0.51" height="0.51" fill="#808040" fill-opacity="0.80" stroke="#404000" stroke-opacity="0.90" stroke-width="0.50"/>
<!-- mcon -->
<rect x="234.52" y="578.14" width="0.51" height="0.51" fill="#808040" fill-opacity="0.80" stroke="#404000" stroke-opacity="0.90" stroke-width="0.50"/>
<!-- mcon -->
<rect x="234.52" y="586.31" width="0.51" height="0.51" fill="#808040" fill-opacity="0.80" stroke="#404000" stroke-opacity="0.90" stroke-width="0.50"/>
<!-- mcon -->
<rect x="235.91" y="578.14" width="0.51" height="0.51" fill="#808040" fill-opacity="0.80" stroke="#404000" stroke-opacity="0.90" stroke-width="0.50"/>
<!-- mcon -->
<rect x="235.91" y="586.31" width="0.51" height="0.51" fill="#808040" fill-opacity="0.80" stroke="#404000" stroke-opacity="0.90" stroke-width="0.50"/>
<!-- mcon -->
<rect x="237.28" y="578.14" width="0.51" height="0.51" fill="#808040" fill-opacity="0.80" stroke="#404000" stroke-opacity="0.90" stroke-width="0.50"/>
<!-- mcon -->
<rect x="237.28" y="586.31" width="0.51" height="0.51" fill="#808040" fill-opacity="0.80" stroke="#404000" stroke-opacity="0.90" stroke-width="0.50"/>
<!-- mcon -->
<rect x="238.67" y="578.14" width="0.51" height="0.51" fill="#808040" fill-opacity="0.80" stroke="#404000" stroke-opacity="0.90" stroke-width="0.50"/>
<!-- mcon -->
<rect x="238.67" y="586.31" width="0.51" height="0.51" fill="#808040" fill-opacity="0.80" stroke="#404000" stroke-opacity="0.90" stroke-width="0.50"/>
<!-- mcon -->
<rect x="240.05" y="578.14" width="0.51" height="0.51" fill="#808040" fill-opacity="0.80" stroke="#404000" stroke-opacity="0.90" stroke-width="0.50"/>
<!-- mcon -->
<rect x="240.05" y="586.31" width="0.51" height="0.51" fill="#808040" fill-opacity="0.80" stroke="#404000" stroke-opacity="0.90" stroke-width="0.50"/>
<!-- mcon -->
<rect x="241.42" y="586.31" width="0.51" height="0.51" fill="#808040" fill-opacity="0.80" stroke="#404000" stroke-opacity="0.90" stroke-width="0.50"/>
<!-- mcon -->
<rect x="241.42" y="578.14" width="0.51" height="0.51" fill="#808040" fill-opacity="0.80" stroke="#404000" stroke-opacity="0.90" stroke-width="0.50"/>
<!-- mcon -->
<rect x="242.81" y="586.31" width="0.51" height="0.51" fill="#808040" fill-opacity="0.80" stroke="#404000" stroke-opacity="0.90" stroke-width="0.50"/>
<!-- mcon -->
<rect x="242.81" y="578.14" width="0.51" height="0.51" fill="#808040" fill-opacity="0.80" stroke="#404000" stroke-opacity="0.90" stroke-width="0.50"/>
<!-- mcon -->
<rect x="245.32" y="586.31" width="0.51" height="0.51" fill="#808040" fill-opacity="0.80" stroke="#404000" stroke-opacity="0.90" stroke-width="0.50"/>
<!-- mcon -->
<rect x="245.32" y="578.14" width="0.51" height="0.51" fill="#808040" fill-opacity="0.80" stroke="#404000" stroke-opacity="0.90" stroke-width="0.50"/>
<!-- met1 -->
<rect x="5.28" y="577.68" width="241.86" height="1.44" fill="#6060ff" fill-opacity="0.50" stroke="#0000cc" stroke-opacity="0.70" stroke-width="0.50"/>
<!-- met1 -->
<rect x="15.78" y="585.84" width="231.36" height="1.44" fill="#6060ff" fill-opacity="0.50" stroke="#0000cc" stroke-opacity="0.70" stroke-width="0.50"/>
<!-- met1 -->
<rect x="242.52" y="566.58" width="0.84" height="16.41" fill="#6060ff" fill-opacity="0.50" stroke="#0000cc" stroke-opacity="0.70" stroke-width="0.50"/>
<!-- met1 -->
<rect x="234.26" y="568.98" width="1.05" height="1.05" fill="#6060ff" fill-opacity="0.50" stroke="#0000cc" stroke-opacity="0.70" stroke-width="0.50"/>
<!-- met1 -->
<rect x="234.36" y="566.16" width="9.00" height="0.84" fill="#6060ff" fill-opacity="0.50" stroke="#0000cc" stroke-opacity="0.70" stroke-width="0.50"/>
<!-- met1 -->
<rect x="5.47" y="577.88" width="1.05" height="1.05" fill="#6060ff" fill-opacity="0.50" stroke="#0000cc" stroke-opacity="0.70" stroke-width="0.50"/>
<!-- met1 -->
<rect x="15.98" y="586.03" width="1.05" height="1.05" fill="#6060ff" fill-opacity="0.50" stroke="#0000cc" stroke-opacity="0.70" stroke-width="0.50"/>
<!-- met1 -->
<rect x="234.26" y="582.47" width="1.05" height="1.05" fill="#6060ff" fill-opacity="0.50" stroke="#0000cc" stroke-opacity="0.70" stroke-width="0.50"/>
<!-- met1 -->
<rect x="242.42" y="566.06" width="1.05" height="1.05" fill="#6060ff" fill-opacity="0.50" stroke="#0000cc" stroke-opacity="0.70" stroke-width="0.50"/>
<!-- met1 -->
<rect x="231.57" y="585.84" width="1.38" height="1.44" fill="#6060ff" fill-opacity="0.50" stroke="#0000cc" stroke-opacity="0.70" stroke-width="0.50"/>
<!-- met1 -->
<rect x="231.57" y="577.68" width="1.38" height="1.44" fill="#6060ff" fill-opacity="0.50" stroke="#0000cc" stroke-opacity="0.70" stroke-width="0.50"/>
<!-- met1 -->
<rect x="234.09" y="577.68" width="9.66" height="1.44" fill="#6060ff" fill-opacity="0.50" stroke="#0000cc" stroke-opacity="0.70" stroke-width="0.50"/>
<!-- met1 -->
<rect x="234.09" y="585.84" width="9.66" height="1.44" fill="#6060ff" fill-opacity="0.50" stroke="#0000cc" stroke-opacity="0.70" stroke-width="0.50"/>
<!-- met1 -->
<rect x="234.09" y="577.68" width="9.66" height="1.44" fill="#6060ff" fill-opacity="0.50" stroke="#0000cc" stroke-opacity="0.70" stroke-width="0.50"/>
<!-- met1 -->
<rect x="234.09" y="585.84" width="9.66" height="1.44" fill="#6060ff" fill-opacity="0.50" stroke="#0000cc" stroke-opacity="0.70" stroke-width="0.50"/>
<!-- met1 -->
<rect x="244.89" y="585.84" width="1.38" height="1.44" fill="#6060ff" fill-opacity="0.50" stroke="#0000cc" stroke-opacity="0.70" stroke-width="0.50"/>
<!-- met1 -->
<rect x="244.89" y="577.68" width="1.38" height="1.44" fill="#6060ff" fill-opacity="0.50" stroke="#0000cc" stroke-opacity="0.70" stroke-width="0.50"/>
<!-- via -->
<rect x="5.78" y="578.17" width="0.45" height="0.45" fill="#303080" fill-opacity="0.80" stroke="#000040" stroke-opacity="0.90" stroke-width="0.50"/>
<!-- via -->
<rect x="16.27" y="586.34" width="0.45" height="0.45" fill="#303080" fill-opacity="0.80" stroke="#000040" stroke-opacity="0.90" stroke-width="0.50"/>
<!-- via -->
<rect x="234.56" y="582.76" width="0.45" height="0.45" fill="#303080" fill-opacity="0.80" stroke="#000040" stroke-opacity="0.90" stroke-width="0.50"/>
<!-- via -->
<rect x="242.72" y="566.36" width="0.45" height="0.45" fill="#303080" fill-opacity="0.80" stroke="#000040" stroke-opacity="0.90" stroke-width="0.50"/>
<!-- met2 -->
<rect x="5.37" y="577.77" width="1.26" height="1.26" fill="#a0c0ff" fill-opacity="0.50" stroke="#2040aa" stroke-opacity="0.70" stroke-width="0.50"/>
<!-- met2 -->
<rect x="15.87" y="585.93" width="1.26" height="1.26" fill="#a0c0ff" fill-opacity="0.50" stroke="#2040aa" stroke-opacity="0.70" stroke-width="0.50"/>
<!-- met2 -->
<rect x="234.15" y="582.36" width="1.26" height="1.26" fill="#a0c0ff" fill-opacity="0.50" stroke="#2040aa" stroke-opacity="0.70" stroke-width="0.50"/>
<!-- met2 -->
<rect x="242.31" y="565.95" width="1.26" height="1.26" fill="#a0c0ff" fill-opacity="0.50" stroke="#2040aa" stroke-opacity="0.70" stroke-width="0.50"/>
<!-- via2 -->
<rect x="5.70" y="578.10" width="0.60" height="0.60" fill="#305090" fill-opacity="0.80" stroke="#001050" stroke-opacity="0.90" stroke-width="0.50"/>
<!-- via2 -->
<rect x="16.20" y="586.26" width="0.60" height="0.60" fill="#305090" fill-opacity="0.80" stroke="#001050" stroke-opacity="0.90" stroke-width="0.50"/>
<!-- via2 -->
<rect x="234.48" y="582.69" width="0.60" height="0.60" fill="#305090" fill-opacity="0.80" stroke="#001050" stroke-opacity="0.90" stroke-width="0.50"/>
<!-- via2 -->
<rect x="242.64" y="566.28" width="0.60" height="0.60" fill="#305090" fill-opacity="0.80" stroke="#001050" stroke-opacity="0.90" stroke-width="0.50"/>
<!-- met3 -->
<rect x="5.10" y="577.50" width="1.80" height="1.80" fill="#ffd700" fill-opacity="0.50" stroke="#886600" stroke-opacity="0.70" stroke-width="0.50"/>
<!-- met3 -->
<rect x="15.60" y="585.66" width="1.80" height="1.80" fill="#ffd700" fill-opacity="0.50" stroke="#886600" stroke-opacity="0.70" stroke-width="0.50"/>
<!-- met3 -->
<rect x="233.88" y="582.09" width="1.80" height="1.80" fill="#ffd700" fill-opacity="0.50" stroke="#886600" stroke-opacity="0.70" stroke-width="0.50"/>
<!-- met3 -->
<rect x="242.04" y="565.68" width="1.80" height="1.80" fill="#ffd700" fill-opacity="0.50" stroke="#886600" stroke-opacity="0.70" stroke-width="0.50"/>
<!-- met3 -->
<rect x="233.88" y="616.38" width="1.80" height="1.80" fill="#ffd700" fill-opacity="0.50" stroke="#886600" stroke-opacity="0.70" stroke-width="0.50"/>
<!-- met3 -->
<rect x="242.04" y="610.38" width="1.80" height="1.80" fill="#ffd700" fill-opacity="0.50" stroke="#886600" stroke-opacity="0.70" stroke-width="0.50"/>
<!-- via3 -->
<rect x="5.70" y="578.10" width="0.60" height="0.60" fill="#a08000" fill-opacity="0.80" stroke="#504000" stroke-opacity="0.90" stroke-width="0.50"/>
<!-- via3 -->
<rect x="16.20" y="586.26" width="0.60" height="0.60" fill="#a08000" fill-opacity="0.80" stroke="#504000" stroke-opacity="0.90" stroke-width="0.50"/>
<!-- via3 -->
<rect x="234.48" y="582.69" width="0.60" height="0.60" fill="#a08000" fill-opacity="0.80" stroke="#504000" stroke-opacity="0.90" stroke-width="0.50"/>
<!-- via3 -->
<rect x="242.64" y="566.28" width="0.60" height="0.60" fill="#a08000" fill-opacity="0.80" stroke="#504000" stroke-opacity="0.90" stroke-width="0.50"/>
<!-- via3 -->
<rect x="234.48" y="616.98" width="0.60" height="0.60" fill="#a08000" fill-opacity="0.80" stroke="#504000" stroke-opacity="0.90" stroke-width="0.50"/>
<!-- via3 -->
<rect x="242.64" y="610.98" width="0.60" height="0.60" fill="#a08000" fill-opacity="0.80" stroke="#504000" stroke-opacity="0.90" stroke-width="0.50"/>
<!-- met4 -->
<rect x="5.10" y="577.50" width="1.80" height="1.80" fill="#ff8c00" fill-opacity="0.50" stroke="#884400" stroke-opacity="0.70" stroke-width="0.50"/>
<!-- met4 -->
<rect x="15.60" y="585.66" width="1.80" height="1.80" fill="#ff8c00" fill-opacity="0.50" stroke="#884400" stroke-opacity="0.70" stroke-width="0.50"/>
<!-- met4 -->
<rect x="3.00" y="15.00" width="6.00" height="647.28" fill="#ff8c00" fill-opacity="0.50" stroke="#884400" stroke-opacity="0.70" stroke-width="0.50"/>
<!-- met4 -->
<rect x="13.50" y="15.00" width="6.00" height="647.28" fill="#ff8c00" fill-opacity="0.50" stroke="#884400" stroke-opacity="0.70" stroke-width="0.50"/>
<!-- met4 -->
<rect x="233.88" y="582.09" width="1.80" height="1.80" fill="#ff8c00" fill-opacity="0.50" stroke="#884400" stroke-opacity="0.70" stroke-width="0.50"/>
<!-- met4 -->
<rect x="242.04" y="565.68" width="1.80" height="1.80" fill="#ff8c00" fill-opacity="0.50" stroke="#884400" stroke-opacity="0.70" stroke-width="0.50"/>
<!-- met4 -->
<rect x="233.43" y="615.93" width="224.70" height="2.70" fill="#ff8c00" fill-opacity="0.50" stroke="#884400" stroke-opacity="0.70" stroke-width="0.50"/>
<!-- met4 -->
<rect x="233.88" y="616.38" width="1.80" height="1.80" fill="#ff8c00" fill-opacity="0.50" stroke="#884400" stroke-opacity="0.70" stroke-width="0.50"/>
<!-- met4 -->
<rect x="455.43" y="615.93" width="2.70" height="61.35" fill="#ff8c00" fill-opacity="0.50" stroke="#884400" stroke-opacity="0.70" stroke-width="0.50"/>
<!-- met4 -->
<rect x="241.59" y="609.93" width="158.58" height="2.70" fill="#ff8c00" fill-opacity="0.50" stroke="#884400" stroke-opacity="0.70" stroke-width="0.50"/>
<!-- met4 -->
<rect x="242.04" y="610.38" width="1.80" height="1.80" fill="#ff8c00" fill-opacity="0.50" stroke="#884400" stroke-opacity="0.70" stroke-width="0.50"/>
<!-- met4 -->
<rect x="397.47" y="609.93" width="2.70" height="67.35" fill="#ff8c00" fill-opacity="0.50" stroke="#884400" stroke-opacity="0.70" stroke-width="0.50"/>
<!-- met4 -->
<rect x="455.43" y="674.28" width="2.70" height="3.00" fill="#ff8c00" fill-opacity="0.50" stroke="#884400" stroke-opacity="0.70" stroke-width="0.50"/>
<!-- met4 -->
<rect x="397.47" y="674.28" width="2.70" height="3.00" fill="#ff8c00" fill-opacity="0.50" stroke="#884400" stroke-opacity="0.70" stroke-width="0.50"/>
<!-- met4 -->
<rect x="339.51" y="674.28" width="2.70" height="3.00" fill="#ff8c00" fill-opacity="0.50" stroke="#884400" stroke-opacity="0.70" stroke-width="0.50"/>
<!-- met4 -->
<rect x="281.55" y="674.28" width="2.70" height="3.00" fill="#ff8c00" fill-opacity="0.50" stroke="#884400" stroke-opacity="0.70" stroke-width="0.50"/>
<!-- met4 -->
<rect x="223.59" y="674.28" width="2.70" height="3.00" fill="#ff8c00" fill-opacity="0.50" stroke="#884400" stroke-opacity="0.70" stroke-width="0.50"/>
<!-- met4 -->
<rect x="165.63" y="674.28" width="2.70" height="3.00" fill="#ff8c00" fill-opacity="0.50" stroke="#884400" stroke-opacity="0.70" stroke-width="0.50"/>
<!-- met4 -->
<rect x="107.67" y="674.28" width="2.70" height="3.00" fill="#ff8c00" fill-opacity="0.50" stroke="#884400" stroke-opacity="0.70" stroke-width="0.50"/>
<!-- met4 -->
<rect x="49.71" y="674.28" width="2.70" height="3.00" fill="#ff8c00" fill-opacity="0.50" stroke="#884400" stroke-opacity="0.70" stroke-width="0.50"/>
<!-- met4 -->
<rect x="431.49" y="0.00" width="0.90" height="3.00" fill="#ff8c00" fill-opacity="0.50" stroke="#884400" stroke-opacity="0.70" stroke-width="0.50"/>
<!-- met4 -->
<rect x="439.77" y="0.00" width="0.90" height="3.00" fill="#ff8c00" fill-opacity="0.50" stroke="#884400" stroke-opacity="0.70" stroke-width="0.50"/>
<!-- met4 -->
<rect x="423.21" y="0.00" width="0.90" height="3.00" fill="#ff8c00" fill-opacity="0.50" stroke="#884400" stroke-opacity="0.70" stroke-width="0.50"/>
<!-- met4 -->
<rect x="414.93" y="0.00" width="0.90" height="3.00" fill="#ff8c00" fill-opacity="0.50" stroke="#884400" stroke-opacity="0.70" stroke-width="0.50"/>
<!-- met4 -->
<rect x="282.45" y="0.00" width="0.90" height="3.00" fill="#ff8c00" fill-opacity="0.50" stroke="#884400" stroke-opacity="0.70" stroke-width="0.50"/>
<!-- met4 -->
<rect x="348.69" y="0.00" width="0.90" height="3.00" fill="#ff8c00" fill-opacity="0.50" stroke="#884400" stroke-opacity="0.70" stroke-width="0.50"/>
<!-- met4 -->
<rect x="216.21" y="0.00" width="0.90" height="3.00" fill="#ff8c00" fill-opacity="0.50" stroke="#884400" stroke-opacity="0.70" stroke-width="0.50"/>
<!-- met4 -->
<rect x="149.97" y="0.00" width="0.90" height="3.00" fill="#ff8c00" fill-opacity="0.50" stroke="#884400" stroke-opacity="0.70" stroke-width="0.50"/>
<!-- met4 -->
<rect x="406.65" y="0.00" width="0.90" height="3.00" fill="#ff8c00" fill-opacity="0.50" stroke="#884400" stroke-opacity="0.70" stroke-width="0.50"/>
<!-- met4 -->
<rect x="274.17" y="0.00" width="0.90" height="3.00" fill="#ff8c00" fill-opacity="0.50" stroke="#884400" stroke-opacity="0.70" stroke-width="0.50"/>
<!-- met4 -->
<rect x="340.41" y="0.00" width="0.90" height="3.00" fill="#ff8c00" fill-opacity="0.50" stroke="#884400" stroke-opacity="0.70" stroke-width="0.50"/>
<!-- met4 -->
<rect x="207.93" y="0.00" width="0.90" height="3.00" fill="#ff8c00" fill-opacity="0.50" stroke="#884400" stroke-opacity="0.70" stroke-width="0.50"/>
<!-- met4 -->
<rect x="141.69" y="0.00" width="0.90" height="3.00" fill="#ff8c00" fill-opacity="0.50" stroke="#884400" stroke-opacity="0.70" stroke-width="0.50"/>
<!-- met4 -->
<rect x="398.37" y="0.00" width="0.90" height="3.00" fill="#ff8c00" fill-opacity="0.50" stroke="#884400" stroke-opacity="0.70" stroke-width="0.50"/>
<!-- met4 -->
<rect x="265.89" y="0.00" width="0.90" height="3.00" fill="#ff8c00" fill-opacity="0.50" stroke="#884400" stroke-opacity="0.70" stroke-width="0.50"/>
<!-- met4 -->
<rect x="332.13" y="0.00" width="0.90" height="3.00" fill="#ff8c00" fill-opacity="0.50" stroke="#884400" stroke-opacity="0.70" stroke-width="0.50"/>
<!-- met4 -->
<rect x="199.65" y="0.00" width="0.90" height="3.00" fill="#ff8c00" fill-opacity="0.50" stroke="#884400" stroke-opacity="0.70" stroke-width="0.50"/>
<!-- met4 -->
<rect x="133.41" y="0.00" width="0.90" height="3.00" fill="#ff8c00" fill-opacity="0.50" stroke="#884400" stroke-opacity="0.70" stroke-width="0.50"/>
<!-- met4 -->
<rect x="390.09" y="0.00" width="0.90" height="3.00" fill="#ff8c00" fill-opacity="0.50" stroke="#884400" stroke-opacity="0.70" stroke-width="0.50"/>
<!-- met4 -->
<rect x="257.61" y="0.00" width="0.90" height="3.00" fill="#ff8c00" fill-opacity="0.50" stroke="#884400" stroke-opacity="0.70" stroke-width="0.50"/>
<!-- met4 -->
<rect x="323.85" y="0.00" width="0.90" height="3.00" fill="#ff8c00" fill-opacity="0.50" stroke="#884400" stroke-opacity="0.70" stroke-width="0.50"/>
<!-- met4 -->
<rect x="191.37" y="0.00" width="0.90" height="3.00" fill="#ff8c00" fill-opacity="0.50" stroke="#884400" stroke-opacity="0.70" stroke-width="0.50"/>
<!-- met4 -->
<rect x="125.13" y="0.00" width="0.90" height="3.00" fill="#ff8c00" fill-opacity="0.50" stroke="#884400" stroke-opacity="0.70" stroke-width="0.50"/>
<!-- met4 -->
<rect x="381.81" y="0.00" width="0.90" height="3.00" fill="#ff8c00" fill-opacity="0.50" stroke="#884400" stroke-opacity="0.70" stroke-width="0.50"/>
<!-- met4 -->
<rect x="249.33" y="0.00" width="0.90" height="3.00" fill="#ff8c00" fill-opacity="0.50" stroke="#884400" stroke-opacity="0.70" stroke-width="0.50"/>
<!-- met4 -->
<rect x="315.57" y="0.00" width="0.90" height="3.00" fill="#ff8c00" fill-opacity="0.50" stroke="#884400" stroke-opacity="0.70" stroke-width="0.50"/>
<!-- met4 -->
<rect x="183.09" y="0.00" width="0.90" height="3.00" fill="#ff8c00" fill-opacity="0.50" stroke="#884400" stroke-opacity="0.70" stroke-width="0.50"/>
<!-- met4 -->
<rect x="116.85" y="0.00" width="0.90" height="3.00" fill="#ff8c00" fill-opacity="0.50" stroke="#884400" stroke-opacity="0.70" stroke-width="0.50"/>
<!-- met4 -->
<rect x="373.53" y="0.00" width="0.90" height="3.00" fill="#ff8c00" fill-opacity="0.50" stroke="#884400" stroke-opacity="0.70" stroke-width="0.50"/>
<!-- met4 -->
<rect x="241.05" y="0.00" width="0.90" height="3.00" fill="#ff8c00" fill-opacity="0.50" stroke="#884400" stroke-opacity="0.70" stroke-width="0.50"/>
<!-- met4 -->
<rect x="307.29" y="0.00" width="0.90" height="3.00" fill="#ff8c00" fill-opacity="0.50" stroke="#884400" stroke-opacity="0.70" stroke-width="0.50"/>
<!-- met4 -->
<rect x="174.81" y="0.00" width="0.90" height="3.00" fill="#ff8c00" fill-opacity="0.50" stroke="#884400" stroke-opacity="0.70" stroke-width="0.50"/>
<!-- met4 -->
<rect x="108.57" y="0.00" width="0.90" height="3.00" fill="#ff8c00" fill-opacity="0.50" stroke="#884400" stroke-opacity="0.70" stroke-width="0.50"/>
<!-- met4 -->
<rect x="365.25" y="0.00" width="0.90" height="3.00" fill="#ff8c00" fill-opacity="0.50" stroke="#884400" stroke-opacity="0.70" stroke-width="0.50"/>
<!-- met4 -->
<rect x="232.77" y="0.00" width="0.90" height="3.00" fill="#ff8c00" fill-opacity="0.50" stroke="#884400" stroke-opacity="0.70" stroke-width="0.50"/>
<!-- met4 -->
<rect x="299.01" y="0.00" width="0.90" height="3.00" fill="#ff8c00" fill-opacity="0.50" stroke="#884400" stroke-opacity="0.70" stroke-width="0.50"/>
<!-- met4 -->
<rect x="166.53" y="0.00" width="0.90" height="3.00" fill="#ff8c00" fill-opacity="0.50" stroke="#884400" stroke-opacity="0.70" stroke-width="0.50"/>
<!-- met4 -->
<rect x="100.29" y="0.00" width="0.90" height="3.00" fill="#ff8c00" fill-opacity="0.50" stroke="#884400" stroke-opacity="0.70" stroke-width="0.50"/>
<!-- met4 -->
<rect x="356.97" y="0.00" width="0.90" height="3.00" fill="#ff8c00" fill-opacity="0.50" stroke="#884400" stroke-opacity="0.70" stroke-width="0.50"/>
<!-- met4 -->
<rect x="224.49" y="0.00" width="0.90" height="3.00" fill="#ff8c00" fill-opacity="0.50" stroke="#884400" stroke-opacity="0.70" stroke-width="0.50"/>
<!-- met4 -->
<rect x="290.73" y="0.00" width="0.90" height="3.00" fill="#ff8c00" fill-opacity="0.50" stroke="#884400" stroke-opacity="0.70" stroke-width="0.50"/>
<!-- met4 -->
<rect x="158.25" y="0.00" width="0.90" height="3.00" fill="#ff8c00" fill-opacity="0.50" stroke="#884400" stroke-opacity="0.70" stroke-width="0.50"/>
<!-- met4 -->
<rect x="92.01" y="0.00" width="0.90" height="3.00" fill="#ff8c00" fill-opacity="0.50" stroke="#884400" stroke-opacity="0.70" stroke-width="0.50"/>
<g transform="translate(10,20)">
<rect width="160" height="230" fill="#000000" fill-opacity="0.5" rx="4"/>
<rect x="4" y="5" width="10" height="8" fill="#888888" opacity="0.8"/>
<text x="18" y="10" fill="white" font-size="9" font-family="monospace">prbndry</text>
<rect x="4" y="19" width="10" height="8" fill="#c0e0ff" opacity="0.8"/>
<text x="18" y="24" fill="white" font-size="9" font-family="monospace">nwell</text>
<rect x="4" y="33" width="10" height="8" fill="#90ee90" opacity="0.8"/>
<text x="18" y="38" fill="white" font-size="9" font-family="monospace">diff</text>
<rect x="4" y="47" width="10" height="8" fill="#ff6060" opacity="0.8"/>
<text x="18" y="52" fill="white" font-size="9" font-family="monospace">poly</text>
<rect x="4" y="61" width="10" height="8" fill="#00cc00" opacity="0.8"/>
<text x="18" y="66" fill="white" font-size="9" font-family="monospace">nsdm</text>
<rect x="4" y="75" width="10" height="8" fill="#cc8800" opacity="0.8"/>
<text x="18" y="80" fill="white" font-size="9" font-family="monospace">psdm</text>
<rect x="4" y="89" width="10" height="8" fill="#b060b0" opacity="0.8"/>
<text x="18" y="94" fill="white" font-size="9" font-family="monospace">licon</text>
<rect x="4" y="103" width="10" height="8" fill="#ffa0a0" opacity="0.8"/>
<text x="18" y="108" fill="white" font-size="9" font-family="monospace">li1</text>
<rect x="4" y="117" width="10" height="8" fill="#808040" opacity="0.8"/>
<text x="18" y="122" fill="white" font-size="9" font-family="monospace">mcon</text>
<rect x="4" y="131" width="10" height="8" fill="#6060ff" opacity="0.8"/>
<text x="18" y="136" fill="white" font-size="9" font-family="monospace">met1</text>
<rect x="4" y="145" width="10" height="8" fill="#303080" opacity="0.8"/>
<text x="18" y="150" fill="white" font-size="9" font-family="monospace">via</text>
<rect x="4" y="159" width="10" height="8" fill="#a0c0ff" opacity="0.8"/>
<text x="18" y="164" fill="white" font-size="9" font-family="monospace">met2</text>
<rect x="4" y="173" width="10" height="8" fill="#305090" opacity="0.8"/>
<text x="18" y="178" fill="white" font-size="9" font-family="monospace">via2</text>
<rect x="4" y="187" width="10" height="8" fill="#ffd700" opacity="0.8"/>
<text x="18" y="192" fill="white" font-size="9" font-family="monospace">met3</text>
<rect x="4" y="201" width="10" height="8" fill="#a08000" opacity="0.8"/>
<text x="18" y="206" fill="white" font-size="9" font-family="monospace">via3</text>
<rect x="4" y="215" width="10" height="8" fill="#ff8c00" opacity="0.8"/>
<text x="18" y="220" fill="white" font-size="9" font-family="monospace">met4</text>
</g>
</svg>
