<?xml version="1.0" encoding="UTF-8"?>
<svg xmlns="http://www.w3.org/2000/svg" width="684.0" height="968.0" viewBox="0 0 684.0 968.0">
<rect width="100%" height="100%" fill="#1a1a2e"/>
<text x="342.0" y="18" font-family="sans-serif" font-size="14" fill="#eee" text-anchor="middle" font-weight="bold">tt_um_pll_sky130 - nwell (64,20)</text>
<g transform="translate(0, 25)">
    <path d="M 20.00,923.04 L 664.00,923.04 L 664.00,20.00 L 20.00,20.00 Z" fill="none" stroke="#555555" stroke-width="1" stroke-dasharray="4,2"/>
    <path d="M 73.28,458.46 L 51.28,458.46 L 51.28,471.02 L 73.28,471.02 Z M 175.12,468.68 L 165.44,468.68 L 165.44,478.12 L 175.12,478.12 Z M 192.80,468.68 L 183.12,468.68 L 183.12,478.12 L 192.80,478.12 Z M 157.44,468.68 L 147.76,468.68 L 147.76,478.12 L 157.44,478.12 Z M 139.76,468.68 L 130.08,468.68 L 130.08,478.12 L 139.76,478.12 Z M 122.08,468.68 L 112.40,468.68 L 112.40,478.12 L 122.08,478.12 Z M 104.40,468.68 L 94.72,468.68 L 94.72,478.12 L 104.40,478.12 Z M 86.72,468.68 L 77.04,468.68 L 77.04,478.12 L 86.72,478.12 Z M 123.76,737.80 L 51.28,737.80 L 51.28,750.36 L 123.76,750.36 Z M 342.80,785.86 L 339.20,785.86 L 339.20,789.46 L 342.80,789.46 Z M 310.80,785.86 L 307.20,785.86 L 307.20,789.46 L 310.80,789.46 Z M 278.80,785.86 L 275.20,785.86 L 275.20,789.46 L 278.80,789.46 Z M 246.80,785.86 L 243.20,785.86 L 243.20,789.46 L 246.80,789.46 Z M 214.80,785.86 L 211.20,785.86 L 211.20,789.46 L 214.80,789.46 Z M 182.80,785.86 L 179.20,785.86 L 179.20,789.46 L 182.80,789.46 Z M 150.80,785.86 L 147.20,785.86 L 147.20,789.46 L 150.80,789.46 Z M 118.80,785.86 L 115.20,785.86 L 115.20,789.46 L 118.80,789.46 Z M 86.80,785.86 L 83.20,785.86 L 83.20,789.46 L 86.80,789.46 Z M 54.80,785.86 L 51.20,785.86 L 51.20,789.46 L 54.80,789.46 Z M 263.44,807.78 L 291.92,807.78 L 291.92,798.34 L 263.44,798.34 Z M 344.96,816.70 L 354.64,816.70 L 354.64,811.26 L 344.96,811.26 Z M 104.32,816.70 L 113.20,816.70 L 113.20,811.26 L 104.32,811.26 Z M 68.96,816.70 L 77.84,816.70 L 77.84,811.26 L 68.96,811.26 Z M 338.96,811.26 L 329.28,811.26 L 329.28,816.70 L 338.96,816.70 Z M 323.28,811.26 L 313.60,811.26 L 313.60,816.70 L 323.28,816.70 Z M 307.60,811.26 L 297.92,811.26 L 297.92,816.70 L 307.60,816.70 Z M 255.44,811.26 L 245.76,811.26 L 245.76,816.70 L 255.44,816.70 Z M 237.76,811.26 L 228.08,811.26 L 228.08,816.70 L 237.76,816.70 Z M 219.28,811.26 L 210.40,811.26 L 210.40,816.70 L 219.28,816.70 Z M 202.40,811.26 L 192.72,811.26 L 192.72,816.70 L 202.40,816.70 Z M 167.04,811.26 L 157.36,811.26 L 157.36,816.70 L 167.04,816.70 Z M 51.28,816.70 L 60.96,816.70 L 60.96,811.26 L 51.28,811.26 Z M 86.64,816.70 L 96.32,816.70 L 96.32,811.26 L 86.64,811.26 Z M 122.00,816.70 L 131.68,816.70 L 131.68,811.26 L 122.00,811.26 Z M 139.68,816.70 L 149.36,816.70 L 149.36,811.26 L 139.68,811.26 Z M 175.04,816.70 L 183.92,816.70 L 183.92,811.26 L 175.04,811.26 Z M 54.80,846.20 L 51.20,846.20 L 51.20,849.80 L 54.80,849.80 Z M 86.80,846.20 L 83.20,846.20 L 83.20,849.80 L 86.80,849.80 Z M 118.80,846.20 L 115.20,846.20 L 115.20,849.80 L 118.80,849.80 Z M 150.80,846.20 L 147.20,846.20 L 147.20,849.80 L 150.80,849.80 Z M 182.80,846.20 L 179.20,846.20 L 179.20,849.80 L 182.80,849.80 Z M 214.80,846.20 L 211.20,846.20 L 211.20,849.80 L 214.80,849.80 Z M 246.80,846.20 L 243.20,846.20 L 243.20,849.80 L 246.80,849.80 Z M 273.12,863.40 L 263.44,863.40 L 263.44,872.84 L 273.12,872.84 Z M 86.64,874.84 L 96.32,874.84 L 96.32,869.40 L 86.64,869.40 Z M 255.44,869.40 L 245.76,869.40 L 245.76,874.84 L 255.44,874.84 Z M 237.76,869.40 L 228.08,869.40 L 228.08,874.84 L 237.76,874.84 Z M 219.28,869.40 L 210.40,869.40 L 210.40,874.84 L 219.28,874.84 Z M 68.96,874.84 L 77.84,874.84 L 77.84,869.40 L 68.96,869.40 Z M 104.32,874.84 L 113.20,874.84 L 113.20,869.40 L 104.32,869.40 Z M 51.28,874.84 L 60.96,874.84 L 60.96,869.40 L 51.28,869.40 Z M 202.40,869.40 L 192.72,869.40 L 192.72,874.84 L 202.40,874.84 Z M 122.00,874.84 L 131.68,874.84 L 131.68,869.40 L 122.00,869.40 Z M 139.68,874.84 L 149.36,874.84 L 149.36,869.40 L 139.68,869.40 Z M 175.04,874.84 L 183.92,874.84 L 183.92,869.40 L 175.04,869.40 Z M 157.36,874.84 L 167.04,874.84 L 167.04,869.40 L 157.36,869.40 Z" fill="#8B4513" fill-opacity="0.25" stroke="#6b3410" stroke-width="0.5"/>
    <text x="10" y="938" font-family="sans-serif" font-size="11" fill="#aaaaaa">nwell (64,20) - 56 polygons</text>
</g>
</svg>
