<?xml version="1.0" encoding="UTF-8"?>
<svg xmlns="http://www.w3.org/2000/svg" width="684.0" height="968.0" viewBox="0 0 684.0 968.0">
<rect width="100%" height="100%" fill="#1a1a2e"/>
<text x="342.0" y="18" font-family="sans-serif" font-size="14" fill="#eee" text-anchor="middle" font-weight="bold">tt_um_pll_sky130 — met1 (68,20)</text>
<g transform="translate(0, 25)">
    <path d="M 20.00,923.04 L 664.00,923.04 L 664.00,20.00 L 20.00,20.00 Z" fill="none" stroke="#555555" stroke-width="1" stroke-dasharray="4,2"/>
    <path d="M 32.00,911.44 L 125.84,911.44 L 125.84,910.64 L 32.00,910.64 Z M 32.00,900.56 L 125.84,900.56 L 125.84,899.76 L 32.00,899.76 Z M 32.00,890.64 L 153.44,890.64 L 153.44,889.84 L 32.00,889.84 Z M 32.00,879.76 L 153.44,879.76 L 153.44,878.96 L 32.00,878.96 Z M 32.00,815.44 L 92.00,815.44 L 92.00,813.44 L 32.00,813.44 Z M 32.00,871.44 L 92.00,871.44 L 92.00,869.44 L 32.00,869.44 Z M 32.06,837.38 L 32.98,837.38 L 32.98,836.46 L 32.06,836.46 Z M 37.10,837.38 L 38.02,837.38 L 38.02,836.46 L 37.10,836.46 Z M 38.82,837.38 L 39.74,837.38 L 39.74,836.46 L 38.82,836.46 Z M 43.86,837.38 L 44.78,837.38 L 44.78,836.46 L 43.86,836.46 Z M 56.06,837.38 L 56.98,837.38 L 56.98,836.46 L 56.06,836.46 Z M 61.10,837.38 L 62.02,837.38 L 62.02,836.46 L 61.10,836.46 Z M 62.82,837.38 L 63.74,837.38 L 63.74,836.46 L 62.82,836.46 Z M 67.86,837.38 L 68.78,837.38 L 68.78,836.46 L 67.86,836.46 Z M 80.06,837.38 L 80.98,837.38 L 80.98,836.46 L 80.06,836.46 Z M 81.70,837.38 L 82.62,837.38 L 82.62,836.46 L 81.70,836.46 Z M 32.06,869.38 L 32.98,869.38 L 32.98,868.46 L 32.06,868.46 Z M 37.10,869.38 L 38.02,869.38 L 38.02,868.46 L 37.10,868.46 Z M 56.06,869.38 L 56.98,869.38 L 56.98,868.46 L 56.06,868.46 Z M 61.10,869.38 L 62.02,869.38 L 62.02,868.46 L 61.10,868.46 Z M 80.06,869.38 L 80.98,869.38 L 80.98,868.46 L 80.06,868.46 Z M 81.70,869.38 L 82.62,869.38 L 82.62,868.46 L 81.70,868.46 Z M 174.20,746.00 L 330.76,746.00 L 330.76,744.00 L 174.20,744.00 Z M 174.20,911.84 L 330.76,911.84 L 330.76,910.24 L 174.20,910.24 Z M 174.20,911.84 L 175.80,911.84 L 175.80,744.00 L 174.20,744.00 Z M 174.20,672.39 L 223.84,672.39 L 223.84,670.39 L 174.20,670.39 Z M 174.20,732.00 L 223.84,732.00 L 223.84,730.40 L 174.20,730.40 Z M 174.20,732.00 L 175.80,732.00 L 175.80,670.39 L 174.20,670.39 Z M 174.20,657.59 L 175.40,657.59 L 175.40,655.79 L 174.20,655.79 Z M 174.20,654.39 L 175.40,654.39 L 175.40,652.59 L 174.20,652.59 Z M 32.00,575.59 L 148.00,575.59 L 148.00,573.59 L 32.00,573.59 Z M 32.00,639.59 L 148.00,639.59 L 148.00,637.59 L 32.00,637.59 Z M 32.06,613.53 L 32.98,613.53 L 32.98,612.61 L 32.06,612.61 Z M 35.10,613.53 L 36.02,613.53 L 36.02,612.61 L 35.10,612.61 Z M 36.82,613.53 L 37.74,613.53 L 37.74,612.61 L 36.82,612.61 Z M 39.86,613.53 L 40.78,613.53 L 40.78,612.61 L 39.86,612.61 Z M 32.06,637.53 L 32.98,637.53 L 32.98,636.61 L 32.06,636.61 Z M 35.10,637.53 L 36.02,637.53 L 36.02,636.61 L 35.10,636.61 Z M 46.06,593.53 L 46.98,593.53 L 46.98,592.61 L 46.06,592.61 Z M 49.10,593.53 L 50.02,593.53 L 50.02,592.61 L 49.10,592.61 Z M 50.82,593.53 L 51.74,593.53 L 51.74,592.61 L 50.82,592.61 Z M 53.86,593.53 L 54.78,593.53 L 54.78,592.61 L 53.86,592.61 Z M 48.06,613.53 L 48.98,613.53 L 48.98,612.61 L 48.06,612.61 Z M 49.70,613.53 L 50.62,613.53 L 50.62,612.61 L 49.70,612.61 Z M 48.06,625.53 L 48.98,625.53 L 48.98,624.61 L 48.06,624.61 Z M 49.70,625.53 L 50.62,625.53 L 50.62,624.61 L 49.70,624.61 Z M 46.06,637.53 L 46.98,637.53 L 46.98,636.61 L 46.06,636.61 Z M 49.10,637.53 L 50.02,637.53 L 50.02,636.61 L 49.10,636.61 Z M 62.06,593.53 L 62.98,593.53 L 62.98,592.61 L 62.06,592.61 Z M 65.10,593.53 L 66.02,593.53 L 66.02,592.61 L 65.10,592.61 Z M 66.82,593.53 L 67.74,593.53 L 67.74,592.61 L 66.82,592.61 Z M 69.86,593.53 L 70.78,593.53 L 70.78,592.61 L 69.86,592.61 Z M 64.06,613.53 L 64.98,613.53 L 64.98,612.61 L 64.06,612.61 Z M 65.70,613.53 L 66.62,613.53 L 66.62,612.61 L 65.70,612.61 Z M 64.06,625.53 L 64.98,625.53 L 64.98,624.61 L 64.06,624.61 Z M 65.70,625.53 L 66.62,625.53 L 66.62,624.61 L 65.70,624.61 Z M 62.06,637.53 L 62.98,637.53 L 62.98,636.61 L 62.06,636.61 Z M 65.10,637.53 L 66.02,637.53 L 66.02,636.61 L 65.10,636.61 Z M 78.06,593.53 L 78.98,593.53 L 78.98,592.61 L 78.06,592.61 Z M 81.10,593.53 L 82.02,593.53 L 82.02,592.61 L 81.10,592.61 Z M 82.82,593.53 L 83.74,593.53 L 83.74,592.61 L 82.82,592.61 Z M 85.86,593.53 L 86.78,593.53 L 86.78,592.61 L 85.86,592.61 Z M 80.06,613.53 L 80.98,613.53 L 80.98,612.61 L 80.06,612.61 Z M 81.70,613.53 L 82.62,613.53 L 82.62,612.61 L 81.70,612.61 Z M 80.06,625.53 L 80.98,625.53 L 80.98,624.61 L 80.06,624.61 Z M 81.70,625.53 L 82.62,625.53 L 82.62,624.61 L 81.70,624.61 Z M 78.06,637.53 L 78.98,637.53 L 78.98,636.61 L 78.06,636.61 Z M 81.10,637.53 L 82.02,637.53 L 82.02,636.61 L 81.10,636.61 Z M 94.06,593.53 L 94.98,593.53 L 94.98,592.61 L 94.06,592.61 Z M 97.10,593.53 L 98.02,593.53 L 98.02,592.61 L 97.10,592.61 Z M 98.82,593.53 L 99.74,593.53 L 99.74,592.61 L 98.82,592.61 Z M 101.86,593.53 L 102.78,593.53 L 102.78,592.61 L 101.86,592.61 Z M 96.06,613.53 L 96.98,613.53 L 96.98,612.61 L 96.06,612.61 Z M 97.70,613.53 L 98.62,613.53 L 98.62,612.61 L 97.70,612.61 Z M 96.06,625.53 L 96.98,625.53 L 96.98,624.61 L 96.06,624.61 Z M 97.70,625.53 L 98.62,625.53 L 98.62,624.61 L 97.70,624.61 Z M 94.06,637.53 L 94.98,637.53 L 94.98,636.61 L 94.06,636.61 Z M 97.10,637.53 L 98.02,637.53 L 98.02,636.61 L 97.10,636.61 Z M 110.06,593.53 L 110.98,593.53 L 110.98,592.61 L 110.06,592.61 Z M 113.10,593.53 L 114.02,593.53 L 114.02,592.61 L 113.10,592.61 Z M 114.82,593.53 L 115.74,593.53 L 115.74,592.61 L 114.82,592.61 Z M 117.86,593.53 L 118.78,593.53 L 118.78,592.61 L 117.86,592.61 Z M 112.06,613.53 L 112.98,613.53 L 112.98,612.61 L 112.06,612.61 Z M 113.70,613.53 L 114.62,613.53 L 114.62,612.61 L 113.70,612.61 Z M 112.06,625.53 L 112.98,625.53 L 112.98,624.61 L 112.06,624.61 Z M 113.70,625.53 L 114.62,625.53 L 114.62,624.61 L 113.70,624.61 Z M 110.06,637.53 L 110.98,637.53 L 110.98,636.61 L 110.06,636.61 Z M 113.10,637.53 L 114.02,637.53 L 114.02,636.61 L 113.10,636.61 Z" fill="#4169E1" fill-opacity="0.5" stroke="#2a4a9e" stroke-width="0.5"/>
    <text x="10" y="938.04" font-family="sans-serif" font-size="11" fill="#aaaaaa">met1 (68,20) — 88 polygons</text>
</g>
</svg>
