<svg xmlns="http://www.w3.org/2000/svg" width="483" height="677" viewBox="0 0 483 677">
<rect width="483" height="677" fill="#1a1a2e"/>
<rect x="232.80" y="577.50" width="1.80" height="1.80" fill="#ff8c00" fill-opacity="0.50" stroke="#884400" stroke-opacity="0.70" stroke-width="0.50"/>
<rect x="5.25" y="577.65" width="229.20" height="1.50" fill="#ff8c00" fill-opacity="0.50" stroke="#884400" stroke-opacity="0.70" stroke-width="0.50"/>
<rect x="232.80" y="585.66" width="1.80" height="1.80" fill="#ff8c00" fill-opacity="0.50" stroke="#884400" stroke-opacity="0.70" stroke-width="0.50"/>
<rect x="15.75" y="585.81" width="218.70" height="1.50" fill="#ff8c00" fill-opacity="0.50" stroke="#884400" stroke-opacity="0.70" stroke-width="0.50"/>
<rect x="3.00" y="15.00" width="6.00" height="647.28" fill="#ff8c00" fill-opacity="0.50" stroke="#884400" stroke-opacity="0.70" stroke-width="0.50"/>
<rect x="13.50" y="15.00" width="6.00" height="647.28" fill="#ff8c00" fill-opacity="0.50" stroke="#884400" stroke-opacity="0.70" stroke-width="0.50"/>
<rect x="233.88" y="582.09" width="1.80" height="1.80" fill="#ff8c00" fill-opacity="0.50" stroke="#884400" stroke-opacity="0.70" stroke-width="0.50"/>
<rect x="242.04" y="565.68" width="1.80" height="1.80" fill="#ff8c00" fill-opacity="0.50" stroke="#884400" stroke-opacity="0.70" stroke-width="0.50"/>
<rect x="233.43" y="615.93" width="224.70" height="2.70" fill="#ff8c00" fill-opacity="0.50" stroke="#884400" stroke-opacity="0.70" stroke-width="0.50"/>
<rect x="233.88" y="616.38" width="1.80" height="1.80" fill="#ff8c00" fill-opacity="0.50" stroke="#884400" stroke-opacity="0.70" stroke-width="0.50"/>
<rect x="455.43" y="615.93" width="2.70" height="61.35" fill="#ff8c00" fill-opacity="0.50" stroke="#884400" stroke-opacity="0.70" stroke-width="0.50"/>
<rect x="241.59" y="609.93" width="158.58" height="2.70" fill="#ff8c00" fill-opacity="0.50" stroke="#884400" stroke-opacity="0.70" stroke-width="0.50"/>
<rect x="242.04" y="610.38" width="1.80" height="1.80" fill="#ff8c00" fill-opacity="0.50" stroke="#884400" stroke-opacity="0.70" stroke-width="0.50"/>
<rect x="397.47" y="609.93" width="2.70" height="67.35" fill="#ff8c00" fill-opacity="0.50" stroke="#884400" stroke-opacity="0.70" stroke-width="0.50"/>
<rect x="455.43" y="674.28" width="2.70" height="3.00" fill="#ff8c00" fill-opacity="0.50" stroke="#884400" stroke-opacity="0.70" stroke-width="0.50"/>
<rect x="397.47" y="674.28" width="2.70" height="3.00" fill="#ff8c00" fill-opacity="0.50" stroke="#884400" stroke-opacity="0.70" stroke-width="0.50"/>
<rect x="339.51" y="674.28" width="2.70" height="3.00" fill="#ff8c00" fill-opacity="0.50" stroke="#884400" stroke-opacity="0.70" stroke-width="0.50"/>
<rect x="281.55" y="674.28" width="2.70" height="3.00" fill="#ff8c00" fill-opacity="0.50" stroke="#884400" stroke-opacity="0.70" stroke-width="0.50"/>
<rect x="223.59" y="674.28" width="2.70" height="3.00" fill="#ff8c00" fill-opacity="0.50" stroke="#884400" stroke-opacity="0.70" stroke-width="0.50"/>
<rect x="165.63" y="674.28" width="2.70" height="3.00" fill="#ff8c00" fill-opacity="0.50" stroke="#884400" stroke-opacity="0.70" stroke-width="0.50"/>
<rect x="107.67" y="674.28" width="2.70" height="3.00" fill="#ff8c00" fill-opacity="0.50" stroke="#884400" stroke-opacity="0.70" stroke-width="0.50"/>
<rect x="49.71" y="674.28" width="2.70" height="3.00" fill="#ff8c00" fill-opacity="0.50" stroke="#884400" stroke-opacity="0.70" stroke-width="0.50"/>
<rect x="431.49" y="0.00" width="0.90" height="3.00" fill="#ff8c00" fill-opacity="0.50" stroke="#884400" stroke-opacity="0.70" stroke-width="0.50"/>
<rect x="439.77" y="0.00" width="0.90" height="3.00" fill="#ff8c00" fill-opacity="0.50" stroke="#884400" stroke-opacity="0.70" stroke-width="0.50"/>
<rect x="423.21" y="0.00" width="0.90" height="3.00" fill="#ff8c00" fill-opacity="0.50" stroke="#884400" stroke-opacity="0.70" stroke-width="0.50"/>
<rect x="414.93" y="0.00" width="0.90" height="3.00" fill="#ff8c00" fill-opacity="0.50" stroke="#884400" stroke-opacity="0.70" stroke-width="0.50"/>
<rect x="282.45" y="0.00" width="0.90" height="3.00" fill="#ff8c00" fill-opacity="0.50" stroke="#884400" stroke-opacity="0.70" stroke-width="0.50"/>
<rect x="348.69" y="0.00" width="0.90" height="3.00" fill="#ff8c00" fill-opacity="0.50" stroke="#884400" stroke-opacity="0.70" stroke-width="0.50"/>
<rect x="216.21" y="0.00" width="0.90" height="3.00" fill="#ff8c00" fill-opacity="0.50" stroke="#884400" stroke-opacity="0.70" stroke-width="0.50"/>
<rect x="149.97" y="0.00" width="0.90" height="3.00" fill="#ff8c00" fill-opacity="0.50" stroke="#884400" stroke-opacity="0.70" stroke-width="0.50"/>
<rect x="406.65" y="0.00" width="0.90" height="3.00" fill="#ff8c00" fill-opacity="0.50" stroke="#884400" stroke-opacity="0.70" stroke-width="0.50"/>
<rect x="274.17" y="0.00" width="0.90" height="3.00" fill="#ff8c00" fill-opacity="0.50" stroke="#884400" stroke-opacity="0.70" stroke-width="0.50"/>
<rect x="340.41" y="0.00" width="0.90" height="3.00" fill="#ff8c00" fill-opacity="0.50" stroke="#884400" stroke-opacity="0.70" stroke-width="0.50"/>
<rect x="207.93" y="0.00" width="0.90" height="3.00" fill="#ff8c00" fill-opacity="0.50" stroke="#884400" stroke-opacity="0.70" stroke-width="0.50"/>
<rect x="141.69" y="0.00" width="0.90" height="3.00" fill="#ff8c00" fill-opacity="0.50" stroke="#884400" stroke-opacity="0.70" stroke-width="0.50"/>
<rect x="398.37" y="0.00" width="0.90" height="3.00" fill="#ff8c00" fill-opacity="0.50" stroke="#884400" stroke-opacity="0.70" stroke-width="0.50"/>
<rect x="265.89" y="0.00" width="0.90" height="3.00" fill="#ff8c00" fill-opacity="0.50" stroke="#884400" stroke-opacity="0.70" stroke-width="0.50"/>
<rect x="332.13" y="0.00" width="0.90" height="3.00" fill="#ff8c00" fill-opacity="0.50" stroke="#884400" stroke-opacity="0.70" stroke-width="0.50"/>
<rect x="199.65" y="0.00" width="0.90" height="3.00" fill="#ff8c00" fill-opacity="0.50" stroke="#884400" stroke-opacity="0.70" stroke-width="0.50"/>
<rect x="133.41" y="0.00" width="0.90" height="3.00" fill="#ff8c00" fill-opacity="0.50" stroke="#884400" stroke-opacity="0.70" stroke-width="0.50"/>
<rect x="390.09" y="0.00" width="0.90" height="3.00" fill="#ff8c00" fill-opacity="0.50" stroke="#884400" stroke-opacity="0.70" stroke-width="0.50"/>
<rect x="257.61" y="0.00" width="0.90" height="3.00" fill="#ff8c00" fill-opacity="0.50" stroke="#884400" stroke-opacity="0.70" stroke-width="0.50"/>
<rect x="323.85" y="0.00" width="0.90" height="3.00" fill="#ff8c00" fill-opacity="0.50" stroke="#884400" stroke-opacity="0.70" stroke-width="0.50"/>
<rect x="191.37" y="0.00" width="0.90" height="3.00" fill="#ff8c00" fill-opacity="0.50" stroke="#884400" stroke-opacity="0.70" stroke-width="0.50"/>
<rect x="125.13" y="0.00" width="0.90" height="3.00" fill="#ff8c00" fill-opacity="0.50" stroke="#884400" stroke-opacity="0.70" stroke-width="0.50"/>
<rect x="381.81" y="0.00" width="0.90" height="3.00" fill="#ff8c00" fill-opacity="0.50" stroke="#884400" stroke-opacity="0.70" stroke-width="0.50"/>
<rect x="249.33" y="0.00" width="0.90" height="3.00" fill="#ff8c00" fill-opacity="0.50" stroke="#884400" stroke-opacity="0.70" stroke-width="0.50"/>
<rect x="315.57" y="0.00" width="0.90" height="3.00" fill="#ff8c00" fill-opacity="0.50" stroke="#884400" stroke-opacity="0.70" stroke-width="0.50"/>
<rect x="183.09" y="0.00" width="0.90" height="3.00" fill="#ff8c00" fill-opacity="0.50" stroke="#884400" stroke-opacity="0.70" stroke-width="0.50"/>
<rect x="116.85" y="0.00" width="0.90" height="3.00" fill="#ff8c00" fill-opacity="0.50" stroke="#884400" stroke-opacity="0.70" stroke-width="0.50"/>
<rect x="373.53" y="0.00" width="0.90" height="3.00" fill="#ff8c00" fill-opacity="0.50" stroke="#884400" stroke-opacity="0.70" stroke-width="0.50"/>
<rect x="241.05" y="0.00" width="0.90" height="3.00" fill="#ff8c00" fill-opacity="0.50" stroke="#884400" stroke-opacity="0.70" stroke-width="0.50"/>
<rect x="307.29" y="0.00" width="0.90" height="3.00" fill="#ff8c00" fill-opacity="0.50" stroke="#884400" stroke-opacity="0.70" stroke-width="0.50"/>
<rect x="174.81" y="0.00" width="0.90" height="3.00" fill="#ff8c00" fill-opacity="0.50" stroke="#884400" stroke-opacity="0.70" stroke-width="0.50"/>
<rect x="108.57" y="0.00" width="0.90" height="3.00" fill="#ff8c00" fill-opacity="0.50" stroke="#884400" stroke-opacity="0.70" stroke-width="0.50"/>
<rect x="365.25" y="0.00" width="0.90" height="3.00" fill="#ff8c00" fill-opacity="0.50" stroke="#884400" stroke-opacity="0.70" stroke-width="0.50"/>
<rect x="232.77" y="0.00" width="0.90" height="3.00" fill="#ff8c00" fill-opacity="0.50" stroke="#884400" stroke-opacity="0.70" stroke-width="0.50"/>
<rect x="299.01" y="0.00" width="0.90" height="3.00" fill="#ff8c00" fill-opacity="0.50" stroke="#884400" stroke-opacity="0.70" stroke-width="0.50"/>
<rect x="166.53" y="0.00" width="0.90" height="3.00" fill="#ff8c00" fill-opacity="0.50" stroke="#884400" stroke-opacity="0.70" stroke-width="0.50"/>
<rect x="100.29" y="0.00" width="0.90" height="3.00" fill="#ff8c00" fill-opacity="0.50" stroke="#884400" stroke-opacity="0.70" stroke-width="0.50"/>
<rect x="356.97" y="0.00" width="0.90" height="3.00" fill="#ff8c00" fill-opacity="0.50" stroke="#884400" stroke-opacity="0.70" stroke-width="0.50"/>
<rect x="224.49" y="0.00" width="0.90" height="3.00" fill="#ff8c00" fill-opacity="0.50" stroke="#884400" stroke-opacity="0.70" stroke-width="0.50"/>
<rect x="290.73" y="0.00" width="0.90" height="3.00" fill="#ff8c00" fill-opacity="0.50" stroke="#884400" stroke-opacity="0.70" stroke-width="0.50"/>
<rect x="158.25" y="0.00" width="0.90" height="3.00" fill="#ff8c00" fill-opacity="0.50" stroke="#884400" stroke-opacity="0.70" stroke-width="0.50"/>
<rect x="92.01" y="0.00" width="0.90" height="3.00" fill="#ff8c00" fill-opacity="0.50" stroke="#884400" stroke-opacity="0.70" stroke-width="0.50"/>
</svg>
