<?xml version="1.0" encoding="UTF-8"?>
<svg xmlns="http://www.w3.org/2000/svg" width="684.0" height="968.0" viewBox="0 0 684.0 968.0">
<rect width="100%" height="100%" fill="#1a1a2e"/>
<text x="342.0" y="18" font-family="sans-serif" font-size="14" fill="#eee" text-anchor="middle" font-weight="bold">tt_um_pll_sky130 - met1 (68,20)</text>
<g transform="translate(0, 25)">
    <path d="M 20.00,923.04 L 664.00,923.04 L 664.00,20.00 L 20.00,20.00 Z" fill="none" stroke="#555555" stroke-width="1" stroke-dasharray="4,2"/>
    <path d="M 41.30,40.00 L 41.30,903.04 L 42.70,903.04 L 42.70,40.00 Z M 27.30,40.00 L 27.30,903.04 L 28.70,903.04 L 28.70,40.00 Z M 253.92,456.72 L 50.00,456.72 L 50.00,458.72 L 253.92,458.72 Z M 156.26,462.60 L 154.86,462.60 L 154.86,464.00 L 156.26,464.00 Z M 162.50,462.60 L 161.10,462.60 L 161.10,464.00 L 162.50,464.00 Z M 182.02,462.60 L 180.62,462.60 L 180.62,464.00 L 182.02,464.00 Z M 188.26,462.60 L 186.86,462.60 L 186.86,464.00 L 188.26,464.00 Z M 136.74,462.60 L 135.34,462.60 L 135.34,464.00 L 136.74,464.00 Z M 130.50,462.60 L 129.10,462.60 L 129.10,464.00 L 130.50,464.00 Z M 110.98,462.60 L 109.58,462.60 L 109.58,464.00 L 110.98,464.00 Z M 104.74,462.60 L 103.34,462.60 L 103.34,464.00 L 104.74,464.00 Z M 78.98,462.60 L 77.58,462.60 L 77.58,464.00 L 78.98,464.00 Z M 85.22,462.60 L 83.82,462.60 L 83.82,464.00 L 85.22,464.00 Z M 109.22,467.94 L 107.82,467.94 L 107.82,469.34 L 109.22,469.34 Z M 138.50,467.94 L 137.10,467.94 L 137.10,469.34 L 138.50,469.34 Z M 77.22,467.94 L 75.82,467.94 L 75.82,469.34 L 77.22,469.34 Z M 80.74,467.94 L 79.34,467.94 L 79.34,469.34 L 80.74,469.34 Z M 154.50,467.94 L 153.10,467.94 L 153.10,469.34 L 154.50,469.34 Z M 158.02,467.94 L 156.62,467.94 L 156.62,469.34 L 158.02,469.34 Z M 83.46,467.94 L 82.06,467.94 L 82.06,469.34 L 83.46,469.34 Z M 160.74,467.94 L 159.34,467.94 L 159.34,469.34 L 160.74,469.34 Z M 164.26,467.94 L 162.86,467.94 L 162.86,469.34 L 164.26,469.34 Z M 86.98,467.94 L 85.58,467.94 L 85.58,469.34 L 86.98,469.34 Z M 134.98,467.94 L 133.58,467.94 L 133.58,469.34 L 134.98,469.34 Z M 180.26,467.94 L 178.86,467.94 L 178.86,469.34 L 180.26,469.34 Z M 183.78,467.94 L 182.38,467.94 L 182.38,469.34 L 183.78,469.34 Z M 132.26,467.94 L 130.86,467.94 L 130.86,469.34 L 132.26,469.34 Z M 128.74,467.94 L 127.34,467.94 L 127.34,469.34 L 128.74,469.34 Z M 102.98,467.94 L 101.58,467.94 L 101.58,469.34 L 102.98,469.34 Z M 186.50,467.94 L 185.10,467.94 L 185.10,469.34 L 186.50,469.34 Z M 106.50,467.94 L 105.10,467.94 L 105.10,469.34 L 106.50,469.34 Z M 190.02,467.94 L 188.62,467.94 L 188.62,469.34 L 190.02,469.34 Z M 112.74,467.94 L 111.34,467.94 L 111.34,469.34 L 112.74,469.34 Z M 55.22,478.04 L 53.82,478.04 L 53.82,479.44 L 55.22,479.44 Z M 61.46,478.04 L 60.06,478.04 L 60.06,479.44 L 61.46,479.44 Z M 132.86,483.38 L 131.46,483.38 L 131.46,484.78 L 132.86,484.78 Z M 107.10,483.38 L 105.70,483.38 L 105.70,484.78 L 107.10,484.78 Z M 104.98,483.38 L 103.58,483.38 L 103.58,484.78 L 104.98,484.78 Z M 81.34,483.38 L 79.94,483.38 L 79.94,484.78 L 81.34,484.78 Z M 79.22,483.38 L 77.82,483.38 L 77.82,484.78 L 79.22,484.78 Z M 158.62,483.38 L 157.22,483.38 L 157.22,484.78 L 158.62,484.78 Z M 156.50,483.38 L 155.10,483.38 L 155.10,484.78 L 156.50,484.78 Z M 184.38,483.38 L 182.98,483.38 L 182.98,484.78 L 184.38,484.78 Z M 182.26,483.38 L 180.86,483.38 L 180.86,484.78 L 182.26,484.78 Z M 130.74,483.38 L 129.34,483.38 L 129.34,484.78 L 130.74,484.78 Z M 53.46,483.38 L 52.06,483.38 L 52.06,484.78 L 53.46,484.78 Z M 63.22,483.38 L 61.82,483.38 L 61.82,484.78 L 63.22,484.78 Z M 59.70,483.38 L 58.30,483.38 L 58.30,484.78 L 59.70,484.78 Z M 56.98,483.38 L 55.58,483.38 L 55.58,484.78 L 56.98,484.78 Z M 121.78,484.38 L 120.38,484.38 L 120.38,485.78 L 121.78,485.78 Z M 173.30,484.38 L 171.90,484.38 L 171.90,485.78 L 173.30,485.78 Z M 199.06,484.38 L 197.66,484.38 L 197.66,485.78 L 199.06,485.78 Z M 147.54,484.38 L 146.14,484.38 L 146.14,485.78 L 147.54,485.78 Z M 72.26,484.38 L 70.86,484.38 L 70.86,485.78 L 72.26,485.78 Z M 96.02,484.38 L 94.62,484.38 L 94.62,485.78 L 96.02,485.78 Z M 216.14,488.94 L 214.74,488.94 L 214.74,490.34 L 216.14,490.34 Z M 214.02,488.94 L 212.62,488.94 L 212.62,490.34 L 214.02,490.34 Z M 229.70,488.94 L 228.30,488.94 L 228.30,490.34 L 229.70,490.34 Z M 231.82,488.94 L 230.42,488.94 L 230.42,490.34 L 231.82,490.34 Z M 236.18,491.94 L 234.78,491.94 L 234.78,493.34 L 236.18,493.34 Z M 220.50,491.94 L 219.10,491.94 L 219.10,493.34 L 220.50,493.34 Z M 184.38,495.38 L 182.98,495.38 L 182.98,496.78 L 184.38,496.78 Z M 132.86,495.38 L 131.46,495.38 L 131.46,496.78 L 132.86,496.78 Z M 130.74,495.38 L 129.34,495.38 L 129.34,496.78 L 130.74,496.78 Z M 104.98,495.38 L 103.58,495.38 L 103.58,496.78 L 104.98,496.78 Z M 107.10,495.38 L 105.70,495.38 L 105.70,496.78 L 107.10,496.78 Z M 182.26,495.38 L 180.86,495.38 L 180.86,496.78 L 182.26,496.78 Z M 158.62,495.38 L 157.22,495.38 L 157.22,496.78 L 158.62,496.78 Z M 81.34,495.38 L 79.94,495.38 L 79.94,496.78 L 81.34,496.78 Z M 79.22,495.38 L 77.82,495.38 L 77.82,496.78 L 79.22,496.78 Z M 156.50,495.38 L 155.10,495.38 L 155.10,496.78 L 156.50,496.78 Z M 130.50,500.64 L 129.10,500.64 L 129.10,502.04 L 130.50,502.04 Z M 182.02,500.64 L 180.62,500.64 L 180.62,502.04 L 182.02,502.04 Z M 55.22,500.64 L 53.82,500.64 L 53.82,502.04 L 55.22,502.04 Z M 104.74,500.64 L 103.34,500.64 L 103.34,502.04 L 104.74,502.04 Z M 156.26,500.64 L 154.86,500.64 L 154.86,502.04 L 156.26,502.04 Z M 78.98,500.64 L 77.58,500.64 L 77.58,502.04 L 78.98,502.04 Z M 183.78,505.98 L 182.38,505.98 L 182.38,507.38 L 183.78,507.38 Z M 154.50,505.98 L 153.10,505.98 L 153.10,507.38 L 154.50,507.38 Z M 158.02,505.98 L 156.62,505.98 L 156.62,507.38 L 158.02,507.38 Z M 180.26,505.98 L 178.86,505.98 L 178.86,507.38 L 180.26,507.38 Z M 132.26,505.98 L 130.86,505.98 L 130.86,507.38 L 132.26,507.38 Z M 128.74,505.98 L 127.34,505.98 L 127.34,507.38 L 128.74,507.38 Z M 80.74,505.98 L 79.34,505.98 L 79.34,507.38 L 80.74,507.38 Z M 77.22,505.98 L 75.82,505.98 L 75.82,507.38 L 77.22,507.38 Z M 102.98,505.98 L 101.58,505.98 L 101.58,507.38 L 102.98,507.38 Z M 106.50,505.98 L 105.10,505.98 L 105.10,507.38 L 106.50,507.38 Z M 56.98,505.98 L 55.58,505.98 L 55.58,507.38 L 56.98,507.38 Z M 53.46,505.98 L 52.06,505.98 L 52.06,507.38 L 53.46,507.38 Z M 121.78,506.98 L 120.38,506.98 L 120.38,508.38 L 121.78,508.38 Z M 72.26,506.98 L 70.86,506.98 L 70.86,508.38 L 72.26,508.38 Z M 96.02,506.98 L 94.62,506.98 L 94.62,508.38 L 96.02,508.38 Z M 199.06,506.98 L 197.66,506.98 L 197.66,508.38 L 199.06,508.38 Z M 173.30,506.98 L 171.90,506.98 L 171.90,508.38 L 173.30,508.38 Z M 147.54,506.98 L 146.14,506.98 L 146.14,508.38 L 147.54,508.38 Z M 231.82,507.98 L 230.42,507.98 L 230.42,509.38 L 231.82,509.38 Z M 214.02,507.98 L 212.62,507.98 L 212.62,509.38 L 214.02,509.38 Z M 216.14,507.98 L 214.74,507.98 L 214.74,509.38 L 216.14,509.38 Z M 229.70,507.98 L 228.30,507.98 L 228.30,509.38 L 229.70,509.38 Z M 236.18,508.98 L 234.78,508.98 L 234.78,510.38 L 236.18,510.38 Z M 220.50,508.98 L 219.10,508.98 L 219.10,510.38 L 220.50,510.38 Z M 253.92,511.08 L 50.00,511.08 L 50.00,513.08 L 253.92,513.08 Z M 213.70,513.78 L 212.30,513.78 L 212.30,515.18 L 213.70,515.18 Z M 53.70,513.78 L 52.30,513.78 L 52.30,515.18 L 53.70,515.18 Z M 85.70,513.78 L 84.30,513.78 L 84.30,515.18 L 85.70,515.18 Z M 117.70,513.78 L 116.30,513.78 L 116.30,515.18 L 117.70,515.18 Z M 149.70,513.78 L 148.30,513.78 L 148.30,515.18 L 149.70,515.18 Z M 181.70,513.78 L 180.30,513.78 L 180.30,515.18 L 181.70,515.18 Z M 245.70,513.78 L 244.30,513.78 L 244.30,515.18 L 245.70,515.18 Z M 53.40,522.68 L 52.00,522.68 L 52.00,524.08 L 53.40,524.08 Z M 53.40,530.00 L 52.00,530.00 L 52.00,531.40 L 53.40,531.40 Z M 130.24,540.20 L 52.00,540.20 L 52.00,541.80 L 130.24,541.80 Z M 49.70,550.48 L 48.30,550.48 L 48.30,551.88 L 49.70,551.88 Z M 138.14,550.48 L 136.74,550.48 L 136.74,551.88 L 138.14,551.88 Z M 91.82,550.48 L 90.42,550.48 L 90.42,551.88 L 91.82,551.88 Z M 94.98,563.52 L 93.58,563.52 L 93.58,564.92 L 94.98,564.92 Z M 77.94,563.52 L 76.54,563.52 L 76.54,564.92 L 77.94,564.92 Z M 107.22,563.52 L 105.82,563.52 L 105.82,564.92 L 107.22,564.92 Z M 119.46,563.52 L 118.06,563.52 L 118.06,564.92 L 119.46,564.92 Z M 53.46,563.52 L 52.06,563.52 L 52.06,564.92 L 53.46,564.92 Z M 133.54,563.52 L 132.14,563.52 L 132.14,564.92 L 133.54,564.92 Z M 65.70,563.52 L 64.30,563.52 L 64.30,564.92 L 65.70,564.92 Z M 91.82,582.48 L 90.42,582.48 L 90.42,583.88 L 91.82,583.88 Z M 49.70,582.48 L 48.30,582.48 L 48.30,583.88 L 49.70,583.88 Z M 138.14,582.48 L 136.74,582.48 L 136.74,583.88 L 138.14,583.88 Z M 130.24,585.38 L 52.00,585.38 L 52.00,586.98 L 130.24,586.98 Z M 277.12,594.98 L 52.00,594.98 L 52.00,596.58 L 277.12,596.58 Z M 165.26,604.20 L 163.86,604.20 L 163.86,605.60 L 165.26,605.60 Z M 49.70,604.20 L 48.30,604.20 L 48.30,605.60 L 49.70,605.60 Z M 285.02,604.20 L 283.62,604.20 L 283.62,605.60 L 285.02,605.60 Z M 165.26,636.20 L 163.86,636.20 L 163.86,637.60 L 165.26,637.60 Z M 49.70,636.20 L 48.30,636.20 L 48.30,637.60 L 49.70,637.60 Z M 285.02,636.20 L 283.62,636.20 L 283.62,637.60 L 285.02,637.60 Z M 241.86,665.78 L 240.46,665.78 L 240.46,667.18 L 241.86,667.18 Z M 280.42,665.78 L 279.02,665.78 L 279.02,667.18 L 280.42,667.18 Z M 266.34,665.78 L 264.94,665.78 L 264.94,667.18 L 266.34,667.18 Z M 254.10,665.78 L 252.70,665.78 L 252.70,667.18 L 254.10,667.18 Z M 90.18,665.78 L 88.78,665.78 L 88.78,667.18 L 90.18,667.18 Z M 126.90,665.78 L 125.50,665.78 L 125.50,667.18 L 126.90,667.18 Z M 77.94,665.78 L 76.54,665.78 L 76.54,667.18 L 77.94,667.18 Z M 139.14,665.78 L 137.74,665.78 L 137.74,667.18 L 139.14,667.18 Z M 65.70,665.78 L 64.30,665.78 L 64.30,667.18 L 65.70,667.18 Z M 114.66,665.78 L 113.26,665.78 L 113.26,667.18 L 114.66,667.18 Z M 53.46,665.78 L 52.06,665.78 L 52.06,667.18 L 53.46,667.18 Z M 229.62,665.78 L 228.22,665.78 L 228.22,667.18 L 229.62,667.18 Z M 217.38,665.78 L 215.98,665.78 L 215.98,667.18 L 217.38,667.18 Z M 151.38,665.78 L 149.98,665.78 L 149.98,667.18 L 151.38,667.18 Z M 205.14,665.78 L 203.74,665.78 L 203.74,667.18 L 205.14,667.18 Z M 102.42,665.78 L 101.02,665.78 L 101.02,667.18 L 102.42,667.18 Z M 192.90,665.78 L 191.50,665.78 L 191.50,667.18 L 192.90,667.18 Z M 180.66,665.78 L 179.26,665.78 L 179.26,667.18 L 180.66,667.18 Z M 168.42,665.78 L 167.02,665.78 L 167.02,667.18 L 168.42,667.18 Z M 165.26,668.20 L 163.86,668.20 L 163.86,669.60 L 165.26,669.60 Z M 49.70,668.20 L 48.30,668.20 L 48.30,669.60 L 49.70,669.60 Z M 285.02,668.20 L 283.62,668.20 L 283.62,669.60 L 285.02,669.60 Z M 49.70,700.20 L 48.30,700.20 L 48.30,701.60 L 49.70,701.60 Z M 165.26,700.20 L 163.86,700.20 L 163.86,701.60 L 165.26,701.60 Z M 285.02,700.20 L 283.62,700.20 L 283.62,701.60 L 285.02,701.60 Z M 165.26,732.20 L 163.86,732.20 L 163.86,733.60 L 165.26,733.60 Z M 285.02,732.20 L 283.62,732.20 L 283.62,733.60 L 285.02,733.60 Z M 49.70,732.20 L 48.30,732.20 L 48.30,733.60 L 49.70,733.60 Z M 277.12,735.10 L 52.00,735.10 L 52.00,736.70 L 277.12,736.70 Z M 123.52,749.20 L 52.00,749.20 L 52.00,751.20 L 123.52,751.20 Z M 64.46,753.64 L 63.06,753.64 L 63.06,755.04 L 64.46,755.04 Z M 94.22,753.64 L 92.82,753.64 L 92.82,755.04 L 94.22,755.04 Z M 85.98,753.64 L 84.58,753.64 L 84.58,755.04 L 85.98,755.04 Z M 56.22,753.64 L 54.82,753.64 L 54.82,755.04 L 56.22,755.04 Z M 115.10,758.98 L 113.70,758.98 L 113.70,760.38 L 115.10,760.38 Z M 96.98,758.98 L 95.58,758.98 L 95.58,760.38 L 96.98,760.38 Z M 58.98,758.98 L 57.58,758.98 L 57.58,760.38 L 58.98,760.38 Z M 112.98,758.98 L 111.58,758.98 L 111.58,760.38 L 112.98,760.38 Z M 91.46,758.98 L 90.06,758.98 L 90.06,760.38 L 91.46,760.38 Z M 88.74,758.98 L 87.34,758.98 L 87.34,760.38 L 88.74,760.38 Z M 83.22,758.98 L 81.82,758.98 L 81.82,760.38 L 83.22,760.38 Z M 67.22,758.98 L 65.82,758.98 L 65.82,760.38 L 67.22,760.38 Z M 61.70,758.98 L 60.30,758.98 L 60.30,760.38 L 61.70,760.38 Z M 53.46,758.98 L 52.06,758.98 L 52.06,760.38 L 53.46,760.38 Z M 122.74,759.98 L 121.34,759.98 L 121.34,761.38 L 122.74,761.38 Z M 108.02,759.98 L 106.62,759.98 L 106.62,761.38 L 108.02,761.38 Z M 78.26,759.98 L 76.86,759.98 L 76.86,761.38 L 78.26,761.38 Z M 70.26,776.24 L 68.86,776.24 L 68.86,777.64 L 70.26,777.64 Z M 56.22,776.24 L 54.82,776.24 L 54.82,777.64 L 56.22,777.64 Z M 58.98,781.58 L 57.58,781.58 L 57.58,782.98 L 58.98,782.98 Z M 67.50,781.58 L 66.10,781.58 L 66.10,782.98 L 67.50,782.98 Z M 73.02,781.58 L 71.62,781.58 L 71.62,782.98 L 73.02,782.98 Z M 53.46,781.58 L 52.06,781.58 L 52.06,782.98 L 53.46,782.98 Z M 81.54,783.58 L 80.14,783.58 L 80.14,784.98 L 81.54,784.98 Z M 83.66,783.58 L 82.26,783.58 L 82.26,784.98 L 83.66,784.98 Z M 123.52,786.68 L 52.00,786.68 L 52.00,788.68 L 123.52,788.68 Z M 85.70,789.38 L 84.30,789.38 L 84.30,790.78 L 85.70,790.78 Z M 53.70,789.38 L 52.30,789.38 L 52.30,790.78 L 53.70,790.78 Z M 117.70,789.38 L 116.30,789.38 L 116.30,790.78 L 117.70,790.78 Z M 341.70,800.68 L 340.30,800.68 L 340.30,802.08 L 341.70,802.08 Z M 213.70,800.68 L 212.30,800.68 L 212.30,802.08 L 213.70,802.08 Z M 309.70,800.68 L 308.30,800.68 L 308.30,802.08 L 309.70,802.08 Z M 277.70,800.68 L 276.30,800.68 L 276.30,802.08 L 277.70,802.08 Z M 245.70,800.68 L 244.30,800.68 L 244.30,802.08 L 245.70,802.08 Z M 53.70,800.68 L 52.30,800.68 L 52.30,802.08 L 53.70,802.08 Z M 85.70,800.68 L 84.30,800.68 L 84.30,802.08 L 85.70,802.08 Z M 117.70,800.68 L 116.30,800.68 L 116.30,802.08 L 117.70,802.08 Z M 149.70,800.68 L 148.30,800.68 L 148.30,802.08 L 149.70,802.08 Z M 181.70,800.68 L 180.30,800.68 L 180.30,802.08 L 181.70,802.08 Z M 629.74,804.34 L 628.34,804.34 L 628.34,805.74 L 629.74,805.74 Z M 358.64,805.98 L 52.00,805.98 L 52.00,807.98 L 358.64,807.98 Z M 282.46,814.40 L 281.06,814.40 L 281.06,815.80 L 282.46,815.80 Z M 280.34,814.40 L 278.94,814.40 L 278.94,815.80 L 280.34,815.80 Z M 267.74,814.40 L 266.34,814.40 L 266.34,815.80 L 267.74,815.80 Z M 265.62,814.40 L 264.22,814.40 L 264.22,815.80 L 265.62,815.80 Z M 290.90,817.40 L 289.50,817.40 L 289.50,818.80 L 290.90,818.80 Z M 347.14,823.44 L 345.74,823.44 L 345.74,824.84 L 347.14,824.84 Z M 143.98,823.44 L 142.58,823.44 L 142.58,824.84 L 143.98,824.84 Z M 71.14,823.44 L 69.74,823.44 L 69.74,824.84 L 71.14,824.84 Z M 73.26,823.44 L 71.86,823.44 L 71.86,824.84 L 73.26,824.84 Z M 88.82,823.44 L 87.42,823.44 L 87.42,824.84 L 88.82,824.84 Z M 90.94,823.44 L 89.54,823.44 L 89.54,824.84 L 90.94,824.84 Z M 108.62,823.44 L 107.22,823.44 L 107.22,824.84 L 108.62,824.84 Z M 250.06,823.44 L 248.66,823.44 L 248.66,824.84 L 250.06,824.84 Z M 247.94,823.44 L 246.54,823.44 L 246.54,824.84 L 247.94,824.84 Z M 124.18,823.44 L 122.78,823.44 L 122.78,824.84 L 124.18,824.84 Z M 126.30,823.44 L 124.90,823.44 L 124.90,824.84 L 126.30,824.84 Z M 141.86,823.44 L 140.46,823.44 L 140.46,824.84 L 141.86,824.84 Z M 106.50,823.44 L 105.10,823.44 L 105.10,824.84 L 106.50,824.84 Z M 232.38,823.44 L 230.98,823.44 L 230.98,824.84 L 232.38,824.84 Z M 230.26,823.44 L 228.86,823.44 L 228.86,824.84 L 230.26,824.84 Z M 159.54,823.44 L 158.14,823.44 L 158.14,824.84 L 159.54,824.84 Z M 161.66,823.44 L 160.26,823.44 L 160.26,824.84 L 161.66,824.84 Z M 177.22,823.44 L 175.82,823.44 L 175.82,824.84 L 177.22,824.84 Z M 179.34,823.44 L 177.94,823.44 L 177.94,824.84 L 179.34,824.84 Z M 214.70,823.44 L 213.30,823.44 L 213.30,824.84 L 214.70,824.84 Z M 212.58,823.44 L 211.18,823.44 L 211.18,824.84 L 212.58,824.84 Z M 194.90,823.44 L 193.50,823.44 L 193.50,824.84 L 194.90,824.84 Z M 197.02,823.44 L 195.62,823.44 L 195.62,824.84 L 197.02,824.84 Z M 349.26,823.44 L 347.86,823.44 L 347.86,824.84 L 349.26,824.84 Z M 55.58,823.44 L 54.18,823.44 L 54.18,824.84 L 55.58,824.84 Z M 317.90,823.44 L 316.50,823.44 L 316.50,824.84 L 317.90,824.84 Z M 302.22,823.44 L 300.82,823.44 L 300.82,824.84 L 302.22,824.84 Z M 315.78,823.44 L 314.38,823.44 L 314.38,824.84 L 315.78,824.84 Z M 53.46,823.44 L 52.06,823.44 L 52.06,824.84 L 53.46,824.84 Z M 331.46,823.44 L 330.06,823.44 L 330.06,824.84 L 331.46,824.84 Z M 333.58,823.44 L 332.18,823.44 L 332.18,824.84 L 333.58,824.84 Z M 300.10,823.44 L 298.70,823.44 L 298.70,824.84 L 300.10,824.84 Z M 148.34,824.44 L 146.94,824.44 L 146.94,825.84 L 148.34,825.84 Z M 254.42,824.44 L 253.02,824.44 L 253.02,825.84 L 254.42,825.84 Z M 76.82,824.44 L 75.42,824.44 L 75.42,825.84 L 76.82,825.84 Z M 182.90,824.44 L 181.50,824.44 L 181.50,825.84 L 182.90,825.84 Z M 322.26,824.44 L 320.86,824.44 L 320.86,825.84 L 322.26,825.84 Z M 218.26,824.44 L 216.86,824.44 L 216.86,825.84 L 218.26,825.84 Z M 166.02,824.44 L 164.62,824.44 L 164.62,825.84 L 166.02,825.84 Z M 353.62,824.44 L 352.22,824.44 L 352.22,825.84 L 353.62,825.84 Z M 236.74,824.44 L 235.34,824.44 L 235.34,825.84 L 236.74,825.84 Z M 201.38,824.44 L 199.98,824.44 L 199.98,825.84 L 201.38,825.84 Z M 337.94,824.44 L 336.54,824.44 L 336.54,825.84 L 337.94,825.84 Z M 306.58,824.44 L 305.18,824.44 L 305.18,825.84 L 306.58,825.84 Z M 112.18,824.44 L 110.78,824.44 L 110.78,825.84 L 112.18,825.84 Z M 95.30,824.44 L 93.90,824.44 L 93.90,825.84 L 95.30,825.84 Z M 59.94,824.44 L 58.54,824.44 L 58.54,825.84 L 59.94,825.84 Z M 130.66,824.44 L 129.26,824.44 L 129.26,825.84 L 130.66,825.84 Z M 267.74,831.44 L 266.34,831.44 L 266.34,832.84 L 267.74,832.84 Z M 265.62,831.44 L 264.22,831.44 L 264.22,832.84 L 265.62,832.84 Z M 290.90,832.44 L 289.50,832.44 L 289.50,833.84 L 290.90,833.84 Z M 267.74,838.48 L 266.34,838.48 L 266.34,839.88 L 267.74,839.88 Z M 265.62,838.48 L 264.22,838.48 L 264.22,839.88 L 265.62,839.88 Z M 230.26,839.48 L 228.86,839.48 L 228.86,840.88 L 230.26,840.88 Z M 214.70,839.48 L 213.30,839.48 L 213.30,840.88 L 214.70,840.88 Z M 300.10,839.48 L 298.70,839.48 L 298.70,840.88 L 300.10,840.88 Z M 236.74,839.48 L 235.34,839.48 L 235.34,840.88 L 236.74,840.88 Z M 317.90,839.48 L 316.50,839.48 L 316.50,840.88 L 317.90,840.88 Z M 337.94,839.48 L 336.54,839.48 L 336.54,840.88 L 337.94,840.88 Z M 250.06,839.48 L 248.66,839.48 L 248.66,840.88 L 250.06,840.88 Z M 232.38,839.48 L 230.98,839.48 L 230.98,840.88 L 232.38,840.88 Z M 302.22,839.48 L 300.82,839.48 L 300.82,840.88 L 302.22,840.88 Z M 315.78,839.48 L 314.38,839.48 L 314.38,840.88 L 315.78,840.88 Z M 290.90,839.48 L 289.50,839.48 L 289.50,840.88 L 290.90,840.88 Z M 254.42,839.48 L 253.02,839.48 L 253.02,840.88 L 254.42,840.88 Z M 322.26,839.48 L 320.86,839.48 L 320.86,840.88 L 322.26,840.88 Z M 306.58,839.48 L 305.18,839.48 L 305.18,840.88 L 306.58,840.88 Z M 247.94,839.48 L 246.54,839.48 L 246.54,840.88 L 247.94,840.88 Z M 59.94,839.48 L 58.54,839.48 L 58.54,840.88 L 59.94,840.88 Z M 106.50,839.48 L 105.10,839.48 L 105.10,840.88 L 106.50,840.88 Z M 90.94,839.48 L 89.54,839.48 L 89.54,840.88 L 90.94,840.88 Z M 88.82,839.48 L 87.42,839.48 L 87.42,840.88 L 88.82,840.88 Z M 95.30,839.48 L 93.90,839.48 L 93.90,840.88 L 95.30,840.88 Z M 73.26,839.48 L 71.86,839.48 L 71.86,840.88 L 73.26,840.88 Z M 71.14,839.48 L 69.74,839.48 L 69.74,840.88 L 71.14,840.88 Z M 55.58,839.48 L 54.18,839.48 L 54.18,840.88 L 55.58,840.88 Z M 53.46,839.48 L 52.06,839.48 L 52.06,840.88 L 53.46,840.88 Z M 197.02,839.48 L 195.62,839.48 L 195.62,840.88 L 197.02,840.88 Z M 112.18,839.48 L 110.78,839.48 L 110.78,840.88 L 112.18,840.88 Z M 76.82,839.48 L 75.42,839.48 L 75.42,840.88 L 76.82,840.88 Z M 349.26,839.48 L 347.86,839.48 L 347.86,840.88 L 349.26,840.88 Z M 347.14,839.48 L 345.74,839.48 L 345.74,840.88 L 347.14,840.88 Z M 353.62,839.48 L 352.22,839.48 L 352.22,840.88 L 353.62,840.88 Z M 333.58,839.48 L 332.18,839.48 L 332.18,840.88 L 333.58,840.88 Z M 331.46,839.48 L 330.06,839.48 L 330.06,840.88 L 331.46,840.88 Z M 130.66,839.48 L 129.26,839.48 L 129.26,840.88 L 130.66,840.88 Z M 212.58,839.48 L 211.18,839.48 L 211.18,840.88 L 212.58,840.88 Z M 194.90,839.48 L 193.50,839.48 L 193.50,840.88 L 194.90,840.88 Z M 201.38,839.48 L 199.98,839.48 L 199.98,840.88 L 201.38,840.88 Z M 179.34,839.48 L 177.94,839.48 L 177.94,840.88 L 179.34,840.88 Z M 177.22,839.48 L 175.82,839.48 L 175.82,840.88 L 177.22,840.88 Z M 161.66,839.48 L 160.26,839.48 L 160.26,840.88 L 161.66,840.88 Z M 159.54,839.48 L 158.14,839.48 L 158.14,840.88 L 159.54,840.88 Z M 166.02,839.48 L 164.62,839.48 L 164.62,840.88 L 166.02,840.88 Z M 218.26,839.48 L 216.86,839.48 L 216.86,840.88 L 218.26,840.88 Z M 182.90,839.48 L 181.50,839.48 L 181.50,840.88 L 182.90,840.88 Z M 143.98,839.48 L 142.58,839.48 L 142.58,840.88 L 143.98,840.88 Z M 141.86,839.48 L 140.46,839.48 L 140.46,840.88 L 141.86,840.88 Z M 148.34,839.48 L 146.94,839.48 L 146.94,840.88 L 148.34,840.88 Z M 126.30,839.48 L 124.90,839.48 L 124.90,840.88 L 126.30,840.88 Z M 124.18,839.48 L 122.78,839.48 L 122.78,840.88 L 124.18,840.88 Z M 108.62,839.48 L 107.22,839.48 L 107.22,840.88 L 108.62,840.88 Z M 358.64,841.58 L 52.00,841.58 L 52.00,843.58 L 358.64,843.58 Z M 53.70,844.28 L 52.30,844.28 L 52.30,845.68 L 53.70,845.68 Z M 85.70,844.28 L 84.30,844.28 L 84.30,845.68 L 85.70,845.68 Z M 341.70,844.28 L 340.30,844.28 L 340.30,845.68 L 341.70,845.68 Z M 309.70,844.28 L 308.30,844.28 L 308.30,845.68 L 309.70,845.68 Z M 117.70,844.28 L 116.30,844.28 L 116.30,845.68 L 117.70,845.68 Z M 277.70,844.28 L 276.30,844.28 L 276.30,845.68 L 277.70,845.68 Z M 149.70,844.28 L 148.30,844.28 L 148.30,845.68 L 149.70,845.68 Z M 245.70,844.28 L 244.30,844.28 L 244.30,845.68 L 245.70,845.68 Z M 213.70,844.28 L 212.30,844.28 L 212.30,845.68 L 213.70,845.68 Z M 181.70,844.28 L 180.30,844.28 L 180.30,845.68 L 181.70,845.68 Z M 552.46,844.34 L 551.06,844.34 L 551.06,845.74 L 552.46,845.74 Z M 53.70,855.58 L 52.30,855.58 L 52.30,856.98 L 53.70,856.98 Z M 85.70,855.58 L 84.30,855.58 L 84.30,856.98 L 85.70,856.98 Z M 117.70,855.58 L 116.30,855.58 L 116.30,856.98 L 117.70,856.98 Z M 149.70,855.58 L 148.30,855.58 L 148.30,856.98 L 149.70,856.98 Z M 181.70,855.58 L 180.30,855.58 L 180.30,856.98 L 181.70,856.98 Z M 213.70,855.58 L 212.30,855.58 L 212.30,856.98 L 213.70,856.98 Z M 245.70,855.58 L 244.30,855.58 L 244.30,856.98 L 245.70,856.98 Z M 277.12,860.88 L 52.00,860.88 L 52.00,862.88 L 277.12,862.88 Z M 267.74,869.30 L 266.34,869.30 L 266.34,870.70 L 267.74,870.70 Z M 265.62,869.30 L 264.22,869.30 L 264.22,870.70 L 265.62,870.70 Z M 272.10,872.30 L 270.70,872.30 L 270.70,873.70 L 272.10,873.70 Z M 55.58,873.30 L 54.18,873.30 L 54.18,874.70 L 55.58,874.70 Z M 143.98,873.30 L 142.58,873.30 L 142.58,874.70 L 143.98,874.70 Z M 141.86,873.30 L 140.46,873.30 L 140.46,874.70 L 141.86,874.70 Z M 108.62,873.30 L 107.22,873.30 L 107.22,874.70 L 108.62,874.70 Z M 53.46,873.30 L 52.06,873.30 L 52.06,874.70 L 53.46,874.70 Z M 126.30,873.30 L 124.90,873.30 L 124.90,874.70 L 126.30,874.70 Z M 106.50,873.30 L 105.10,873.30 L 105.10,874.70 L 106.50,874.70 Z M 159.54,873.30 L 158.14,873.30 L 158.14,874.70 L 159.54,874.70 Z M 124.18,873.30 L 122.78,873.30 L 122.78,874.70 L 124.18,874.70 Z M 177.22,873.30 L 175.82,873.30 L 175.82,874.70 L 177.22,874.70 Z M 250.06,873.30 L 248.66,873.30 L 248.66,874.70 L 250.06,874.70 Z M 247.94,873.30 L 246.54,873.30 L 246.54,874.70 L 247.94,874.70 Z M 88.82,873.30 L 87.42,873.30 L 87.42,874.70 L 88.82,874.70 Z M 232.38,873.30 L 230.98,873.30 L 230.98,874.70 L 232.38,874.70 Z M 230.26,873.30 L 228.86,873.30 L 228.86,874.70 L 230.26,874.70 Z M 90.94,873.30 L 89.54,873.30 L 89.54,874.70 L 90.94,874.70 Z M 214.70,873.30 L 213.30,873.30 L 213.30,874.70 L 214.70,874.70 Z M 212.58,873.30 L 211.18,873.30 L 211.18,874.70 L 212.58,874.70 Z M 197.02,873.30 L 195.62,873.30 L 195.62,874.70 L 197.02,874.70 Z M 194.90,873.30 L 193.50,873.30 L 193.50,874.70 L 194.90,874.70 Z M 73.26,873.30 L 71.86,873.30 L 71.86,874.70 L 73.26,874.70 Z M 71.14,873.30 L 69.74,873.30 L 69.74,874.70 L 71.14,874.70 Z M 179.34,873.30 L 177.94,873.30 L 177.94,874.70 L 179.34,874.70 Z M 161.66,873.30 L 160.26,873.30 L 160.26,874.70 L 161.66,874.70 Z M 130.66,874.30 L 129.26,874.30 L 129.26,875.70 L 130.66,875.70 Z M 59.94,874.30 L 58.54,874.30 L 58.54,875.70 L 59.94,875.70 Z M 95.30,874.30 L 93.90,874.30 L 93.90,875.70 L 95.30,875.70 Z M 112.18,874.30 L 110.78,874.30 L 110.78,875.70 L 112.18,875.70 Z M 148.34,874.30 L 146.94,874.30 L 146.94,875.70 L 148.34,875.70 Z M 76.82,874.30 L 75.42,874.30 L 75.42,875.70 L 76.82,875.70 Z M 182.90,874.30 L 181.50,874.30 L 181.50,875.70 L 182.90,875.70 Z M 218.26,874.30 L 216.86,874.30 L 216.86,875.70 L 218.26,875.70 Z M 166.02,874.30 L 164.62,874.30 L 164.62,875.70 L 166.02,875.70 Z M 201.38,874.30 L 199.98,874.30 L 199.98,875.70 L 201.38,875.70 Z M 236.74,874.30 L 235.34,874.30 L 235.34,875.70 L 236.74,875.70 Z M 254.42,874.30 L 253.02,874.30 L 253.02,875.70 L 254.42,875.70 Z M 267.74,888.34 L 266.34,888.34 L 266.34,889.74 L 267.74,889.74 Z M 265.62,888.34 L 264.22,888.34 L 264.22,889.74 L 265.62,889.74 Z M 166.02,889.34 L 164.62,889.34 L 164.62,890.74 L 166.02,890.74 Z M 177.22,889.34 L 175.82,889.34 L 175.82,890.74 L 177.22,890.74 Z M 159.54,889.34 L 158.14,889.34 L 158.14,890.74 L 159.54,890.74 Z M 161.66,889.34 L 160.26,889.34 L 160.26,890.74 L 161.66,890.74 Z M 88.82,889.34 L 87.42,889.34 L 87.42,890.74 L 88.82,890.74 Z M 179.34,889.34 L 177.94,889.34 L 177.94,890.74 L 179.34,890.74 Z M 201.38,889.34 L 199.98,889.34 L 199.98,890.74 L 201.38,890.74 Z M 194.90,889.34 L 193.50,889.34 L 193.50,890.74 L 194.90,890.74 Z M 197.02,889.34 L 195.62,889.34 L 195.62,890.74 L 197.02,890.74 Z M 212.58,889.34 L 211.18,889.34 L 211.18,890.74 L 212.58,890.74 Z M 214.70,889.34 L 213.30,889.34 L 213.30,890.74 L 214.70,890.74 Z M 236.74,889.34 L 235.34,889.34 L 235.34,890.74 L 236.74,890.74 Z M 230.26,889.34 L 228.86,889.34 L 228.86,890.74 L 230.26,890.74 Z M 232.38,889.34 L 230.98,889.34 L 230.98,890.74 L 232.38,890.74 Z M 254.42,889.34 L 253.02,889.34 L 253.02,890.74 L 254.42,890.74 Z M 247.94,889.34 L 246.54,889.34 L 246.54,890.74 L 247.94,890.74 Z M 250.06,889.34 L 248.66,889.34 L 248.66,890.74 L 250.06,890.74 Z M 272.10,889.34 L 270.70,889.34 L 270.70,890.74 L 272.10,890.74 Z M 112.18,889.34 L 110.78,889.34 L 110.78,890.74 L 112.18,890.74 Z M 90.94,889.34 L 89.54,889.34 L 89.54,890.74 L 90.94,890.74 Z M 95.30,889.34 L 93.90,889.34 L 93.90,890.74 L 95.30,890.74 Z M 106.50,889.34 L 105.10,889.34 L 105.10,890.74 L 106.50,890.74 Z M 108.62,889.34 L 107.22,889.34 L 107.22,890.74 L 108.62,890.74 Z M 73.26,889.34 L 71.86,889.34 L 71.86,890.74 L 73.26,890.74 Z M 71.14,889.34 L 69.74,889.34 L 69.74,890.74 L 71.14,890.74 Z M 130.66,889.34 L 129.26,889.34 L 129.26,890.74 L 130.66,890.74 Z M 124.18,889.34 L 122.78,889.34 L 122.78,890.74 L 124.18,890.74 Z M 55.58,889.34 L 54.18,889.34 L 54.18,890.74 L 55.58,890.74 Z M 53.46,889.34 L 52.06,889.34 L 52.06,890.74 L 53.46,890.74 Z M 126.30,889.34 L 124.90,889.34 L 124.90,890.74 L 126.30,890.74 Z M 59.94,889.34 L 58.54,889.34 L 58.54,890.74 L 59.94,890.74 Z M 148.34,889.34 L 146.94,889.34 L 146.94,890.74 L 148.34,890.74 Z M 218.26,889.34 L 216.86,889.34 L 216.86,890.74 L 218.26,890.74 Z M 141.86,889.34 L 140.46,889.34 L 140.46,890.74 L 141.86,890.74 Z M 76.82,889.34 L 75.42,889.34 L 75.42,890.74 L 76.82,890.74 Z M 143.98,889.34 L 142.58,889.34 L 142.58,890.74 L 143.98,890.74 Z M 182.90,889.34 L 181.50,889.34 L 181.50,890.74 L 182.90,890.74 Z M 277.12,891.44 L 52.00,891.44 L 52.00,893.44 L 277.12,893.44 Z M 53.70,894.14 L 52.30,894.14 L 52.30,895.54 L 53.70,895.54 Z M 85.70,894.14 L 84.30,894.14 L 84.30,895.54 L 85.70,895.54 Z M 117.70,894.14 L 116.30,894.14 L 116.30,895.54 L 117.70,895.54 Z M 149.70,894.14 L 148.30,894.14 L 148.30,895.54 L 149.70,895.54 Z M 181.70,894.14 L 180.30,894.14 L 180.30,895.54 L 181.70,895.54 Z M 213.70,894.14 L 212.30,894.14 L 212.30,895.54 L 213.70,895.54 Z M 245.70,894.14 L 244.30,894.14 L 244.30,895.54 L 245.70,895.54 Z" fill="#4169E1" fill-opacity="0.5" stroke="#2a4a9e" stroke-width="0.5"/>
    <text x="10" y="938" font-family="sans-serif" font-size="11" fill="#aaaaaa">met1 (68,20) - 417 polygons</text>
</g>
</svg>
