<?xml version="1.0" encoding="UTF-8"?>
<svg xmlns="http://www.w3.org/2000/svg" width="684.0" height="968.0" viewBox="0 0 684.0 968.0">
<rect width="100%" height="100%" fill="#1a1a2e"/>
<text x="342.0" y="18" font-family="sans-serif" font-size="14" fill="#eee" text-anchor="middle" font-weight="bold">tt_um_pll_sky130 - via (68,44)</text>
<g transform="translate(0, 25)">
    <path d="M 20.00,923.04 L 664.00,923.04 L 664.00,20.00 L 20.00,20.00 Z" fill="none" stroke="#555555" stroke-width="1" stroke-dasharray="4,2"/>
    <path d="M 27.70,883.34 L 28.30,883.34 L 28.30,882.74 L 27.70,882.74 Z M 41.70,883.34 L 42.30,883.34 L 42.30,882.74 L 41.70,882.74 Z M 27.70,723.34 L 28.30,723.34 L 28.30,722.74 L 27.70,722.74 Z M 41.70,723.34 L 42.30,723.34 L 42.30,722.74 L 41.70,722.74 Z M 27.70,523.34 L 28.30,523.34 L 28.30,522.74 L 27.70,522.74 Z M 41.70,523.34 L 42.30,523.34 L 42.30,522.74 L 41.70,522.74 Z M 27.70,323.34 L 28.30,323.34 L 28.30,322.74 L 27.70,322.74 Z M 41.70,323.34 L 42.30,323.34 L 42.30,322.74 L 41.70,322.74 Z M 27.70,123.34 L 28.30,123.34 L 28.30,122.74 L 27.70,122.74 Z M 41.70,123.34 L 42.30,123.34 L 42.30,122.74 L 41.70,122.74 Z M 628.74,805.34 L 629.34,805.34 L 629.34,804.74 L 628.74,804.74 Z M 551.46,845.34 L 552.06,845.34 L 552.06,844.74 L 551.46,844.74 Z" fill="#FFFFFF" fill-opacity="0.8" stroke="#aaaaaa" stroke-width="0.5"/>
    <text x="10" y="938" font-family="sans-serif" font-size="11" fill="#aaaaaa">via (68,44) - 12 polygons</text>
</g>
</svg>
