<?xml version="1.0" encoding="UTF-8"?>
<svg xmlns="http://www.w3.org/2000/svg" width="684.0" height="968.0" viewBox="0 0 684.0 968.0">
<rect width="100%" height="100%" fill="#1a1a2e"/>
<text x="342.0" y="18" font-family="sans-serif" font-size="14" fill="#eee" text-anchor="middle" font-weight="bold">tt_um_pll_sky130 - nwell (64,20)</text>
<g transform="translate(0, 25)">
    <path d="M 20.00,923.04 L 664.00,923.04 L 664.00,20.00 L 20.00,20.00 Z" fill="none" stroke="#555555" stroke-width="1" stroke-dasharray="4,2"/>
    <path d="M 237.20,488.80 L 241.92,488.80 L 241.92,461.12 L 48.00,461.12 L 48.00,488.80 L 211.84,488.80 L 211.84,494.36 L 221.52,494.36 L 221.52,488.80 L 227.52,488.80 L 227.52,494.36 L 237.20,494.36 Z M 123.76,752.16 L 51.28,752.16 L 51.28,764.40 L 123.76,764.40 Z M 86.80,799.58 L 83.20,799.58 L 83.20,803.18 L 86.80,803.18 Z M 214.80,799.58 L 211.20,799.58 L 211.20,803.18 L 214.80,803.18 Z M 246.80,799.58 L 243.20,799.58 L 243.20,803.18 L 246.80,803.18 Z M 278.80,799.58 L 275.20,799.58 L 275.20,803.18 L 278.80,803.18 Z M 310.80,799.58 L 307.20,799.58 L 307.20,803.18 L 310.80,803.18 Z M 342.80,799.58 L 339.20,799.58 L 339.20,803.18 L 342.80,803.18 Z M 182.80,799.58 L 179.20,799.58 L 179.20,803.18 L 182.80,803.18 Z M 150.80,799.58 L 147.20,799.58 L 147.20,803.18 L 150.80,803.18 Z M 118.80,799.58 L 115.20,799.58 L 115.20,803.18 L 118.80,803.18 Z M 54.80,799.58 L 51.20,799.58 L 51.20,803.18 L 54.80,803.18 Z M 263.44,819.82 L 291.92,819.82 L 291.92,810.38 L 263.44,810.38 Z M 344.96,826.86 L 354.64,826.86 L 354.64,821.42 L 344.96,821.42 Z M 104.32,826.86 L 113.20,826.86 L 113.20,821.42 L 104.32,821.42 Z M 68.96,826.86 L 77.84,826.86 L 77.84,821.42 L 68.96,821.42 Z M 338.96,821.42 L 329.28,821.42 L 329.28,826.86 L 338.96,826.86 Z M 323.28,821.42 L 313.60,821.42 L 313.60,826.86 L 323.28,826.86 Z M 307.60,821.42 L 297.92,821.42 L 297.92,826.86 L 307.60,826.86 Z M 255.44,821.42 L 245.76,821.42 L 245.76,826.86 L 255.44,826.86 Z M 237.76,821.42 L 228.08,821.42 L 228.08,826.86 L 237.76,826.86 Z M 219.28,821.42 L 210.40,821.42 L 210.40,826.86 L 219.28,826.86 Z M 202.40,821.42 L 192.72,821.42 L 192.72,826.86 L 202.40,826.86 Z M 167.04,821.42 L 157.36,821.42 L 157.36,826.86 L 167.04,826.86 Z M 51.28,826.86 L 60.96,826.86 L 60.96,821.42 L 51.28,821.42 Z M 86.64,826.86 L 96.32,826.86 L 96.32,821.42 L 86.64,821.42 Z M 122.00,826.86 L 131.68,826.86 L 131.68,821.42 L 122.00,821.42 Z M 139.68,826.86 L 149.36,826.86 L 149.36,821.42 L 139.68,821.42 Z M 175.04,826.86 L 183.92,826.86 L 183.92,821.42 L 175.04,821.42 Z M 54.80,854.48 L 51.20,854.48 L 51.20,858.08 L 54.80,858.08 Z M 86.80,854.48 L 83.20,854.48 L 83.20,858.08 L 86.80,858.08 Z M 118.80,854.48 L 115.20,854.48 L 115.20,858.08 L 118.80,858.08 Z M 150.80,854.48 L 147.20,854.48 L 147.20,858.08 L 150.80,858.08 Z M 182.80,854.48 L 179.20,854.48 L 179.20,858.08 L 182.80,858.08 Z M 214.80,854.48 L 211.20,854.48 L 211.20,858.08 L 214.80,858.08 Z M 246.80,854.48 L 243.20,854.48 L 243.20,858.08 L 246.80,858.08 Z M 273.12,865.28 L 263.44,865.28 L 263.44,874.72 L 273.12,874.72 Z M 86.64,876.72 L 96.32,876.72 L 96.32,871.28 L 86.64,871.28 Z M 255.44,871.28 L 245.76,871.28 L 245.76,876.72 L 255.44,876.72 Z M 237.76,871.28 L 228.08,871.28 L 228.08,876.72 L 237.76,876.72 Z M 219.28,871.28 L 210.40,871.28 L 210.40,876.72 L 219.28,876.72 Z M 68.96,876.72 L 77.84,876.72 L 77.84,871.28 L 68.96,871.28 Z M 104.32,876.72 L 113.20,876.72 L 113.20,871.28 L 104.32,871.28 Z M 51.28,876.72 L 60.96,876.72 L 60.96,871.28 L 51.28,871.28 Z M 202.40,871.28 L 192.72,871.28 L 192.72,876.72 L 202.40,876.72 Z M 122.00,876.72 L 131.68,876.72 L 131.68,871.28 L 122.00,871.28 Z M 139.68,876.72 L 149.36,876.72 L 149.36,871.28 L 139.68,871.28 Z M 175.04,876.72 L 183.92,876.72 L 183.92,871.28 L 175.04,871.28 Z M 157.36,876.72 L 167.04,876.72 L 167.04,871.28 L 157.36,871.28 Z" fill="#8B4513" fill-opacity="0.25" stroke="#6b3410" stroke-width="0.5"/>
    <text x="10" y="938" font-family="sans-serif" font-size="11" fill="#aaaaaa">nwell (64,20) - 49 polygons</text>
</g>
</svg>
