<?xml version="1.0" encoding="UTF-8"?>
<svg xmlns="http://www.w3.org/2000/svg" width="684.0" height="968.0" viewBox="0 0 684.0 968.0">
<rect width="100%" height="100%" fill="#1a1a2e"/>
<text x="342.0" y="18" font-family="sans-serif" font-size="14" fill="#eee" text-anchor="middle" font-weight="bold">tt_um_pll_sky130 - met1 (68,20)</text>
<g transform="translate(0, 25)">
    <path d="M 20.00,923.04 L 664.00,923.04 L 664.00,20.00 L 20.00,20.00 Z" fill="none" stroke="#555555" stroke-width="1" stroke-dasharray="4,2"/>
    <path d="M 27.30,831.20 L 27.30,903.04 L 28.70,903.04 L 28.70,838.20 L 41.30,838.20 L 41.30,903.04 L 42.70,903.04 L 42.70,892.94 L 52.00,892.94 L 52.00,893.44 L 277.12,893.44 L 277.12,891.44 L 265.62,891.44 L 265.62,888.34 L 264.22,888.34 L 264.22,891.44 L 247.94,891.44 L 247.94,889.34 L 246.54,889.34 L 246.54,891.44 L 230.26,891.44 L 230.26,889.34 L 228.86,889.34 L 228.86,891.44 L 194.90,891.44 L 194.90,889.34 L 193.50,889.34 L 193.50,891.44 L 159.54,891.44 L 159.54,889.34 L 158.14,889.34 L 158.14,891.44 L 141.86,891.44 L 141.86,889.34 L 140.46,889.34 L 140.46,891.44 L 124.18,891.44 L 124.18,889.34 L 122.78,889.34 L 122.78,891.44 L 88.82,891.44 L 88.82,889.34 L 87.42,889.34 L 87.42,891.44 L 53.46,891.44 L 53.46,889.34 L 52.06,889.34 L 52.06,891.44 L 52.00,891.44 L 52.00,891.54 L 42.70,891.54 L 42.70,838.20 L 52.00,838.20 L 52.00,836.80 L 42.70,836.80 L 42.70,834.80 L 52.00,834.80 L 52.00,835.30 L 358.64,835.30 L 358.64,833.30 L 347.14,833.30 L 347.14,831.20 L 345.74,831.20 L 345.74,833.30 L 331.46,833.30 L 331.46,831.20 L 330.06,831.20 L 330.06,833.30 L 315.78,833.30 L 315.78,831.20 L 314.38,831.20 L 314.38,833.30 L 300.10,833.30 L 300.10,831.20 L 298.70,831.20 L 298.70,833.30 L 247.94,833.30 L 247.94,831.20 L 246.54,831.20 L 246.54,833.30 L 230.26,833.30 L 230.26,831.20 L 228.86,831.20 L 228.86,833.30 L 194.90,833.30 L 194.90,831.20 L 193.50,831.20 L 193.50,833.30 L 159.54,833.30 L 159.54,831.20 L 158.14,831.20 L 158.14,833.30 L 141.86,833.30 L 141.86,831.20 L 140.46,831.20 L 140.46,833.30 L 124.18,833.30 L 124.18,831.20 L 122.78,831.20 L 122.78,833.30 L 88.82,833.30 L 88.82,831.20 L 87.42,831.20 L 87.42,833.30 L 53.46,833.30 L 53.46,831.20 L 52.06,831.20 L 52.06,833.30 L 52.00,833.30 L 52.00,833.40 L 42.70,833.40 L 42.70,831.20 L 41.30,831.20 L 41.30,836.80 L 28.70,836.80 L 28.70,831.20 Z M 28.70,831.20 L 28.70,777.86 L 41.30,777.86 L 41.30,831.20 L 42.70,831.20 L 42.70,777.86 L 52.00,777.86 L 52.00,776.46 L 42.70,776.46 L 42.70,774.46 L 52.00,774.46 L 52.00,774.96 L 123.52,774.96 L 123.52,772.96 L 52.00,772.96 L 52.00,773.06 L 42.70,773.06 L 42.70,726.84 L 52.00,726.84 L 52.00,725.44 L 42.70,725.44 L 42.70,723.44 L 52.00,723.44 L 52.00,722.34 L 277.12,722.34 L 277.12,720.74 L 52.00,720.74 L 52.00,722.04 L 42.70,722.04 L 42.70,501.62 L 52.00,501.62 L 52.00,500.22 L 42.70,500.22 L 42.70,498.22 L 50.00,498.22 L 50.00,498.72 L 201.52,498.72 L 201.52,496.72 L 185.30,496.72 L 185.30,493.62 L 183.90,493.62 L 183.90,496.72 L 167.62,496.72 L 167.62,493.62 L 166.22,493.62 L 166.22,496.72 L 149.94,496.72 L 149.94,493.62 L 148.54,493.62 L 148.54,496.72 L 132.26,496.72 L 132.26,493.62 L 130.86,493.62 L 130.86,496.72 L 114.58,496.72 L 114.58,493.62 L 113.18,493.62 L 113.18,496.72 L 96.90,496.72 L 96.90,493.62 L 95.50,493.62 L 95.50,496.72 L 79.22,496.72 L 79.22,493.62 L 77.82,493.62 L 77.82,496.72 L 53.46,496.72 L 53.46,494.92 L 52.06,494.92 L 52.06,496.72 L 50.00,496.72 L 50.00,496.82 L 42.70,496.82 L 42.70,446.06 L 52.00,446.06 L 52.00,444.66 L 42.70,444.66 L 42.70,40.00 L 41.30,40.00 L 41.30,444.66 L 28.70,444.66 L 28.70,40.00 L 27.30,40.00 L 27.30,500.22 L 28.70,500.22 L 28.70,446.06 L 41.30,446.06 L 41.30,500.22 L 28.70,500.22 L 27.30,500.22 L 27.30,725.44 L 28.70,725.44 L 28.70,501.62 L 41.30,501.62 L 41.30,725.44 L 28.70,725.44 L 27.30,725.44 L 27.30,776.46 L 28.70,776.46 L 28.70,726.84 L 41.30,726.84 L 41.30,776.46 L 28.70,776.46 L 27.30,776.46 L 27.30,831.20 Z M 50.00,456.06 L 81.90,456.06 L 81.90,457.88 L 83.30,457.88 L 83.30,456.06 L 99.58,456.06 L 99.58,457.88 L 100.98,457.88 L 100.98,456.06 L 117.26,456.06 L 117.26,457.88 L 118.66,457.88 L 118.66,456.06 L 134.94,456.06 L 134.94,457.88 L 136.34,457.88 L 136.34,456.06 L 152.62,456.06 L 152.62,457.88 L 154.02,457.88 L 154.02,456.06 L 201.52,456.06 L 201.52,454.06 L 50.00,454.06 Z M 55.22,460.14 L 53.82,460.14 L 53.82,461.54 L 55.22,461.54 Z M 61.46,460.14 L 60.06,460.14 L 60.06,461.54 L 61.46,461.54 Z M 186.36,468.64 L 186.36,467.24 L 185.30,467.24 L 185.30,463.88 L 192.48,463.88 L 192.48,462.28 L 183.84,462.28 L 183.84,463.88 L 183.90,463.88 L 183.90,474.10 L 185.30,474.10 L 185.30,468.64 Z M 80.28,468.64 L 80.28,467.24 L 79.22,467.24 L 79.22,463.88 L 86.40,463.88 L 86.40,462.28 L 77.76,462.28 L 77.76,463.88 L 77.82,463.88 L 77.82,474.10 L 79.22,474.10 L 79.22,468.64 Z M 97.96,468.64 L 97.96,467.24 L 96.90,467.24 L 96.90,463.88 L 104.08,463.88 L 104.08,462.28 L 95.44,462.28 L 95.44,463.88 L 95.50,463.88 L 95.50,474.10 L 96.90,474.10 L 96.90,468.64 Z M 115.64,468.64 L 115.64,467.24 L 114.58,467.24 L 114.58,463.88 L 121.76,463.88 L 121.76,462.28 L 113.12,462.28 L 113.12,463.88 L 113.18,463.88 L 113.18,474.10 L 114.58,474.10 L 114.58,468.64 Z M 151.00,468.64 L 151.00,467.24 L 149.94,467.24 L 149.94,463.88 L 157.12,463.88 L 157.12,462.28 L 148.48,462.28 L 148.48,463.88 L 148.54,463.88 L 148.54,474.10 L 149.94,474.10 L 149.94,468.64 Z M 168.68,468.64 L 168.68,467.24 L 167.62,467.24 L 167.62,463.88 L 174.80,463.88 L 174.80,462.28 L 166.16,462.28 L 166.16,463.88 L 166.22,463.88 L 166.22,474.10 L 167.62,474.10 L 167.62,468.64 Z M 133.32,468.64 L 133.32,467.24 L 132.26,467.24 L 132.26,463.88 L 139.44,463.88 L 139.44,462.28 L 130.80,462.28 L 130.80,463.88 L 130.86,463.88 L 130.86,474.10 L 132.26,474.10 L 132.26,468.64 Z M 63.22,465.60 L 61.82,465.60 L 61.82,467.00 L 63.22,467.00 Z M 59.70,465.60 L 58.30,465.60 L 58.30,467.00 L 59.70,467.00 Z M 56.98,465.60 L 55.58,465.60 L 55.58,467.00 L 56.98,467.00 Z M 53.46,465.60 L 52.06,465.60 L 52.06,467.00 L 53.46,467.00 Z M 72.26,466.60 L 70.86,466.60 L 70.86,468.00 L 72.26,468.00 Z M 180.70,471.84 L 179.30,471.84 L 179.30,473.24 L 180.70,473.24 Z M 168.34,472.70 L 168.34,479.16 L 167.28,479.16 L 167.28,491.56 L 168.34,491.56 L 168.34,495.02 L 169.74,495.02 L 169.74,472.70 Z M 79.94,472.70 L 79.94,490.16 L 78.88,490.16 L 78.88,492.56 L 79.94,492.56 L 79.94,495.02 L 81.34,495.02 L 81.34,472.70 Z M 97.62,472.70 L 97.62,479.16 L 96.56,479.16 L 96.56,491.56 L 97.62,491.56 L 97.62,495.02 L 99.02,495.02 L 99.02,472.70 Z M 115.30,472.70 L 115.30,479.16 L 114.24,479.16 L 114.24,491.56 L 115.30,491.56 L 115.30,495.02 L 116.70,495.02 L 116.70,472.70 Z M 132.98,472.70 L 132.98,479.16 L 131.92,479.16 L 131.92,491.56 L 132.98,491.56 L 132.98,495.02 L 134.38,495.02 L 134.38,472.70 Z M 150.66,472.70 L 150.66,479.16 L 149.60,479.16 L 149.60,491.56 L 150.66,491.56 L 150.66,495.02 L 152.06,495.02 L 152.06,472.70 Z M 186.02,472.70 L 186.02,479.16 L 184.96,479.16 L 184.96,491.56 L 186.02,491.56 L 186.02,495.02 L 187.42,495.02 L 187.42,472.70 Z M 191.78,475.70 L 190.38,475.70 L 190.38,477.10 L 191.78,477.10 Z M 103.38,475.70 L 101.98,475.70 L 101.98,477.10 L 103.38,477.10 Z M 121.06,475.70 L 119.66,475.70 L 119.66,477.10 L 121.06,477.10 Z M 174.10,475.70 L 172.70,475.70 L 172.70,477.10 L 174.10,477.10 Z M 156.42,475.70 L 155.02,475.70 L 155.02,477.10 L 156.42,477.10 Z M 138.74,475.70 L 137.34,475.70 L 137.34,477.10 L 138.74,477.10 Z M 85.70,475.70 L 84.30,475.70 L 84.30,477.10 L 85.70,477.10 Z M 629.74,483.16 L 628.34,483.16 L 628.34,484.56 L 629.74,484.56 Z M 55.22,486.16 L 53.82,486.16 L 53.82,487.56 L 55.22,487.56 Z M 552.46,486.36 L 551.06,486.36 L 551.06,487.76 L 552.46,487.76 Z M 56.98,491.62 L 55.58,491.62 L 55.58,493.02 L 56.98,493.02 Z M 53.46,491.62 L 52.06,491.62 L 52.06,493.02 L 53.46,493.02 Z M 72.26,492.62 L 70.86,492.62 L 70.86,494.02 L 72.26,494.02 Z M 85.70,494.62 L 84.30,494.62 L 84.30,496.02 L 85.70,496.02 Z M 191.78,494.62 L 190.38,494.62 L 190.38,496.02 L 191.78,496.02 Z M 156.42,494.62 L 155.02,494.62 L 155.02,496.02 L 156.42,496.02 Z M 103.38,494.62 L 101.98,494.62 L 101.98,496.02 L 103.38,496.02 Z M 138.74,494.62 L 137.34,494.62 L 137.34,496.02 L 138.74,496.02 Z M 174.10,494.62 L 172.70,494.62 L 172.70,496.02 L 174.10,496.02 Z M 121.06,494.62 L 119.66,494.62 L 119.66,496.02 L 121.06,496.02 Z M 85.70,499.42 L 84.30,499.42 L 84.30,500.82 L 85.70,500.82 Z M 117.70,499.42 L 116.30,499.42 L 116.30,500.82 L 117.70,500.82 Z M 53.70,499.42 L 52.30,499.42 L 52.30,500.82 L 53.70,500.82 Z M 149.70,499.42 L 148.30,499.42 L 148.30,500.82 L 149.70,500.82 Z M 180.70,500.82 L 181.70,500.82 L 181.70,499.42 L 180.30,499.42 L 180.30,499.62 L 179.30,499.62 L 179.30,501.02 L 180.70,501.02 Z M 172.70,499.62 L 171.30,499.62 L 171.30,501.02 L 172.70,501.02 Z M 53.40,508.32 L 52.00,508.32 L 52.00,509.72 L 53.40,509.72 Z M 53.40,515.64 L 52.00,515.64 L 52.00,517.04 L 53.40,517.04 Z M 130.24,525.84 L 52.00,525.84 L 52.00,527.44 L 130.24,527.44 Z M 49.70,536.12 L 48.30,536.12 L 48.30,537.52 L 49.70,537.52 Z M 138.14,536.12 L 136.74,536.12 L 136.74,537.52 L 138.14,537.52 Z M 91.82,536.12 L 90.42,536.12 L 90.42,537.52 L 91.82,537.52 Z M 133.54,549.16 L 132.14,549.16 L 132.14,550.56 L 133.54,550.56 Z M 65.70,549.16 L 64.30,549.16 L 64.30,550.56 L 65.70,550.56 Z M 53.46,549.16 L 52.06,549.16 L 52.06,550.56 L 53.46,550.56 Z M 119.46,549.16 L 118.06,549.16 L 118.06,550.56 L 119.46,550.56 Z M 77.94,549.16 L 76.54,549.16 L 76.54,550.56 L 77.94,550.56 Z M 94.98,549.16 L 93.58,549.16 L 93.58,550.56 L 94.98,550.56 Z M 107.22,549.16 L 105.82,549.16 L 105.82,550.56 L 107.22,550.56 Z M 138.14,568.12 L 136.74,568.12 L 136.74,569.52 L 138.14,569.52 Z M 49.70,568.12 L 48.30,568.12 L 48.30,569.52 L 49.70,569.52 Z M 91.82,568.12 L 90.42,568.12 L 90.42,569.52 L 91.82,569.52 Z M 130.24,571.02 L 52.00,571.02 L 52.00,572.62 L 130.24,572.62 Z M 277.12,580.62 L 52.00,580.62 L 52.00,582.22 L 277.12,582.22 Z M 285.02,589.84 L 283.62,589.84 L 283.62,591.24 L 285.02,591.24 Z M 49.70,589.84 L 48.30,589.84 L 48.30,591.24 L 49.70,591.24 Z M 165.26,589.84 L 163.86,589.84 L 163.86,591.24 L 165.26,591.24 Z M 165.26,621.84 L 163.86,621.84 L 163.86,623.24 L 165.26,623.24 Z M 285.02,621.84 L 283.62,621.84 L 283.62,623.24 L 285.02,623.24 Z M 49.70,621.84 L 48.30,621.84 L 48.30,623.24 L 49.70,623.24 Z M 168.42,651.42 L 167.02,651.42 L 167.02,652.82 L 168.42,652.82 Z M 205.14,651.42 L 203.74,651.42 L 203.74,652.82 L 205.14,652.82 Z M 65.70,651.42 L 64.30,651.42 L 64.30,652.82 L 65.70,652.82 Z M 77.94,651.42 L 76.54,651.42 L 76.54,652.82 L 77.94,652.82 Z M 90.18,651.42 L 88.78,651.42 L 88.78,652.82 L 90.18,652.82 Z M 53.46,651.42 L 52.06,651.42 L 52.06,652.82 L 53.46,652.82 Z M 102.42,651.42 L 101.02,651.42 L 101.02,652.82 L 102.42,652.82 Z M 114.66,651.42 L 113.26,651.42 L 113.26,652.82 L 114.66,652.82 Z M 126.90,651.42 L 125.50,651.42 L 125.50,652.82 L 126.90,652.82 Z M 139.14,651.42 L 137.74,651.42 L 137.74,652.82 L 139.14,652.82 Z M 151.38,651.42 L 149.98,651.42 L 149.98,652.82 L 151.38,652.82 Z M 180.66,651.42 L 179.26,651.42 L 179.26,652.82 L 180.66,652.82 Z M 192.90,651.42 L 191.50,651.42 L 191.50,652.82 L 192.90,652.82 Z M 217.38,651.42 L 215.98,651.42 L 215.98,652.82 L 217.38,652.82 Z M 229.62,651.42 L 228.22,651.42 L 228.22,652.82 L 229.62,652.82 Z M 241.86,651.42 L 240.46,651.42 L 240.46,652.82 L 241.86,652.82 Z M 254.10,651.42 L 252.70,651.42 L 252.70,652.82 L 254.10,652.82 Z M 266.34,651.42 L 264.94,651.42 L 264.94,652.82 L 266.34,652.82 Z M 280.42,651.42 L 279.02,651.42 L 279.02,652.82 L 280.42,652.82 Z M 49.70,653.84 L 48.30,653.84 L 48.30,655.24 L 49.70,655.24 Z M 285.02,653.84 L 283.62,653.84 L 283.62,655.24 L 285.02,655.24 Z M 165.26,653.84 L 163.86,653.84 L 163.86,655.24 L 165.26,655.24 Z M 285.02,685.84 L 283.62,685.84 L 283.62,687.24 L 285.02,687.24 Z M 49.70,685.84 L 48.30,685.84 L 48.30,687.24 L 49.70,687.24 Z M 165.26,685.84 L 163.86,685.84 L 163.86,687.24 L 165.26,687.24 Z M 165.26,717.84 L 163.86,717.84 L 163.86,719.24 L 165.26,719.24 Z M 285.02,717.84 L 283.62,717.84 L 283.62,719.24 L 285.02,719.24 Z M 49.70,717.84 L 48.30,717.84 L 48.30,719.24 L 49.70,719.24 Z M 123.52,734.84 L 52.00,734.84 L 52.00,736.84 L 123.52,736.84 Z M 114.04,739.48 L 112.64,739.48 L 112.64,740.88 L 114.04,740.88 Z M 94.22,739.48 L 92.82,739.48 L 92.82,740.88 L 94.22,740.88 Z M 56.22,739.48 L 54.82,739.48 L 54.82,740.88 L 56.22,740.88 Z M 85.98,739.48 L 84.58,739.48 L 84.58,740.88 L 85.98,740.88 Z M 64.46,739.48 L 63.06,739.48 L 63.06,740.88 L 64.46,740.88 Z M 115.10,744.94 L 113.70,744.94 L 113.70,746.34 L 115.10,746.34 Z M 53.46,744.94 L 52.06,744.94 L 52.06,746.34 L 53.46,746.34 Z M 58.98,744.94 L 57.58,744.94 L 57.58,746.34 L 58.98,746.34 Z M 61.70,744.94 L 60.30,744.94 L 60.30,746.34 L 61.70,746.34 Z M 67.22,744.94 L 65.82,744.94 L 65.82,746.34 L 67.22,746.34 Z M 83.22,744.94 L 81.82,744.94 L 81.82,746.34 L 83.22,746.34 Z M 88.74,744.94 L 87.34,744.94 L 87.34,746.34 L 88.74,746.34 Z M 91.46,744.94 L 90.06,744.94 L 90.06,746.34 L 91.46,746.34 Z M 96.98,744.94 L 95.58,744.94 L 95.58,746.34 L 96.98,746.34 Z M 112.98,744.94 L 111.58,744.94 L 111.58,746.34 L 112.98,746.34 Z M 122.74,745.94 L 121.34,745.94 L 121.34,747.34 L 122.74,747.34 Z M 108.02,745.94 L 106.62,745.94 L 106.62,747.34 L 108.02,747.34 Z M 78.26,745.94 L 76.86,745.94 L 76.86,747.34 L 78.26,747.34 Z M 172.70,750.36 L 171.30,750.36 L 171.30,751.76 L 172.70,751.76 Z M 116.70,750.36 L 115.30,750.36 L 115.30,751.76 L 116.70,751.76 Z M 108.70,750.36 L 107.30,750.36 L 107.30,751.76 L 108.70,751.76 Z M 180.70,750.36 L 179.30,750.36 L 179.30,751.76 L 180.70,751.76 Z M 56.22,762.40 L 54.82,762.40 L 54.82,763.80 L 56.22,763.80 Z M 70.26,762.40 L 68.86,762.40 L 68.86,763.80 L 70.26,763.80 Z M 82.60,766.40 L 81.20,766.40 L 81.20,767.80 L 82.60,767.80 Z M 53.46,767.86 L 52.06,767.86 L 52.06,769.26 L 53.46,769.26 Z M 58.98,767.86 L 57.58,767.86 L 57.58,769.26 L 58.98,769.26 Z M 67.50,767.86 L 66.10,767.86 L 66.10,769.26 L 67.50,769.26 Z M 73.02,767.86 L 71.62,767.86 L 71.62,769.26 L 73.02,769.26 Z M 81.54,769.86 L 80.14,769.86 L 80.14,771.26 L 81.54,771.26 Z M 83.66,769.86 L 82.26,769.86 L 82.26,771.26 L 83.66,771.26 Z M 85.70,775.66 L 84.30,775.66 L 84.30,777.06 L 85.70,777.06 Z M 53.70,775.66 L 52.30,775.66 L 52.30,777.06 L 53.70,777.06 Z M 117.70,775.66 L 116.30,775.66 L 116.30,777.06 L 117.70,777.06 Z M 213.70,786.96 L 212.30,786.96 L 212.30,788.36 L 213.70,788.36 Z M 117.70,786.96 L 116.30,786.96 L 116.30,788.36 L 117.70,788.36 Z M 149.70,786.96 L 148.30,786.96 L 148.30,788.36 L 149.70,788.36 Z M 85.70,786.96 L 84.30,786.96 L 84.30,788.36 L 85.70,788.36 Z M 53.70,786.96 L 52.30,786.96 L 52.30,788.36 L 53.70,788.36 Z M 181.70,786.96 L 180.30,786.96 L 180.30,788.36 L 181.70,788.36 Z M 277.70,786.96 L 276.30,786.96 L 276.30,788.36 L 277.70,788.36 Z M 309.70,786.96 L 308.30,786.96 L 308.30,788.36 L 309.70,788.36 Z M 245.70,786.96 L 244.30,786.96 L 244.30,788.36 L 245.70,788.36 Z M 341.70,786.96 L 340.30,786.96 L 340.30,788.36 L 341.70,788.36 Z M 358.64,792.26 L 52.00,792.26 L 52.00,794.26 L 358.64,794.26 Z M 281.40,796.90 L 280.00,796.90 L 280.00,798.30 L 281.40,798.30 Z M 266.68,796.90 L 265.28,796.90 L 265.28,798.30 L 266.68,798.30 Z M 280.34,802.36 L 278.94,802.36 L 278.94,803.76 L 280.34,803.76 Z M 282.46,802.36 L 281.06,802.36 L 281.06,803.76 L 282.46,803.76 Z M 265.62,802.36 L 264.22,802.36 L 264.22,803.76 L 265.62,803.76 Z M 267.74,802.36 L 266.34,802.36 L 266.34,803.76 L 267.74,803.76 Z M 249.00,811.22 L 249.00,809.82 L 247.94,809.82 L 247.94,806.46 L 255.12,806.46 L 255.12,804.86 L 246.48,804.86 L 246.48,806.46 L 246.54,806.46 L 246.54,814.68 L 247.94,814.68 L 247.94,811.22 Z M 160.60,811.22 L 160.60,809.82 L 159.54,809.82 L 159.54,806.46 L 166.72,806.46 L 166.72,804.86 L 158.08,804.86 L 158.08,806.46 L 158.14,806.46 L 158.14,814.68 L 159.54,814.68 L 159.54,811.22 Z M 195.96,811.22 L 195.96,809.82 L 194.90,809.82 L 194.90,806.46 L 202.08,806.46 L 202.08,804.86 L 193.44,804.86 L 193.44,806.46 L 193.50,806.46 L 193.50,814.68 L 194.90,814.68 L 194.90,811.22 Z M 231.32,811.22 L 231.32,809.82 L 230.26,809.82 L 230.26,806.46 L 237.44,806.46 L 237.44,804.86 L 228.80,804.86 L 228.80,806.46 L 228.86,806.46 L 228.86,814.68 L 230.26,814.68 L 230.26,811.22 Z M 316.84,811.22 L 316.84,809.82 L 315.78,809.82 L 315.78,806.46 L 322.96,806.46 L 322.96,804.86 L 314.32,804.86 L 314.32,806.46 L 314.38,806.46 L 314.38,814.68 L 315.78,814.68 L 315.78,811.22 Z M 332.52,811.22 L 332.52,809.82 L 331.46,809.82 L 331.46,806.46 L 338.64,806.46 L 338.64,804.86 L 330.00,804.86 L 330.00,806.46 L 330.06,806.46 L 330.06,814.68 L 331.46,814.68 L 331.46,811.22 Z M 89.88,811.22 L 89.88,809.82 L 88.82,809.82 L 88.82,806.46 L 96.00,806.46 L 96.00,804.86 L 87.36,804.86 L 87.36,806.46 L 87.42,806.46 L 87.42,814.68 L 88.82,814.68 L 88.82,811.22 Z M 54.52,811.22 L 54.52,809.82 L 53.46,809.82 L 53.46,806.46 L 60.64,806.46 L 60.64,804.86 L 52.00,804.86 L 52.00,806.46 L 52.06,806.46 L 52.06,814.68 L 53.46,814.68 L 53.46,811.22 Z M 348.20,811.22 L 348.20,809.82 L 347.14,809.82 L 347.14,806.46 L 354.32,806.46 L 354.32,804.86 L 345.68,804.86 L 345.68,806.46 L 345.74,806.46 L 345.74,814.68 L 347.14,814.68 L 347.14,811.22 Z M 301.16,811.22 L 301.16,809.82 L 300.10,809.82 L 300.10,806.46 L 307.28,806.46 L 307.28,804.86 L 298.64,804.86 L 298.64,806.46 L 298.70,806.46 L 298.70,814.68 L 300.10,814.68 L 300.10,811.22 Z M 125.24,811.22 L 125.24,809.82 L 124.18,809.82 L 124.18,806.46 L 131.36,806.46 L 131.36,804.86 L 122.72,804.86 L 122.72,806.46 L 122.78,806.46 L 122.78,814.68 L 124.18,814.68 L 124.18,811.22 Z M 142.92,811.22 L 142.92,809.82 L 141.86,809.82 L 141.86,806.46 L 149.04,806.46 L 149.04,804.86 L 140.40,804.86 L 140.40,806.02 L 139.30,806.02 L 139.30,807.42 L 140.46,807.42 L 140.46,814.68 L 141.86,814.68 L 141.86,811.22 Z M 290.90,805.36 L 289.50,805.36 L 289.50,806.76 L 290.90,806.76 Z M 108.70,806.02 L 107.30,806.02 L 107.30,807.42 L 108.70,807.42 Z M 116.70,806.02 L 115.30,806.02 L 115.30,807.42 L 116.70,807.42 Z M 213.64,809.82 L 212.24,809.82 L 212.24,811.22 L 213.64,811.22 Z M 178.28,809.82 L 176.88,809.82 L 176.88,811.22 L 178.28,811.22 Z M 107.56,809.82 L 106.16,809.82 L 106.16,811.22 L 107.56,811.22 Z M 72.20,809.82 L 70.80,809.82 L 70.80,811.22 L 72.20,811.22 Z M 347.86,813.28 L 347.86,828.74 L 346.80,828.74 L 346.80,830.14 L 347.86,830.14 L 347.86,832.60 L 349.26,832.60 L 349.26,813.28 Z M 71.14,813.28 L 69.74,813.28 L 69.74,814.68 L 71.14,814.68 Z M 73.26,813.28 L 71.86,813.28 L 71.86,814.68 L 73.26,814.68 Z M 89.54,813.28 L 89.54,828.74 L 88.48,828.74 L 88.48,830.14 L 89.54,830.14 L 89.54,832.60 L 90.94,832.60 L 90.94,813.28 Z M 300.82,813.28 L 300.82,828.74 L 299.76,828.74 L 299.76,830.14 L 300.82,830.14 L 300.82,832.60 L 302.22,832.60 L 302.22,813.28 Z M 179.34,813.28 L 177.94,813.28 L 177.94,814.68 L 179.34,814.68 Z M 177.22,813.28 L 175.82,813.28 L 175.82,814.68 L 177.22,814.68 Z M 106.50,813.28 L 105.10,813.28 L 105.10,814.68 L 106.50,814.68 Z M 108.62,813.28 L 107.22,813.28 L 107.22,814.68 L 108.62,814.68 Z M 124.90,813.28 L 124.90,828.74 L 123.84,828.74 L 123.84,830.14 L 124.90,830.14 L 124.90,832.60 L 126.30,832.60 L 126.30,813.28 Z M 195.62,813.28 L 195.62,828.74 L 194.56,828.74 L 194.56,830.14 L 195.62,830.14 L 195.62,832.60 L 197.02,832.60 L 197.02,813.28 Z M 248.66,813.28 L 248.66,828.74 L 247.60,828.74 L 247.60,830.14 L 248.66,830.14 L 248.66,832.60 L 250.06,832.60 L 250.06,813.28 Z M 160.26,813.28 L 160.26,828.74 L 159.20,828.74 L 159.20,830.14 L 160.26,830.14 L 160.26,832.60 L 161.66,832.60 L 161.66,813.28 Z M 332.18,813.28 L 332.18,828.74 L 331.12,828.74 L 331.12,830.14 L 332.18,830.14 L 332.18,832.60 L 333.58,832.60 L 333.58,813.28 Z M 142.58,813.28 L 142.58,828.74 L 141.52,828.74 L 141.52,830.14 L 142.58,830.14 L 142.58,832.60 L 143.98,832.60 L 143.98,813.28 Z M 230.98,813.28 L 230.98,828.74 L 229.92,828.74 L 229.92,830.14 L 230.98,830.14 L 230.98,832.60 L 232.38,832.60 L 232.38,813.28 Z M 214.70,813.28 L 213.30,813.28 L 213.30,814.68 L 214.70,814.68 Z M 212.58,813.28 L 211.18,813.28 L 211.18,814.68 L 212.58,814.68 Z M 316.50,813.28 L 316.50,828.74 L 315.44,828.74 L 315.44,830.14 L 316.50,830.14 L 316.50,832.60 L 317.90,832.60 L 317.90,813.28 Z M 54.18,813.28 L 54.18,828.74 L 53.12,828.74 L 53.12,830.14 L 54.18,830.14 L 54.18,832.60 L 55.58,832.60 L 55.58,813.28 Z M 322.26,814.28 L 320.86,814.28 L 320.86,815.68 L 322.26,815.68 Z M 112.18,814.28 L 110.78,814.28 L 110.78,815.68 L 112.18,815.68 Z M 148.34,814.28 L 146.94,814.28 L 146.94,815.68 L 148.34,815.68 Z M 353.62,814.28 L 352.22,814.28 L 352.22,815.68 L 353.62,815.68 Z M 182.90,814.28 L 181.50,814.28 L 181.50,815.68 L 182.90,815.68 Z M 166.02,814.28 L 164.62,814.28 L 164.62,815.68 L 166.02,815.68 Z M 218.26,814.28 L 216.86,814.28 L 216.86,815.68 L 218.26,815.68 Z M 236.74,814.28 L 235.34,814.28 L 235.34,815.68 L 236.74,815.68 Z M 76.82,814.28 L 75.42,814.28 L 75.42,815.68 L 76.82,815.68 Z M 130.66,814.28 L 129.26,814.28 L 129.26,815.68 L 130.66,815.68 Z M 337.94,814.28 L 336.54,814.28 L 336.54,815.68 L 337.94,815.68 Z M 254.42,814.28 L 253.02,814.28 L 253.02,815.68 L 254.42,815.68 Z M 59.94,814.28 L 58.54,814.28 L 58.54,815.68 L 59.94,815.68 Z M 306.58,814.28 L 305.18,814.28 L 305.18,815.68 L 306.58,815.68 Z M 201.38,814.28 L 199.98,814.28 L 199.98,815.68 L 201.38,815.68 Z M 95.30,814.28 L 93.90,814.28 L 93.90,815.68 L 95.30,815.68 Z M 266.68,817.82 L 265.28,817.82 L 265.28,819.22 L 266.68,819.22 Z M 265.62,821.28 L 264.22,821.28 L 264.22,822.68 L 265.62,822.68 Z M 267.74,821.28 L 266.34,821.28 L 266.34,822.68 L 267.74,822.68 Z M 290.90,822.28 L 289.50,822.28 L 289.50,823.68 L 290.90,823.68 Z M 266.68,826.74 L 265.28,826.74 L 265.28,828.14 L 266.68,828.14 Z M 213.64,828.74 L 212.24,828.74 L 212.24,830.14 L 213.64,830.14 Z M 178.28,828.74 L 176.88,828.74 L 176.88,830.14 L 178.28,830.14 Z M 72.20,828.74 L 70.80,828.74 L 70.80,830.14 L 72.20,830.14 Z M 107.56,828.74 L 106.16,828.74 L 106.16,830.14 L 107.56,830.14 Z M 265.62,830.20 L 264.22,830.20 L 264.22,831.60 L 265.62,831.60 Z M 267.74,830.20 L 266.34,830.20 L 266.34,831.60 L 267.74,831.60 Z M 306.58,831.20 L 305.18,831.20 L 305.18,832.60 L 306.58,832.60 Z M 322.26,831.20 L 320.86,831.20 L 320.86,832.60 L 322.26,832.60 Z M 337.94,831.20 L 336.54,831.20 L 336.54,832.60 L 337.94,832.60 Z M 254.42,831.20 L 253.02,831.20 L 253.02,832.60 L 254.42,832.60 Z M 353.62,831.20 L 352.22,831.20 L 352.22,832.60 L 353.62,832.60 Z M 290.90,831.20 L 289.50,831.20 L 289.50,832.60 L 290.90,832.60 Z M 218.26,831.20 L 216.86,831.20 L 216.86,832.60 L 218.26,832.60 Z M 76.82,831.20 L 75.42,831.20 L 75.42,832.60 L 76.82,832.60 Z M 112.18,831.20 L 110.78,831.20 L 110.78,832.60 L 112.18,832.60 Z M 182.90,831.20 L 181.50,831.20 L 181.50,832.60 L 182.90,832.60 Z M 148.34,831.20 L 146.94,831.20 L 146.94,832.60 L 148.34,832.60 Z M 59.94,831.20 L 58.54,831.20 L 58.54,832.60 L 59.94,832.60 Z M 236.74,831.20 L 235.34,831.20 L 235.34,832.60 L 236.74,832.60 Z M 71.14,831.20 L 69.74,831.20 L 69.74,832.60 L 71.14,832.60 Z M 73.26,831.20 L 71.86,831.20 L 71.86,832.60 L 73.26,832.60 Z M 130.66,831.20 L 129.26,831.20 L 129.26,832.60 L 130.66,832.60 Z M 95.30,831.20 L 93.90,831.20 L 93.90,832.60 L 95.30,832.60 Z M 108.62,831.20 L 107.22,831.20 L 107.22,832.60 L 108.62,832.60 Z M 106.50,831.20 L 105.10,831.20 L 105.10,832.60 L 106.50,832.60 Z M 212.58,831.20 L 211.18,831.20 L 211.18,832.60 L 212.58,832.60 Z M 201.38,831.20 L 199.98,831.20 L 199.98,832.60 L 201.38,832.60 Z M 179.34,831.20 L 177.94,831.20 L 177.94,832.60 L 179.34,832.60 Z M 177.22,831.20 L 175.82,831.20 L 175.82,832.60 L 177.22,832.60 Z M 214.70,831.20 L 213.30,831.20 L 213.30,832.60 L 214.70,832.60 Z M 166.02,831.20 L 164.62,831.20 L 164.62,832.60 L 166.02,832.60 Z M 85.70,836.00 L 84.30,836.00 L 84.30,837.40 L 85.70,837.40 Z M 117.70,836.00 L 116.30,836.00 L 116.30,837.40 L 117.70,837.40 Z M 149.70,836.00 L 148.30,836.00 L 148.30,837.40 L 149.70,837.40 Z M 181.70,836.00 L 180.30,836.00 L 180.30,837.40 L 181.70,837.40 Z M 341.70,836.00 L 340.30,836.00 L 340.30,837.40 L 341.70,837.40 Z M 53.70,836.00 L 52.30,836.00 L 52.30,837.40 L 53.70,837.40 Z M 309.70,836.00 L 308.30,836.00 L 308.30,837.40 L 309.70,837.40 Z M 213.70,836.00 L 212.30,836.00 L 212.30,837.40 L 213.70,837.40 Z M 277.70,836.00 L 276.30,836.00 L 276.30,837.40 L 277.70,837.40 Z M 245.70,836.00 L 244.30,836.00 L 244.30,837.40 L 245.70,837.40 Z M 53.70,847.30 L 52.30,847.30 L 52.30,848.70 L 53.70,848.70 Z M 181.70,847.30 L 180.30,847.30 L 180.30,848.70 L 181.70,848.70 Z M 213.70,847.30 L 212.30,847.30 L 212.30,848.70 L 213.70,848.70 Z M 149.70,847.30 L 148.30,847.30 L 148.30,848.70 L 149.70,848.70 Z M 245.70,847.30 L 244.30,847.30 L 244.30,848.70 L 245.70,848.70 Z M 117.70,847.30 L 116.30,847.30 L 116.30,848.70 L 117.70,848.70 Z M 85.70,847.30 L 84.30,847.30 L 84.30,848.70 L 85.70,848.70 Z M 277.12,852.60 L 52.00,852.60 L 52.00,854.60 L 277.12,854.60 Z M 266.68,863.36 L 266.68,861.96 L 265.62,861.96 L 265.62,858.60 L 272.80,858.60 L 272.80,857.00 L 264.16,857.00 L 264.16,858.60 L 264.22,858.60 L 264.22,868.82 L 265.62,868.82 L 265.62,863.36 Z M 54.52,869.36 L 54.52,867.96 L 53.46,867.96 L 53.46,864.60 L 60.64,864.60 L 60.64,863.00 L 52.00,863.00 L 52.00,864.60 L 52.06,864.60 L 52.06,872.82 L 53.46,872.82 L 53.46,869.36 Z M 160.60,869.36 L 160.60,867.96 L 159.54,867.96 L 159.54,864.60 L 166.72,864.60 L 166.72,863.00 L 158.08,863.00 L 158.08,864.60 L 158.14,864.60 L 158.14,872.82 L 159.54,872.82 L 159.54,869.36 Z M 125.24,869.36 L 125.24,867.96 L 124.18,867.96 L 124.18,864.60 L 131.36,864.60 L 131.36,863.00 L 122.72,863.00 L 122.72,864.60 L 122.78,864.60 L 122.78,872.82 L 124.18,872.82 L 124.18,869.36 Z M 89.88,869.36 L 89.88,867.96 L 88.82,867.96 L 88.82,864.60 L 96.00,864.60 L 96.00,863.00 L 87.36,863.00 L 87.36,864.60 L 87.42,864.60 L 87.42,872.82 L 88.82,872.82 L 88.82,869.36 Z M 142.92,869.36 L 142.92,867.96 L 141.86,867.96 L 141.86,864.60 L 149.04,864.60 L 149.04,863.00 L 140.40,863.00 L 140.40,864.60 L 140.46,864.60 L 140.46,865.26 L 139.30,865.26 L 139.30,866.66 L 140.46,866.66 L 140.46,872.82 L 141.86,872.82 L 141.86,869.36 Z M 231.32,869.36 L 231.32,867.96 L 230.26,867.96 L 230.26,864.60 L 237.44,864.60 L 237.44,863.00 L 228.80,863.00 L 228.80,864.60 L 228.86,864.60 L 228.86,872.82 L 230.26,872.82 L 230.26,869.36 Z M 195.96,869.36 L 195.96,867.96 L 194.90,867.96 L 194.90,864.60 L 202.08,864.60 L 202.08,863.00 L 193.44,863.00 L 193.44,864.60 L 193.50,864.60 L 193.50,872.82 L 194.90,872.82 L 194.90,869.36 Z M 249.00,869.36 L 249.00,867.96 L 247.94,867.96 L 247.94,864.60 L 255.12,864.60 L 255.12,863.00 L 246.48,863.00 L 246.48,864.60 L 246.54,864.60 L 246.54,872.82 L 247.94,872.82 L 247.94,869.36 Z M 266.34,867.42 L 266.34,884.88 L 265.28,884.88 L 265.28,886.28 L 266.34,886.28 L 266.34,889.74 L 267.74,889.74 L 267.74,867.42 Z M 213.64,867.96 L 212.24,867.96 L 212.24,869.36 L 213.64,869.36 Z M 107.56,867.96 L 106.16,867.96 L 106.16,869.36 L 107.56,869.36 Z M 72.20,867.96 L 70.80,867.96 L 70.80,869.36 L 72.20,869.36 Z M 178.28,867.96 L 176.88,867.96 L 176.88,869.36 L 178.28,869.36 Z M 272.10,870.42 L 270.70,870.42 L 270.70,871.82 L 272.10,871.82 Z M 89.54,871.42 L 89.54,886.88 L 88.48,886.88 L 88.48,888.28 L 89.54,888.28 L 89.54,890.74 L 90.94,890.74 L 90.94,871.42 Z M 124.90,871.42 L 124.90,886.88 L 123.84,886.88 L 123.84,888.28 L 124.90,888.28 L 124.90,890.74 L 126.30,890.74 L 126.30,871.42 Z M 177.22,871.42 L 175.82,871.42 L 175.82,872.82 L 177.22,872.82 Z M 54.18,871.42 L 54.18,886.88 L 53.12,886.88 L 53.12,888.28 L 54.18,888.28 L 54.18,890.74 L 55.58,890.74 L 55.58,871.42 Z M 248.66,871.42 L 248.66,886.88 L 247.60,886.88 L 247.60,888.28 L 248.66,888.28 L 248.66,890.74 L 250.06,890.74 L 250.06,871.42 Z M 160.26,871.42 L 160.26,886.88 L 159.20,886.88 L 159.20,888.28 L 160.26,888.28 L 160.26,890.74 L 161.66,890.74 L 161.66,871.42 Z M 73.26,871.42 L 71.86,871.42 L 71.86,872.82 L 73.26,872.82 Z M 71.14,871.42 L 69.74,871.42 L 69.74,872.82 L 71.14,872.82 Z M 195.62,871.42 L 195.62,886.88 L 194.56,886.88 L 194.56,888.28 L 195.62,888.28 L 195.62,890.74 L 197.02,890.74 L 197.02,871.42 Z M 212.58,871.42 L 211.18,871.42 L 211.18,872.82 L 212.58,872.82 Z M 214.70,871.42 L 213.30,871.42 L 213.30,872.82 L 214.70,872.82 Z M 142.58,871.42 L 142.58,886.88 L 141.52,886.88 L 141.52,888.28 L 142.58,888.28 L 142.58,890.74 L 143.98,890.74 L 143.98,871.42 Z M 230.98,871.42 L 230.98,886.88 L 229.92,886.88 L 229.92,888.28 L 230.98,888.28 L 230.98,890.74 L 232.38,890.74 L 232.38,871.42 Z M 179.34,871.42 L 177.94,871.42 L 177.94,872.82 L 179.34,872.82 Z M 108.62,871.42 L 107.22,871.42 L 107.22,872.82 L 108.62,872.82 Z M 106.50,871.42 L 105.10,871.42 L 105.10,872.82 L 106.50,872.82 Z M 59.94,872.42 L 58.54,872.42 L 58.54,873.82 L 59.94,873.82 Z M 76.82,872.42 L 75.42,872.42 L 75.42,873.82 L 76.82,873.82 Z M 112.18,872.42 L 110.78,872.42 L 110.78,873.82 L 112.18,873.82 Z M 166.02,872.42 L 164.62,872.42 L 164.62,873.82 L 166.02,873.82 Z M 254.42,872.42 L 253.02,872.42 L 253.02,873.82 L 254.42,873.82 Z M 95.30,872.42 L 93.90,872.42 L 93.90,873.82 L 95.30,873.82 Z M 236.74,872.42 L 235.34,872.42 L 235.34,873.82 L 236.74,873.82 Z M 130.66,872.42 L 129.26,872.42 L 129.26,873.82 L 130.66,873.82 Z M 201.38,872.42 L 199.98,872.42 L 199.98,873.82 L 201.38,873.82 Z M 148.34,872.42 L 146.94,872.42 L 146.94,873.82 L 148.34,873.82 Z M 182.90,872.42 L 181.50,872.42 L 181.50,873.82 L 182.90,873.82 Z M 218.26,872.42 L 216.86,872.42 L 216.86,873.82 L 218.26,873.82 Z M 178.28,886.88 L 176.88,886.88 L 176.88,888.28 L 178.28,888.28 Z M 107.56,886.88 L 106.16,886.88 L 106.16,888.28 L 107.56,888.28 Z M 213.64,886.88 L 212.24,886.88 L 212.24,888.28 L 213.64,888.28 Z M 72.20,886.88 L 70.80,886.88 L 70.80,888.28 L 72.20,888.28 Z M 182.90,889.34 L 181.50,889.34 L 181.50,890.74 L 182.90,890.74 Z M 218.26,889.34 L 216.86,889.34 L 216.86,890.74 L 218.26,890.74 Z M 166.02,889.34 L 164.62,889.34 L 164.62,890.74 L 166.02,890.74 Z M 177.22,889.34 L 175.82,889.34 L 175.82,890.74 L 177.22,890.74 Z M 179.34,889.34 L 177.94,889.34 L 177.94,890.74 L 179.34,890.74 Z M 272.10,889.34 L 270.70,889.34 L 270.70,890.74 L 272.10,890.74 Z M 201.38,889.34 L 199.98,889.34 L 199.98,890.74 L 201.38,890.74 Z M 212.58,889.34 L 211.18,889.34 L 211.18,890.74 L 212.58,890.74 Z M 214.70,889.34 L 213.30,889.34 L 213.30,890.74 L 214.70,890.74 Z M 236.74,889.34 L 235.34,889.34 L 235.34,890.74 L 236.74,890.74 Z M 254.42,889.34 L 253.02,889.34 L 253.02,890.74 L 254.42,890.74 Z M 95.30,889.34 L 93.90,889.34 L 93.90,890.74 L 95.30,890.74 Z M 73.26,889.34 L 71.86,889.34 L 71.86,890.74 L 73.26,890.74 Z M 71.14,889.34 L 69.74,889.34 L 69.74,890.74 L 71.14,890.74 Z M 76.82,889.34 L 75.42,889.34 L 75.42,890.74 L 76.82,890.74 Z M 112.18,889.34 L 110.78,889.34 L 110.78,890.74 L 112.18,890.74 Z M 106.50,889.34 L 105.10,889.34 L 105.10,890.74 L 106.50,890.74 Z M 108.62,889.34 L 107.22,889.34 L 107.22,890.74 L 108.62,890.74 Z M 130.66,889.34 L 129.26,889.34 L 129.26,890.74 L 130.66,890.74 Z M 59.94,889.34 L 58.54,889.34 L 58.54,890.74 L 59.94,890.74 Z M 148.34,889.34 L 146.94,889.34 L 146.94,890.74 L 148.34,890.74 Z M 245.70,894.14 L 244.30,894.14 L 244.30,895.54 L 245.70,895.54 Z M 213.70,894.14 L 212.30,894.14 L 212.30,895.54 L 213.70,895.54 Z M 181.70,894.14 L 180.30,894.14 L 180.30,895.54 L 181.70,895.54 Z M 149.70,894.14 L 148.30,894.14 L 148.30,895.54 L 149.70,895.54 Z M 117.70,894.14 L 116.30,894.14 L 116.30,895.54 L 117.70,895.54 Z M 85.70,894.14 L 84.30,894.14 L 84.30,895.54 L 85.70,895.54 Z M 53.70,894.14 L 52.30,894.14 L 52.30,895.54 L 53.70,895.54 Z M 125.06,456.66 L 126.46,456.66 L 126.46,455.26 L 125.06,455.26 Z M 90.42,572.52 L 91.82,572.52 L 91.82,571.12 L 90.42,571.12 Z M 87.06,736.54 L 88.46,736.54 L 88.46,735.14 L 87.06,735.14 Z M 204.62,793.96 L 206.02,793.96 L 206.02,792.56 L 204.62,792.56 Z M 163.86,854.30 L 165.26,854.30 L 165.26,852.90 L 163.86,852.90 Z" fill="#4169E1" fill-opacity="0.5" stroke="#2a4a9e" stroke-width="0.5"/>
    <text x="10" y="938" font-family="sans-serif" font-size="11" fill="#aaaaaa">met1 (68,20) - 344 polygons</text>
</g>
</svg>
