<?xml version="1.0" encoding="UTF-8"?>
<svg xmlns="http://www.w3.org/2000/svg" width="684.0" height="968.0" viewBox="0 0 684.0 968.0">
<rect width="100%" height="100%" fill="#1a1a2e"/>
<text x="342.0" y="18" font-family="sans-serif" font-size="14" fill="#eee" text-anchor="middle" font-weight="bold">tt_um_pll_sky130 - nsdm (93,44)</text>
<g transform="translate(0, 25)">
    <path d="M 20.00,923.04 L 664.00,923.04 L 664.00,20.00 L 20.00,20.00 Z" fill="none" stroke="#555555" stroke-width="1" stroke-dasharray="4,2"/>
    <path d="M 73.06,465.80 L 70.06,465.80 L 70.06,468.80 L 73.06,468.80 Z M 174.90,474.90 L 171.90,474.90 L 171.90,477.90 L 174.90,477.90 Z M 192.58,474.90 L 189.58,474.90 L 189.58,477.90 L 192.58,477.90 Z M 157.22,474.90 L 154.22,474.90 L 154.22,477.90 L 157.22,477.90 Z M 139.54,474.90 L 136.54,474.90 L 136.54,477.90 L 139.54,477.90 Z M 121.86,474.90 L 118.86,474.90 L 118.86,477.90 L 121.86,477.90 Z M 104.18,474.90 L 101.18,474.90 L 101.18,477.90 L 104.18,477.90 Z M 86.50,474.90 L 83.50,474.90 L 83.50,477.90 L 86.50,477.90 Z M 57.54,487.82 L 51.50,487.82 L 51.50,496.82 L 57.54,496.82 Z M 187.98,491.82 L 183.34,491.82 L 183.34,496.82 L 187.98,496.82 Z M 99.58,491.82 L 94.94,491.82 L 94.94,496.82 L 99.58,496.82 Z M 170.30,491.82 L 165.66,491.82 L 165.66,496.82 L 170.30,496.82 Z M 152.62,491.82 L 147.98,491.82 L 147.98,496.82 L 152.62,496.82 Z M 134.94,491.82 L 130.30,491.82 L 130.30,496.82 L 134.94,496.82 Z M 81.90,491.82 L 77.26,491.82 L 77.26,496.82 L 81.90,496.82 Z M 117.26,491.82 L 112.62,491.82 L 112.62,496.82 L 117.26,496.82 Z M 63.54,527.42 L 51.50,527.42 L 51.50,572.32 L 63.54,572.32 Z M 75.78,527.42 L 63.74,527.42 L 63.74,572.32 L 75.78,572.32 Z M 88.02,527.42 L 75.98,527.42 L 75.98,572.32 L 88.02,572.32 Z M 105.06,527.42 L 93.02,527.42 L 93.02,572.32 L 105.06,572.32 Z M 117.30,527.42 L 105.26,527.42 L 105.26,572.32 L 117.30,572.32 Z M 129.54,527.42 L 117.50,527.42 L 117.50,572.32 L 129.54,572.32 Z M 276.42,582.20 L 264.38,582.20 L 264.38,722.04 L 276.42,722.04 Z M 264.18,582.20 L 252.14,582.20 L 252.14,722.04 L 264.18,722.04 Z M 251.94,582.20 L 239.90,582.20 L 239.90,722.04 L 251.94,722.04 Z M 239.70,582.20 L 227.66,582.20 L 227.66,722.04 L 239.70,722.04 Z M 227.46,582.20 L 215.42,582.20 L 215.42,722.04 L 227.46,722.04 Z M 215.22,582.20 L 203.18,582.20 L 203.18,722.04 L 215.22,722.04 Z M 202.98,582.20 L 190.94,582.20 L 190.94,722.04 L 202.98,722.04 Z M 178.50,582.20 L 166.46,582.20 L 166.46,722.04 L 178.50,722.04 Z M 190.74,582.20 L 178.70,582.20 L 178.70,722.04 L 190.74,722.04 Z M 112.50,582.20 L 100.46,582.20 L 100.46,722.04 L 112.50,722.04 Z M 100.26,582.20 L 88.22,582.20 L 88.22,722.04 L 100.26,722.04 Z M 88.02,582.20 L 75.98,582.20 L 75.98,722.04 L 88.02,722.04 Z M 75.78,582.20 L 63.74,582.20 L 63.74,722.04 L 75.78,722.04 Z M 63.54,582.20 L 51.50,582.20 L 51.50,722.04 L 63.54,722.04 Z M 124.74,582.20 L 112.70,582.20 L 112.70,722.04 L 124.74,722.04 Z M 136.98,582.20 L 124.94,582.20 L 124.94,722.04 L 136.98,722.04 Z M 149.22,582.20 L 137.18,582.20 L 137.18,722.04 L 149.22,722.04 Z M 161.46,582.20 L 149.42,582.20 L 149.42,722.04 L 161.46,722.04 Z M 79.06,745.14 L 76.06,745.14 L 76.06,748.14 L 79.06,748.14 Z M 108.82,745.14 L 105.82,745.14 L 105.82,748.14 L 108.82,748.14 Z M 123.54,745.14 L 120.54,745.14 L 120.54,748.14 L 123.54,748.14 Z M 59.54,764.06 L 51.50,764.06 L 51.50,773.06 L 59.54,773.06 Z M 73.58,764.06 L 65.54,764.06 L 65.54,773.06 L 73.58,773.06 Z M 84.22,768.06 L 79.58,768.06 L 79.58,773.06 L 84.22,773.06 Z M 86.50,786.16 L 83.50,786.16 L 83.50,789.16 L 86.50,789.16 Z M 54.50,786.16 L 51.50,786.16 L 51.50,789.16 L 54.50,789.16 Z M 118.50,786.16 L 115.50,786.16 L 115.50,789.16 L 118.50,789.16 Z M 150.50,786.16 L 147.50,786.16 L 147.50,789.16 L 150.50,789.16 Z M 182.50,786.16 L 179.50,786.16 L 179.50,789.16 L 182.50,789.16 Z M 214.50,786.16 L 211.50,786.16 L 211.50,789.16 L 214.50,789.16 Z M 246.50,786.16 L 243.50,786.16 L 243.50,789.16 L 246.50,789.16 Z M 278.50,786.16 L 275.50,786.16 L 275.50,789.16 L 278.50,789.16 Z M 310.50,786.16 L 307.50,786.16 L 307.50,789.16 L 310.50,789.16 Z M 342.50,786.16 L 339.50,786.16 L 339.50,789.16 L 342.50,789.16 Z M 291.70,804.56 L 288.70,804.56 L 288.70,807.56 L 291.70,807.56 Z M 354.42,813.48 L 351.42,813.48 L 351.42,816.48 L 354.42,816.48 Z M 112.98,813.48 L 109.98,813.48 L 109.98,816.48 L 112.98,816.48 Z M 77.62,813.48 L 74.62,813.48 L 74.62,816.48 L 77.62,816.48 Z M 338.74,813.48 L 335.74,813.48 L 335.74,816.48 L 338.74,816.48 Z M 323.06,813.48 L 320.06,813.48 L 320.06,816.48 L 323.06,816.48 Z M 307.38,813.48 L 304.38,813.48 L 304.38,816.48 L 307.38,816.48 Z M 255.22,813.48 L 252.22,813.48 L 252.22,816.48 L 255.22,816.48 Z M 237.54,813.48 L 234.54,813.48 L 234.54,816.48 L 237.54,816.48 Z M 202.18,813.48 L 199.18,813.48 L 199.18,816.48 L 202.18,816.48 Z M 166.82,813.48 L 163.82,813.48 L 163.82,816.48 L 166.82,816.48 Z M 219.06,813.48 L 216.06,813.48 L 216.06,816.48 L 219.06,816.48 Z M 183.70,813.48 L 180.70,813.48 L 180.70,816.48 L 183.70,816.48 Z M 149.14,813.48 L 146.14,813.48 L 146.14,816.48 L 149.14,816.48 Z M 60.74,813.48 L 57.74,813.48 L 57.74,816.48 L 60.74,816.48 Z M 131.46,813.48 L 128.46,813.48 L 128.46,816.48 L 131.46,816.48 Z M 96.10,813.48 L 93.10,813.48 L 93.10,816.48 L 96.10,816.48 Z M 268.30,819.48 L 263.66,819.48 L 263.66,824.48 L 268.30,824.48 Z M 268.30,828.40 L 263.66,828.40 L 263.66,833.40 L 268.30,833.40 Z M 109.18,830.40 L 104.54,830.40 L 104.54,833.40 L 109.18,833.40 Z M 349.82,830.40 L 345.18,830.40 L 345.18,833.40 L 349.82,833.40 Z M 334.14,830.40 L 329.50,830.40 L 329.50,833.40 L 334.14,833.40 Z M 126.86,830.40 L 122.22,830.40 L 122.22,833.40 L 126.86,833.40 Z M 318.46,830.40 L 313.82,830.40 L 313.82,833.40 L 318.46,833.40 Z M 56.14,830.40 L 51.50,830.40 L 51.50,833.40 L 56.14,833.40 Z M 302.78,830.40 L 298.14,830.40 L 298.14,833.40 L 302.78,833.40 Z M 73.82,830.40 L 69.18,830.40 L 69.18,833.40 L 73.82,833.40 Z M 144.54,830.40 L 139.90,830.40 L 139.90,833.40 L 144.54,833.40 Z M 250.62,830.40 L 245.98,830.40 L 245.98,833.40 L 250.62,833.40 Z M 162.22,830.40 L 157.58,830.40 L 157.58,833.40 L 162.22,833.40 Z M 232.94,830.40 L 228.30,830.40 L 228.30,833.40 L 232.94,833.40 Z M 91.50,830.40 L 86.86,830.40 L 86.86,833.40 L 91.50,833.40 Z M 215.26,830.40 L 210.62,830.40 L 210.62,833.40 L 215.26,833.40 Z M 197.58,830.40 L 192.94,830.40 L 192.94,833.40 L 197.58,833.40 Z M 179.90,830.40 L 175.26,830.40 L 175.26,833.40 L 179.90,833.40 Z M 54.50,846.50 L 51.50,846.50 L 51.50,849.50 L 54.50,849.50 Z M 86.50,846.50 L 83.50,846.50 L 83.50,849.50 L 86.50,849.50 Z M 118.50,846.50 L 115.50,846.50 L 115.50,849.50 L 118.50,849.50 Z M 150.50,846.50 L 147.50,846.50 L 147.50,849.50 L 150.50,849.50 Z M 182.50,846.50 L 179.50,846.50 L 179.50,849.50 L 182.50,849.50 Z M 214.50,846.50 L 211.50,846.50 L 211.50,849.50 L 214.50,849.50 Z M 246.50,846.50 L 243.50,846.50 L 243.50,849.50 L 246.50,849.50 Z M 272.90,869.62 L 269.90,869.62 L 269.90,872.62 L 272.90,872.62 Z M 202.18,871.62 L 199.18,871.62 L 199.18,874.62 L 202.18,874.62 Z M 255.22,871.62 L 252.22,871.62 L 252.22,874.62 L 255.22,874.62 Z M 237.54,871.62 L 234.54,871.62 L 234.54,874.62 L 237.54,874.62 Z M 77.62,871.62 L 74.62,871.62 L 74.62,874.62 L 77.62,874.62 Z M 112.98,871.62 L 109.98,871.62 L 109.98,874.62 L 112.98,874.62 Z M 60.74,871.62 L 57.74,871.62 L 57.74,874.62 L 60.74,874.62 Z M 96.10,871.62 L 93.10,871.62 L 93.10,874.62 L 96.10,874.62 Z M 131.46,871.62 L 128.46,871.62 L 128.46,874.62 L 131.46,874.62 Z M 149.14,871.62 L 146.14,871.62 L 146.14,874.62 L 149.14,874.62 Z M 166.82,871.62 L 163.82,871.62 L 163.82,874.62 L 166.82,874.62 Z M 219.06,871.62 L 216.06,871.62 L 216.06,874.62 L 219.06,874.62 Z M 183.70,871.62 L 180.70,871.62 L 180.70,874.62 L 183.70,874.62 Z M 268.30,886.54 L 263.66,886.54 L 263.66,891.54 L 268.30,891.54 Z M 144.54,888.54 L 139.90,888.54 L 139.90,891.54 L 144.54,891.54 Z M 73.82,888.54 L 69.18,888.54 L 69.18,891.54 L 73.82,891.54 Z M 56.14,888.54 L 51.50,888.54 L 51.50,891.54 L 56.14,891.54 Z M 91.50,888.54 L 86.86,888.54 L 86.86,891.54 L 91.50,891.54 Z M 109.18,888.54 L 104.54,888.54 L 104.54,891.54 L 109.18,891.54 Z M 126.86,888.54 L 122.22,888.54 L 122.22,891.54 L 126.86,891.54 Z M 215.26,888.54 L 210.62,888.54 L 210.62,891.54 L 215.26,891.54 Z M 162.22,888.54 L 157.58,888.54 L 157.58,891.54 L 162.22,891.54 Z M 232.94,888.54 L 228.30,888.54 L 228.30,891.54 L 232.94,891.54 Z M 179.90,888.54 L 175.26,888.54 L 175.26,891.54 L 179.90,891.54 Z M 250.62,888.54 L 245.98,888.54 L 245.98,891.54 L 250.62,891.54 Z M 197.58,888.54 L 192.94,888.54 L 192.94,891.54 L 197.58,891.54 Z" fill="#00CED1" fill-opacity="0.15" stroke="#00a0a5" stroke-width="0.5"/>
    <text x="10" y="938" font-family="sans-serif" font-size="11" fill="#aaaaaa">nsdm (93,44) - 124 polygons</text>
</g>
</svg>
