<?xml version="1.0" encoding="UTF-8"?>
<svg xmlns="http://www.w3.org/2000/svg" width="684.0" height="968.0" viewBox="0 0 684.0 968.0">
<rect width="100%" height="100%" fill="#1a1a2e"/>
<text x="342.0" y="18" font-family="sans-serif" font-size="14" fill="#eee" text-anchor="middle" font-weight="bold">tt_um_pll_sky130 - tap (65,44)</text>
<g transform="translate(0, 25)">
    <path d="M 20.00,923.04 L 664.00,923.04 L 664.00,20.00 L 20.00,20.00 Z" fill="none" stroke="#555555" stroke-width="1" stroke-dasharray="4,2"/>
    <path d="M 199.36,484.08 L 197.36,484.08 L 197.36,486.08 L 199.36,486.08 Z M 173.60,484.08 L 171.60,484.08 L 171.60,486.08 L 173.60,486.08 Z M 147.84,484.08 L 145.84,484.08 L 145.84,486.08 L 147.84,486.08 Z M 72.56,484.08 L 70.56,484.08 L 70.56,486.08 L 72.56,486.08 Z M 122.08,484.08 L 120.08,484.08 L 120.08,486.08 L 122.08,486.08 Z M 96.32,484.08 L 94.32,484.08 L 94.32,486.08 L 96.32,486.08 Z M 236.48,491.64 L 234.48,491.64 L 234.48,493.64 L 236.48,493.64 Z M 220.80,491.64 L 218.80,491.64 L 218.80,493.64 L 220.80,493.64 Z M 96.32,506.68 L 94.32,506.68 L 94.32,508.68 L 96.32,508.68 Z M 122.08,506.68 L 120.08,506.68 L 120.08,508.68 L 122.08,508.68 Z M 147.84,506.68 L 145.84,506.68 L 145.84,508.68 L 147.84,508.68 Z M 199.36,506.68 L 197.36,506.68 L 197.36,508.68 L 199.36,508.68 Z M 173.60,506.68 L 171.60,506.68 L 171.60,508.68 L 173.60,508.68 Z M 72.56,506.68 L 70.56,506.68 L 70.56,508.68 L 72.56,508.68 Z M 220.80,508.68 L 218.80,508.68 L 218.80,510.68 L 220.80,510.68 Z M 236.48,508.68 L 234.48,508.68 L 234.48,510.68 L 236.48,510.68 Z M 150.00,513.48 L 148.00,513.48 L 148.00,515.48 L 150.00,515.48 Z M 118.00,513.48 L 116.00,513.48 L 116.00,515.48 L 118.00,515.48 Z M 86.00,513.48 L 84.00,513.48 L 84.00,515.48 L 86.00,515.48 Z M 54.00,513.48 L 52.00,513.48 L 52.00,515.48 L 54.00,515.48 Z M 182.00,513.48 L 180.00,513.48 L 180.00,515.48 L 182.00,515.48 Z M 214.00,513.48 L 212.00,513.48 L 212.00,515.48 L 214.00,515.48 Z M 246.00,513.48 L 244.00,513.48 L 244.00,515.48 L 246.00,515.48 Z M 92.12,550.18 L 90.12,550.18 L 90.12,552.18 L 92.12,552.18 Z M 138.44,550.18 L 136.44,550.18 L 136.44,552.18 L 138.44,552.18 Z M 50.00,550.18 L 48.00,550.18 L 48.00,552.18 L 50.00,552.18 Z M 133.84,563.22 L 131.84,563.22 L 131.84,565.22 L 133.84,565.22 Z M 138.44,582.18 L 136.44,582.18 L 136.44,584.18 L 138.44,584.18 Z M 50.00,582.18 L 48.00,582.18 L 48.00,584.18 L 50.00,584.18 Z M 92.12,582.18 L 90.12,582.18 L 90.12,584.18 L 92.12,584.18 Z M 165.56,603.90 L 163.56,603.90 L 163.56,605.90 L 165.56,605.90 Z M 285.32,603.90 L 283.32,603.90 L 283.32,605.90 L 285.32,605.90 Z M 50.00,603.90 L 48.00,603.90 L 48.00,605.90 L 50.00,605.90 Z M 50.00,635.90 L 48.00,635.90 L 48.00,637.90 L 50.00,637.90 Z M 165.56,635.90 L 163.56,635.90 L 163.56,637.90 L 165.56,637.90 Z M 285.32,635.90 L 283.32,635.90 L 283.32,637.90 L 285.32,637.90 Z M 280.72,665.48 L 278.72,665.48 L 278.72,667.48 L 280.72,667.48 Z M 165.56,667.90 L 163.56,667.90 L 163.56,669.90 L 165.56,669.90 Z M 285.32,667.90 L 283.32,667.90 L 283.32,669.90 L 285.32,669.90 Z M 50.00,667.90 L 48.00,667.90 L 48.00,669.90 L 50.00,669.90 Z M 285.32,699.90 L 283.32,699.90 L 283.32,701.90 L 285.32,701.90 Z M 50.00,699.90 L 48.00,699.90 L 48.00,701.90 L 50.00,701.90 Z M 165.56,699.90 L 163.56,699.90 L 163.56,701.90 L 165.56,701.90 Z M 285.32,731.90 L 283.32,731.90 L 283.32,733.90 L 285.32,733.90 Z M 165.56,731.90 L 163.56,731.90 L 163.56,733.90 L 165.56,733.90 Z M 50.00,731.90 L 48.00,731.90 L 48.00,733.90 L 50.00,733.90 Z M 123.04,759.68 L 121.04,759.68 L 121.04,761.68 L 123.04,761.68 Z M 108.32,759.68 L 106.32,759.68 L 106.32,761.68 L 108.32,761.68 Z M 78.56,759.68 L 76.56,759.68 L 76.56,761.68 L 78.56,761.68 Z M 118.00,789.08 L 116.00,789.08 L 116.00,791.08 L 118.00,791.08 Z M 86.00,789.08 L 84.00,789.08 L 84.00,791.08 L 86.00,791.08 Z M 54.00,789.08 L 52.00,789.08 L 52.00,791.08 L 54.00,791.08 Z M 182.00,800.38 L 180.00,800.38 L 180.00,802.38 L 182.00,802.38 Z M 86.00,800.38 L 84.00,800.38 L 84.00,802.38 L 86.00,802.38 Z M 342.00,800.38 L 340.00,800.38 L 340.00,802.38 L 342.00,802.38 Z M 310.00,800.38 L 308.00,800.38 L 308.00,802.38 L 310.00,802.38 Z M 278.00,800.38 L 276.00,800.38 L 276.00,802.38 L 278.00,802.38 Z M 246.00,800.38 L 244.00,800.38 L 244.00,802.38 L 246.00,802.38 Z M 214.00,800.38 L 212.00,800.38 L 212.00,802.38 L 214.00,802.38 Z M 54.00,800.38 L 52.00,800.38 L 52.00,802.38 L 54.00,802.38 Z M 150.00,800.38 L 148.00,800.38 L 148.00,802.38 L 150.00,802.38 Z M 118.00,800.38 L 116.00,800.38 L 116.00,802.38 L 118.00,802.38 Z M 291.20,817.10 L 289.20,817.10 L 289.20,819.10 L 291.20,819.10 Z M 353.92,824.14 L 351.92,824.14 L 351.92,826.14 L 353.92,826.14 Z M 338.24,824.14 L 336.24,824.14 L 336.24,826.14 L 338.24,826.14 Z M 322.56,824.14 L 320.56,824.14 L 320.56,826.14 L 322.56,826.14 Z M 306.88,824.14 L 304.88,824.14 L 304.88,826.14 L 306.88,826.14 Z M 254.72,824.14 L 252.72,824.14 L 252.72,826.14 L 254.72,826.14 Z M 237.04,824.14 L 235.04,824.14 L 235.04,826.14 L 237.04,826.14 Z M 201.68,824.14 L 199.68,824.14 L 199.68,826.14 L 201.68,826.14 Z M 166.32,824.14 L 164.32,824.14 L 164.32,826.14 L 166.32,826.14 Z M 218.56,824.14 L 216.56,824.14 L 216.56,826.14 L 218.56,826.14 Z M 183.20,824.14 L 181.20,824.14 L 181.20,826.14 L 183.20,826.14 Z M 148.64,824.14 L 146.64,824.14 L 146.64,826.14 L 148.64,826.14 Z M 130.96,824.14 L 128.96,824.14 L 128.96,826.14 L 130.96,826.14 Z M 95.60,824.14 L 93.60,824.14 L 93.60,826.14 L 95.60,826.14 Z M 60.24,824.14 L 58.24,824.14 L 58.24,826.14 L 60.24,826.14 Z M 112.48,824.14 L 110.48,824.14 L 110.48,826.14 L 112.48,826.14 Z M 77.12,824.14 L 75.12,824.14 L 75.12,826.14 L 77.12,826.14 Z M 291.20,832.14 L 289.20,832.14 L 289.20,834.14 L 291.20,834.14 Z M 353.92,839.18 L 351.92,839.18 L 351.92,841.18 L 353.92,841.18 Z M 166.32,839.18 L 164.32,839.18 L 164.32,841.18 L 166.32,841.18 Z M 218.56,839.18 L 216.56,839.18 L 216.56,841.18 L 218.56,841.18 Z M 183.20,839.18 L 181.20,839.18 L 181.20,841.18 L 183.20,841.18 Z M 148.64,839.18 L 146.64,839.18 L 146.64,841.18 L 148.64,841.18 Z M 130.96,839.18 L 128.96,839.18 L 128.96,841.18 L 130.96,841.18 Z M 95.60,839.18 L 93.60,839.18 L 93.60,841.18 L 95.60,841.18 Z M 60.24,839.18 L 58.24,839.18 L 58.24,841.18 L 60.24,841.18 Z M 112.48,839.18 L 110.48,839.18 L 110.48,841.18 L 112.48,841.18 Z M 77.12,839.18 L 75.12,839.18 L 75.12,841.18 L 77.12,841.18 Z M 201.68,839.18 L 199.68,839.18 L 199.68,841.18 L 201.68,841.18 Z M 237.04,839.18 L 235.04,839.18 L 235.04,841.18 L 237.04,841.18 Z M 254.72,839.18 L 252.72,839.18 L 252.72,841.18 L 254.72,841.18 Z M 291.20,839.18 L 289.20,839.18 L 289.20,841.18 L 291.20,841.18 Z M 306.88,839.18 L 304.88,839.18 L 304.88,841.18 L 306.88,841.18 Z M 322.56,839.18 L 320.56,839.18 L 320.56,841.18 L 322.56,841.18 Z M 338.24,839.18 L 336.24,839.18 L 336.24,841.18 L 338.24,841.18 Z M 86.00,843.98 L 84.00,843.98 L 84.00,845.98 L 86.00,845.98 Z M 54.00,843.98 L 52.00,843.98 L 52.00,845.98 L 54.00,845.98 Z M 310.00,843.98 L 308.00,843.98 L 308.00,845.98 L 310.00,845.98 Z M 278.00,843.98 L 276.00,843.98 L 276.00,845.98 L 278.00,845.98 Z M 246.00,843.98 L 244.00,843.98 L 244.00,845.98 L 246.00,845.98 Z M 214.00,843.98 L 212.00,843.98 L 212.00,845.98 L 214.00,845.98 Z M 182.00,843.98 L 180.00,843.98 L 180.00,845.98 L 182.00,845.98 Z M 150.00,843.98 L 148.00,843.98 L 148.00,845.98 L 150.00,845.98 Z M 118.00,843.98 L 116.00,843.98 L 116.00,845.98 L 118.00,845.98 Z M 342.00,843.98 L 340.00,843.98 L 340.00,845.98 L 342.00,845.98 Z M 214.00,855.28 L 212.00,855.28 L 212.00,857.28 L 214.00,857.28 Z M 182.00,855.28 L 180.00,855.28 L 180.00,857.28 L 182.00,857.28 Z M 246.00,855.28 L 244.00,855.28 L 244.00,857.28 L 246.00,857.28 Z M 150.00,855.28 L 148.00,855.28 L 148.00,857.28 L 150.00,857.28 Z M 118.00,855.28 L 116.00,855.28 L 116.00,857.28 L 118.00,857.28 Z M 86.00,855.28 L 84.00,855.28 L 84.00,857.28 L 86.00,857.28 Z M 54.00,855.28 L 52.00,855.28 L 52.00,857.28 L 54.00,857.28 Z M 272.40,872.00 L 270.40,872.00 L 270.40,874.00 L 272.40,874.00 Z M 60.24,874.00 L 58.24,874.00 L 58.24,876.00 L 60.24,876.00 Z M 77.12,874.00 L 75.12,874.00 L 75.12,876.00 L 77.12,876.00 Z M 95.60,874.00 L 93.60,874.00 L 93.60,876.00 L 95.60,876.00 Z M 130.96,874.00 L 128.96,874.00 L 128.96,876.00 L 130.96,876.00 Z M 148.64,874.00 L 146.64,874.00 L 146.64,876.00 L 148.64,876.00 Z M 112.48,874.00 L 110.48,874.00 L 110.48,876.00 L 112.48,876.00 Z M 183.20,874.00 L 181.20,874.00 L 181.20,876.00 L 183.20,876.00 Z M 218.56,874.00 L 216.56,874.00 L 216.56,876.00 L 218.56,876.00 Z M 166.32,874.00 L 164.32,874.00 L 164.32,876.00 L 166.32,876.00 Z M 201.68,874.00 L 199.68,874.00 L 199.68,876.00 L 201.68,876.00 Z M 237.04,874.00 L 235.04,874.00 L 235.04,876.00 L 237.04,876.00 Z M 254.72,874.00 L 252.72,874.00 L 252.72,876.00 L 254.72,876.00 Z M 77.12,889.04 L 75.12,889.04 L 75.12,891.04 L 77.12,891.04 Z M 201.68,889.04 L 199.68,889.04 L 199.68,891.04 L 201.68,891.04 Z M 112.48,889.04 L 110.48,889.04 L 110.48,891.04 L 112.48,891.04 Z M 95.60,889.04 L 93.60,889.04 L 93.60,891.04 L 95.60,891.04 Z M 272.40,889.04 L 270.40,889.04 L 270.40,891.04 L 272.40,891.04 Z M 254.72,889.04 L 252.72,889.04 L 252.72,891.04 L 254.72,891.04 Z M 237.04,889.04 L 235.04,889.04 L 235.04,891.04 L 237.04,891.04 Z M 166.32,889.04 L 164.32,889.04 L 164.32,891.04 L 166.32,891.04 Z M 218.56,889.04 L 216.56,889.04 L 216.56,891.04 L 218.56,891.04 Z M 183.20,889.04 L 181.20,889.04 L 181.20,891.04 L 183.20,891.04 Z M 148.64,889.04 L 146.64,889.04 L 146.64,891.04 L 148.64,891.04 Z M 130.96,889.04 L 128.96,889.04 L 128.96,891.04 L 130.96,891.04 Z M 60.24,889.04 L 58.24,889.04 L 58.24,891.04 L 60.24,891.04 Z M 246.00,893.84 L 244.00,893.84 L 244.00,895.84 L 246.00,895.84 Z M 214.00,893.84 L 212.00,893.84 L 212.00,895.84 L 214.00,895.84 Z M 182.00,893.84 L 180.00,893.84 L 180.00,895.84 L 182.00,895.84 Z M 150.00,893.84 L 148.00,893.84 L 148.00,895.84 L 150.00,895.84 Z M 118.00,893.84 L 116.00,893.84 L 116.00,895.84 L 118.00,895.84 Z M 86.00,893.84 L 84.00,893.84 L 84.00,895.84 L 86.00,895.84 Z M 54.00,893.84 L 52.00,893.84 L 52.00,895.84 L 54.00,895.84 Z" fill="#33CC33" fill-opacity="0.5" stroke="#229922" stroke-width="0.5"/>
    <text x="10" y="938" font-family="sans-serif" font-size="11" fill="#aaaaaa">tap (65,44) - 147 polygons</text>
</g>
</svg>
