<?xml version="1.0" encoding="UTF-8"?>
<svg xmlns="http://www.w3.org/2000/svg" width="684.0" height="968.0" viewBox="0 0 684.0 968.0">
<rect width="100%" height="100%" fill="#1a1a2e"/>
<text x="342.0" y="18" font-family="sans-serif" font-size="14" fill="#eee" text-anchor="middle" font-weight="bold">tt_um_pll_sky130 - diff (65,20)</text>
<g transform="translate(0, 25)">
    <path d="M 20.00,923.04 L 664.00,923.04 L 664.00,20.00 L 20.00,20.00 Z" fill="none" stroke="#555555" stroke-width="1" stroke-dasharray="4,2"/>
    <path d="M 57.04,462.30 L 52.00,462.30 L 52.00,470.30 L 57.04,470.30 Z M 63.28,462.30 L 58.24,462.30 L 58.24,470.30 L 63.28,470.30 Z M 187.48,469.40 L 183.84,469.40 L 183.84,477.40 L 187.48,477.40 Z M 169.80,469.40 L 166.16,469.40 L 166.16,477.40 L 169.80,477.40 Z M 152.12,469.40 L 148.48,469.40 L 148.48,477.40 L 152.12,477.40 Z M 134.44,469.40 L 130.80,469.40 L 130.80,477.40 L 134.44,477.40 Z M 116.76,469.40 L 113.12,469.40 L 113.12,477.40 L 116.76,477.40 Z M 99.08,469.40 L 95.44,469.40 L 95.44,477.40 L 99.08,477.40 Z M 81.40,469.40 L 77.76,469.40 L 77.76,477.40 L 81.40,477.40 Z M 57.04,488.32 L 52.00,488.32 L 52.00,496.32 L 57.04,496.32 Z M 187.48,492.32 L 183.84,492.32 L 183.84,496.32 L 187.48,496.32 Z M 169.80,492.32 L 166.16,492.32 L 166.16,496.32 L 169.80,496.32 Z M 152.12,492.32 L 148.48,492.32 L 148.48,496.32 L 152.12,496.32 Z M 134.44,492.32 L 130.80,492.32 L 130.80,496.32 L 134.44,496.32 Z M 116.76,492.32 L 113.12,492.32 L 113.12,496.32 L 116.76,496.32 Z M 99.08,492.32 L 95.44,492.32 L 95.44,496.32 L 99.08,496.32 Z M 81.40,492.32 L 77.76,492.32 L 77.76,496.32 L 81.40,496.32 Z M 63.04,527.92 L 52.00,527.92 L 52.00,571.82 L 63.04,571.82 Z M 75.28,527.92 L 64.24,527.92 L 64.24,571.82 L 75.28,571.82 Z M 87.52,527.92 L 76.48,527.92 L 76.48,571.82 L 87.52,571.82 Z M 104.56,527.92 L 93.52,527.92 L 93.52,571.82 L 104.56,571.82 Z M 116.80,527.92 L 105.76,527.92 L 105.76,571.82 L 116.80,571.82 Z M 129.04,527.92 L 118.00,527.92 L 118.00,571.82 L 129.04,571.82 Z M 226.96,582.70 L 215.92,582.70 L 215.92,721.54 L 226.96,721.54 Z M 251.44,582.70 L 240.40,582.70 L 240.40,721.54 L 251.44,721.54 Z M 263.68,582.70 L 252.64,582.70 L 252.64,721.54 L 263.68,721.54 Z M 275.92,582.70 L 264.88,582.70 L 264.88,721.54 L 275.92,721.54 Z M 239.20,582.70 L 228.16,582.70 L 228.16,721.54 L 239.20,721.54 Z M 214.72,582.70 L 203.68,582.70 L 203.68,721.54 L 214.72,721.54 Z M 202.48,582.70 L 191.44,582.70 L 191.44,721.54 L 202.48,721.54 Z M 190.24,582.70 L 179.20,582.70 L 179.20,721.54 L 190.24,721.54 Z M 178.00,582.70 L 166.96,582.70 L 166.96,721.54 L 178.00,721.54 Z M 87.52,582.70 L 76.48,582.70 L 76.48,721.54 L 87.52,721.54 Z M 99.76,582.70 L 88.72,582.70 L 88.72,721.54 L 99.76,721.54 Z M 112.00,582.70 L 100.96,582.70 L 100.96,721.54 L 112.00,721.54 Z M 124.24,582.70 L 113.20,582.70 L 113.20,721.54 L 124.24,721.54 Z M 136.48,582.70 L 125.44,582.70 L 125.44,721.54 L 136.48,721.54 Z M 148.72,582.70 L 137.68,582.70 L 137.68,721.54 L 148.72,721.54 Z M 75.28,582.70 L 64.24,582.70 L 64.24,721.54 L 75.28,721.54 Z M 63.04,582.70 L 52.00,582.70 L 52.00,721.54 L 63.04,721.54 Z M 160.96,582.70 L 149.92,582.70 L 149.92,721.54 L 160.96,721.54 Z M 115.16,741.64 L 111.52,741.64 L 111.52,749.64 L 115.16,749.64 Z M 97.04,741.64 L 90.00,741.64 L 90.00,749.64 L 97.04,749.64 Z M 88.80,741.64 L 81.76,741.64 L 81.76,749.64 L 88.80,749.64 Z M 67.28,741.64 L 60.24,741.64 L 60.24,749.64 L 67.28,749.64 Z M 59.04,741.64 L 52.00,741.64 L 52.00,749.64 L 59.04,749.64 Z M 59.04,764.56 L 52.00,764.56 L 52.00,772.56 L 59.04,772.56 Z M 73.08,764.56 L 66.04,764.56 L 66.04,772.56 L 73.08,772.56 Z M 83.72,768.56 L 80.08,768.56 L 80.08,772.56 L 83.72,772.56 Z M 282.52,799.06 L 278.88,799.06 L 278.88,807.06 L 282.52,807.06 Z M 267.80,799.06 L 264.16,799.06 L 264.16,807.06 L 267.80,807.06 Z M 232.44,811.98 L 228.80,811.98 L 228.80,815.98 L 232.44,815.98 Z M 349.32,811.98 L 345.68,811.98 L 345.68,815.98 L 349.32,815.98 Z M 55.64,811.98 L 52.00,811.98 L 52.00,815.98 L 55.64,815.98 Z M 317.96,811.98 L 314.32,811.98 L 314.32,815.98 L 317.96,815.98 Z M 73.32,811.98 L 69.68,811.98 L 69.68,815.98 L 73.32,815.98 Z M 302.28,811.98 L 298.64,811.98 L 298.64,815.98 L 302.28,815.98 Z M 91.00,811.98 L 87.36,811.98 L 87.36,815.98 L 91.00,815.98 Z M 108.68,811.98 L 105.04,811.98 L 105.04,815.98 L 108.68,815.98 Z M 126.36,811.98 L 122.72,811.98 L 122.72,815.98 L 126.36,815.98 Z M 333.64,811.98 L 330.00,811.98 L 330.00,815.98 L 333.64,815.98 Z M 144.04,811.98 L 140.40,811.98 L 140.40,815.98 L 144.04,815.98 Z M 214.76,811.98 L 211.12,811.98 L 211.12,815.98 L 214.76,815.98 Z M 161.72,811.98 L 158.08,811.98 L 158.08,815.98 L 161.72,815.98 Z M 250.12,811.98 L 246.48,811.98 L 246.48,815.98 L 250.12,815.98 Z M 179.40,811.98 L 175.76,811.98 L 175.76,815.98 L 179.40,815.98 Z M 197.08,811.98 L 193.44,811.98 L 193.44,815.98 L 197.08,815.98 Z M 267.80,819.98 L 264.16,819.98 L 264.16,823.98 L 267.80,823.98 Z M 267.80,828.90 L 264.16,828.90 L 264.16,832.90 L 267.80,832.90 Z M 349.32,830.90 L 345.68,830.90 L 345.68,832.90 L 349.32,832.90 Z M 73.32,830.90 L 69.68,830.90 L 69.68,832.90 L 73.32,832.90 Z M 55.64,830.90 L 52.00,830.90 L 52.00,832.90 L 55.64,832.90 Z M 333.64,830.90 L 330.00,830.90 L 330.00,832.90 L 333.64,832.90 Z M 317.96,830.90 L 314.32,830.90 L 314.32,832.90 L 317.96,832.90 Z M 302.28,830.90 L 298.64,830.90 L 298.64,832.90 L 302.28,832.90 Z M 250.12,830.90 L 246.48,830.90 L 246.48,832.90 L 250.12,832.90 Z M 232.44,830.90 L 228.80,830.90 L 228.80,832.90 L 232.44,832.90 Z M 214.76,830.90 L 211.12,830.90 L 211.12,832.90 L 214.76,832.90 Z M 197.08,830.90 L 193.44,830.90 L 193.44,832.90 L 197.08,832.90 Z M 179.40,830.90 L 175.76,830.90 L 175.76,832.90 L 179.40,832.90 Z M 161.72,830.90 L 158.08,830.90 L 158.08,832.90 L 161.72,832.90 Z M 144.04,830.90 L 140.40,830.90 L 140.40,832.90 L 144.04,832.90 Z M 126.36,830.90 L 122.72,830.90 L 122.72,832.90 L 126.36,832.90 Z M 108.68,830.90 L 105.04,830.90 L 105.04,832.90 L 108.68,832.90 Z M 91.00,830.90 L 87.36,830.90 L 87.36,832.90 L 91.00,832.90 Z M 267.80,864.12 L 264.16,864.12 L 264.16,872.12 L 267.80,872.12 Z M 126.36,870.12 L 122.72,870.12 L 122.72,874.12 L 126.36,874.12 Z M 144.04,870.12 L 140.40,870.12 L 140.40,874.12 L 144.04,874.12 Z M 108.68,870.12 L 105.04,870.12 L 105.04,874.12 L 108.68,874.12 Z M 91.00,870.12 L 87.36,870.12 L 87.36,874.12 L 91.00,874.12 Z M 161.72,870.12 L 158.08,870.12 L 158.08,874.12 L 161.72,874.12 Z M 179.40,870.12 L 175.76,870.12 L 175.76,874.12 L 179.40,874.12 Z M 73.32,870.12 L 69.68,870.12 L 69.68,874.12 L 73.32,874.12 Z M 197.08,870.12 L 193.44,870.12 L 193.44,874.12 L 197.08,874.12 Z M 214.76,870.12 L 211.12,870.12 L 211.12,874.12 L 214.76,874.12 Z M 55.64,870.12 L 52.00,870.12 L 52.00,874.12 L 55.64,874.12 Z M 232.44,870.12 L 228.80,870.12 L 228.80,874.12 L 232.44,874.12 Z M 250.12,870.12 L 246.48,870.12 L 246.48,874.12 L 250.12,874.12 Z M 267.80,887.04 L 264.16,887.04 L 264.16,891.04 L 267.80,891.04 Z M 73.32,889.04 L 69.68,889.04 L 69.68,891.04 L 73.32,891.04 Z M 91.00,889.04 L 87.36,889.04 L 87.36,891.04 L 91.00,891.04 Z M 108.68,889.04 L 105.04,889.04 L 105.04,891.04 L 108.68,891.04 Z M 55.64,889.04 L 52.00,889.04 L 52.00,891.04 L 55.64,891.04 Z M 126.36,889.04 L 122.72,889.04 L 122.72,891.04 L 126.36,891.04 Z M 144.04,889.04 L 140.40,889.04 L 140.40,891.04 L 144.04,891.04 Z M 161.72,889.04 L 158.08,889.04 L 158.08,891.04 L 161.72,891.04 Z M 179.40,889.04 L 175.76,889.04 L 175.76,891.04 L 179.40,891.04 Z M 197.08,889.04 L 193.44,889.04 L 193.44,891.04 L 197.08,891.04 Z M 214.76,889.04 L 211.12,889.04 L 211.12,891.04 L 214.76,891.04 Z M 232.44,889.04 L 228.80,889.04 L 228.80,891.04 L 232.44,891.04 Z M 250.12,889.04 L 246.48,889.04 L 246.48,891.04 L 250.12,891.04 Z" fill="#228B22" fill-opacity="0.5" stroke="#1a6b1a" stroke-width="0.5"/>
    <text x="10" y="938" font-family="sans-serif" font-size="11" fill="#aaaaaa">diff (65,20) - 111 polygons</text>
</g>
</svg>
