<?xml version="1.0" encoding="UTF-8"?>
<svg xmlns="http://www.w3.org/2000/svg" width="684.0" height="968.0" viewBox="0 0 684.0 968.0">
<rect width="100%" height="100%" fill="#1a1a2e"/>
<text x="342.0" y="18" font-family="sans-serif" font-size="14" fill="#eee" text-anchor="middle" font-weight="bold">tt_um_pll_sky130 - li1 (67,20)</text>
<g transform="translate(0, 25)">
    <path d="M 20.00,923.04 L 664.00,923.04 L 664.00,20.00 L 20.00,20.00 Z" fill="none" stroke="#555555" stroke-width="1" stroke-dasharray="4,2"/>
    <path d="M 85.22,462.60 L 83.82,462.60 L 83.82,464.00 L 85.22,464.00 Z M 136.74,462.60 L 135.34,462.60 L 135.34,464.00 L 136.74,464.00 Z M 188.26,462.60 L 186.86,462.60 L 186.86,464.00 L 188.26,464.00 Z M 156.26,462.60 L 154.86,462.60 L 154.86,464.00 L 156.26,464.00 Z M 78.98,462.60 L 77.58,462.60 L 77.58,464.00 L 78.98,464.00 Z M 162.50,462.60 L 161.10,462.60 L 161.10,464.00 L 162.50,464.00 Z M 130.50,462.60 L 129.10,462.60 L 129.10,464.00 L 130.50,464.00 Z M 182.02,462.60 L 180.62,462.60 L 180.62,464.00 L 182.02,464.00 Z M 104.74,462.60 L 103.34,462.60 L 103.34,464.00 L 104.74,464.00 Z M 110.98,462.60 L 109.58,462.60 L 109.58,464.00 L 110.98,464.00 Z M 102.96,464.64 L 101.60,464.64 L 101.60,472.64 L 102.96,472.64 Z M 128.72,464.64 L 127.36,464.64 L 127.36,472.64 L 128.72,472.64 Z M 132.24,464.64 L 130.88,464.64 L 130.88,472.64 L 132.24,472.64 Z M 106.48,464.64 L 105.12,464.64 L 105.12,472.64 L 106.48,472.64 Z M 190.00,464.64 L 188.64,464.64 L 188.64,472.64 L 190.00,472.64 Z M 86.96,464.64 L 85.60,464.64 L 85.60,472.64 L 86.96,472.64 Z M 83.44,464.64 L 82.08,464.64 L 82.08,472.64 L 83.44,472.64 Z M 80.72,464.64 L 79.36,464.64 L 79.36,472.64 L 80.72,472.64 Z M 109.20,464.64 L 107.84,464.64 L 107.84,472.64 L 109.20,472.64 Z M 77.20,464.64 L 75.84,464.64 L 75.84,472.64 L 77.20,472.64 Z M 134.96,464.64 L 133.60,464.64 L 133.60,472.64 L 134.96,472.64 Z M 112.72,464.64 L 111.36,464.64 L 111.36,472.64 L 112.72,472.64 Z M 138.48,464.64 L 137.12,464.64 L 137.12,472.64 L 138.48,472.64 Z M 183.76,464.64 L 182.40,464.64 L 182.40,472.64 L 183.76,472.64 Z M 186.48,464.64 L 185.12,464.64 L 185.12,472.64 L 186.48,472.64 Z M 180.24,464.64 L 178.88,464.64 L 178.88,472.64 L 180.24,472.64 Z M 154.48,464.64 L 153.12,464.64 L 153.12,472.64 L 154.48,472.64 Z M 158.00,464.64 L 156.64,464.64 L 156.64,472.64 L 158.00,472.64 Z M 160.72,464.64 L 159.36,464.64 L 159.36,472.64 L 160.72,472.64 Z M 164.24,464.64 L 162.88,464.64 L 162.88,472.64 L 164.24,472.64 Z M 61.46,478.04 L 60.06,478.04 L 60.06,479.44 L 61.46,479.44 Z M 55.22,478.04 L 53.82,478.04 L 53.82,479.44 L 55.22,479.44 Z M 132.84,480.08 L 131.48,480.08 L 131.48,488.08 L 132.84,488.08 Z M 104.96,480.08 L 103.60,480.08 L 103.60,488.08 L 104.96,488.08 Z M 107.08,480.08 L 105.72,480.08 L 105.72,488.08 L 107.08,488.08 Z M 81.32,480.08 L 79.96,480.08 L 79.96,488.08 L 81.32,488.08 Z M 79.20,480.08 L 77.84,480.08 L 77.84,488.08 L 79.20,488.08 Z M 158.60,480.08 L 157.24,480.08 L 157.24,488.08 L 158.60,488.08 Z M 59.68,480.08 L 58.32,480.08 L 58.32,488.08 L 59.68,488.08 Z M 156.48,480.08 L 155.12,480.08 L 155.12,488.08 L 156.48,488.08 Z M 53.44,480.08 L 52.08,480.08 L 52.08,488.08 L 53.44,488.08 Z M 56.96,480.08 L 55.60,480.08 L 55.60,488.08 L 56.96,488.08 Z M 63.20,480.08 L 61.84,480.08 L 61.84,488.08 L 63.20,488.08 Z M 182.24,480.08 L 180.88,480.08 L 180.88,488.08 L 182.24,488.08 Z M 184.36,480.08 L 183.00,480.08 L 183.00,488.08 L 184.36,488.08 Z M 130.72,480.08 L 129.36,480.08 L 129.36,488.08 L 130.72,488.08 Z M 72.26,484.38 L 70.86,484.38 L 70.86,485.78 L 72.26,485.78 Z M 199.06,484.38 L 197.66,484.38 L 197.66,485.78 L 199.06,485.78 Z M 96.02,484.38 L 94.62,484.38 L 94.62,485.78 L 96.02,485.78 Z M 121.78,484.38 L 120.38,484.38 L 120.38,485.78 L 121.78,485.78 Z M 147.54,484.38 L 146.14,484.38 L 146.14,485.78 L 147.54,485.78 Z M 173.30,484.38 L 171.90,484.38 L 171.90,485.78 L 173.30,485.78 Z M 231.80,485.64 L 230.44,485.64 L 230.44,493.64 L 231.80,493.64 Z M 229.68,485.64 L 228.32,485.64 L 228.32,493.64 L 229.68,493.64 Z M 214.00,485.64 L 212.64,485.64 L 212.64,493.64 L 214.00,493.64 Z M 216.12,485.64 L 214.76,485.64 L 214.76,493.64 L 216.12,493.64 Z M 220.50,491.94 L 219.10,491.94 L 219.10,493.34 L 220.50,493.34 Z M 236.18,491.94 L 234.78,491.94 L 234.78,493.34 L 236.18,493.34 Z M 158.60,494.08 L 157.24,494.08 L 157.24,498.08 L 158.60,498.08 Z M 132.84,494.08 L 131.48,494.08 L 131.48,498.08 L 132.84,498.08 Z M 130.72,494.08 L 129.36,494.08 L 129.36,498.08 L 130.72,498.08 Z M 184.36,494.08 L 183.00,494.08 L 183.00,498.08 L 184.36,498.08 Z M 182.24,494.08 L 180.88,494.08 L 180.88,498.08 L 182.24,498.08 Z M 156.48,494.08 L 155.12,494.08 L 155.12,498.08 L 156.48,498.08 Z M 79.20,494.08 L 77.84,494.08 L 77.84,498.08 L 79.20,498.08 Z M 81.32,494.08 L 79.96,494.08 L 79.96,498.08 L 81.32,498.08 Z M 107.08,494.08 L 105.72,494.08 L 105.72,498.08 L 107.08,498.08 Z M 104.96,494.08 L 103.60,494.08 L 103.60,498.08 L 104.96,498.08 Z M 130.50,500.64 L 129.10,500.64 L 129.10,502.04 L 130.50,502.04 Z M 182.02,500.64 L 180.62,500.64 L 180.62,502.04 L 182.02,502.04 Z M 78.98,500.64 L 77.58,500.64 L 77.58,502.04 L 78.98,502.04 Z M 55.22,500.64 L 53.82,500.64 L 53.82,502.04 L 55.22,502.04 Z M 156.26,500.64 L 154.86,500.64 L 154.86,502.04 L 156.26,502.04 Z M 104.74,500.64 L 103.34,500.64 L 103.34,502.04 L 104.74,502.04 Z M 154.48,502.68 L 153.12,502.68 L 153.12,510.68 L 154.48,510.68 Z M 158.00,502.68 L 156.64,502.68 L 156.64,510.68 L 158.00,510.68 Z M 80.72,502.68 L 79.36,502.68 L 79.36,510.68 L 80.72,510.68 Z M 183.76,502.68 L 182.40,502.68 L 182.40,510.68 L 183.76,510.68 Z M 180.24,502.68 L 178.88,502.68 L 178.88,510.68 L 180.24,510.68 Z M 132.24,502.68 L 130.88,502.68 L 130.88,510.68 L 132.24,510.68 Z M 128.72,502.68 L 127.36,502.68 L 127.36,510.68 L 128.72,510.68 Z M 53.44,502.68 L 52.08,502.68 L 52.08,510.68 L 53.44,510.68 Z M 56.96,502.68 L 55.60,502.68 L 55.60,510.68 L 56.96,510.68 Z M 77.20,502.68 L 75.84,502.68 L 75.84,510.68 L 77.20,510.68 Z M 106.48,502.68 L 105.12,502.68 L 105.12,510.68 L 106.48,510.68 Z M 102.96,502.68 L 101.60,502.68 L 101.60,510.68 L 102.96,510.68 Z M 214.00,506.68 L 212.64,506.68 L 212.64,510.68 L 214.00,510.68 Z M 216.12,506.68 L 214.76,506.68 L 214.76,510.68 L 216.12,510.68 Z M 229.68,506.68 L 228.32,506.68 L 228.32,510.68 L 229.68,510.68 Z M 231.80,506.68 L 230.44,506.68 L 230.44,510.68 L 231.80,510.68 Z M 72.26,506.98 L 70.86,506.98 L 70.86,508.38 L 72.26,508.38 Z M 147.54,506.98 L 146.14,506.98 L 146.14,508.38 L 147.54,508.38 Z M 121.78,506.98 L 120.38,506.98 L 120.38,508.38 L 121.78,508.38 Z M 96.02,506.98 L 94.62,506.98 L 94.62,508.38 L 96.02,508.38 Z M 173.30,506.98 L 171.90,506.98 L 171.90,508.38 L 173.30,508.38 Z M 199.06,506.98 L 197.66,506.98 L 197.66,508.38 L 199.06,508.38 Z M 220.50,508.98 L 219.10,508.98 L 219.10,510.38 L 220.50,510.38 Z M 236.18,508.98 L 234.78,508.98 L 234.78,510.38 L 236.18,510.38 Z M 245.70,513.78 L 244.30,513.78 L 244.30,515.18 L 245.70,515.18 Z M 213.70,513.78 L 212.30,513.78 L 212.30,515.18 L 213.70,515.18 Z M 181.70,513.78 L 180.30,513.78 L 180.30,515.18 L 181.70,515.18 Z M 149.70,513.78 L 148.30,513.78 L 148.30,515.18 L 149.70,515.18 Z M 117.70,513.78 L 116.30,513.78 L 116.30,515.18 L 117.70,515.18 Z M 85.70,513.78 L 84.30,513.78 L 84.30,515.18 L 85.70,515.18 Z M 53.70,513.78 L 52.30,513.78 L 52.30,515.18 L 53.70,515.18 Z M 53.40,522.68 L 52.00,522.68 L 52.00,524.08 L 53.40,524.08 Z M 53.40,530.00 L 52.00,530.00 L 52.00,531.40 L 53.40,531.40 Z M 99.74,540.24 L 98.34,540.24 L 98.34,541.64 L 99.74,541.64 Z M 82.70,540.24 L 81.30,540.24 L 81.30,541.64 L 82.70,541.64 Z M 111.98,540.24 L 110.58,540.24 L 110.58,541.64 L 111.98,541.64 Z M 124.22,540.24 L 122.82,540.24 L 122.82,541.64 L 124.22,541.64 Z M 70.46,540.24 L 69.06,540.24 L 69.06,541.64 L 70.46,541.64 Z M 58.22,540.24 L 56.82,540.24 L 56.82,541.64 L 58.22,541.64 Z M 65.68,542.28 L 64.32,542.28 L 64.32,586.18 L 65.68,586.18 Z M 75.20,542.28 L 73.84,542.28 L 73.84,586.18 L 75.20,586.18 Z M 62.96,542.28 L 61.60,542.28 L 61.60,586.18 L 62.96,586.18 Z M 77.92,542.28 L 76.56,542.28 L 76.56,586.18 L 77.92,586.18 Z M 53.44,542.28 L 52.08,542.28 L 52.08,586.18 L 53.44,586.18 Z M 128.96,542.28 L 127.60,542.28 L 127.60,586.18 L 128.96,586.18 Z M 119.44,542.28 L 118.08,542.28 L 118.08,586.18 L 119.44,586.18 Z M 87.44,542.28 L 86.08,542.28 L 86.08,586.18 L 87.44,586.18 Z M 94.96,542.28 L 93.60,542.28 L 93.60,586.18 L 94.96,586.18 Z M 104.48,542.28 L 103.12,542.28 L 103.12,586.18 L 104.48,586.18 Z M 107.20,542.28 L 105.84,542.28 L 105.84,586.18 L 107.20,586.18 Z M 116.72,542.28 L 115.36,542.28 L 115.36,586.18 L 116.72,586.18 Z M 49.70,550.48 L 48.30,550.48 L 48.30,551.88 L 49.70,551.88 Z M 91.82,550.48 L 90.42,550.48 L 90.42,551.88 L 91.82,551.88 Z M 138.14,550.48 L 136.74,550.48 L 136.74,551.88 L 138.14,551.88 Z M 133.54,563.52 L 132.14,563.52 L 132.14,564.92 L 133.54,564.92 Z M 91.82,582.48 L 90.42,582.48 L 90.42,583.88 L 91.82,583.88 Z M 49.70,582.48 L 48.30,582.48 L 48.30,583.88 L 49.70,583.88 Z M 138.14,582.48 L 136.74,582.48 L 136.74,583.88 L 138.14,583.88 Z M 234.38,595.02 L 232.98,595.02 L 232.98,596.42 L 234.38,596.42 Z M 271.10,595.02 L 269.70,595.02 L 269.70,596.42 L 271.10,596.42 Z M 258.86,595.02 L 257.46,595.02 L 257.46,596.42 L 258.86,596.42 Z M 246.62,595.02 L 245.22,595.02 L 245.22,596.42 L 246.62,596.42 Z M 222.14,595.02 L 220.74,595.02 L 220.74,596.42 L 222.14,596.42 Z M 209.90,595.02 L 208.50,595.02 L 208.50,596.42 L 209.90,596.42 Z M 197.66,595.02 L 196.26,595.02 L 196.26,596.42 L 197.66,596.42 Z M 185.42,595.02 L 184.02,595.02 L 184.02,596.42 L 185.42,596.42 Z M 173.18,595.02 L 171.78,595.02 L 171.78,596.42 L 173.18,596.42 Z M 143.90,595.02 L 142.50,595.02 L 142.50,596.42 L 143.90,596.42 Z M 94.94,595.02 L 93.54,595.02 L 93.54,596.42 L 94.94,596.42 Z M 107.18,595.02 L 105.78,595.02 L 105.78,596.42 L 107.18,596.42 Z M 82.70,595.02 L 81.30,595.02 L 81.30,596.42 L 82.70,596.42 Z M 119.42,595.02 L 118.02,595.02 L 118.02,596.42 L 119.42,596.42 Z M 70.46,595.02 L 69.06,595.02 L 69.06,596.42 L 70.46,596.42 Z M 131.66,595.02 L 130.26,595.02 L 130.26,596.42 L 131.66,596.42 Z M 58.22,595.02 L 56.82,595.02 L 56.82,596.42 L 58.22,596.42 Z M 156.14,595.02 L 154.74,595.02 L 154.74,596.42 L 156.14,596.42 Z M 275.84,597.06 L 274.48,597.06 L 274.48,735.90 L 275.84,735.90 Z M 254.08,597.06 L 252.72,597.06 L 252.72,735.90 L 254.08,735.90 Z M 99.68,597.06 L 98.32,597.06 L 98.32,735.90 L 99.68,735.90 Z M 90.16,597.06 L 88.80,597.06 L 88.80,735.90 L 90.16,735.90 Z M 263.60,597.06 L 262.24,597.06 L 262.24,735.90 L 263.60,735.90 Z M 266.32,597.06 L 264.96,597.06 L 264.96,735.90 L 266.32,735.90 Z M 87.44,597.06 L 86.08,597.06 L 86.08,735.90 L 87.44,735.90 Z M 77.92,597.06 L 76.56,597.06 L 76.56,735.90 L 77.92,735.90 Z M 53.44,597.06 L 52.08,597.06 L 52.08,735.90 L 53.44,735.90 Z M 251.36,597.06 L 250.00,597.06 L 250.00,735.90 L 251.36,735.90 Z M 75.20,597.06 L 73.84,597.06 L 73.84,735.90 L 75.20,735.90 Z M 65.68,597.06 L 64.32,597.06 L 64.32,735.90 L 65.68,735.90 Z M 168.40,597.06 L 167.04,597.06 L 167.04,735.90 L 168.40,735.90 Z M 241.84,597.06 L 240.48,597.06 L 240.48,735.90 L 241.84,735.90 Z M 62.96,597.06 L 61.60,597.06 L 61.60,735.90 L 62.96,735.90 Z M 229.60,597.06 L 228.24,597.06 L 228.24,735.90 L 229.60,735.90 Z M 239.12,597.06 L 237.76,597.06 L 237.76,735.90 L 239.12,735.90 Z M 111.92,597.06 L 110.56,597.06 L 110.56,735.90 L 111.92,735.90 Z M 177.92,597.06 L 176.56,597.06 L 176.56,735.90 L 177.92,735.90 Z M 180.64,597.06 L 179.28,597.06 L 179.28,735.90 L 180.64,735.90 Z M 190.16,597.06 L 188.80,597.06 L 188.80,735.90 L 190.16,735.90 Z M 192.88,597.06 L 191.52,597.06 L 191.52,735.90 L 192.88,735.90 Z M 202.40,597.06 L 201.04,597.06 L 201.04,735.90 L 202.40,735.90 Z M 160.88,597.06 L 159.52,597.06 L 159.52,735.90 L 160.88,735.90 Z M 205.12,597.06 L 203.76,597.06 L 203.76,735.90 L 205.12,735.90 Z M 214.64,597.06 L 213.28,597.06 L 213.28,735.90 L 214.64,735.90 Z M 151.36,597.06 L 150.00,597.06 L 150.00,735.90 L 151.36,735.90 Z M 217.36,597.06 L 216.00,597.06 L 216.00,735.90 L 217.36,735.90 Z M 226.88,597.06 L 225.52,597.06 L 225.52,735.90 L 226.88,735.90 Z M 148.64,597.06 L 147.28,597.06 L 147.28,735.90 L 148.64,735.90 Z M 139.12,597.06 L 137.76,597.06 L 137.76,735.90 L 139.12,735.90 Z M 136.40,597.06 L 135.04,597.06 L 135.04,735.90 L 136.40,735.90 Z M 126.88,597.06 L 125.52,597.06 L 125.52,735.90 L 126.88,735.90 Z M 124.16,597.06 L 122.80,597.06 L 122.80,735.90 L 124.16,735.90 Z M 114.64,597.06 L 113.28,597.06 L 113.28,735.90 L 114.64,735.90 Z M 102.40,597.06 L 101.04,597.06 L 101.04,735.90 L 102.40,735.90 Z M 165.26,604.20 L 163.86,604.20 L 163.86,605.60 L 165.26,605.60 Z M 49.70,604.20 L 48.30,604.20 L 48.30,605.60 L 49.70,605.60 Z M 285.02,604.20 L 283.62,604.20 L 283.62,605.60 L 285.02,605.60 Z M 285.02,636.20 L 283.62,636.20 L 283.62,637.60 L 285.02,637.60 Z M 49.70,636.20 L 48.30,636.20 L 48.30,637.60 L 49.70,637.60 Z M 165.26,636.20 L 163.86,636.20 L 163.86,637.60 L 165.26,637.60 Z M 280.42,665.78 L 279.02,665.78 L 279.02,667.18 L 280.42,667.18 Z M 165.26,668.20 L 163.86,668.20 L 163.86,669.60 L 165.26,669.60 Z M 49.70,668.20 L 48.30,668.20 L 48.30,669.60 L 49.70,669.60 Z M 285.02,668.20 L 283.62,668.20 L 283.62,669.60 L 285.02,669.60 Z M 285.02,700.20 L 283.62,700.20 L 283.62,701.60 L 285.02,701.60 Z M 165.26,700.20 L 163.86,700.20 L 163.86,701.60 L 165.26,701.60 Z M 49.70,700.20 L 48.30,700.20 L 48.30,701.60 L 49.70,701.60 Z M 165.26,732.20 L 163.86,732.20 L 163.86,733.60 L 165.26,733.60 Z M 285.02,732.20 L 283.62,732.20 L 283.62,733.60 L 285.02,733.60 Z M 49.70,732.20 L 48.30,732.20 L 48.30,733.60 L 49.70,733.60 Z M 56.22,753.64 L 54.82,753.64 L 54.82,755.04 L 56.22,755.04 Z M 94.22,753.64 L 92.82,753.64 L 92.82,755.04 L 94.22,755.04 Z M 64.46,753.64 L 63.06,753.64 L 63.06,755.04 L 64.46,755.04 Z M 85.98,753.64 L 84.58,753.64 L 84.58,755.04 L 85.98,755.04 Z M 67.20,755.68 L 65.84,755.68 L 65.84,763.68 L 67.20,763.68 Z M 115.08,755.68 L 113.72,755.68 L 113.72,763.68 L 115.08,763.68 Z M 112.96,755.68 L 111.60,755.68 L 111.60,763.68 L 112.96,763.68 Z M 96.96,755.68 L 95.60,755.68 L 95.60,763.68 L 96.96,763.68 Z M 91.44,755.68 L 90.08,755.68 L 90.08,763.68 L 91.44,763.68 Z M 88.72,755.68 L 87.36,755.68 L 87.36,763.68 L 88.72,763.68 Z M 83.20,755.68 L 81.84,755.68 L 81.84,763.68 L 83.20,763.68 Z M 61.68,755.68 L 60.32,755.68 L 60.32,763.68 L 61.68,763.68 Z M 58.96,755.68 L 57.60,755.68 L 57.60,763.68 L 58.96,763.68 Z M 53.44,755.68 L 52.08,755.68 L 52.08,763.68 L 53.44,763.68 Z M 122.74,759.98 L 121.34,759.98 L 121.34,761.38 L 122.74,761.38 Z M 108.02,759.98 L 106.62,759.98 L 106.62,761.38 L 108.02,761.38 Z M 78.26,759.98 L 76.86,759.98 L 76.86,761.38 L 78.26,761.38 Z M 56.22,776.24 L 54.82,776.24 L 54.82,777.64 L 56.22,777.64 Z M 70.26,776.24 L 68.86,776.24 L 68.86,777.64 L 70.26,777.64 Z M 67.48,778.28 L 66.12,778.28 L 66.12,786.28 L 67.48,786.28 Z M 58.96,778.28 L 57.60,778.28 L 57.60,786.28 L 58.96,786.28 Z M 53.44,778.28 L 52.08,778.28 L 52.08,786.28 L 53.44,786.28 Z M 73.00,778.28 L 71.64,778.28 L 71.64,786.28 L 73.00,786.28 Z M 81.52,782.28 L 80.16,782.28 L 80.16,786.28 L 81.52,786.28 Z M 83.64,782.28 L 82.28,782.28 L 82.28,786.28 L 83.64,786.28 Z M 117.70,789.38 L 116.30,789.38 L 116.30,790.78 L 117.70,790.78 Z M 85.70,789.38 L 84.30,789.38 L 84.30,790.78 L 85.70,790.78 Z M 53.70,789.38 L 52.30,789.38 L 52.30,790.78 L 53.70,790.78 Z M 149.70,800.68 L 148.30,800.68 L 148.30,802.08 L 149.70,802.08 Z M 341.70,800.68 L 340.30,800.68 L 340.30,802.08 L 341.70,802.08 Z M 309.70,800.68 L 308.30,800.68 L 308.30,802.08 L 309.70,802.08 Z M 277.70,800.68 L 276.30,800.68 L 276.30,802.08 L 277.70,802.08 Z M 245.70,800.68 L 244.30,800.68 L 244.30,802.08 L 245.70,802.08 Z M 213.70,800.68 L 212.30,800.68 L 212.30,802.08 L 213.70,802.08 Z M 181.70,800.68 L 180.30,800.68 L 180.30,802.08 L 181.70,802.08 Z M 117.70,800.68 L 116.30,800.68 L 116.30,802.08 L 117.70,802.08 Z M 85.70,800.68 L 84.30,800.68 L 84.30,802.08 L 85.70,802.08 Z M 53.70,800.68 L 52.30,800.68 L 52.30,802.08 L 53.70,802.08 Z M 265.60,811.10 L 264.24,811.10 L 264.24,819.10 L 265.60,819.10 Z M 267.72,811.10 L 266.36,811.10 L 266.36,819.10 L 267.72,819.10 Z M 280.32,811.10 L 278.96,811.10 L 278.96,819.10 L 280.32,819.10 Z M 282.44,811.10 L 281.08,811.10 L 281.08,819.10 L 282.44,819.10 Z M 290.90,817.40 L 289.50,817.40 L 289.50,818.80 L 290.90,818.80 Z M 347.12,822.14 L 345.76,822.14 L 345.76,826.14 L 347.12,826.14 Z M 88.80,822.14 L 87.44,822.14 L 87.44,826.14 L 88.80,826.14 Z M 55.56,822.14 L 54.20,822.14 L 54.20,826.14 L 55.56,826.14 Z M 197.00,822.14 L 195.64,822.14 L 195.64,826.14 L 197.00,826.14 Z M 194.88,822.14 L 193.52,822.14 L 193.52,826.14 L 194.88,826.14 Z M 71.12,822.14 L 69.76,822.14 L 69.76,826.14 L 71.12,826.14 Z M 73.24,822.14 L 71.88,822.14 L 71.88,826.14 L 73.24,826.14 Z M 179.32,822.14 L 177.96,822.14 L 177.96,826.14 L 179.32,826.14 Z M 177.20,822.14 L 175.84,822.14 L 175.84,826.14 L 177.20,826.14 Z M 161.64,822.14 L 160.28,822.14 L 160.28,826.14 L 161.64,826.14 Z M 349.24,822.14 L 347.88,822.14 L 347.88,826.14 L 349.24,826.14 Z M 90.92,822.14 L 89.56,822.14 L 89.56,826.14 L 90.92,826.14 Z M 159.52,822.14 L 158.16,822.14 L 158.16,826.14 L 159.52,826.14 Z M 106.48,822.14 L 105.12,822.14 L 105.12,826.14 L 106.48,826.14 Z M 108.60,822.14 L 107.24,822.14 L 107.24,826.14 L 108.60,826.14 Z M 143.96,822.14 L 142.60,822.14 L 142.60,826.14 L 143.96,826.14 Z M 141.84,822.14 L 140.48,822.14 L 140.48,826.14 L 141.84,826.14 Z M 124.16,822.14 L 122.80,822.14 L 122.80,826.14 L 124.16,826.14 Z M 126.28,822.14 L 124.92,822.14 L 124.92,826.14 L 126.28,826.14 Z M 212.56,822.14 L 211.20,822.14 L 211.20,826.14 L 212.56,826.14 Z M 317.88,822.14 L 316.52,822.14 L 316.52,826.14 L 317.88,826.14 Z M 315.76,822.14 L 314.40,822.14 L 314.40,826.14 L 315.76,826.14 Z M 302.20,822.14 L 300.84,822.14 L 300.84,826.14 L 302.20,826.14 Z M 333.56,822.14 L 332.20,822.14 L 332.20,826.14 L 333.56,826.14 Z M 331.44,822.14 L 330.08,822.14 L 330.08,826.14 L 331.44,826.14 Z M 300.08,822.14 L 298.72,822.14 L 298.72,826.14 L 300.08,826.14 Z M 250.04,822.14 L 248.68,822.14 L 248.68,826.14 L 250.04,826.14 Z M 247.92,822.14 L 246.56,822.14 L 246.56,826.14 L 247.92,826.14 Z M 232.36,822.14 L 231.00,822.14 L 231.00,826.14 L 232.36,826.14 Z M 230.24,822.14 L 228.88,822.14 L 228.88,826.14 L 230.24,826.14 Z M 214.68,822.14 L 213.32,822.14 L 213.32,826.14 L 214.68,826.14 Z M 53.44,822.14 L 52.08,822.14 L 52.08,826.14 L 53.44,826.14 Z M 254.42,824.44 L 253.02,824.44 L 253.02,825.84 L 254.42,825.84 Z M 306.58,824.44 L 305.18,824.44 L 305.18,825.84 L 306.58,825.84 Z M 201.38,824.44 L 199.98,824.44 L 199.98,825.84 L 201.38,825.84 Z M 166.02,824.44 L 164.62,824.44 L 164.62,825.84 L 166.02,825.84 Z M 236.74,824.44 L 235.34,824.44 L 235.34,825.84 L 236.74,825.84 Z M 218.26,824.44 L 216.86,824.44 L 216.86,825.84 L 218.26,825.84 Z M 182.90,824.44 L 181.50,824.44 L 181.50,825.84 L 182.90,825.84 Z M 322.26,824.44 L 320.86,824.44 L 320.86,825.84 L 322.26,825.84 Z M 337.94,824.44 L 336.54,824.44 L 336.54,825.84 L 337.94,825.84 Z M 148.34,824.44 L 146.94,824.44 L 146.94,825.84 L 148.34,825.84 Z M 112.18,824.44 L 110.78,824.44 L 110.78,825.84 L 112.18,825.84 Z M 76.82,824.44 L 75.42,824.44 L 75.42,825.84 L 76.82,825.84 Z M 95.30,824.44 L 93.90,824.44 L 93.90,825.84 L 95.30,825.84 Z M 130.66,824.44 L 129.26,824.44 L 129.26,825.84 L 130.66,825.84 Z M 353.62,824.44 L 352.22,824.44 L 352.22,825.84 L 353.62,825.84 Z M 59.94,824.44 L 58.54,824.44 L 58.54,825.84 L 59.94,825.84 Z M 267.72,830.14 L 266.36,830.14 L 266.36,834.14 L 267.72,834.14 Z M 265.60,830.14 L 264.24,830.14 L 264.24,834.14 L 265.60,834.14 Z M 290.90,832.44 L 289.50,832.44 L 289.50,833.84 L 290.90,833.84 Z M 267.72,837.18 L 266.36,837.18 L 266.36,841.18 L 267.72,841.18 Z M 265.60,837.18 L 264.24,837.18 L 264.24,841.18 L 265.60,841.18 Z M 230.24,839.18 L 228.88,839.18 L 228.88,841.18 L 230.24,841.18 Z M 232.36,839.18 L 231.00,839.18 L 231.00,841.18 L 232.36,841.18 Z M 55.56,839.18 L 54.20,839.18 L 54.20,841.18 L 55.56,841.18 Z M 247.92,839.18 L 246.56,839.18 L 246.56,841.18 L 247.92,841.18 Z M 53.44,839.18 L 52.08,839.18 L 52.08,841.18 L 53.44,841.18 Z M 141.84,839.18 L 140.48,839.18 L 140.48,841.18 L 141.84,841.18 Z M 250.04,839.18 L 248.68,839.18 L 248.68,841.18 L 250.04,841.18 Z M 331.44,839.18 L 330.08,839.18 L 330.08,841.18 L 331.44,841.18 Z M 300.08,839.18 L 298.72,839.18 L 298.72,841.18 L 300.08,841.18 Z M 302.20,839.18 L 300.84,839.18 L 300.84,841.18 L 302.20,841.18 Z M 333.56,839.18 L 332.20,839.18 L 332.20,841.18 L 333.56,841.18 Z M 315.76,839.18 L 314.40,839.18 L 314.40,841.18 L 315.76,841.18 Z M 317.88,839.18 L 316.52,839.18 L 316.52,841.18 L 317.88,841.18 Z M 347.12,839.18 L 345.76,839.18 L 345.76,841.18 L 347.12,841.18 Z M 349.24,839.18 L 347.88,839.18 L 347.88,841.18 L 349.24,841.18 Z M 212.56,839.18 L 211.20,839.18 L 211.20,841.18 L 212.56,841.18 Z M 143.96,839.18 L 142.60,839.18 L 142.60,841.18 L 143.96,841.18 Z M 126.28,839.18 L 124.92,839.18 L 124.92,841.18 L 126.28,841.18 Z M 124.16,839.18 L 122.80,839.18 L 122.80,841.18 L 124.16,841.18 Z M 108.60,839.18 L 107.24,839.18 L 107.24,841.18 L 108.60,841.18 Z M 159.52,839.18 L 158.16,839.18 L 158.16,841.18 L 159.52,841.18 Z M 161.64,839.18 L 160.28,839.18 L 160.28,841.18 L 161.64,841.18 Z M 106.48,839.18 L 105.12,839.18 L 105.12,841.18 L 106.48,841.18 Z M 90.92,839.18 L 89.56,839.18 L 89.56,841.18 L 90.92,841.18 Z M 177.20,839.18 L 175.84,839.18 L 175.84,841.18 L 177.20,841.18 Z M 179.32,839.18 L 177.96,839.18 L 177.96,841.18 L 179.32,841.18 Z M 88.80,839.18 L 87.44,839.18 L 87.44,841.18 L 88.80,841.18 Z M 214.68,839.18 L 213.32,839.18 L 213.32,841.18 L 214.68,841.18 Z M 71.12,839.18 L 69.76,839.18 L 69.76,841.18 L 71.12,841.18 Z M 194.88,839.18 L 193.52,839.18 L 193.52,841.18 L 194.88,841.18 Z M 197.00,839.18 L 195.64,839.18 L 195.64,841.18 L 197.00,841.18 Z M 73.24,839.18 L 71.88,839.18 L 71.88,841.18 L 73.24,841.18 Z M 112.18,839.48 L 110.78,839.48 L 110.78,840.88 L 112.18,840.88 Z M 337.94,839.48 L 336.54,839.48 L 336.54,840.88 L 337.94,840.88 Z M 148.34,839.48 L 146.94,839.48 L 146.94,840.88 L 148.34,840.88 Z M 236.74,839.48 L 235.34,839.48 L 235.34,840.88 L 236.74,840.88 Z M 182.90,839.48 L 181.50,839.48 L 181.50,840.88 L 182.90,840.88 Z M 322.26,839.48 L 320.86,839.48 L 320.86,840.88 L 322.26,840.88 Z M 353.62,839.48 L 352.22,839.48 L 352.22,840.88 L 353.62,840.88 Z M 218.26,839.48 L 216.86,839.48 L 216.86,840.88 L 218.26,840.88 Z M 130.66,839.48 L 129.26,839.48 L 129.26,840.88 L 130.66,840.88 Z M 166.02,839.48 L 164.62,839.48 L 164.62,840.88 L 166.02,840.88 Z M 306.58,839.48 L 305.18,839.48 L 305.18,840.88 L 306.58,840.88 Z M 59.94,839.48 L 58.54,839.48 L 58.54,840.88 L 59.94,840.88 Z M 95.30,839.48 L 93.90,839.48 L 93.90,840.88 L 95.30,840.88 Z M 254.42,839.48 L 253.02,839.48 L 253.02,840.88 L 254.42,840.88 Z M 290.90,839.48 L 289.50,839.48 L 289.50,840.88 L 290.90,840.88 Z M 76.82,839.48 L 75.42,839.48 L 75.42,840.88 L 76.82,840.88 Z M 201.38,839.48 L 199.98,839.48 L 199.98,840.88 L 201.38,840.88 Z M 85.70,844.28 L 84.30,844.28 L 84.30,845.68 L 85.70,845.68 Z M 309.70,844.28 L 308.30,844.28 L 308.30,845.68 L 309.70,845.68 Z M 277.70,844.28 L 276.30,844.28 L 276.30,845.68 L 277.70,845.68 Z M 245.70,844.28 L 244.30,844.28 L 244.30,845.68 L 245.70,845.68 Z M 213.70,844.28 L 212.30,844.28 L 212.30,845.68 L 213.70,845.68 Z M 181.70,844.28 L 180.30,844.28 L 180.30,845.68 L 181.70,845.68 Z M 149.70,844.28 L 148.30,844.28 L 148.30,845.68 L 149.70,845.68 Z M 117.70,844.28 L 116.30,844.28 L 116.30,845.68 L 117.70,845.68 Z M 53.70,844.28 L 52.30,844.28 L 52.30,845.68 L 53.70,845.68 Z M 341.70,844.28 L 340.30,844.28 L 340.30,845.68 L 341.70,845.68 Z M 149.70,855.58 L 148.30,855.58 L 148.30,856.98 L 149.70,856.98 Z M 181.70,855.58 L 180.30,855.58 L 180.30,856.98 L 181.70,856.98 Z M 213.70,855.58 L 212.30,855.58 L 212.30,856.98 L 213.70,856.98 Z M 117.70,855.58 L 116.30,855.58 L 116.30,856.98 L 117.70,856.98 Z M 245.70,855.58 L 244.30,855.58 L 244.30,856.98 L 245.70,856.98 Z M 85.70,855.58 L 84.30,855.58 L 84.30,856.98 L 85.70,856.98 Z M 53.70,855.58 L 52.30,855.58 L 52.30,856.98 L 53.70,856.98 Z M 267.72,866.00 L 266.36,866.00 L 266.36,874.00 L 267.72,874.00 Z M 265.60,866.00 L 264.24,866.00 L 264.24,874.00 L 265.60,874.00 Z M 141.84,872.00 L 140.48,872.00 L 140.48,876.00 L 141.84,876.00 Z M 159.52,872.00 L 158.16,872.00 L 158.16,876.00 L 159.52,876.00 Z M 179.32,872.00 L 177.96,872.00 L 177.96,876.00 L 179.32,876.00 Z M 177.20,872.00 L 175.84,872.00 L 175.84,876.00 L 177.20,876.00 Z M 161.64,872.00 L 160.28,872.00 L 160.28,876.00 L 161.64,876.00 Z M 53.44,872.00 L 52.08,872.00 L 52.08,876.00 L 53.44,876.00 Z M 55.56,872.00 L 54.20,872.00 L 54.20,876.00 L 55.56,876.00 Z M 143.96,872.00 L 142.60,872.00 L 142.60,876.00 L 143.96,876.00 Z M 73.24,872.00 L 71.88,872.00 L 71.88,876.00 L 73.24,876.00 Z M 71.12,872.00 L 69.76,872.00 L 69.76,876.00 L 71.12,876.00 Z M 126.28,872.00 L 124.92,872.00 L 124.92,876.00 L 126.28,876.00 Z M 124.16,872.00 L 122.80,872.00 L 122.80,876.00 L 124.16,876.00 Z M 108.60,872.00 L 107.24,872.00 L 107.24,876.00 L 108.60,876.00 Z M 106.48,872.00 L 105.12,872.00 L 105.12,876.00 L 106.48,876.00 Z M 90.92,872.00 L 89.56,872.00 L 89.56,876.00 L 90.92,876.00 Z M 88.80,872.00 L 87.44,872.00 L 87.44,876.00 L 88.80,876.00 Z M 214.68,872.00 L 213.32,872.00 L 213.32,876.00 L 214.68,876.00 Z M 194.88,872.00 L 193.52,872.00 L 193.52,876.00 L 194.88,876.00 Z M 197.00,872.00 L 195.64,872.00 L 195.64,876.00 L 197.00,876.00 Z M 250.04,872.00 L 248.68,872.00 L 248.68,876.00 L 250.04,876.00 Z M 212.56,872.00 L 211.20,872.00 L 211.20,876.00 L 212.56,876.00 Z M 230.24,872.00 L 228.88,872.00 L 228.88,876.00 L 230.24,876.00 Z M 247.92,872.00 L 246.56,872.00 L 246.56,876.00 L 247.92,876.00 Z M 232.36,872.00 L 231.00,872.00 L 231.00,876.00 L 232.36,876.00 Z M 272.10,872.30 L 270.70,872.30 L 270.70,873.70 L 272.10,873.70 Z M 95.30,874.30 L 93.90,874.30 L 93.90,875.70 L 95.30,875.70 Z M 148.34,874.30 L 146.94,874.30 L 146.94,875.70 L 148.34,875.70 Z M 130.66,874.30 L 129.26,874.30 L 129.26,875.70 L 130.66,875.70 Z M 254.42,874.30 L 253.02,874.30 L 253.02,875.70 L 254.42,875.70 Z M 201.38,874.30 L 199.98,874.30 L 199.98,875.70 L 201.38,875.70 Z M 76.82,874.30 L 75.42,874.30 L 75.42,875.70 L 76.82,875.70 Z M 59.94,874.30 L 58.54,874.30 L 58.54,875.70 L 59.94,875.70 Z M 112.18,874.30 L 110.78,874.30 L 110.78,875.70 L 112.18,875.70 Z M 236.74,874.30 L 235.34,874.30 L 235.34,875.70 L 236.74,875.70 Z M 182.90,874.30 L 181.50,874.30 L 181.50,875.70 L 182.90,875.70 Z M 218.26,874.30 L 216.86,874.30 L 216.86,875.70 L 218.26,875.70 Z M 166.02,874.30 L 164.62,874.30 L 164.62,875.70 L 166.02,875.70 Z M 267.72,887.04 L 266.36,887.04 L 266.36,891.04 L 267.72,891.04 Z M 265.60,887.04 L 264.24,887.04 L 264.24,891.04 L 265.60,891.04 Z M 71.12,889.04 L 69.76,889.04 L 69.76,891.04 L 71.12,891.04 Z M 90.92,889.04 L 89.56,889.04 L 89.56,891.04 L 90.92,891.04 Z M 88.80,889.04 L 87.44,889.04 L 87.44,891.04 L 88.80,891.04 Z M 212.56,889.04 L 211.20,889.04 L 211.20,891.04 L 212.56,891.04 Z M 177.20,889.04 L 175.84,889.04 L 175.84,891.04 L 177.20,891.04 Z M 179.32,889.04 L 177.96,889.04 L 177.96,891.04 L 179.32,891.04 Z M 73.24,889.04 L 71.88,889.04 L 71.88,891.04 L 73.24,891.04 Z M 250.04,889.04 L 248.68,889.04 L 248.68,891.04 L 250.04,891.04 Z M 55.56,889.04 L 54.20,889.04 L 54.20,891.04 L 55.56,891.04 Z M 53.44,889.04 L 52.08,889.04 L 52.08,891.04 L 53.44,891.04 Z M 197.00,889.04 L 195.64,889.04 L 195.64,891.04 L 197.00,891.04 Z M 194.88,889.04 L 193.52,889.04 L 193.52,891.04 L 194.88,891.04 Z M 161.64,889.04 L 160.28,889.04 L 160.28,891.04 L 161.64,891.04 Z M 106.48,889.04 L 105.12,889.04 L 105.12,891.04 L 106.48,891.04 Z M 108.60,889.04 L 107.24,889.04 L 107.24,891.04 L 108.60,891.04 Z M 247.92,889.04 L 246.56,889.04 L 246.56,891.04 L 247.92,891.04 Z M 159.52,889.04 L 158.16,889.04 L 158.16,891.04 L 159.52,891.04 Z M 124.16,889.04 L 122.80,889.04 L 122.80,891.04 L 124.16,891.04 Z M 126.28,889.04 L 124.92,889.04 L 124.92,891.04 L 126.28,891.04 Z M 214.68,889.04 L 213.32,889.04 L 213.32,891.04 L 214.68,891.04 Z M 232.36,889.04 L 231.00,889.04 L 231.00,891.04 L 232.36,891.04 Z M 141.84,889.04 L 140.48,889.04 L 140.48,891.04 L 141.84,891.04 Z M 143.96,889.04 L 142.60,889.04 L 142.60,891.04 L 143.96,891.04 Z M 230.24,889.04 L 228.88,889.04 L 228.88,891.04 L 230.24,891.04 Z M 182.90,889.34 L 181.50,889.34 L 181.50,890.74 L 182.90,890.74 Z M 76.82,889.34 L 75.42,889.34 L 75.42,890.74 L 76.82,890.74 Z M 112.18,889.34 L 110.78,889.34 L 110.78,890.74 L 112.18,890.74 Z M 95.30,889.34 L 93.90,889.34 L 93.90,890.74 L 95.30,890.74 Z M 272.10,889.34 L 270.70,889.34 L 270.70,890.74 L 272.10,890.74 Z M 254.42,889.34 L 253.02,889.34 L 253.02,890.74 L 254.42,890.74 Z M 236.74,889.34 L 235.34,889.34 L 235.34,890.74 L 236.74,890.74 Z M 201.38,889.34 L 199.98,889.34 L 199.98,890.74 L 201.38,890.74 Z M 166.02,889.34 L 164.62,889.34 L 164.62,890.74 L 166.02,890.74 Z M 218.26,889.34 L 216.86,889.34 L 216.86,890.74 L 218.26,890.74 Z M 148.34,889.34 L 146.94,889.34 L 146.94,890.74 L 148.34,890.74 Z M 130.66,889.34 L 129.26,889.34 L 129.26,890.74 L 130.66,890.74 Z M 59.94,889.34 L 58.54,889.34 L 58.54,890.74 L 59.94,890.74 Z M 245.70,894.14 L 244.30,894.14 L 244.30,895.54 L 245.70,895.54 Z M 213.70,894.14 L 212.30,894.14 L 212.30,895.54 L 213.70,895.54 Z M 181.70,894.14 L 180.30,894.14 L 180.30,895.54 L 181.70,895.54 Z M 149.70,894.14 L 148.30,894.14 L 148.30,895.54 L 149.70,895.54 Z M 117.70,894.14 L 116.30,894.14 L 116.30,895.54 L 117.70,895.54 Z M 85.70,894.14 L 84.30,894.14 L 84.30,895.54 L 85.70,895.54 Z M 53.70,894.14 L 52.30,894.14 L 52.30,895.54 L 53.70,895.54 Z" fill="#00BFFF" fill-opacity="0.55" stroke="#0099cc" stroke-width="0.5"/>
    <text x="10" y="938" font-family="sans-serif" font-size="11" fill="#aaaaaa">li1 (67,20) - 449 polygons</text>
</g>
</svg>
