<?xml version="1.0" encoding="UTF-8"?>
<svg xmlns="http://www.w3.org/2000/svg" width="684.0" height="968.0" viewBox="0 0 684.0 968.0">
<rect width="100%" height="100%" fill="#1a1a2e"/>
<text x="342.0" y="18" font-family="sans-serif" font-size="14" fill="#eee" text-anchor="middle" font-weight="bold">tt_um_pll_sky130 - nsdm (93,44)</text>
<g transform="translate(0, 25)">
    <path d="M 20.00,923.04 L 664.00,923.04 L 664.00,20.00 L 20.00,20.00 Z" fill="none" stroke="#555555" stroke-width="1" stroke-dasharray="4,2"/>
    <path d="M 73.06,483.58 L 70.06,483.58 L 70.06,486.58 L 73.06,486.58 Z M 96.82,483.58 L 93.82,483.58 L 93.82,486.58 L 96.82,486.58 Z M 122.58,483.58 L 119.58,483.58 L 119.58,486.58 L 122.58,486.58 Z M 148.34,483.58 L 145.34,483.58 L 145.34,486.58 L 148.34,486.58 Z M 174.10,483.58 L 171.10,483.58 L 171.10,486.58 L 174.10,486.58 Z M 199.86,483.58 L 196.86,483.58 L 196.86,486.58 L 199.86,486.58 Z M 236.98,491.14 L 233.98,491.14 L 233.98,494.14 L 236.98,494.14 Z M 221.30,491.14 L 218.30,491.14 L 218.30,494.14 L 221.30,494.14 Z M 184.94,493.58 L 180.30,493.58 L 180.30,498.58 L 184.94,498.58 Z M 159.18,493.58 L 154.54,493.58 L 154.54,498.58 L 159.18,498.58 Z M 133.42,493.58 L 128.78,493.58 L 128.78,498.58 L 133.42,498.58 Z M 107.66,493.58 L 103.02,493.58 L 103.02,498.58 L 107.66,498.58 Z M 81.90,493.58 L 77.26,493.58 L 77.26,498.58 L 81.90,498.58 Z M 107.06,502.18 L 101.02,502.18 L 101.02,511.18 L 107.06,511.18 Z M 132.82,502.18 L 126.78,502.18 L 126.78,511.18 L 132.82,511.18 Z M 81.30,502.18 L 75.26,502.18 L 75.26,511.18 L 81.30,511.18 Z M 158.58,502.18 L 152.54,502.18 L 152.54,511.18 L 158.58,511.18 Z M 57.54,502.18 L 51.50,502.18 L 51.50,511.18 L 57.54,511.18 Z M 184.34,502.18 L 178.30,502.18 L 178.30,511.18 L 184.34,511.18 Z M 232.38,506.18 L 227.74,506.18 L 227.74,511.18 L 232.38,511.18 Z M 216.70,506.18 L 212.06,506.18 L 212.06,511.18 L 216.70,511.18 Z M 63.54,541.78 L 51.50,541.78 L 51.50,586.68 L 63.54,586.68 Z M 75.78,541.78 L 63.74,541.78 L 63.74,586.68 L 75.78,586.68 Z M 88.02,541.78 L 75.98,541.78 L 75.98,586.68 L 88.02,586.68 Z M 105.06,541.78 L 93.02,541.78 L 93.02,586.68 L 105.06,586.68 Z M 117.30,541.78 L 105.26,541.78 L 105.26,586.68 L 117.30,586.68 Z M 129.54,541.78 L 117.50,541.78 L 117.50,586.68 L 129.54,586.68 Z M 215.22,596.56 L 203.18,596.56 L 203.18,736.40 L 215.22,736.40 Z M 227.46,596.56 L 215.42,596.56 L 215.42,736.40 L 227.46,736.40 Z M 239.70,596.56 L 227.66,596.56 L 227.66,736.40 L 239.70,736.40 Z M 251.94,596.56 L 239.90,596.56 L 239.90,736.40 L 251.94,736.40 Z M 264.18,596.56 L 252.14,596.56 L 252.14,736.40 L 264.18,736.40 Z M 276.42,596.56 L 264.38,596.56 L 264.38,736.40 L 276.42,736.40 Z M 202.98,596.56 L 190.94,596.56 L 190.94,736.40 L 202.98,736.40 Z M 149.22,596.56 L 137.18,596.56 L 137.18,736.40 L 149.22,736.40 Z M 178.50,596.56 L 166.46,596.56 L 166.46,736.40 L 178.50,736.40 Z M 161.46,596.56 L 149.42,596.56 L 149.42,736.40 L 161.46,736.40 Z M 136.98,596.56 L 124.94,596.56 L 124.94,736.40 L 136.98,736.40 Z M 124.74,596.56 L 112.70,596.56 L 112.70,736.40 L 124.74,736.40 Z M 112.50,596.56 L 100.46,596.56 L 100.46,736.40 L 112.50,736.40 Z M 100.26,596.56 L 88.22,596.56 L 88.22,736.40 L 100.26,736.40 Z M 88.02,596.56 L 75.98,596.56 L 75.98,736.40 L 88.02,736.40 Z M 75.78,596.56 L 63.74,596.56 L 63.74,736.40 L 75.78,736.40 Z M 63.54,596.56 L 51.50,596.56 L 51.50,736.40 L 63.54,736.40 Z M 190.74,596.56 L 178.70,596.56 L 178.70,736.40 L 190.74,736.40 Z M 123.54,759.18 L 120.54,759.18 L 120.54,762.18 L 123.54,762.18 Z M 108.82,759.18 L 105.82,759.18 L 105.82,762.18 L 108.82,762.18 Z M 79.06,759.18 L 76.06,759.18 L 76.06,762.18 L 79.06,762.18 Z M 73.58,777.78 L 65.54,777.78 L 65.54,786.78 L 73.58,786.78 Z M 59.54,777.78 L 51.50,777.78 L 51.50,786.78 L 59.54,786.78 Z M 84.22,781.78 L 79.58,781.78 L 79.58,786.78 L 84.22,786.78 Z M 342.50,799.88 L 339.50,799.88 L 339.50,802.88 L 342.50,802.88 Z M 54.50,799.88 L 51.50,799.88 L 51.50,802.88 L 54.50,802.88 Z M 86.50,799.88 L 83.50,799.88 L 83.50,802.88 L 86.50,802.88 Z M 118.50,799.88 L 115.50,799.88 L 115.50,802.88 L 118.50,802.88 Z M 150.50,799.88 L 147.50,799.88 L 147.50,802.88 L 150.50,802.88 Z M 182.50,799.88 L 179.50,799.88 L 179.50,802.88 L 182.50,802.88 Z M 214.50,799.88 L 211.50,799.88 L 211.50,802.88 L 214.50,802.88 Z M 246.50,799.88 L 243.50,799.88 L 243.50,802.88 L 246.50,802.88 Z M 278.50,799.88 L 275.50,799.88 L 275.50,802.88 L 278.50,802.88 Z M 310.50,799.88 L 307.50,799.88 L 307.50,802.88 L 310.50,802.88 Z M 291.70,816.60 L 288.70,816.60 L 288.70,819.60 L 291.70,819.60 Z M 354.42,823.64 L 351.42,823.64 L 351.42,826.64 L 354.42,826.64 Z M 112.98,823.64 L 109.98,823.64 L 109.98,826.64 L 112.98,826.64 Z M 77.62,823.64 L 74.62,823.64 L 74.62,826.64 L 77.62,826.64 Z M 338.74,823.64 L 335.74,823.64 L 335.74,826.64 L 338.74,826.64 Z M 323.06,823.64 L 320.06,823.64 L 320.06,826.64 L 323.06,826.64 Z M 307.38,823.64 L 304.38,823.64 L 304.38,826.64 L 307.38,826.64 Z M 255.22,823.64 L 252.22,823.64 L 252.22,826.64 L 255.22,826.64 Z M 237.54,823.64 L 234.54,823.64 L 234.54,826.64 L 237.54,826.64 Z M 202.18,823.64 L 199.18,823.64 L 199.18,826.64 L 202.18,826.64 Z M 166.82,823.64 L 163.82,823.64 L 163.82,826.64 L 166.82,826.64 Z M 219.06,823.64 L 216.06,823.64 L 216.06,826.64 L 219.06,826.64 Z M 183.70,823.64 L 180.70,823.64 L 180.70,826.64 L 183.70,826.64 Z M 149.14,823.64 L 146.14,823.64 L 146.14,826.64 L 149.14,826.64 Z M 60.74,823.64 L 57.74,823.64 L 57.74,826.64 L 60.74,826.64 Z M 131.46,823.64 L 128.46,823.64 L 128.46,826.64 L 131.46,826.64 Z M 96.10,823.64 L 93.10,823.64 L 93.10,826.64 L 96.10,826.64 Z M 268.30,829.64 L 263.66,829.64 L 263.66,834.64 L 268.30,834.64 Z M 268.30,836.68 L 263.66,836.68 L 263.66,841.68 L 268.30,841.68 Z M 109.18,838.68 L 104.54,838.68 L 104.54,841.68 L 109.18,841.68 Z M 349.82,838.68 L 345.18,838.68 L 345.18,841.68 L 349.82,841.68 Z M 334.14,838.68 L 329.50,838.68 L 329.50,841.68 L 334.14,841.68 Z M 126.86,838.68 L 122.22,838.68 L 122.22,841.68 L 126.86,841.68 Z M 318.46,838.68 L 313.82,838.68 L 313.82,841.68 L 318.46,841.68 Z M 56.14,838.68 L 51.50,838.68 L 51.50,841.68 L 56.14,841.68 Z M 302.78,838.68 L 298.14,838.68 L 298.14,841.68 L 302.78,841.68 Z M 73.82,838.68 L 69.18,838.68 L 69.18,841.68 L 73.82,841.68 Z M 144.54,838.68 L 139.90,838.68 L 139.90,841.68 L 144.54,841.68 Z M 250.62,838.68 L 245.98,838.68 L 245.98,841.68 L 250.62,841.68 Z M 162.22,838.68 L 157.58,838.68 L 157.58,841.68 L 162.22,841.68 Z M 232.94,838.68 L 228.30,838.68 L 228.30,841.68 L 232.94,841.68 Z M 91.50,838.68 L 86.86,838.68 L 86.86,841.68 L 91.50,841.68 Z M 215.26,838.68 L 210.62,838.68 L 210.62,841.68 L 215.26,841.68 Z M 197.58,838.68 L 192.94,838.68 L 192.94,841.68 L 197.58,841.68 Z M 179.90,838.68 L 175.26,838.68 L 175.26,841.68 L 179.90,841.68 Z M 54.50,854.78 L 51.50,854.78 L 51.50,857.78 L 54.50,857.78 Z M 86.50,854.78 L 83.50,854.78 L 83.50,857.78 L 86.50,857.78 Z M 118.50,854.78 L 115.50,854.78 L 115.50,857.78 L 118.50,857.78 Z M 150.50,854.78 L 147.50,854.78 L 147.50,857.78 L 150.50,857.78 Z M 182.50,854.78 L 179.50,854.78 L 179.50,857.78 L 182.50,857.78 Z M 214.50,854.78 L 211.50,854.78 L 211.50,857.78 L 214.50,857.78 Z M 246.50,854.78 L 243.50,854.78 L 243.50,857.78 L 246.50,857.78 Z M 272.90,871.50 L 269.90,871.50 L 269.90,874.50 L 272.90,874.50 Z M 202.18,873.50 L 199.18,873.50 L 199.18,876.50 L 202.18,876.50 Z M 255.22,873.50 L 252.22,873.50 L 252.22,876.50 L 255.22,876.50 Z M 237.54,873.50 L 234.54,873.50 L 234.54,876.50 L 237.54,876.50 Z M 77.62,873.50 L 74.62,873.50 L 74.62,876.50 L 77.62,876.50 Z M 112.98,873.50 L 109.98,873.50 L 109.98,876.50 L 112.98,876.50 Z M 60.74,873.50 L 57.74,873.50 L 57.74,876.50 L 60.74,876.50 Z M 96.10,873.50 L 93.10,873.50 L 93.10,876.50 L 96.10,876.50 Z M 131.46,873.50 L 128.46,873.50 L 128.46,876.50 L 131.46,876.50 Z M 149.14,873.50 L 146.14,873.50 L 146.14,876.50 L 149.14,876.50 Z M 166.82,873.50 L 163.82,873.50 L 163.82,876.50 L 166.82,876.50 Z M 219.06,873.50 L 216.06,873.50 L 216.06,876.50 L 219.06,876.50 Z M 183.70,873.50 L 180.70,873.50 L 180.70,876.50 L 183.70,876.50 Z M 268.30,886.54 L 263.66,886.54 L 263.66,891.54 L 268.30,891.54 Z M 144.54,888.54 L 139.90,888.54 L 139.90,891.54 L 144.54,891.54 Z M 73.82,888.54 L 69.18,888.54 L 69.18,891.54 L 73.82,891.54 Z M 56.14,888.54 L 51.50,888.54 L 51.50,891.54 L 56.14,891.54 Z M 91.50,888.54 L 86.86,888.54 L 86.86,891.54 L 91.50,891.54 Z M 109.18,888.54 L 104.54,888.54 L 104.54,891.54 L 109.18,891.54 Z M 126.86,888.54 L 122.22,888.54 L 122.22,891.54 L 126.86,891.54 Z M 215.26,888.54 L 210.62,888.54 L 210.62,891.54 L 215.26,891.54 Z M 162.22,888.54 L 157.58,888.54 L 157.58,891.54 L 162.22,891.54 Z M 232.94,888.54 L 228.30,888.54 L 228.30,891.54 L 232.94,891.54 Z M 179.90,888.54 L 175.26,888.54 L 175.26,891.54 L 179.90,891.54 Z M 250.62,888.54 L 245.98,888.54 L 245.98,891.54 L 250.62,891.54 Z M 197.58,888.54 L 192.94,888.54 L 192.94,891.54 L 197.58,891.54 Z" fill="#00CED1" fill-opacity="0.15" stroke="#00a0a5" stroke-width="0.5"/>
    <text x="10" y="938" font-family="sans-serif" font-size="11" fill="#aaaaaa">nsdm (93,44) - 129 polygons</text>
</g>
</svg>
