<?xml version="1.0" encoding="UTF-8"?>
<svg xmlns="http://www.w3.org/2000/svg" width="684.0" height="968.0" viewBox="0 0 684.0 968.0">
<rect width="100%" height="100%" fill="#1a1a2e"/>
<text x="342.0" y="18" font-family="sans-serif" font-size="14" fill="#eee" text-anchor="middle" font-weight="bold">tt_um_pll_sky130 — nsdm (93,44)</text>
<g transform="translate(0, 25)">
    <path d="M 20.00,923.04 L 664.00,923.04 L 664.00,20.00 L 20.00,20.00 Z" fill="none" stroke="#555555" stroke-width="1" stroke-dasharray="4,2"/>
    <path d="M 31.50,869.94 L 38.58,869.94 L 38.58,860.94 L 31.50,860.94 Z M 55.50,869.94 L 62.58,869.94 L 62.58,860.94 L 55.50,860.94 Z M 79.50,869.94 L 83.18,869.94 L 83.18,864.94 L 79.50,864.94 Z M 173.70,911.54 L 331.26,911.54 L 331.26,750.54 L 173.70,750.54 Z M 173.70,731.70 L 224.34,731.70 L 224.34,676.93 L 173.70,676.93 Z M 31.50,638.09 L 36.58,638.09 L 36.58,629.09 L 31.50,629.09 Z M 47.50,626.09 L 51.18,626.09 L 51.18,621.09 L 47.50,621.09 Z M 45.50,638.09 L 50.58,638.09 L 50.58,629.09 L 45.50,629.09 Z M 63.50,626.09 L 67.18,626.09 L 67.18,621.09 L 63.50,621.09 Z M 61.50,638.09 L 66.58,638.09 L 66.58,629.09 L 61.50,629.09 Z M 79.50,626.09 L 83.18,626.09 L 83.18,621.09 L 79.50,621.09 Z M 77.50,638.09 L 82.58,638.09 L 82.58,629.09 L 77.50,629.09 Z M 95.50,626.09 L 99.18,626.09 L 99.18,621.09 L 95.50,621.09 Z M 93.50,638.09 L 98.58,638.09 L 98.58,629.09 L 93.50,629.09 Z M 111.50,626.09 L 115.18,626.09 L 115.18,621.09 L 111.50,621.09 Z M 109.50,638.09 L 114.58,638.09 L 114.58,629.09 L 109.50,629.09 Z" fill="#00CED1" fill-opacity="0.15" stroke="#00a0a5" stroke-width="0.5"/>
    <text x="10" y="938.04" font-family="sans-serif" font-size="11" fill="#aaaaaa">nsdm (93,44) — 16 polygons</text>
</g>
</svg>
