<?xml version="1.0" encoding="UTF-8"?>
<svg xmlns="http://www.w3.org/2000/svg" width="684.0" height="968.0" viewBox="0 0 684.0 968.0">
<rect width="100%" height="100%" fill="#1a1a2e"/>
<text x="342.0" y="18" font-family="sans-serif" font-size="14" fill="#eee" text-anchor="middle" font-weight="bold">tt_um_pll_sky130 - met2 (69,20)</text>
<g transform="translate(0, 25)">
    <path d="M 20.00,923.04 L 664.00,923.04 L 664.00,20.00 L 20.00,20.00 Z" fill="none" stroke="#555555" stroke-width="1" stroke-dasharray="4,2"/>
    <path d="M 42.84,122.20 L 41.16,122.20 L 41.16,123.88 L 42.84,123.88 Z M 28.84,122.20 L 27.16,122.20 L 27.16,123.88 L 28.84,123.88 Z M 42.84,322.20 L 41.16,322.20 L 41.16,323.88 L 42.84,323.88 Z M 28.84,322.20 L 27.16,322.20 L 27.16,323.88 L 28.84,323.88 Z M 160.60,451.42 L 159.40,451.42 L 159.40,891.04 L 160.60,891.04 Z M 180.60,451.42 L 179.40,451.42 L 179.40,891.04 L 180.60,891.04 Z M 28.84,522.20 L 27.16,522.20 L 27.16,523.88 L 28.84,523.88 Z M 42.84,522.20 L 41.16,522.20 L 41.16,523.88 L 42.84,523.88 Z M 28.84,722.20 L 27.16,722.20 L 27.16,723.88 L 28.84,723.88 Z M 42.84,722.20 L 41.16,722.20 L 41.16,723.88 L 42.84,723.88 Z M 108.60,723.90 L 107.40,723.90 L 107.40,837.18 L 108.60,837.18 Z M 116.60,723.90 L 115.40,723.90 L 115.40,837.18 L 116.60,837.18 Z M 140.60,778.28 L 139.40,778.28 L 139.40,891.04 L 140.60,891.04 Z M 629.88,804.20 L 628.20,804.20 L 628.20,805.88 L 629.88,805.88 Z M 552.60,844.20 L 550.92,844.20 L 550.92,845.88 L 552.60,845.88 Z M 42.84,882.20 L 41.16,882.20 L 41.16,883.88 L 42.84,883.88 Z M 28.84,882.20 L 27.16,882.20 L 27.16,883.88 L 28.84,883.88 Z" fill="#FF8C00" fill-opacity="0.45" stroke="#cc7000" stroke-width="0.5"/>
    <text x="10" y="938" font-family="sans-serif" font-size="11" fill="#aaaaaa">met2 (69,20) - 17 polygons</text>
</g>
</svg>
