<?xml version="1.0" encoding="UTF-8"?>
<svg xmlns="http://www.w3.org/2000/svg" width="684.0" height="968.0" viewBox="0 0 684.0 968.0">
<rect width="100%" height="100%" fill="#1a1a2e"/>
<text x="342.0" y="18" font-family="sans-serif" font-size="14" fill="#eee" text-anchor="middle" font-weight="bold">tt_um_pll_sky130 — nwell (64,20)</text>
<g transform="translate(0, 25)">
    <path d="M 20.00,923.04 L 664.00,923.04 L 664.00,20.00 L 20.00,20.00 Z" fill="none" stroke="#555555" stroke-width="1" stroke-dasharray="4,2"/>
    <path d="M 31.28,838.16 L 38.80,838.16 L 38.80,828.72 L 31.28,828.72 Z M 38.04,838.16 L 45.56,838.16 L 45.56,828.72 L 38.04,828.72 Z M 55.28,838.16 L 62.80,838.16 L 62.80,828.72 L 55.28,828.72 Z M 62.04,838.16 L 69.56,838.16 L 69.56,828.72 L 62.04,828.72 Z M 79.28,838.16 L 83.40,838.16 L 83.40,828.72 L 79.28,828.72 Z M 31.28,614.31 L 36.80,614.31 L 36.80,604.87 L 31.28,604.87 Z M 36.04,614.31 L 41.56,614.31 L 41.56,604.87 L 36.04,604.87 Z M 45.28,594.31 L 50.80,594.31 L 50.80,584.87 L 45.28,584.87 Z M 50.04,594.31 L 55.56,594.31 L 55.56,584.87 L 50.04,584.87 Z M 47.28,614.31 L 51.40,614.31 L 51.40,604.87 L 47.28,604.87 Z M 61.28,594.31 L 66.80,594.31 L 66.80,584.87 L 61.28,584.87 Z M 66.04,594.31 L 71.56,594.31 L 71.56,584.87 L 66.04,584.87 Z M 63.28,614.31 L 67.40,614.31 L 67.40,604.87 L 63.28,604.87 Z M 77.28,594.31 L 82.80,594.31 L 82.80,584.87 L 77.28,584.87 Z M 82.04,594.31 L 87.56,594.31 L 87.56,584.87 L 82.04,584.87 Z M 79.28,614.31 L 83.40,614.31 L 83.40,604.87 L 79.28,604.87 Z M 93.28,594.31 L 98.80,594.31 L 98.80,584.87 L 93.28,584.87 Z M 98.04,594.31 L 103.56,594.31 L 103.56,584.87 L 98.04,584.87 Z M 95.28,614.31 L 99.40,614.31 L 99.40,604.87 L 95.28,604.87 Z M 109.28,594.31 L 114.80,594.31 L 114.80,584.87 L 109.28,584.87 Z M 114.04,594.31 L 119.56,594.31 L 119.56,584.87 L 114.04,584.87 Z M 111.28,614.31 L 115.40,614.31 L 115.40,604.87 L 111.28,604.87 Z" fill="#8B4513" fill-opacity="0.25" stroke="#6b3410" stroke-width="0.5"/>
    <text x="10" y="938.04" font-family="sans-serif" font-size="11" fill="#aaaaaa">nwell (64,20) — 22 polygons</text>
</g>
</svg>
