<?xml version="1.0" encoding="UTF-8"?>
<svg xmlns="http://www.w3.org/2000/svg" width="684.0" height="968.0" viewBox="0 0 684.0 968.0">
<rect width="100%" height="100%" fill="#1a1a2e"/>
<text x="342.0" y="18" font-family="sans-serif" font-size="14" fill="#eee" text-anchor="middle" font-weight="bold">tt_um_pll_sky130 - mcon (67,44)</text>
<g transform="translate(0, 25)">
    <path d="M 20.00,923.04 L 664.00,923.04 L 664.00,20.00 L 20.00,20.00 Z" fill="none" stroke="#555555" stroke-width="1" stroke-dasharray="4,2"/>
    <path d="M 52.66,895.18 L 53.34,895.18 L 53.34,894.50 L 52.66,894.50 Z M 84.66,895.18 L 85.34,895.18 L 85.34,894.50 L 84.66,894.50 Z M 116.66,895.18 L 117.34,895.18 L 117.34,894.50 L 116.66,894.50 Z M 148.66,895.18 L 149.34,895.18 L 149.34,894.50 L 148.66,894.50 Z M 180.66,895.18 L 181.34,895.18 L 181.34,894.50 L 180.66,894.50 Z M 212.66,895.18 L 213.34,895.18 L 213.34,894.50 L 212.66,894.50 Z M 244.66,895.18 L 245.34,895.18 L 245.34,894.50 L 244.66,894.50 Z M 52.66,848.34 L 53.34,848.34 L 53.34,847.66 L 52.66,847.66 Z M 84.66,848.34 L 85.34,848.34 L 85.34,847.66 L 84.66,847.66 Z M 116.66,848.34 L 117.34,848.34 L 117.34,847.66 L 116.66,847.66 Z M 148.66,848.34 L 149.34,848.34 L 149.34,847.66 L 148.66,847.66 Z M 180.66,848.34 L 181.34,848.34 L 181.34,847.66 L 180.66,847.66 Z M 212.66,848.34 L 213.34,848.34 L 213.34,847.66 L 212.66,847.66 Z M 244.66,848.34 L 245.34,848.34 L 245.34,847.66 L 244.66,847.66 Z M 75.78,890.38 L 76.46,890.38 L 76.46,889.70 L 75.78,889.70 Z M 75.78,873.46 L 76.46,873.46 L 76.46,872.78 L 75.78,872.78 Z M 111.14,890.38 L 111.82,890.38 L 111.82,889.70 L 111.14,889.70 Z M 111.14,873.46 L 111.82,873.46 L 111.82,872.78 L 111.14,872.78 Z M 58.90,890.38 L 59.58,890.38 L 59.58,889.70 L 58.90,889.70 Z M 58.90,873.46 L 59.58,873.46 L 59.58,872.78 L 58.90,872.78 Z M 52.42,890.38 L 53.10,890.38 L 53.10,889.70 L 52.42,889.70 Z M 54.54,890.38 L 55.22,890.38 L 55.22,889.70 L 54.54,889.70 Z M 53.48,887.92 L 54.16,887.92 L 54.16,887.24 L 53.48,887.24 Z M 52.42,872.46 L 53.10,872.46 L 53.10,871.78 L 52.42,871.78 Z M 54.54,872.46 L 55.22,872.46 L 55.22,871.78 L 54.54,871.78 Z M 53.48,869.00 L 54.16,869.00 L 54.16,868.32 L 53.48,868.32 Z M 70.10,890.38 L 70.78,890.38 L 70.78,889.70 L 70.10,889.70 Z M 72.22,890.38 L 72.90,890.38 L 72.90,889.70 L 72.22,889.70 Z M 71.16,887.92 L 71.84,887.92 L 71.84,887.24 L 71.16,887.24 Z M 70.10,872.46 L 70.78,872.46 L 70.78,871.78 L 70.10,871.78 Z M 72.22,872.46 L 72.90,872.46 L 72.90,871.78 L 72.22,871.78 Z M 71.16,869.00 L 71.84,869.00 L 71.84,868.32 L 71.16,868.32 Z M 94.26,890.38 L 94.94,890.38 L 94.94,889.70 L 94.26,889.70 Z M 94.26,873.46 L 94.94,873.46 L 94.94,872.78 L 94.26,872.78 Z M 87.78,890.38 L 88.46,890.38 L 88.46,889.70 L 87.78,889.70 Z M 89.90,890.38 L 90.58,890.38 L 90.58,889.70 L 89.90,889.70 Z M 88.84,887.92 L 89.52,887.92 L 89.52,887.24 L 88.84,887.24 Z M 87.78,872.46 L 88.46,872.46 L 88.46,871.78 L 87.78,871.78 Z M 89.90,872.46 L 90.58,872.46 L 90.58,871.78 L 89.90,871.78 Z M 88.84,869.00 L 89.52,869.00 L 89.52,868.32 L 88.84,868.32 Z M 105.46,890.38 L 106.14,890.38 L 106.14,889.70 L 105.46,889.70 Z M 107.58,890.38 L 108.26,890.38 L 108.26,889.70 L 107.58,889.70 Z M 106.52,887.92 L 107.20,887.92 L 107.20,887.24 L 106.52,887.24 Z M 105.46,872.46 L 106.14,872.46 L 106.14,871.78 L 105.46,871.78 Z M 107.58,872.46 L 108.26,872.46 L 108.26,871.78 L 107.58,871.78 Z M 106.52,869.00 L 107.20,869.00 L 107.20,868.32 L 106.52,868.32 Z M 129.62,890.38 L 130.30,890.38 L 130.30,889.70 L 129.62,889.70 Z M 129.62,873.46 L 130.30,873.46 L 130.30,872.78 L 129.62,872.78 Z M 123.14,890.38 L 123.82,890.38 L 123.82,889.70 L 123.14,889.70 Z M 125.26,890.38 L 125.94,890.38 L 125.94,889.70 L 125.26,889.70 Z M 124.20,887.92 L 124.88,887.92 L 124.88,887.24 L 124.20,887.24 Z M 123.14,872.46 L 123.82,872.46 L 123.82,871.78 L 123.14,871.78 Z M 125.26,872.46 L 125.94,872.46 L 125.94,871.78 L 125.26,871.78 Z M 124.20,869.00 L 124.88,869.00 L 124.88,868.32 L 124.20,868.32 Z M 147.30,890.38 L 147.98,890.38 L 147.98,889.70 L 147.30,889.70 Z M 147.30,873.46 L 147.98,873.46 L 147.98,872.78 L 147.30,872.78 Z M 140.82,890.38 L 141.50,890.38 L 141.50,889.70 L 140.82,889.70 Z M 142.94,890.38 L 143.62,890.38 L 143.62,889.70 L 142.94,889.70 Z M 141.88,887.92 L 142.56,887.92 L 142.56,887.24 L 141.88,887.24 Z M 140.82,872.46 L 141.50,872.46 L 141.50,871.78 L 140.82,871.78 Z M 142.94,872.46 L 143.62,872.46 L 143.62,871.78 L 142.94,871.78 Z M 141.88,869.00 L 142.56,869.00 L 142.56,868.32 L 141.88,868.32 Z M 181.86,890.38 L 182.54,890.38 L 182.54,889.70 L 181.86,889.70 Z M 181.86,873.46 L 182.54,873.46 L 182.54,872.78 L 181.86,872.78 Z M 217.22,890.38 L 217.90,890.38 L 217.90,889.70 L 217.22,889.70 Z M 217.22,873.46 L 217.90,873.46 L 217.90,872.78 L 217.22,872.78 Z M 164.98,890.38 L 165.66,890.38 L 165.66,889.70 L 164.98,889.70 Z M 164.98,873.46 L 165.66,873.46 L 165.66,872.78 L 164.98,872.78 Z M 158.50,890.38 L 159.18,890.38 L 159.18,889.70 L 158.50,889.70 Z M 160.62,890.38 L 161.30,890.38 L 161.30,889.70 L 160.62,889.70 Z M 159.56,887.92 L 160.24,887.92 L 160.24,887.24 L 159.56,887.24 Z M 158.50,872.46 L 159.18,872.46 L 159.18,871.78 L 158.50,871.78 Z M 160.62,872.46 L 161.30,872.46 L 161.30,871.78 L 160.62,871.78 Z M 159.56,869.00 L 160.24,869.00 L 160.24,868.32 L 159.56,868.32 Z M 176.18,890.38 L 176.86,890.38 L 176.86,889.70 L 176.18,889.70 Z M 178.30,890.38 L 178.98,890.38 L 178.98,889.70 L 178.30,889.70 Z M 177.24,887.92 L 177.92,887.92 L 177.92,887.24 L 177.24,887.24 Z M 176.18,872.46 L 176.86,872.46 L 176.86,871.78 L 176.18,871.78 Z M 178.30,872.46 L 178.98,872.46 L 178.98,871.78 L 178.30,871.78 Z M 177.24,869.00 L 177.92,869.00 L 177.92,868.32 L 177.24,868.32 Z M 200.34,890.38 L 201.02,890.38 L 201.02,889.70 L 200.34,889.70 Z M 200.34,873.46 L 201.02,873.46 L 201.02,872.78 L 200.34,872.78 Z M 193.86,890.38 L 194.54,890.38 L 194.54,889.70 L 193.86,889.70 Z M 195.98,890.38 L 196.66,890.38 L 196.66,889.70 L 195.98,889.70 Z M 194.92,887.92 L 195.60,887.92 L 195.60,887.24 L 194.92,887.24 Z M 193.86,872.46 L 194.54,872.46 L 194.54,871.78 L 193.86,871.78 Z M 195.98,872.46 L 196.66,872.46 L 196.66,871.78 L 195.98,871.78 Z M 194.92,869.00 L 195.60,869.00 L 195.60,868.32 L 194.92,868.32 Z M 211.54,890.38 L 212.22,890.38 L 212.22,889.70 L 211.54,889.70 Z M 213.66,890.38 L 214.34,890.38 L 214.34,889.70 L 213.66,889.70 Z M 212.60,887.92 L 213.28,887.92 L 213.28,887.24 L 212.60,887.24 Z M 211.54,872.46 L 212.22,872.46 L 212.22,871.78 L 211.54,871.78 Z M 213.66,872.46 L 214.34,872.46 L 214.34,871.78 L 213.66,871.78 Z M 212.60,869.00 L 213.28,869.00 L 213.28,868.32 L 212.60,868.32 Z M 235.70,890.38 L 236.38,890.38 L 236.38,889.70 L 235.70,889.70 Z M 235.70,873.46 L 236.38,873.46 L 236.38,872.78 L 235.70,872.78 Z M 229.22,890.38 L 229.90,890.38 L 229.90,889.70 L 229.22,889.70 Z M 231.34,890.38 L 232.02,890.38 L 232.02,889.70 L 231.34,889.70 Z M 230.28,887.92 L 230.96,887.92 L 230.96,887.24 L 230.28,887.24 Z M 229.22,872.46 L 229.90,872.46 L 229.90,871.78 L 229.22,871.78 Z M 231.34,872.46 L 232.02,872.46 L 232.02,871.78 L 231.34,871.78 Z M 230.28,869.00 L 230.96,869.00 L 230.96,868.32 L 230.28,868.32 Z M 253.38,890.38 L 254.06,890.38 L 254.06,889.70 L 253.38,889.70 Z M 253.38,873.46 L 254.06,873.46 L 254.06,872.78 L 253.38,872.78 Z M 246.90,890.38 L 247.58,890.38 L 247.58,889.70 L 246.90,889.70 Z M 249.02,890.38 L 249.70,890.38 L 249.70,889.70 L 249.02,889.70 Z M 247.96,887.92 L 248.64,887.92 L 248.64,887.24 L 247.96,887.24 Z M 246.90,872.46 L 247.58,872.46 L 247.58,871.78 L 246.90,871.78 Z M 249.02,872.46 L 249.70,872.46 L 249.70,871.78 L 249.02,871.78 Z M 247.96,869.00 L 248.64,869.00 L 248.64,868.32 L 247.96,868.32 Z M 271.06,890.38 L 271.74,890.38 L 271.74,889.70 L 271.06,889.70 Z M 271.06,871.46 L 271.74,871.46 L 271.74,870.78 L 271.06,870.78 Z M 264.58,889.38 L 265.26,889.38 L 265.26,888.70 L 264.58,888.70 Z M 266.70,889.38 L 267.38,889.38 L 267.38,888.70 L 266.70,888.70 Z M 265.64,885.92 L 266.32,885.92 L 266.32,885.24 L 265.64,885.24 Z M 264.58,868.46 L 265.26,868.46 L 265.26,867.78 L 264.58,867.78 Z M 266.70,868.46 L 267.38,868.46 L 267.38,867.78 L 266.70,867.78 Z M 265.64,863.00 L 266.32,863.00 L 266.32,862.32 L 265.64,862.32 Z M 71.22,493.66 L 71.90,493.66 L 71.90,492.98 L 71.22,492.98 Z M 71.22,467.64 L 71.90,467.64 L 71.90,466.96 L 71.22,466.96 Z M 52.66,500.46 L 53.34,500.46 L 53.34,499.78 L 52.66,499.78 Z M 84.66,500.46 L 85.34,500.46 L 85.34,499.78 L 84.66,499.78 Z M 116.66,500.46 L 117.34,500.46 L 117.34,499.78 L 116.66,499.78 Z M 148.66,500.46 L 149.34,500.46 L 149.34,499.78 L 148.66,499.78 Z M 180.66,500.46 L 181.34,500.46 L 181.34,499.78 L 180.66,499.78 Z M 52.42,466.64 L 53.10,466.64 L 53.10,465.96 L 52.42,465.96 Z M 55.94,466.64 L 56.62,466.64 L 56.62,465.96 L 55.94,465.96 Z M 54.18,461.18 L 54.86,461.18 L 54.86,460.50 L 54.18,460.50 Z M 58.66,466.64 L 59.34,466.64 L 59.34,465.96 L 58.66,465.96 Z M 62.18,466.64 L 62.86,466.64 L 62.86,465.96 L 62.18,465.96 Z M 60.42,461.18 L 61.10,461.18 L 61.10,460.50 L 60.42,460.50 Z M 52.42,492.66 L 53.10,492.66 L 53.10,491.98 L 52.42,491.98 Z M 55.94,492.66 L 56.62,492.66 L 56.62,491.98 L 55.94,491.98 Z M 54.18,487.20 L 54.86,487.20 L 54.86,486.52 L 54.18,486.52 Z M 84.66,495.66 L 85.34,495.66 L 85.34,494.98 L 84.66,494.98 Z M 84.66,476.74 L 85.34,476.74 L 85.34,476.06 L 84.66,476.06 Z M 78.18,494.66 L 78.86,494.66 L 78.86,493.98 L 78.18,493.98 Z M 80.30,494.66 L 80.98,494.66 L 80.98,493.98 L 80.30,493.98 Z M 79.24,491.20 L 79.92,491.20 L 79.92,490.52 L 79.24,490.52 Z M 78.18,473.74 L 78.86,473.74 L 78.86,473.06 L 78.18,473.06 Z M 80.30,473.74 L 80.98,473.74 L 80.98,473.06 L 80.30,473.06 Z M 79.24,468.28 L 79.92,468.28 L 79.92,467.60 L 79.24,467.60 Z M 102.34,495.66 L 103.02,495.66 L 103.02,494.98 L 102.34,494.98 Z M 102.34,476.74 L 103.02,476.74 L 103.02,476.06 L 102.34,476.06 Z M 95.86,494.66 L 96.54,494.66 L 96.54,493.98 L 95.86,493.98 Z M 97.98,494.66 L 98.66,494.66 L 98.66,493.98 L 97.98,493.98 Z M 96.92,491.20 L 97.60,491.20 L 97.60,490.52 L 96.92,490.52 Z M 95.86,473.74 L 96.54,473.74 L 96.54,473.06 L 95.86,473.06 Z M 97.98,473.74 L 98.66,473.74 L 98.66,473.06 L 97.98,473.06 Z M 96.92,468.28 L 97.60,468.28 L 97.60,467.60 L 96.92,467.60 Z M 120.02,495.66 L 120.70,495.66 L 120.70,494.98 L 120.02,494.98 Z M 120.02,476.74 L 120.70,476.74 L 120.70,476.06 L 120.02,476.06 Z M 113.54,494.66 L 114.22,494.66 L 114.22,493.98 L 113.54,493.98 Z M 115.66,494.66 L 116.34,494.66 L 116.34,493.98 L 115.66,493.98 Z M 114.60,491.20 L 115.28,491.20 L 115.28,490.52 L 114.60,490.52 Z M 113.54,473.74 L 114.22,473.74 L 114.22,473.06 L 113.54,473.06 Z M 115.66,473.74 L 116.34,473.74 L 116.34,473.06 L 115.66,473.06 Z M 114.60,468.28 L 115.28,468.28 L 115.28,467.60 L 114.60,467.60 Z M 137.70,495.66 L 138.38,495.66 L 138.38,494.98 L 137.70,494.98 Z M 137.70,476.74 L 138.38,476.74 L 138.38,476.06 L 137.70,476.06 Z M 131.22,494.66 L 131.90,494.66 L 131.90,493.98 L 131.22,493.98 Z M 133.34,494.66 L 134.02,494.66 L 134.02,493.98 L 133.34,493.98 Z M 132.28,491.20 L 132.96,491.20 L 132.96,490.52 L 132.28,490.52 Z M 131.22,473.74 L 131.90,473.74 L 131.90,473.06 L 131.22,473.06 Z M 133.34,473.74 L 134.02,473.74 L 134.02,473.06 L 133.34,473.06 Z M 132.28,468.28 L 132.96,468.28 L 132.96,467.60 L 132.28,467.60 Z M 155.38,495.66 L 156.06,495.66 L 156.06,494.98 L 155.38,494.98 Z M 155.38,476.74 L 156.06,476.74 L 156.06,476.06 L 155.38,476.06 Z M 148.90,494.66 L 149.58,494.66 L 149.58,493.98 L 148.90,493.98 Z M 151.02,494.66 L 151.70,494.66 L 151.70,493.98 L 151.02,493.98 Z M 149.96,491.20 L 150.64,491.20 L 150.64,490.52 L 149.96,490.52 Z M 148.90,473.74 L 149.58,473.74 L 149.58,473.06 L 148.90,473.06 Z M 151.02,473.74 L 151.70,473.74 L 151.70,473.06 L 151.02,473.06 Z M 149.96,468.28 L 150.64,468.28 L 150.64,467.60 L 149.96,467.60 Z M 173.06,495.66 L 173.74,495.66 L 173.74,494.98 L 173.06,494.98 Z M 173.06,476.74 L 173.74,476.74 L 173.74,476.06 L 173.06,476.06 Z M 166.58,494.66 L 167.26,494.66 L 167.26,493.98 L 166.58,493.98 Z M 168.70,494.66 L 169.38,494.66 L 169.38,493.98 L 168.70,493.98 Z M 167.64,491.20 L 168.32,491.20 L 168.32,490.52 L 167.64,490.52 Z M 166.58,473.74 L 167.26,473.74 L 167.26,473.06 L 166.58,473.06 Z M 168.70,473.74 L 169.38,473.74 L 169.38,473.06 L 168.70,473.06 Z M 167.64,468.28 L 168.32,468.28 L 168.32,467.60 L 167.64,467.60 Z M 190.74,495.66 L 191.42,495.66 L 191.42,494.98 L 190.74,494.98 Z M 190.74,476.74 L 191.42,476.74 L 191.42,476.06 L 190.74,476.06 Z M 184.26,494.66 L 184.94,494.66 L 184.94,493.98 L 184.26,493.98 Z M 186.38,494.66 L 187.06,494.66 L 187.06,493.98 L 186.38,493.98 Z M 185.32,491.20 L 186.00,491.20 L 186.00,490.52 L 185.32,490.52 Z M 184.26,473.74 L 184.94,473.74 L 184.94,473.06 L 184.26,473.06 Z M 186.38,473.74 L 187.06,473.74 L 187.06,473.06 L 186.38,473.06 Z M 185.32,468.28 L 186.00,468.28 L 186.00,467.60 L 185.32,467.60 Z M 48.66,718.88 L 49.34,718.88 L 49.34,718.20 L 48.66,718.20 Z M 283.98,718.88 L 284.66,718.88 L 284.66,718.20 L 283.98,718.20 Z M 48.66,686.88 L 49.34,686.88 L 49.34,686.20 L 48.66,686.20 Z M 283.98,686.88 L 284.66,686.88 L 284.66,686.20 L 283.98,686.20 Z M 48.66,654.88 L 49.34,654.88 L 49.34,654.20 L 48.66,654.20 Z M 283.98,654.88 L 284.66,654.88 L 284.66,654.20 L 283.98,654.20 Z M 48.66,622.88 L 49.34,622.88 L 49.34,622.20 L 48.66,622.20 Z M 283.98,622.88 L 284.66,622.88 L 284.66,622.20 L 283.98,622.20 Z M 48.66,590.88 L 49.34,590.88 L 49.34,590.20 L 48.66,590.20 Z M 283.98,590.88 L 284.66,590.88 L 284.66,590.20 L 283.98,590.20 Z M 48.66,569.16 L 49.34,569.16 L 49.34,568.48 L 48.66,568.48 Z M 137.10,569.16 L 137.78,569.16 L 137.78,568.48 L 137.10,568.48 Z M 48.66,537.16 L 49.34,537.16 L 49.34,536.48 L 48.66,536.48 Z M 137.10,537.16 L 137.78,537.16 L 137.78,536.48 L 137.10,536.48 Z M 52.42,652.46 L 53.10,652.46 L 53.10,651.78 L 52.42,651.78 Z M 57.18,581.70 L 57.86,581.70 L 57.86,581.02 L 57.18,581.02 Z M 64.66,652.46 L 65.34,652.46 L 65.34,651.78 L 64.66,651.78 Z M 69.42,581.70 L 70.10,581.70 L 70.10,581.02 L 69.42,581.02 Z M 76.90,652.46 L 77.58,652.46 L 77.58,651.78 L 76.90,651.78 Z M 81.66,581.70 L 82.34,581.70 L 82.34,581.02 L 81.66,581.02 Z M 89.14,652.46 L 89.82,652.46 L 89.82,651.78 L 89.14,651.78 Z M 93.90,581.70 L 94.58,581.70 L 94.58,581.02 L 93.90,581.02 Z M 101.38,652.46 L 102.06,652.46 L 102.06,651.78 L 101.38,651.78 Z M 106.14,581.70 L 106.82,581.70 L 106.82,581.02 L 106.14,581.02 Z M 113.62,652.46 L 114.30,652.46 L 114.30,651.78 L 113.62,651.78 Z M 118.38,581.70 L 119.06,581.70 L 119.06,581.02 L 118.38,581.02 Z M 125.86,652.46 L 126.54,652.46 L 126.54,651.78 L 125.86,651.78 Z M 130.62,581.70 L 131.30,581.70 L 131.30,581.02 L 130.62,581.02 Z M 138.10,652.46 L 138.78,652.46 L 138.78,651.78 L 138.10,651.78 Z M 142.86,581.70 L 143.54,581.70 L 143.54,581.02 L 142.86,581.02 Z M 150.34,652.46 L 151.02,652.46 L 151.02,651.78 L 150.34,651.78 Z M 155.10,581.70 L 155.78,581.70 L 155.78,581.02 L 155.10,581.02 Z M 167.38,652.46 L 168.06,652.46 L 168.06,651.78 L 167.38,651.78 Z M 172.14,581.70 L 172.82,581.70 L 172.82,581.02 L 172.14,581.02 Z M 179.62,652.46 L 180.30,652.46 L 180.30,651.78 L 179.62,651.78 Z M 184.38,581.70 L 185.06,581.70 L 185.06,581.02 L 184.38,581.02 Z M 191.86,652.46 L 192.54,652.46 L 192.54,651.78 L 191.86,651.78 Z M 196.62,581.70 L 197.30,581.70 L 197.30,581.02 L 196.62,581.02 Z M 204.10,652.46 L 204.78,652.46 L 204.78,651.78 L 204.10,651.78 Z M 208.86,581.70 L 209.54,581.70 L 209.54,581.02 L 208.86,581.02 Z M 216.34,652.46 L 217.02,652.46 L 217.02,651.78 L 216.34,651.78 Z M 221.10,581.70 L 221.78,581.70 L 221.78,581.02 L 221.10,581.02 Z M 228.58,652.46 L 229.26,652.46 L 229.26,651.78 L 228.58,651.78 Z M 233.34,581.70 L 234.02,581.70 L 234.02,581.02 L 233.34,581.02 Z M 240.82,652.46 L 241.50,652.46 L 241.50,651.78 L 240.82,651.78 Z M 245.58,581.70 L 246.26,581.70 L 246.26,581.02 L 245.58,581.02 Z M 253.06,652.46 L 253.74,652.46 L 253.74,651.78 L 253.06,651.78 Z M 257.82,581.70 L 258.50,581.70 L 258.50,581.02 L 257.82,581.02 Z M 265.30,652.46 L 265.98,652.46 L 265.98,651.78 L 265.30,651.78 Z M 270.06,581.70 L 270.74,581.70 L 270.74,581.02 L 270.06,581.02 Z M 279.38,652.46 L 280.06,652.46 L 280.06,651.78 L 279.38,651.78 Z M 164.22,718.88 L 164.90,718.88 L 164.90,718.20 L 164.22,718.20 Z M 164.22,686.88 L 164.90,686.88 L 164.90,686.20 L 164.22,686.20 Z M 164.22,654.88 L 164.90,654.88 L 164.90,654.20 L 164.22,654.20 Z M 164.22,622.88 L 164.90,622.88 L 164.90,622.20 L 164.22,622.20 Z M 164.22,590.88 L 164.90,590.88 L 164.90,590.20 L 164.22,590.20 Z M 52.42,550.20 L 53.10,550.20 L 53.10,549.52 L 52.42,549.52 Z M 57.18,526.92 L 57.86,526.92 L 57.86,526.24 L 57.18,526.24 Z M 64.66,550.20 L 65.34,550.20 L 65.34,549.52 L 64.66,549.52 Z M 69.42,526.92 L 70.10,526.92 L 70.10,526.24 L 69.42,526.24 Z M 76.90,550.20 L 77.58,550.20 L 77.58,549.52 L 76.90,549.52 Z M 81.66,526.92 L 82.34,526.92 L 82.34,526.24 L 81.66,526.24 Z M 93.94,550.20 L 94.62,550.20 L 94.62,549.52 L 93.94,549.52 Z M 98.70,526.92 L 99.38,526.92 L 99.38,526.24 L 98.70,526.24 Z M 106.18,550.20 L 106.86,550.20 L 106.86,549.52 L 106.18,549.52 Z M 110.94,526.92 L 111.62,526.92 L 111.62,526.24 L 110.94,526.24 Z M 118.42,550.20 L 119.10,550.20 L 119.10,549.52 L 118.42,549.52 Z M 123.18,526.92 L 123.86,526.92 L 123.86,526.24 L 123.18,526.24 Z M 132.50,550.20 L 133.18,550.20 L 133.18,549.52 L 132.50,549.52 Z M 90.78,569.16 L 91.46,569.16 L 91.46,568.48 L 90.78,568.48 Z M 90.78,537.16 L 91.46,537.16 L 91.46,536.48 L 90.78,536.48 Z M 52.36,516.68 L 53.04,516.68 L 53.04,516.00 L 52.36,516.00 Z M 52.36,509.36 L 53.04,509.36 L 53.04,508.68 L 52.36,508.68 Z M 52.66,776.70 L 53.34,776.70 L 53.34,776.02 L 52.66,776.02 Z M 84.66,776.70 L 85.34,776.70 L 85.34,776.02 L 84.66,776.02 Z M 116.66,776.70 L 117.34,776.70 L 117.34,776.02 L 116.66,776.02 Z M 77.22,746.98 L 77.90,746.98 L 77.90,746.30 L 77.22,746.30 Z M 106.98,746.98 L 107.66,746.98 L 107.66,746.30 L 106.98,746.30 Z M 121.70,746.98 L 122.38,746.98 L 122.38,746.30 L 121.70,746.30 Z M 52.42,745.98 L 53.10,745.98 L 53.10,745.30 L 52.42,745.30 Z M 57.94,745.98 L 58.62,745.98 L 58.62,745.30 L 57.94,745.30 Z M 55.18,740.52 L 55.86,740.52 L 55.86,739.84 L 55.18,739.84 Z M 60.66,745.98 L 61.34,745.98 L 61.34,745.30 L 60.66,745.30 Z M 66.18,745.98 L 66.86,745.98 L 66.86,745.30 L 66.18,745.30 Z M 63.42,740.52 L 64.10,740.52 L 64.10,739.84 L 63.42,739.84 Z M 82.18,745.98 L 82.86,745.98 L 82.86,745.30 L 82.18,745.30 Z M 87.70,745.98 L 88.38,745.98 L 88.38,745.30 L 87.70,745.30 Z M 84.94,740.52 L 85.62,740.52 L 85.62,739.84 L 84.94,739.84 Z M 90.42,745.98 L 91.10,745.98 L 91.10,745.30 L 90.42,745.30 Z M 95.94,745.98 L 96.62,745.98 L 96.62,745.30 L 95.94,745.30 Z M 93.18,740.52 L 93.86,740.52 L 93.86,739.84 L 93.18,739.84 Z M 111.94,745.98 L 112.62,745.98 L 112.62,745.30 L 111.94,745.30 Z M 114.06,745.98 L 114.74,745.98 L 114.74,745.30 L 114.06,745.30 Z M 113.00,740.52 L 113.68,740.52 L 113.68,739.84 L 113.00,739.84 Z M 52.42,768.90 L 53.10,768.90 L 53.10,768.22 L 52.42,768.22 Z M 57.94,768.90 L 58.62,768.90 L 58.62,768.22 L 57.94,768.22 Z M 55.18,763.44 L 55.86,763.44 L 55.86,762.76 L 55.18,762.76 Z M 66.46,768.90 L 67.14,768.90 L 67.14,768.22 L 66.46,768.22 Z M 71.98,768.90 L 72.66,768.90 L 72.66,768.22 L 71.98,768.22 Z M 69.22,763.44 L 69.90,763.44 L 69.90,762.76 L 69.22,762.76 Z M 80.50,770.90 L 81.18,770.90 L 81.18,770.22 L 80.50,770.22 Z M 82.62,770.90 L 83.30,770.90 L 83.30,770.22 L 82.62,770.22 Z M 81.56,767.44 L 82.24,767.44 L 82.24,766.76 L 81.56,766.76 Z M 52.66,837.04 L 53.34,837.04 L 53.34,836.36 L 52.66,836.36 Z M 84.66,837.04 L 85.34,837.04 L 85.34,836.36 L 84.66,836.36 Z M 116.66,837.04 L 117.34,837.04 L 117.34,836.36 L 116.66,836.36 Z M 148.66,837.04 L 149.34,837.04 L 149.34,836.36 L 148.66,836.36 Z M 180.66,837.04 L 181.34,837.04 L 181.34,836.36 L 180.66,836.36 Z M 212.66,837.04 L 213.34,837.04 L 213.34,836.36 L 212.66,836.36 Z M 244.66,837.04 L 245.34,837.04 L 245.34,836.36 L 244.66,836.36 Z M 276.66,837.04 L 277.34,837.04 L 277.34,836.36 L 276.66,836.36 Z M 308.66,837.04 L 309.34,837.04 L 309.34,836.36 L 308.66,836.36 Z M 340.66,837.04 L 341.34,837.04 L 341.34,836.36 L 340.66,836.36 Z M 52.66,788.00 L 53.34,788.00 L 53.34,787.32 L 52.66,787.32 Z M 84.66,788.00 L 85.34,788.00 L 85.34,787.32 L 84.66,787.32 Z M 116.66,788.00 L 117.34,788.00 L 117.34,787.32 L 116.66,787.32 Z M 148.66,788.00 L 149.34,788.00 L 149.34,787.32 L 148.66,787.32 Z M 180.66,788.00 L 181.34,788.00 L 181.34,787.32 L 180.66,787.32 Z M 212.66,788.00 L 213.34,788.00 L 213.34,787.32 L 212.66,787.32 Z M 244.66,788.00 L 245.34,788.00 L 245.34,787.32 L 244.66,787.32 Z M 276.66,788.00 L 277.34,788.00 L 277.34,787.32 L 276.66,787.32 Z M 308.66,788.00 L 309.34,788.00 L 309.34,787.32 L 308.66,787.32 Z M 340.66,788.00 L 341.34,788.00 L 341.34,787.32 L 340.66,787.32 Z M 75.78,832.24 L 76.46,832.24 L 76.46,831.56 L 75.78,831.56 Z M 75.78,815.32 L 76.46,815.32 L 76.46,814.64 L 75.78,814.64 Z M 111.14,832.24 L 111.82,832.24 L 111.82,831.56 L 111.14,831.56 Z M 111.14,815.32 L 111.82,815.32 L 111.82,814.64 L 111.14,814.64 Z M 58.90,832.24 L 59.58,832.24 L 59.58,831.56 L 58.90,831.56 Z M 58.90,815.32 L 59.58,815.32 L 59.58,814.64 L 58.90,814.64 Z M 52.42,832.24 L 53.10,832.24 L 53.10,831.56 L 52.42,831.56 Z M 54.54,832.24 L 55.22,832.24 L 55.22,831.56 L 54.54,831.56 Z M 53.48,829.78 L 54.16,829.78 L 54.16,829.10 L 53.48,829.10 Z M 52.42,814.32 L 53.10,814.32 L 53.10,813.64 L 52.42,813.64 Z M 54.54,814.32 L 55.22,814.32 L 55.22,813.64 L 54.54,813.64 Z M 53.48,810.86 L 54.16,810.86 L 54.16,810.18 L 53.48,810.18 Z M 70.10,832.24 L 70.78,832.24 L 70.78,831.56 L 70.10,831.56 Z M 72.22,832.24 L 72.90,832.24 L 72.90,831.56 L 72.22,831.56 Z M 71.16,829.78 L 71.84,829.78 L 71.84,829.10 L 71.16,829.10 Z M 70.10,814.32 L 70.78,814.32 L 70.78,813.64 L 70.10,813.64 Z M 72.22,814.32 L 72.90,814.32 L 72.90,813.64 L 72.22,813.64 Z M 71.16,810.86 L 71.84,810.86 L 71.84,810.18 L 71.16,810.18 Z M 94.26,832.24 L 94.94,832.24 L 94.94,831.56 L 94.26,831.56 Z M 94.26,815.32 L 94.94,815.32 L 94.94,814.64 L 94.26,814.64 Z M 87.78,832.24 L 88.46,832.24 L 88.46,831.56 L 87.78,831.56 Z M 89.90,832.24 L 90.58,832.24 L 90.58,831.56 L 89.90,831.56 Z M 88.84,829.78 L 89.52,829.78 L 89.52,829.10 L 88.84,829.10 Z M 87.78,814.32 L 88.46,814.32 L 88.46,813.64 L 87.78,813.64 Z M 89.90,814.32 L 90.58,814.32 L 90.58,813.64 L 89.90,813.64 Z M 88.84,810.86 L 89.52,810.86 L 89.52,810.18 L 88.84,810.18 Z M 105.46,832.24 L 106.14,832.24 L 106.14,831.56 L 105.46,831.56 Z M 107.58,832.24 L 108.26,832.24 L 108.26,831.56 L 107.58,831.56 Z M 106.52,829.78 L 107.20,829.78 L 107.20,829.10 L 106.52,829.10 Z M 105.46,814.32 L 106.14,814.32 L 106.14,813.64 L 105.46,813.64 Z M 107.58,814.32 L 108.26,814.32 L 108.26,813.64 L 107.58,813.64 Z M 106.52,810.86 L 107.20,810.86 L 107.20,810.18 L 106.52,810.18 Z M 129.62,832.24 L 130.30,832.24 L 130.30,831.56 L 129.62,831.56 Z M 129.62,815.32 L 130.30,815.32 L 130.30,814.64 L 129.62,814.64 Z M 123.14,832.24 L 123.82,832.24 L 123.82,831.56 L 123.14,831.56 Z M 125.26,832.24 L 125.94,832.24 L 125.94,831.56 L 125.26,831.56 Z M 124.20,829.78 L 124.88,829.78 L 124.88,829.10 L 124.20,829.10 Z M 123.14,814.32 L 123.82,814.32 L 123.82,813.64 L 123.14,813.64 Z M 125.26,814.32 L 125.94,814.32 L 125.94,813.64 L 125.26,813.64 Z M 124.20,810.86 L 124.88,810.86 L 124.88,810.18 L 124.20,810.18 Z M 147.30,832.24 L 147.98,832.24 L 147.98,831.56 L 147.30,831.56 Z M 147.30,815.32 L 147.98,815.32 L 147.98,814.64 L 147.30,814.64 Z M 140.82,832.24 L 141.50,832.24 L 141.50,831.56 L 140.82,831.56 Z M 142.94,832.24 L 143.62,832.24 L 143.62,831.56 L 142.94,831.56 Z M 141.88,829.78 L 142.56,829.78 L 142.56,829.10 L 141.88,829.10 Z M 140.82,814.32 L 141.50,814.32 L 141.50,813.64 L 140.82,813.64 Z M 142.94,814.32 L 143.62,814.32 L 143.62,813.64 L 142.94,813.64 Z M 141.88,810.86 L 142.56,810.86 L 142.56,810.18 L 141.88,810.18 Z M 181.86,832.24 L 182.54,832.24 L 182.54,831.56 L 181.86,831.56 Z M 181.86,815.32 L 182.54,815.32 L 182.54,814.64 L 181.86,814.64 Z M 217.22,832.24 L 217.90,832.24 L 217.90,831.56 L 217.22,831.56 Z M 217.22,815.32 L 217.90,815.32 L 217.90,814.64 L 217.22,814.64 Z M 164.98,832.24 L 165.66,832.24 L 165.66,831.56 L 164.98,831.56 Z M 164.98,815.32 L 165.66,815.32 L 165.66,814.64 L 164.98,814.64 Z M 158.50,832.24 L 159.18,832.24 L 159.18,831.56 L 158.50,831.56 Z M 160.62,832.24 L 161.30,832.24 L 161.30,831.56 L 160.62,831.56 Z M 159.56,829.78 L 160.24,829.78 L 160.24,829.10 L 159.56,829.10 Z M 158.50,814.32 L 159.18,814.32 L 159.18,813.64 L 158.50,813.64 Z M 160.62,814.32 L 161.30,814.32 L 161.30,813.64 L 160.62,813.64 Z M 159.56,810.86 L 160.24,810.86 L 160.24,810.18 L 159.56,810.18 Z M 176.18,832.24 L 176.86,832.24 L 176.86,831.56 L 176.18,831.56 Z M 178.30,832.24 L 178.98,832.24 L 178.98,831.56 L 178.30,831.56 Z M 177.24,829.78 L 177.92,829.78 L 177.92,829.10 L 177.24,829.10 Z M 176.18,814.32 L 176.86,814.32 L 176.86,813.64 L 176.18,813.64 Z M 178.30,814.32 L 178.98,814.32 L 178.98,813.64 L 178.30,813.64 Z M 177.24,810.86 L 177.92,810.86 L 177.92,810.18 L 177.24,810.18 Z M 200.34,832.24 L 201.02,832.24 L 201.02,831.56 L 200.34,831.56 Z M 200.34,815.32 L 201.02,815.32 L 201.02,814.64 L 200.34,814.64 Z M 193.86,832.24 L 194.54,832.24 L 194.54,831.56 L 193.86,831.56 Z M 195.98,832.24 L 196.66,832.24 L 196.66,831.56 L 195.98,831.56 Z M 194.92,829.78 L 195.60,829.78 L 195.60,829.10 L 194.92,829.10 Z M 193.86,814.32 L 194.54,814.32 L 194.54,813.64 L 193.86,813.64 Z M 195.98,814.32 L 196.66,814.32 L 196.66,813.64 L 195.98,813.64 Z M 194.92,810.86 L 195.60,810.86 L 195.60,810.18 L 194.92,810.18 Z M 211.54,832.24 L 212.22,832.24 L 212.22,831.56 L 211.54,831.56 Z M 213.66,832.24 L 214.34,832.24 L 214.34,831.56 L 213.66,831.56 Z M 212.60,829.78 L 213.28,829.78 L 213.28,829.10 L 212.60,829.10 Z M 211.54,814.32 L 212.22,814.32 L 212.22,813.64 L 211.54,813.64 Z M 213.66,814.32 L 214.34,814.32 L 214.34,813.64 L 213.66,813.64 Z M 212.60,810.86 L 213.28,810.86 L 213.28,810.18 L 212.60,810.18 Z M 235.70,832.24 L 236.38,832.24 L 236.38,831.56 L 235.70,831.56 Z M 235.70,815.32 L 236.38,815.32 L 236.38,814.64 L 235.70,814.64 Z M 229.22,832.24 L 229.90,832.24 L 229.90,831.56 L 229.22,831.56 Z M 231.34,832.24 L 232.02,832.24 L 232.02,831.56 L 231.34,831.56 Z M 230.28,829.78 L 230.96,829.78 L 230.96,829.10 L 230.28,829.10 Z M 229.22,814.32 L 229.90,814.32 L 229.90,813.64 L 229.22,813.64 Z M 231.34,814.32 L 232.02,814.32 L 232.02,813.64 L 231.34,813.64 Z M 230.28,810.86 L 230.96,810.86 L 230.96,810.18 L 230.28,810.18 Z M 253.38,832.24 L 254.06,832.24 L 254.06,831.56 L 253.38,831.56 Z M 253.38,815.32 L 254.06,815.32 L 254.06,814.64 L 253.38,814.64 Z M 246.90,832.24 L 247.58,832.24 L 247.58,831.56 L 246.90,831.56 Z M 249.02,832.24 L 249.70,832.24 L 249.70,831.56 L 249.02,831.56 Z M 247.96,829.78 L 248.64,829.78 L 248.64,829.10 L 247.96,829.10 Z M 246.90,814.32 L 247.58,814.32 L 247.58,813.64 L 246.90,813.64 Z M 249.02,814.32 L 249.70,814.32 L 249.70,813.64 L 249.02,813.64 Z M 247.96,810.86 L 248.64,810.86 L 248.64,810.18 L 247.96,810.18 Z M 289.86,832.24 L 290.54,832.24 L 290.54,831.56 L 289.86,831.56 Z M 289.86,823.32 L 290.54,823.32 L 290.54,822.64 L 289.86,822.64 Z M 289.86,806.40 L 290.54,806.40 L 290.54,805.72 L 289.86,805.72 Z M 264.58,831.24 L 265.26,831.24 L 265.26,830.56 L 264.58,830.56 Z M 266.70,831.24 L 267.38,831.24 L 267.38,830.56 L 266.70,830.56 Z M 265.64,827.78 L 266.32,827.78 L 266.32,827.10 L 265.64,827.10 Z M 264.58,822.32 L 265.26,822.32 L 265.26,821.64 L 264.58,821.64 Z M 266.70,822.32 L 267.38,822.32 L 267.38,821.64 L 266.70,821.64 Z M 265.64,818.86 L 266.32,818.86 L 266.32,818.18 L 265.64,818.18 Z M 264.58,803.40 L 265.26,803.40 L 265.26,802.72 L 264.58,802.72 Z M 266.70,803.40 L 267.38,803.40 L 267.38,802.72 L 266.70,802.72 Z M 265.64,797.94 L 266.32,797.94 L 266.32,797.26 L 265.64,797.26 Z M 279.30,803.40 L 279.98,803.40 L 279.98,802.72 L 279.30,802.72 Z M 281.42,803.40 L 282.10,803.40 L 282.10,802.72 L 281.42,802.72 Z M 280.36,797.94 L 281.04,797.94 L 281.04,797.26 L 280.36,797.26 Z M 305.54,832.24 L 306.22,832.24 L 306.22,831.56 L 305.54,831.56 Z M 305.54,815.32 L 306.22,815.32 L 306.22,814.64 L 305.54,814.64 Z M 299.06,832.24 L 299.74,832.24 L 299.74,831.56 L 299.06,831.56 Z M 301.18,832.24 L 301.86,832.24 L 301.86,831.56 L 301.18,831.56 Z M 300.12,829.78 L 300.80,829.78 L 300.80,829.10 L 300.12,829.10 Z M 299.06,814.32 L 299.74,814.32 L 299.74,813.64 L 299.06,813.64 Z M 301.18,814.32 L 301.86,814.32 L 301.86,813.64 L 301.18,813.64 Z M 300.12,810.86 L 300.80,810.86 L 300.80,810.18 L 300.12,810.18 Z M 321.22,832.24 L 321.90,832.24 L 321.90,831.56 L 321.22,831.56 Z M 321.22,815.32 L 321.90,815.32 L 321.90,814.64 L 321.22,814.64 Z M 314.74,832.24 L 315.42,832.24 L 315.42,831.56 L 314.74,831.56 Z M 316.86,832.24 L 317.54,832.24 L 317.54,831.56 L 316.86,831.56 Z M 315.80,829.78 L 316.48,829.78 L 316.48,829.10 L 315.80,829.10 Z M 314.74,814.32 L 315.42,814.32 L 315.42,813.64 L 314.74,813.64 Z M 316.86,814.32 L 317.54,814.32 L 317.54,813.64 L 316.86,813.64 Z M 315.80,810.86 L 316.48,810.86 L 316.48,810.18 L 315.80,810.18 Z M 336.90,832.24 L 337.58,832.24 L 337.58,831.56 L 336.90,831.56 Z M 336.90,815.32 L 337.58,815.32 L 337.58,814.64 L 336.90,814.64 Z M 330.42,832.24 L 331.10,832.24 L 331.10,831.56 L 330.42,831.56 Z M 332.54,832.24 L 333.22,832.24 L 333.22,831.56 L 332.54,831.56 Z M 331.48,829.78 L 332.16,829.78 L 332.16,829.10 L 331.48,829.10 Z M 330.42,814.32 L 331.10,814.32 L 331.10,813.64 L 330.42,813.64 Z M 332.54,814.32 L 333.22,814.32 L 333.22,813.64 L 332.54,813.64 Z M 331.48,810.86 L 332.16,810.86 L 332.16,810.18 L 331.48,810.18 Z M 352.58,832.24 L 353.26,832.24 L 353.26,831.56 L 352.58,831.56 Z M 352.58,815.32 L 353.26,815.32 L 353.26,814.64 L 352.58,814.64 Z M 346.10,832.24 L 346.78,832.24 L 346.78,831.56 L 346.10,831.56 Z M 348.22,832.24 L 348.90,832.24 L 348.90,831.56 L 348.22,831.56 Z M 347.16,829.78 L 347.84,829.78 L 347.84,829.10 L 347.16,829.10 Z M 346.10,814.32 L 346.78,814.32 L 346.78,813.64 L 346.10,813.64 Z M 348.22,814.32 L 348.90,814.32 L 348.90,813.64 L 348.22,813.64 Z M 347.16,810.86 L 347.84,810.86 L 347.84,810.18 L 347.16,810.18 Z" fill="#FFD700" fill-opacity="0.7" stroke="#ccaa00" stroke-width="0.5"/>
    <text x="10" y="938" font-family="sans-serif" font-size="11" fill="#aaaaaa">mcon (67,44) - 456 polygons</text>
</g>
</svg>
