<?xml version="1.0" encoding="UTF-8"?>
<svg xmlns="http://www.w3.org/2000/svg" width="684.0" height="968.0" viewBox="0 0 684.0 968.0">
<rect width="100%" height="100%" fill="#1a1a2e"/>
<text x="342.0" y="18" font-family="sans-serif" font-size="14" fill="#eee" text-anchor="middle" font-weight="bold">tt_um_pll_sky130 - li1 (67,20)</text>
<g transform="translate(0, 25)">
    <path d="M 20.00,923.04 L 664.00,923.04 L 664.00,20.00 L 20.00,20.00 Z" fill="none" stroke="#555555" stroke-width="1" stroke-dasharray="4,2"/>
    <path d="M 61.46,460.14 L 60.06,460.14 L 60.06,461.54 L 61.46,461.54 Z M 55.22,460.14 L 53.82,460.14 L 53.82,461.54 L 55.22,461.54 Z M 63.20,462.30 L 61.84,462.30 L 61.84,470.30 L 63.20,470.30 Z M 53.44,462.30 L 52.08,462.30 L 52.08,470.30 L 53.44,470.30 Z M 56.96,462.30 L 55.60,462.30 L 55.60,470.30 L 56.96,470.30 Z M 59.68,462.30 L 58.32,462.30 L 58.32,470.30 L 59.68,470.30 Z M 72.26,466.60 L 70.86,466.60 L 70.86,468.00 L 72.26,468.00 Z M 186.36,467.24 L 184.96,467.24 L 184.96,468.64 L 186.36,468.64 Z M 151.00,467.24 L 149.60,467.24 L 149.60,468.64 L 151.00,468.64 Z M 133.32,467.24 L 131.92,467.24 L 131.92,468.64 L 133.32,468.64 Z M 115.64,467.24 L 114.24,467.24 L 114.24,468.64 L 115.64,468.64 Z M 97.96,467.24 L 96.56,467.24 L 96.56,468.64 L 97.96,468.64 Z M 168.68,467.24 L 167.28,467.24 L 167.28,468.64 L 168.68,468.64 Z M 80.28,467.24 L 78.88,467.24 L 78.88,468.64 L 80.28,468.64 Z M 81.32,469.40 L 79.96,469.40 L 79.96,477.40 L 81.32,477.40 Z M 96.88,469.40 L 95.52,469.40 L 95.52,477.40 L 96.88,477.40 Z M 169.72,469.40 L 168.36,469.40 L 168.36,477.40 L 169.72,477.40 Z M 99.00,469.40 L 97.64,469.40 L 97.64,477.40 L 99.00,477.40 Z M 167.60,469.40 L 166.24,469.40 L 166.24,477.40 L 167.60,477.40 Z M 116.68,469.40 L 115.32,469.40 L 115.32,477.40 L 116.68,477.40 Z M 149.92,469.40 L 148.56,469.40 L 148.56,477.40 L 149.92,477.40 Z M 79.20,469.40 L 77.84,469.40 L 77.84,477.40 L 79.20,477.40 Z M 114.56,469.40 L 113.20,469.40 L 113.20,477.40 L 114.56,477.40 Z M 134.36,469.40 L 133.00,469.40 L 133.00,477.40 L 134.36,477.40 Z M 187.40,469.40 L 186.04,469.40 L 186.04,477.40 L 187.40,477.40 Z M 185.28,469.40 L 183.92,469.40 L 183.92,477.40 L 185.28,477.40 Z M 152.04,469.40 L 150.68,469.40 L 150.68,477.40 L 152.04,477.40 Z M 132.24,469.40 L 130.88,469.40 L 130.88,477.40 L 132.24,477.40 Z M 174.10,475.70 L 172.70,475.70 L 172.70,477.10 L 174.10,477.10 Z M 85.70,475.70 L 84.30,475.70 L 84.30,477.10 L 85.70,477.10 Z M 103.38,475.70 L 101.98,475.70 L 101.98,477.10 L 103.38,477.10 Z M 121.06,475.70 L 119.66,475.70 L 119.66,477.10 L 121.06,477.10 Z M 191.78,475.70 L 190.38,475.70 L 190.38,477.10 L 191.78,477.10 Z M 156.42,475.70 L 155.02,475.70 L 155.02,477.10 L 156.42,477.10 Z M 138.74,475.70 L 137.34,475.70 L 137.34,477.10 L 138.74,477.10 Z M 55.22,486.16 L 53.82,486.16 L 53.82,487.56 L 55.22,487.56 Z M 56.96,488.32 L 55.60,488.32 L 55.60,496.32 L 56.96,496.32 Z M 53.44,488.32 L 52.08,488.32 L 52.08,496.32 L 53.44,496.32 Z M 115.64,490.16 L 114.24,490.16 L 114.24,491.56 L 115.64,491.56 Z M 168.68,490.16 L 167.28,490.16 L 167.28,491.56 L 168.68,491.56 Z M 97.96,490.16 L 96.56,490.16 L 96.56,491.56 L 97.96,491.56 Z M 151.00,490.16 L 149.60,490.16 L 149.60,491.56 L 151.00,491.56 Z M 133.32,490.16 L 131.92,490.16 L 131.92,491.56 L 133.32,491.56 Z M 80.28,490.16 L 78.88,490.16 L 78.88,491.56 L 80.28,491.56 Z M 186.36,490.16 L 184.96,490.16 L 184.96,491.56 L 186.36,491.56 Z M 169.72,492.32 L 168.36,492.32 L 168.36,496.32 L 169.72,496.32 Z M 167.60,492.32 L 166.24,492.32 L 166.24,496.32 L 167.60,496.32 Z M 132.24,492.32 L 130.88,492.32 L 130.88,496.32 L 132.24,496.32 Z M 134.36,492.32 L 133.00,492.32 L 133.00,496.32 L 134.36,496.32 Z M 99.00,492.32 L 97.64,492.32 L 97.64,496.32 L 99.00,496.32 Z M 116.68,492.32 L 115.32,492.32 L 115.32,496.32 L 116.68,496.32 Z M 114.56,492.32 L 113.20,492.32 L 113.20,496.32 L 114.56,496.32 Z M 149.92,492.32 L 148.56,492.32 L 148.56,496.32 L 149.92,496.32 Z M 152.04,492.32 L 150.68,492.32 L 150.68,496.32 L 152.04,496.32 Z M 185.28,492.32 L 183.92,492.32 L 183.92,496.32 L 185.28,496.32 Z M 187.40,492.32 L 186.04,492.32 L 186.04,496.32 L 187.40,496.32 Z M 96.88,492.32 L 95.52,492.32 L 95.52,496.32 L 96.88,496.32 Z M 81.32,492.32 L 79.96,492.32 L 79.96,496.32 L 81.32,496.32 Z M 79.20,492.32 L 77.84,492.32 L 77.84,496.32 L 79.20,496.32 Z M 72.26,492.62 L 70.86,492.62 L 70.86,494.02 L 72.26,494.02 Z M 156.42,494.62 L 155.02,494.62 L 155.02,496.02 L 156.42,496.02 Z M 174.10,494.62 L 172.70,494.62 L 172.70,496.02 L 174.10,496.02 Z M 138.74,494.62 L 137.34,494.62 L 137.34,496.02 L 138.74,496.02 Z M 121.06,494.62 L 119.66,494.62 L 119.66,496.02 L 121.06,496.02 Z M 191.78,494.62 L 190.38,494.62 L 190.38,496.02 L 191.78,496.02 Z M 103.38,494.62 L 101.98,494.62 L 101.98,496.02 L 103.38,496.02 Z M 85.70,494.62 L 84.30,494.62 L 84.30,496.02 L 85.70,496.02 Z M 53.70,499.42 L 52.30,499.42 L 52.30,500.82 L 53.70,500.82 Z M 85.70,499.42 L 84.30,499.42 L 84.30,500.82 L 85.70,500.82 Z M 117.70,499.42 L 116.30,499.42 L 116.30,500.82 L 117.70,500.82 Z M 149.70,499.42 L 148.30,499.42 L 148.30,500.82 L 149.70,500.82 Z M 181.70,499.42 L 180.30,499.42 L 180.30,500.82 L 181.70,500.82 Z M 53.40,508.32 L 52.00,508.32 L 52.00,509.72 L 53.40,509.72 Z M 53.40,515.64 L 52.00,515.64 L 52.00,517.04 L 53.40,517.04 Z M 58.22,525.88 L 56.82,525.88 L 56.82,527.28 L 58.22,527.28 Z M 124.22,525.88 L 122.82,525.88 L 122.82,527.28 L 124.22,527.28 Z M 111.98,525.88 L 110.58,525.88 L 110.58,527.28 L 111.98,527.28 Z M 99.74,525.88 L 98.34,525.88 L 98.34,527.28 L 99.74,527.28 Z M 82.70,525.88 L 81.30,525.88 L 81.30,527.28 L 82.70,527.28 Z M 70.46,525.88 L 69.06,525.88 L 69.06,527.28 L 70.46,527.28 Z M 128.96,527.92 L 127.60,527.92 L 127.60,571.82 L 128.96,571.82 Z M 107.20,527.92 L 105.84,527.92 L 105.84,571.82 L 107.20,571.82 Z M 75.20,527.92 L 73.84,527.92 L 73.84,571.82 L 75.20,571.82 Z M 104.48,527.92 L 103.12,527.92 L 103.12,571.82 L 104.48,571.82 Z M 94.96,527.92 L 93.60,527.92 L 93.60,571.82 L 94.96,571.82 Z M 116.72,527.92 L 115.36,527.92 L 115.36,571.82 L 116.72,571.82 Z M 87.44,527.92 L 86.08,527.92 L 86.08,571.82 L 87.44,571.82 Z M 77.92,527.92 L 76.56,527.92 L 76.56,571.82 L 77.92,571.82 Z M 62.96,527.92 L 61.60,527.92 L 61.60,571.82 L 62.96,571.82 Z M 53.44,527.92 L 52.08,527.92 L 52.08,571.82 L 53.44,571.82 Z M 119.44,527.92 L 118.08,527.92 L 118.08,571.82 L 119.44,571.82 Z M 65.68,527.92 L 64.32,527.92 L 64.32,571.82 L 65.68,571.82 Z M 49.70,536.12 L 48.30,536.12 L 48.30,537.52 L 49.70,537.52 Z M 138.14,536.12 L 136.74,536.12 L 136.74,537.52 L 138.14,537.52 Z M 91.82,536.12 L 90.42,536.12 L 90.42,537.52 L 91.82,537.52 Z M 133.54,549.16 L 132.14,549.16 L 132.14,550.56 L 133.54,550.56 Z M 49.70,568.12 L 48.30,568.12 L 48.30,569.52 L 49.70,569.52 Z M 138.14,568.12 L 136.74,568.12 L 136.74,569.52 L 138.14,569.52 Z M 91.82,568.12 L 90.42,568.12 L 90.42,569.52 L 91.82,569.52 Z M 70.46,580.66 L 69.06,580.66 L 69.06,582.06 L 70.46,582.06 Z M 209.90,580.66 L 208.50,580.66 L 208.50,582.06 L 209.90,582.06 Z M 156.14,580.66 L 154.74,580.66 L 154.74,582.06 L 156.14,582.06 Z M 222.14,580.66 L 220.74,580.66 L 220.74,582.06 L 222.14,582.06 Z M 143.90,580.66 L 142.50,580.66 L 142.50,582.06 L 143.90,582.06 Z M 173.18,580.66 L 171.78,580.66 L 171.78,582.06 L 173.18,582.06 Z M 131.66,580.66 L 130.26,580.66 L 130.26,582.06 L 131.66,582.06 Z M 185.42,580.66 L 184.02,580.66 L 184.02,582.06 L 185.42,582.06 Z M 119.42,580.66 L 118.02,580.66 L 118.02,582.06 L 119.42,582.06 Z M 197.66,580.66 L 196.26,580.66 L 196.26,582.06 L 197.66,582.06 Z M 82.70,580.66 L 81.30,580.66 L 81.30,582.06 L 82.70,582.06 Z M 107.18,580.66 L 105.78,580.66 L 105.78,582.06 L 107.18,582.06 Z M 94.94,580.66 L 93.54,580.66 L 93.54,582.06 L 94.94,582.06 Z M 271.10,580.66 L 269.70,580.66 L 269.70,582.06 L 271.10,582.06 Z M 234.38,580.66 L 232.98,580.66 L 232.98,582.06 L 234.38,582.06 Z M 258.86,580.66 L 257.46,580.66 L 257.46,582.06 L 258.86,582.06 Z M 58.22,580.66 L 56.82,580.66 L 56.82,582.06 L 58.22,582.06 Z M 246.62,580.66 L 245.22,580.66 L 245.22,582.06 L 246.62,582.06 Z M 202.40,582.70 L 201.04,582.70 L 201.04,721.54 L 202.40,721.54 Z M 90.16,582.70 L 88.80,582.70 L 88.80,721.54 L 90.16,721.54 Z M 168.40,582.70 L 167.04,582.70 L 167.04,721.54 L 168.40,721.54 Z M 239.12,582.70 L 237.76,582.70 L 237.76,721.54 L 239.12,721.54 Z M 177.92,582.70 L 176.56,582.70 L 176.56,721.54 L 177.92,721.54 Z M 180.64,582.70 L 179.28,582.70 L 179.28,721.54 L 180.64,721.54 Z M 241.84,582.70 L 240.48,582.70 L 240.48,721.54 L 241.84,721.54 Z M 190.16,582.70 L 188.80,582.70 L 188.80,721.54 L 190.16,721.54 Z M 251.36,582.70 L 250.00,582.70 L 250.00,721.54 L 251.36,721.54 Z M 192.88,582.70 L 191.52,582.70 L 191.52,721.54 L 192.88,721.54 Z M 254.08,582.70 L 252.72,582.70 L 252.72,721.54 L 254.08,721.54 Z M 263.60,582.70 L 262.24,582.70 L 262.24,721.54 L 263.60,721.54 Z M 205.12,582.70 L 203.76,582.70 L 203.76,721.54 L 205.12,721.54 Z M 214.64,582.70 L 213.28,582.70 L 213.28,721.54 L 214.64,721.54 Z M 266.32,582.70 L 264.96,582.70 L 264.96,721.54 L 266.32,721.54 Z M 217.36,582.70 L 216.00,582.70 L 216.00,721.54 L 217.36,721.54 Z M 226.88,582.70 L 225.52,582.70 L 225.52,721.54 L 226.88,721.54 Z M 275.84,582.70 L 274.48,582.70 L 274.48,721.54 L 275.84,721.54 Z M 229.60,582.70 L 228.24,582.70 L 228.24,721.54 L 229.60,721.54 Z M 151.36,582.70 L 150.00,582.70 L 150.00,721.54 L 151.36,721.54 Z M 160.88,582.70 L 159.52,582.70 L 159.52,721.54 L 160.88,721.54 Z M 75.20,582.70 L 73.84,582.70 L 73.84,721.54 L 75.20,721.54 Z M 65.68,582.70 L 64.32,582.70 L 64.32,721.54 L 65.68,721.54 Z M 62.96,582.70 L 61.60,582.70 L 61.60,721.54 L 62.96,721.54 Z M 53.44,582.70 L 52.08,582.70 L 52.08,721.54 L 53.44,721.54 Z M 77.92,582.70 L 76.56,582.70 L 76.56,721.54 L 77.92,721.54 Z M 87.44,582.70 L 86.08,582.70 L 86.08,721.54 L 87.44,721.54 Z M 99.68,582.70 L 98.32,582.70 L 98.32,721.54 L 99.68,721.54 Z M 102.40,582.70 L 101.04,582.70 L 101.04,721.54 L 102.40,721.54 Z M 111.92,582.70 L 110.56,582.70 L 110.56,721.54 L 111.92,721.54 Z M 114.64,582.70 L 113.28,582.70 L 113.28,721.54 L 114.64,721.54 Z M 124.16,582.70 L 122.80,582.70 L 122.80,721.54 L 124.16,721.54 Z M 139.12,582.70 L 137.76,582.70 L 137.76,721.54 L 139.12,721.54 Z M 136.40,582.70 L 135.04,582.70 L 135.04,721.54 L 136.40,721.54 Z M 148.64,582.70 L 147.28,582.70 L 147.28,721.54 L 148.64,721.54 Z M 126.88,582.70 L 125.52,582.70 L 125.52,721.54 L 126.88,721.54 Z M 165.26,589.84 L 163.86,589.84 L 163.86,591.24 L 165.26,591.24 Z M 285.02,589.84 L 283.62,589.84 L 283.62,591.24 L 285.02,591.24 Z M 49.70,589.84 L 48.30,589.84 L 48.30,591.24 L 49.70,591.24 Z M 165.26,621.84 L 163.86,621.84 L 163.86,623.24 L 165.26,623.24 Z M 49.70,621.84 L 48.30,621.84 L 48.30,623.24 L 49.70,623.24 Z M 285.02,621.84 L 283.62,621.84 L 283.62,623.24 L 285.02,623.24 Z M 280.42,651.42 L 279.02,651.42 L 279.02,652.82 L 280.42,652.82 Z M 49.70,653.84 L 48.30,653.84 L 48.30,655.24 L 49.70,655.24 Z M 285.02,653.84 L 283.62,653.84 L 283.62,655.24 L 285.02,655.24 Z M 165.26,653.84 L 163.86,653.84 L 163.86,655.24 L 165.26,655.24 Z M 165.26,685.84 L 163.86,685.84 L 163.86,687.24 L 165.26,687.24 Z M 285.02,685.84 L 283.62,685.84 L 283.62,687.24 L 285.02,687.24 Z M 49.70,685.84 L 48.30,685.84 L 48.30,687.24 L 49.70,687.24 Z M 165.26,717.84 L 163.86,717.84 L 163.86,719.24 L 165.26,719.24 Z M 285.02,717.84 L 283.62,717.84 L 283.62,719.24 L 285.02,719.24 Z M 49.70,717.84 L 48.30,717.84 L 48.30,719.24 L 49.70,719.24 Z M 56.22,739.48 L 54.82,739.48 L 54.82,740.88 L 56.22,740.88 Z M 64.46,739.48 L 63.06,739.48 L 63.06,740.88 L 64.46,740.88 Z M 85.98,739.48 L 84.58,739.48 L 84.58,740.88 L 85.98,740.88 Z M 94.22,739.48 L 92.82,739.48 L 92.82,740.88 L 94.22,740.88 Z M 114.04,739.48 L 112.64,739.48 L 112.64,740.88 L 114.04,740.88 Z M 112.96,741.64 L 111.60,741.64 L 111.60,749.64 L 112.96,749.64 Z M 96.96,741.64 L 95.60,741.64 L 95.60,749.64 L 96.96,749.64 Z M 91.44,741.64 L 90.08,741.64 L 90.08,749.64 L 91.44,749.64 Z M 115.08,741.64 L 113.72,741.64 L 113.72,749.64 L 115.08,749.64 Z M 88.72,741.64 L 87.36,741.64 L 87.36,749.64 L 88.72,749.64 Z M 83.20,741.64 L 81.84,741.64 L 81.84,749.64 L 83.20,749.64 Z M 67.20,741.64 L 65.84,741.64 L 65.84,749.64 L 67.20,749.64 Z M 61.68,741.64 L 60.32,741.64 L 60.32,749.64 L 61.68,749.64 Z M 58.96,741.64 L 57.60,741.64 L 57.60,749.64 L 58.96,749.64 Z M 53.44,741.64 L 52.08,741.64 L 52.08,749.64 L 53.44,749.64 Z M 78.26,745.94 L 76.86,745.94 L 76.86,747.34 L 78.26,747.34 Z M 122.74,745.94 L 121.34,745.94 L 121.34,747.34 L 122.74,747.34 Z M 108.02,745.94 L 106.62,745.94 L 106.62,747.34 L 108.02,747.34 Z M 56.22,762.40 L 54.82,762.40 L 54.82,763.80 L 56.22,763.80 Z M 70.26,762.40 L 68.86,762.40 L 68.86,763.80 L 70.26,763.80 Z M 58.96,764.56 L 57.60,764.56 L 57.60,772.56 L 58.96,772.56 Z M 53.44,764.56 L 52.08,764.56 L 52.08,772.56 L 53.44,772.56 Z M 67.48,764.56 L 66.12,764.56 L 66.12,772.56 L 67.48,772.56 Z M 73.00,764.56 L 71.64,764.56 L 71.64,772.56 L 73.00,772.56 Z M 82.60,766.40 L 81.20,766.40 L 81.20,767.80 L 82.60,767.80 Z M 81.52,768.56 L 80.16,768.56 L 80.16,772.56 L 81.52,772.56 Z M 83.64,768.56 L 82.28,768.56 L 82.28,772.56 L 83.64,772.56 Z M 85.70,775.66 L 84.30,775.66 L 84.30,777.06 L 85.70,777.06 Z M 117.70,775.66 L 116.30,775.66 L 116.30,777.06 L 117.70,777.06 Z M 53.70,775.66 L 52.30,775.66 L 52.30,777.06 L 53.70,777.06 Z M 149.70,786.96 L 148.30,786.96 L 148.30,788.36 L 149.70,788.36 Z M 341.70,786.96 L 340.30,786.96 L 340.30,788.36 L 341.70,788.36 Z M 309.70,786.96 L 308.30,786.96 L 308.30,788.36 L 309.70,788.36 Z M 277.70,786.96 L 276.30,786.96 L 276.30,788.36 L 277.70,788.36 Z M 245.70,786.96 L 244.30,786.96 L 244.30,788.36 L 245.70,788.36 Z M 213.70,786.96 L 212.30,786.96 L 212.30,788.36 L 213.70,788.36 Z M 181.70,786.96 L 180.30,786.96 L 180.30,788.36 L 181.70,788.36 Z M 117.70,786.96 L 116.30,786.96 L 116.30,788.36 L 117.70,788.36 Z M 85.70,786.96 L 84.30,786.96 L 84.30,788.36 L 85.70,788.36 Z M 53.70,786.96 L 52.30,786.96 L 52.30,788.36 L 53.70,788.36 Z M 266.68,796.90 L 265.28,796.90 L 265.28,798.30 L 266.68,798.30 Z M 281.40,796.90 L 280.00,796.90 L 280.00,798.30 L 281.40,798.30 Z M 282.44,799.06 L 281.08,799.06 L 281.08,807.06 L 282.44,807.06 Z M 280.32,799.06 L 278.96,799.06 L 278.96,807.06 L 280.32,807.06 Z M 267.72,799.06 L 266.36,799.06 L 266.36,807.06 L 267.72,807.06 Z M 265.60,799.06 L 264.24,799.06 L 264.24,807.06 L 265.60,807.06 Z M 290.90,805.36 L 289.50,805.36 L 289.50,806.76 L 290.90,806.76 Z M 54.52,809.82 L 53.12,809.82 L 53.12,811.22 L 54.52,811.22 Z M 301.16,809.82 L 299.76,809.82 L 299.76,811.22 L 301.16,811.22 Z M 316.84,809.82 L 315.44,809.82 L 315.44,811.22 L 316.84,811.22 Z M 332.52,809.82 L 331.12,809.82 L 331.12,811.22 L 332.52,811.22 Z M 348.20,809.82 L 346.80,809.82 L 346.80,811.22 L 348.20,811.22 Z M 249.00,809.82 L 247.60,809.82 L 247.60,811.22 L 249.00,811.22 Z M 231.32,809.82 L 229.92,809.82 L 229.92,811.22 L 231.32,811.22 Z M 213.64,809.82 L 212.24,809.82 L 212.24,811.22 L 213.64,811.22 Z M 195.96,809.82 L 194.56,809.82 L 194.56,811.22 L 195.96,811.22 Z M 178.28,809.82 L 176.88,809.82 L 176.88,811.22 L 178.28,811.22 Z M 160.60,809.82 L 159.20,809.82 L 159.20,811.22 L 160.60,811.22 Z M 142.92,809.82 L 141.52,809.82 L 141.52,811.22 L 142.92,811.22 Z M 72.20,809.82 L 70.80,809.82 L 70.80,811.22 L 72.20,811.22 Z M 89.88,809.82 L 88.48,809.82 L 88.48,811.22 L 89.88,811.22 Z M 125.24,809.82 L 123.84,809.82 L 123.84,811.22 L 125.24,811.22 Z M 107.56,809.82 L 106.16,809.82 L 106.16,811.22 L 107.56,811.22 Z M 349.24,811.98 L 347.88,811.98 L 347.88,815.98 L 349.24,815.98 Z M 212.56,811.98 L 211.20,811.98 L 211.20,815.98 L 212.56,815.98 Z M 71.12,811.98 L 69.76,811.98 L 69.76,815.98 L 71.12,815.98 Z M 73.24,811.98 L 71.88,811.98 L 71.88,815.98 L 73.24,815.98 Z M 250.04,811.98 L 248.68,811.98 L 248.68,815.98 L 250.04,815.98 Z M 247.92,811.98 L 246.56,811.98 L 246.56,815.98 L 247.92,815.98 Z M 88.80,811.98 L 87.44,811.98 L 87.44,815.98 L 88.80,815.98 Z M 90.92,811.98 L 89.56,811.98 L 89.56,815.98 L 90.92,815.98 Z M 232.36,811.98 L 231.00,811.98 L 231.00,815.98 L 232.36,815.98 Z M 230.24,811.98 L 228.88,811.98 L 228.88,815.98 L 230.24,815.98 Z M 106.48,811.98 L 105.12,811.98 L 105.12,815.98 L 106.48,815.98 Z M 108.60,811.98 L 107.24,811.98 L 107.24,815.98 L 108.60,815.98 Z M 214.68,811.98 L 213.32,811.98 L 213.32,815.98 L 214.68,815.98 Z M 347.12,811.98 L 345.76,811.98 L 345.76,815.98 L 347.12,815.98 Z M 124.16,811.98 L 122.80,811.98 L 122.80,815.98 L 124.16,815.98 Z M 126.28,811.98 L 124.92,811.98 L 124.92,815.98 L 126.28,815.98 Z M 197.00,811.98 L 195.64,811.98 L 195.64,815.98 L 197.00,815.98 Z M 194.88,811.98 L 193.52,811.98 L 193.52,815.98 L 194.88,815.98 Z M 141.84,811.98 L 140.48,811.98 L 140.48,815.98 L 141.84,815.98 Z M 143.96,811.98 L 142.60,811.98 L 142.60,815.98 L 143.96,815.98 Z M 179.32,811.98 L 177.96,811.98 L 177.96,815.98 L 179.32,815.98 Z M 177.20,811.98 L 175.84,811.98 L 175.84,815.98 L 177.20,815.98 Z M 161.64,811.98 L 160.28,811.98 L 160.28,815.98 L 161.64,815.98 Z M 159.52,811.98 L 158.16,811.98 L 158.16,815.98 L 159.52,815.98 Z M 315.76,811.98 L 314.40,811.98 L 314.40,815.98 L 315.76,815.98 Z M 55.56,811.98 L 54.20,811.98 L 54.20,815.98 L 55.56,815.98 Z M 53.44,811.98 L 52.08,811.98 L 52.08,815.98 L 53.44,815.98 Z M 333.56,811.98 L 332.20,811.98 L 332.20,815.98 L 333.56,815.98 Z M 331.44,811.98 L 330.08,811.98 L 330.08,815.98 L 331.44,815.98 Z M 302.20,811.98 L 300.84,811.98 L 300.84,815.98 L 302.20,815.98 Z M 317.88,811.98 L 316.52,811.98 L 316.52,815.98 L 317.88,815.98 Z M 300.08,811.98 L 298.72,811.98 L 298.72,815.98 L 300.08,815.98 Z M 112.18,814.28 L 110.78,814.28 L 110.78,815.68 L 112.18,815.68 Z M 353.62,814.28 L 352.22,814.28 L 352.22,815.68 L 353.62,815.68 Z M 201.38,814.28 L 199.98,814.28 L 199.98,815.68 L 201.38,815.68 Z M 182.90,814.28 L 181.50,814.28 L 181.50,815.68 L 182.90,815.68 Z M 148.34,814.28 L 146.94,814.28 L 146.94,815.68 L 148.34,815.68 Z M 322.26,814.28 L 320.86,814.28 L 320.86,815.68 L 322.26,815.68 Z M 76.82,814.28 L 75.42,814.28 L 75.42,815.68 L 76.82,815.68 Z M 130.66,814.28 L 129.26,814.28 L 129.26,815.68 L 130.66,815.68 Z M 236.74,814.28 L 235.34,814.28 L 235.34,815.68 L 236.74,815.68 Z M 218.26,814.28 L 216.86,814.28 L 216.86,815.68 L 218.26,815.68 Z M 166.02,814.28 L 164.62,814.28 L 164.62,815.68 L 166.02,815.68 Z M 59.94,814.28 L 58.54,814.28 L 58.54,815.68 L 59.94,815.68 Z M 306.58,814.28 L 305.18,814.28 L 305.18,815.68 L 306.58,815.68 Z M 254.42,814.28 L 253.02,814.28 L 253.02,815.68 L 254.42,815.68 Z M 337.94,814.28 L 336.54,814.28 L 336.54,815.68 L 337.94,815.68 Z M 95.30,814.28 L 93.90,814.28 L 93.90,815.68 L 95.30,815.68 Z M 266.68,817.82 L 265.28,817.82 L 265.28,819.22 L 266.68,819.22 Z M 267.72,819.98 L 266.36,819.98 L 266.36,823.98 L 267.72,823.98 Z M 265.60,819.98 L 264.24,819.98 L 264.24,823.98 L 265.60,823.98 Z M 290.90,822.28 L 289.50,822.28 L 289.50,823.68 L 290.90,823.68 Z M 266.68,826.74 L 265.28,826.74 L 265.28,828.14 L 266.68,828.14 Z M 316.84,828.74 L 315.44,828.74 L 315.44,830.14 L 316.84,830.14 Z M 195.96,828.74 L 194.56,828.74 L 194.56,830.14 L 195.96,830.14 Z M 213.64,828.74 L 212.24,828.74 L 212.24,830.14 L 213.64,830.14 Z M 301.16,828.74 L 299.76,828.74 L 299.76,830.14 L 301.16,830.14 Z M 178.28,828.74 L 176.88,828.74 L 176.88,830.14 L 178.28,830.14 Z M 231.32,828.74 L 229.92,828.74 L 229.92,830.14 L 231.32,830.14 Z M 249.00,828.74 L 247.60,828.74 L 247.60,830.14 L 249.00,830.14 Z M 160.60,828.74 L 159.20,828.74 L 159.20,830.14 L 160.60,830.14 Z M 89.88,828.74 L 88.48,828.74 L 88.48,830.14 L 89.88,830.14 Z M 107.56,828.74 L 106.16,828.74 L 106.16,830.14 L 107.56,830.14 Z M 348.20,828.74 L 346.80,828.74 L 346.80,830.14 L 348.20,830.14 Z M 72.20,828.74 L 70.80,828.74 L 70.80,830.14 L 72.20,830.14 Z M 332.52,828.74 L 331.12,828.74 L 331.12,830.14 L 332.52,830.14 Z M 142.92,828.74 L 141.52,828.74 L 141.52,830.14 L 142.92,830.14 Z M 125.24,828.74 L 123.84,828.74 L 123.84,830.14 L 125.24,830.14 Z M 54.52,828.74 L 53.12,828.74 L 53.12,830.14 L 54.52,830.14 Z M 265.60,828.90 L 264.24,828.90 L 264.24,832.90 L 265.60,832.90 Z M 267.72,828.90 L 266.36,828.90 L 266.36,832.90 L 267.72,832.90 Z M 55.56,830.90 L 54.20,830.90 L 54.20,832.90 L 55.56,832.90 Z M 247.92,830.90 L 246.56,830.90 L 246.56,832.90 L 247.92,832.90 Z M 90.92,830.90 L 89.56,830.90 L 89.56,832.90 L 90.92,832.90 Z M 88.80,830.90 L 87.44,830.90 L 87.44,832.90 L 88.80,832.90 Z M 73.24,830.90 L 71.88,830.90 L 71.88,832.90 L 73.24,832.90 Z M 71.12,830.90 L 69.76,830.90 L 69.76,832.90 L 71.12,832.90 Z M 250.04,830.90 L 248.68,830.90 L 248.68,832.90 L 250.04,832.90 Z M 53.44,830.90 L 52.08,830.90 L 52.08,832.90 L 53.44,832.90 Z M 300.08,830.90 L 298.72,830.90 L 298.72,832.90 L 300.08,832.90 Z M 302.20,830.90 L 300.84,830.90 L 300.84,832.90 L 302.20,832.90 Z M 315.76,830.90 L 314.40,830.90 L 314.40,832.90 L 315.76,832.90 Z M 317.88,830.90 L 316.52,830.90 L 316.52,832.90 L 317.88,832.90 Z M 347.12,830.90 L 345.76,830.90 L 345.76,832.90 L 347.12,832.90 Z M 349.24,830.90 L 347.88,830.90 L 347.88,832.90 L 349.24,832.90 Z M 331.44,830.90 L 330.08,830.90 L 330.08,832.90 L 331.44,832.90 Z M 333.56,830.90 L 332.20,830.90 L 332.20,832.90 L 333.56,832.90 Z M 143.96,830.90 L 142.60,830.90 L 142.60,832.90 L 143.96,832.90 Z M 161.64,830.90 L 160.28,830.90 L 160.28,832.90 L 161.64,832.90 Z M 159.52,830.90 L 158.16,830.90 L 158.16,832.90 L 159.52,832.90 Z M 177.20,830.90 L 175.84,830.90 L 175.84,832.90 L 177.20,832.90 Z M 179.32,830.90 L 177.96,830.90 L 177.96,832.90 L 179.32,832.90 Z M 194.88,830.90 L 193.52,830.90 L 193.52,832.90 L 194.88,832.90 Z M 197.00,830.90 L 195.64,830.90 L 195.64,832.90 L 197.00,832.90 Z M 106.48,830.90 L 105.12,830.90 L 105.12,832.90 L 106.48,832.90 Z M 141.84,830.90 L 140.48,830.90 L 140.48,832.90 L 141.84,832.90 Z M 212.56,830.90 L 211.20,830.90 L 211.20,832.90 L 212.56,832.90 Z M 214.68,830.90 L 213.32,830.90 L 213.32,832.90 L 214.68,832.90 Z M 124.16,830.90 L 122.80,830.90 L 122.80,832.90 L 124.16,832.90 Z M 126.28,830.90 L 124.92,830.90 L 124.92,832.90 L 126.28,832.90 Z M 108.60,830.90 L 107.24,830.90 L 107.24,832.90 L 108.60,832.90 Z M 232.36,830.90 L 231.00,830.90 L 231.00,832.90 L 232.36,832.90 Z M 230.24,830.90 L 228.88,830.90 L 228.88,832.90 L 230.24,832.90 Z M 254.42,831.20 L 253.02,831.20 L 253.02,832.60 L 254.42,832.60 Z M 337.94,831.20 L 336.54,831.20 L 336.54,832.60 L 337.94,832.60 Z M 166.02,831.20 L 164.62,831.20 L 164.62,832.60 L 166.02,832.60 Z M 353.62,831.20 L 352.22,831.20 L 352.22,832.60 L 353.62,832.60 Z M 218.26,831.20 L 216.86,831.20 L 216.86,832.60 L 218.26,832.60 Z M 182.90,831.20 L 181.50,831.20 L 181.50,832.60 L 182.90,832.60 Z M 201.38,831.20 L 199.98,831.20 L 199.98,832.60 L 201.38,832.60 Z M 322.26,831.20 L 320.86,831.20 L 320.86,832.60 L 322.26,832.60 Z M 76.82,831.20 L 75.42,831.20 L 75.42,832.60 L 76.82,832.60 Z M 112.18,831.20 L 110.78,831.20 L 110.78,832.60 L 112.18,832.60 Z M 59.94,831.20 L 58.54,831.20 L 58.54,832.60 L 59.94,832.60 Z M 130.66,831.20 L 129.26,831.20 L 129.26,832.60 L 130.66,832.60 Z M 95.30,831.20 L 93.90,831.20 L 93.90,832.60 L 95.30,832.60 Z M 306.58,831.20 L 305.18,831.20 L 305.18,832.60 L 306.58,832.60 Z M 290.90,831.20 L 289.50,831.20 L 289.50,832.60 L 290.90,832.60 Z M 148.34,831.20 L 146.94,831.20 L 146.94,832.60 L 148.34,832.60 Z M 236.74,831.20 L 235.34,831.20 L 235.34,832.60 L 236.74,832.60 Z M 85.70,836.00 L 84.30,836.00 L 84.30,837.40 L 85.70,837.40 Z M 309.70,836.00 L 308.30,836.00 L 308.30,837.40 L 309.70,837.40 Z M 341.70,836.00 L 340.30,836.00 L 340.30,837.40 L 341.70,837.40 Z M 53.70,836.00 L 52.30,836.00 L 52.30,837.40 L 53.70,837.40 Z M 117.70,836.00 L 116.30,836.00 L 116.30,837.40 L 117.70,837.40 Z M 149.70,836.00 L 148.30,836.00 L 148.30,837.40 L 149.70,837.40 Z M 213.70,836.00 L 212.30,836.00 L 212.30,837.40 L 213.70,837.40 Z M 181.70,836.00 L 180.30,836.00 L 180.30,837.40 L 181.70,837.40 Z M 277.70,836.00 L 276.30,836.00 L 276.30,837.40 L 277.70,837.40 Z M 245.70,836.00 L 244.30,836.00 L 244.30,837.40 L 245.70,837.40 Z M 245.70,847.30 L 244.30,847.30 L 244.30,848.70 L 245.70,848.70 Z M 213.70,847.30 L 212.30,847.30 L 212.30,848.70 L 213.70,848.70 Z M 53.70,847.30 L 52.30,847.30 L 52.30,848.70 L 53.70,848.70 Z M 85.70,847.30 L 84.30,847.30 L 84.30,848.70 L 85.70,848.70 Z M 117.70,847.30 L 116.30,847.30 L 116.30,848.70 L 117.70,848.70 Z M 181.70,847.30 L 180.30,847.30 L 180.30,848.70 L 181.70,848.70 Z M 149.70,847.30 L 148.30,847.30 L 148.30,848.70 L 149.70,848.70 Z M 266.68,861.96 L 265.28,861.96 L 265.28,863.36 L 266.68,863.36 Z M 265.60,864.12 L 264.24,864.12 L 264.24,872.12 L 265.60,872.12 Z M 267.72,864.12 L 266.36,864.12 L 266.36,872.12 L 267.72,872.12 Z M 249.00,867.96 L 247.60,867.96 L 247.60,869.36 L 249.00,869.36 Z M 89.88,867.96 L 88.48,867.96 L 88.48,869.36 L 89.88,869.36 Z M 142.92,867.96 L 141.52,867.96 L 141.52,869.36 L 142.92,869.36 Z M 125.24,867.96 L 123.84,867.96 L 123.84,869.36 L 125.24,869.36 Z M 213.64,867.96 L 212.24,867.96 L 212.24,869.36 L 213.64,869.36 Z M 231.32,867.96 L 229.92,867.96 L 229.92,869.36 L 231.32,869.36 Z M 195.96,867.96 L 194.56,867.96 L 194.56,869.36 L 195.96,869.36 Z M 178.28,867.96 L 176.88,867.96 L 176.88,869.36 L 178.28,869.36 Z M 160.60,867.96 L 159.20,867.96 L 159.20,869.36 L 160.60,869.36 Z M 72.20,867.96 L 70.80,867.96 L 70.80,869.36 L 72.20,869.36 Z M 107.56,867.96 L 106.16,867.96 L 106.16,869.36 L 107.56,869.36 Z M 54.52,867.96 L 53.12,867.96 L 53.12,869.36 L 54.52,869.36 Z M 90.92,870.12 L 89.56,870.12 L 89.56,874.12 L 90.92,874.12 Z M 108.60,870.12 L 107.24,870.12 L 107.24,874.12 L 108.60,874.12 Z M 106.48,870.12 L 105.12,870.12 L 105.12,874.12 L 106.48,874.12 Z M 214.68,870.12 L 213.32,870.12 L 213.32,874.12 L 214.68,874.12 Z M 179.32,870.12 L 177.96,870.12 L 177.96,874.12 L 179.32,874.12 Z M 177.20,870.12 L 175.84,870.12 L 175.84,874.12 L 177.20,874.12 Z M 124.16,870.12 L 122.80,870.12 L 122.80,874.12 L 124.16,874.12 Z M 161.64,870.12 L 160.28,870.12 L 160.28,874.12 L 161.64,874.12 Z M 159.52,870.12 L 158.16,870.12 L 158.16,874.12 L 159.52,874.12 Z M 126.28,870.12 L 124.92,870.12 L 124.92,874.12 L 126.28,874.12 Z M 141.84,870.12 L 140.48,870.12 L 140.48,874.12 L 141.84,874.12 Z M 143.96,870.12 L 142.60,870.12 L 142.60,874.12 L 143.96,874.12 Z M 194.88,870.12 L 193.52,870.12 L 193.52,874.12 L 194.88,874.12 Z M 197.00,870.12 L 195.64,870.12 L 195.64,874.12 L 197.00,874.12 Z M 88.80,870.12 L 87.44,870.12 L 87.44,874.12 L 88.80,874.12 Z M 73.24,870.12 L 71.88,870.12 L 71.88,874.12 L 73.24,874.12 Z M 212.56,870.12 L 211.20,870.12 L 211.20,874.12 L 212.56,874.12 Z M 71.12,870.12 L 69.76,870.12 L 69.76,874.12 L 71.12,874.12 Z M 55.56,870.12 L 54.20,870.12 L 54.20,874.12 L 55.56,874.12 Z M 53.44,870.12 L 52.08,870.12 L 52.08,874.12 L 53.44,874.12 Z M 250.04,870.12 L 248.68,870.12 L 248.68,874.12 L 250.04,874.12 Z M 230.24,870.12 L 228.88,870.12 L 228.88,874.12 L 230.24,874.12 Z M 232.36,870.12 L 231.00,870.12 L 231.00,874.12 L 232.36,874.12 Z M 247.92,870.12 L 246.56,870.12 L 246.56,874.12 L 247.92,874.12 Z M 272.10,870.42 L 270.70,870.42 L 270.70,871.82 L 272.10,871.82 Z M 182.90,872.42 L 181.50,872.42 L 181.50,873.82 L 182.90,873.82 Z M 148.34,872.42 L 146.94,872.42 L 146.94,873.82 L 148.34,873.82 Z M 76.82,872.42 L 75.42,872.42 L 75.42,873.82 L 76.82,873.82 Z M 112.18,872.42 L 110.78,872.42 L 110.78,873.82 L 112.18,873.82 Z M 59.94,872.42 L 58.54,872.42 L 58.54,873.82 L 59.94,873.82 Z M 130.66,872.42 L 129.26,872.42 L 129.26,873.82 L 130.66,873.82 Z M 95.30,872.42 L 93.90,872.42 L 93.90,873.82 L 95.30,873.82 Z M 254.42,872.42 L 253.02,872.42 L 253.02,873.82 L 254.42,873.82 Z M 218.26,872.42 L 216.86,872.42 L 216.86,873.82 L 218.26,873.82 Z M 236.74,872.42 L 235.34,872.42 L 235.34,873.82 L 236.74,873.82 Z M 166.02,872.42 L 164.62,872.42 L 164.62,873.82 L 166.02,873.82 Z M 201.38,872.42 L 199.98,872.42 L 199.98,873.82 L 201.38,873.82 Z M 266.68,884.88 L 265.28,884.88 L 265.28,886.28 L 266.68,886.28 Z M 231.32,886.88 L 229.92,886.88 L 229.92,888.28 L 231.32,888.28 Z M 89.88,886.88 L 88.48,886.88 L 88.48,888.28 L 89.88,888.28 Z M 195.96,886.88 L 194.56,886.88 L 194.56,888.28 L 195.96,888.28 Z M 213.64,886.88 L 212.24,886.88 L 212.24,888.28 L 213.64,888.28 Z M 72.20,886.88 L 70.80,886.88 L 70.80,888.28 L 72.20,888.28 Z M 107.56,886.88 L 106.16,886.88 L 106.16,888.28 L 107.56,888.28 Z M 142.92,886.88 L 141.52,886.88 L 141.52,888.28 L 142.92,888.28 Z M 249.00,886.88 L 247.60,886.88 L 247.60,888.28 L 249.00,888.28 Z M 178.28,886.88 L 176.88,886.88 L 176.88,888.28 L 178.28,888.28 Z M 125.24,886.88 L 123.84,886.88 L 123.84,888.28 L 125.24,888.28 Z M 54.52,886.88 L 53.12,886.88 L 53.12,888.28 L 54.52,888.28 Z M 160.60,886.88 L 159.20,886.88 L 159.20,888.28 L 160.60,888.28 Z M 267.72,887.04 L 266.36,887.04 L 266.36,891.04 L 267.72,891.04 Z M 265.60,887.04 L 264.24,887.04 L 264.24,891.04 L 265.60,891.04 Z M 230.24,889.04 L 228.88,889.04 L 228.88,891.04 L 230.24,891.04 Z M 71.12,889.04 L 69.76,889.04 L 69.76,891.04 L 71.12,891.04 Z M 232.36,889.04 L 231.00,889.04 L 231.00,891.04 L 232.36,891.04 Z M 73.24,889.04 L 71.88,889.04 L 71.88,891.04 L 73.24,891.04 Z M 55.56,889.04 L 54.20,889.04 L 54.20,891.04 L 55.56,891.04 Z M 247.92,889.04 L 246.56,889.04 L 246.56,891.04 L 247.92,891.04 Z M 53.44,889.04 L 52.08,889.04 L 52.08,891.04 L 53.44,891.04 Z M 141.84,889.04 L 140.48,889.04 L 140.48,891.04 L 141.84,891.04 Z M 214.68,889.04 L 213.32,889.04 L 213.32,891.04 L 214.68,891.04 Z M 250.04,889.04 L 248.68,889.04 L 248.68,891.04 L 250.04,891.04 Z M 88.80,889.04 L 87.44,889.04 L 87.44,891.04 L 88.80,891.04 Z M 143.96,889.04 L 142.60,889.04 L 142.60,891.04 L 143.96,891.04 Z M 159.52,889.04 L 158.16,889.04 L 158.16,891.04 L 159.52,891.04 Z M 161.64,889.04 L 160.28,889.04 L 160.28,891.04 L 161.64,891.04 Z M 177.20,889.04 L 175.84,889.04 L 175.84,891.04 L 177.20,891.04 Z M 126.28,889.04 L 124.92,889.04 L 124.92,891.04 L 126.28,891.04 Z M 124.16,889.04 L 122.80,889.04 L 122.80,891.04 L 124.16,891.04 Z M 179.32,889.04 L 177.96,889.04 L 177.96,891.04 L 179.32,891.04 Z M 108.60,889.04 L 107.24,889.04 L 107.24,891.04 L 108.60,891.04 Z M 106.48,889.04 L 105.12,889.04 L 105.12,891.04 L 106.48,891.04 Z M 194.88,889.04 L 193.52,889.04 L 193.52,891.04 L 194.88,891.04 Z M 197.00,889.04 L 195.64,889.04 L 195.64,891.04 L 197.00,891.04 Z M 90.92,889.04 L 89.56,889.04 L 89.56,891.04 L 90.92,891.04 Z M 212.56,889.04 L 211.20,889.04 L 211.20,891.04 L 212.56,891.04 Z M 272.10,889.34 L 270.70,889.34 L 270.70,890.74 L 272.10,890.74 Z M 76.82,889.34 L 75.42,889.34 L 75.42,890.74 L 76.82,890.74 Z M 182.90,889.34 L 181.50,889.34 L 181.50,890.74 L 182.90,890.74 Z M 254.42,889.34 L 253.02,889.34 L 253.02,890.74 L 254.42,890.74 Z M 218.26,889.34 L 216.86,889.34 L 216.86,890.74 L 218.26,890.74 Z M 166.02,889.34 L 164.62,889.34 L 164.62,890.74 L 166.02,890.74 Z M 148.34,889.34 L 146.94,889.34 L 146.94,890.74 L 148.34,890.74 Z M 130.66,889.34 L 129.26,889.34 L 129.26,890.74 L 130.66,890.74 Z M 201.38,889.34 L 199.98,889.34 L 199.98,890.74 L 201.38,890.74 Z M 95.30,889.34 L 93.90,889.34 L 93.90,890.74 L 95.30,890.74 Z M 236.74,889.34 L 235.34,889.34 L 235.34,890.74 L 236.74,890.74 Z M 59.94,889.34 L 58.54,889.34 L 58.54,890.74 L 59.94,890.74 Z M 112.18,889.34 L 110.78,889.34 L 110.78,890.74 L 112.18,890.74 Z M 245.70,894.14 L 244.30,894.14 L 244.30,895.54 L 245.70,895.54 Z M 213.70,894.14 L 212.30,894.14 L 212.30,895.54 L 213.70,895.54 Z M 181.70,894.14 L 180.30,894.14 L 180.30,895.54 L 181.70,895.54 Z M 149.70,894.14 L 148.30,894.14 L 148.30,895.54 L 149.70,895.54 Z M 117.70,894.14 L 116.30,894.14 L 116.30,895.54 L 117.70,895.54 Z M 85.70,894.14 L 84.30,894.14 L 84.30,895.54 L 85.70,895.54 Z M 53.70,894.14 L 52.30,894.14 L 52.30,895.54 L 53.70,895.54 Z" fill="#00BFFF" fill-opacity="0.55" stroke="#0099cc" stroke-width="0.5"/>
    <text x="10" y="938" font-family="sans-serif" font-size="11" fill="#aaaaaa">li1 (67,20) - 480 polygons</text>
</g>
</svg>
