<svg xmlns="http://www.w3.org/2000/svg" width="483" height="677" viewBox="0 0 483 677">
<rect width="483" height="677" fill="#1a1a2e"/>
<rect x="234.26" y="573.63" width="1.05" height="1.05" fill="#ffa0a0" fill-opacity="0.50" stroke="#cc4444" stroke-opacity="0.70" stroke-width="0.50"/>
<rect x="234.26" y="568.98" width="1.05" height="1.05" fill="#ffa0a0" fill-opacity="0.50" stroke="#cc4444" stroke-opacity="0.70" stroke-width="0.50"/>
<rect x="234.52" y="574.83" width="0.51" height="8.16" fill="#ffa0a0" fill-opacity="0.50" stroke="#cc4444" stroke-opacity="0.70" stroke-width="0.50"/>
<rect x="234.52" y="574.57" width="0.51" height="0.51" fill="#ffa0a0" fill-opacity="0.50" stroke="#cc4444" stroke-opacity="0.70" stroke-width="0.50"/>
<rect x="234.52" y="573.90" width="0.51" height="0.93" fill="#ffa0a0" fill-opacity="0.50" stroke="#cc4444" stroke-opacity="0.70" stroke-width="0.50"/>
<rect x="242.42" y="582.47" width="1.05" height="1.05" fill="#ffa0a0" fill-opacity="0.50" stroke="#cc4444" stroke-opacity="0.70" stroke-width="0.50"/>
<rect x="234.26" y="568.98" width="1.05" height="1.05" fill="#ffa0a0" fill-opacity="0.50" stroke="#cc4444" stroke-opacity="0.70" stroke-width="0.50"/>
<rect x="231.82" y="584.13" width="0.87" height="2.43" fill="#ffa0a0" fill-opacity="0.50" stroke="#cc4444" stroke-opacity="0.70" stroke-width="0.50"/>
<rect x="231.82" y="578.40" width="0.87" height="3.75" fill="#ffa0a0" fill-opacity="0.50" stroke="#cc4444" stroke-opacity="0.70" stroke-width="0.50"/>
<rect x="231.57" y="578.14" width="1.38" height="0.51" fill="#ffa0a0" fill-opacity="0.50" stroke="#cc4444" stroke-opacity="0.70" stroke-width="0.50"/>
<rect x="231.57" y="586.31" width="1.38" height="0.51" fill="#ffa0a0" fill-opacity="0.50" stroke="#cc4444" stroke-opacity="0.70" stroke-width="0.50"/>
<rect x="234.41" y="582.59" width="7.53" height="0.75" fill="#ffa0a0" fill-opacity="0.50" stroke="#cc4444" stroke-opacity="0.70" stroke-width="0.50"/>
<rect x="236.15" y="579.16" width="7.35" height="6.63" fill="#ffa0a0" fill-opacity="0.50" stroke="#cc4444" stroke-opacity="0.70" stroke-width="0.50"/>
<rect x="234.09" y="578.14" width="9.66" height="3.93" fill="#ffa0a0" fill-opacity="0.50" stroke="#cc4444" stroke-opacity="0.70" stroke-width="0.50"/>
<rect x="234.09" y="584.91" width="9.66" height="1.91" fill="#ffa0a0" fill-opacity="0.50" stroke="#cc4444" stroke-opacity="0.70" stroke-width="0.50"/>
<rect x="245.14" y="584.13" width="0.87" height="2.43" fill="#ffa0a0" fill-opacity="0.50" stroke="#cc4444" stroke-opacity="0.70" stroke-width="0.50"/>
<rect x="245.14" y="578.40" width="0.87" height="3.75" fill="#ffa0a0" fill-opacity="0.50" stroke="#cc4444" stroke-opacity="0.70" stroke-width="0.50"/>
<rect x="244.89" y="578.14" width="1.38" height="0.51" fill="#ffa0a0" fill-opacity="0.50" stroke="#cc4444" stroke-opacity="0.70" stroke-width="0.50"/>
<rect x="244.89" y="586.31" width="1.38" height="0.51" fill="#ffa0a0" fill-opacity="0.50" stroke="#cc4444" stroke-opacity="0.70" stroke-width="0.50"/>
</svg>
