<?xml version="1.0" encoding="UTF-8"?>
<svg xmlns="http://www.w3.org/2000/svg" width="684.0" height="968.0" viewBox="0 0 684.0 968.0">
<rect width="100%" height="100%" fill="#1a1a2e"/>
<text x="342.0" y="18" font-family="sans-serif" font-size="14" fill="#eee" text-anchor="middle" font-weight="bold">tt_um_pll_sky130 - tap (65,44)</text>
<g transform="translate(0, 25)">
    <path d="M 20.00,923.04 L 664.00,923.04 L 664.00,20.00 L 20.00,20.00 Z" fill="none" stroke="#555555" stroke-width="1" stroke-dasharray="4,2"/>
    <path d="M 72.56,466.30 L 70.56,466.30 L 70.56,468.30 L 72.56,468.30 Z M 192.08,475.40 L 190.08,475.40 L 190.08,477.40 L 192.08,477.40 Z M 156.72,475.40 L 154.72,475.40 L 154.72,477.40 L 156.72,477.40 Z M 139.04,475.40 L 137.04,475.40 L 137.04,477.40 L 139.04,477.40 Z M 121.36,475.40 L 119.36,475.40 L 119.36,477.40 L 121.36,477.40 Z M 103.68,475.40 L 101.68,475.40 L 101.68,477.40 L 103.68,477.40 Z M 174.40,475.40 L 172.40,475.40 L 172.40,477.40 L 174.40,477.40 Z M 86.00,475.40 L 84.00,475.40 L 84.00,477.40 L 86.00,477.40 Z M 72.56,492.32 L 70.56,492.32 L 70.56,494.32 L 72.56,494.32 Z M 86.00,494.32 L 84.00,494.32 L 84.00,496.32 L 86.00,496.32 Z M 156.72,494.32 L 154.72,494.32 L 154.72,496.32 L 156.72,496.32 Z M 139.04,494.32 L 137.04,494.32 L 137.04,496.32 L 139.04,496.32 Z M 121.36,494.32 L 119.36,494.32 L 119.36,496.32 L 121.36,496.32 Z M 174.40,494.32 L 172.40,494.32 L 172.40,496.32 L 174.40,496.32 Z M 103.68,494.32 L 101.68,494.32 L 101.68,496.32 L 103.68,496.32 Z M 192.08,494.32 L 190.08,494.32 L 190.08,496.32 L 192.08,496.32 Z M 182.00,499.12 L 180.00,499.12 L 180.00,501.12 L 182.00,501.12 Z M 150.00,499.12 L 148.00,499.12 L 148.00,501.12 L 150.00,501.12 Z M 118.00,499.12 L 116.00,499.12 L 116.00,501.12 L 118.00,501.12 Z M 86.00,499.12 L 84.00,499.12 L 84.00,501.12 L 86.00,501.12 Z M 54.00,499.12 L 52.00,499.12 L 52.00,501.12 L 54.00,501.12 Z M 92.12,535.82 L 90.12,535.82 L 90.12,537.82 L 92.12,537.82 Z M 138.44,535.82 L 136.44,535.82 L 136.44,537.82 L 138.44,537.82 Z M 50.00,535.82 L 48.00,535.82 L 48.00,537.82 L 50.00,537.82 Z M 133.84,548.86 L 131.84,548.86 L 131.84,550.86 L 133.84,550.86 Z M 138.44,567.82 L 136.44,567.82 L 136.44,569.82 L 138.44,569.82 Z M 50.00,567.82 L 48.00,567.82 L 48.00,569.82 L 50.00,569.82 Z M 92.12,567.82 L 90.12,567.82 L 90.12,569.82 L 92.12,569.82 Z M 50.00,589.54 L 48.00,589.54 L 48.00,591.54 L 50.00,591.54 Z M 165.56,589.54 L 163.56,589.54 L 163.56,591.54 L 165.56,591.54 Z M 285.32,589.54 L 283.32,589.54 L 283.32,591.54 L 285.32,591.54 Z M 285.32,621.54 L 283.32,621.54 L 283.32,623.54 L 285.32,623.54 Z M 165.56,621.54 L 163.56,621.54 L 163.56,623.54 L 165.56,623.54 Z M 50.00,621.54 L 48.00,621.54 L 48.00,623.54 L 50.00,623.54 Z M 280.72,651.12 L 278.72,651.12 L 278.72,653.12 L 280.72,653.12 Z M 285.32,653.54 L 283.32,653.54 L 283.32,655.54 L 285.32,655.54 Z M 50.00,653.54 L 48.00,653.54 L 48.00,655.54 L 50.00,655.54 Z M 165.56,653.54 L 163.56,653.54 L 163.56,655.54 L 165.56,655.54 Z M 285.32,685.54 L 283.32,685.54 L 283.32,687.54 L 285.32,687.54 Z M 50.00,685.54 L 48.00,685.54 L 48.00,687.54 L 50.00,687.54 Z M 165.56,685.54 L 163.56,685.54 L 163.56,687.54 L 165.56,687.54 Z M 285.32,717.54 L 283.32,717.54 L 283.32,719.54 L 285.32,719.54 Z M 165.56,717.54 L 163.56,717.54 L 163.56,719.54 L 165.56,719.54 Z M 50.00,717.54 L 48.00,717.54 L 48.00,719.54 L 50.00,719.54 Z M 78.56,745.64 L 76.56,745.64 L 76.56,747.64 L 78.56,747.64 Z M 108.32,745.64 L 106.32,745.64 L 106.32,747.64 L 108.32,747.64 Z M 123.04,745.64 L 121.04,745.64 L 121.04,747.64 L 123.04,747.64 Z M 118.00,775.36 L 116.00,775.36 L 116.00,777.36 L 118.00,777.36 Z M 86.00,775.36 L 84.00,775.36 L 84.00,777.36 L 86.00,777.36 Z M 54.00,775.36 L 52.00,775.36 L 52.00,777.36 L 54.00,777.36 Z M 214.00,786.66 L 212.00,786.66 L 212.00,788.66 L 214.00,788.66 Z M 86.00,786.66 L 84.00,786.66 L 84.00,788.66 L 86.00,788.66 Z M 342.00,786.66 L 340.00,786.66 L 340.00,788.66 L 342.00,788.66 Z M 310.00,786.66 L 308.00,786.66 L 308.00,788.66 L 310.00,788.66 Z M 278.00,786.66 L 276.00,786.66 L 276.00,788.66 L 278.00,788.66 Z M 246.00,786.66 L 244.00,786.66 L 244.00,788.66 L 246.00,788.66 Z M 54.00,786.66 L 52.00,786.66 L 52.00,788.66 L 54.00,788.66 Z M 182.00,786.66 L 180.00,786.66 L 180.00,788.66 L 182.00,788.66 Z M 150.00,786.66 L 148.00,786.66 L 148.00,788.66 L 150.00,788.66 Z M 118.00,786.66 L 116.00,786.66 L 116.00,788.66 L 118.00,788.66 Z M 291.20,805.06 L 289.20,805.06 L 289.20,807.06 L 291.20,807.06 Z M 353.92,813.98 L 351.92,813.98 L 351.92,815.98 L 353.92,815.98 Z M 338.24,813.98 L 336.24,813.98 L 336.24,815.98 L 338.24,815.98 Z M 322.56,813.98 L 320.56,813.98 L 320.56,815.98 L 322.56,815.98 Z M 306.88,813.98 L 304.88,813.98 L 304.88,815.98 L 306.88,815.98 Z M 254.72,813.98 L 252.72,813.98 L 252.72,815.98 L 254.72,815.98 Z M 237.04,813.98 L 235.04,813.98 L 235.04,815.98 L 237.04,815.98 Z M 201.68,813.98 L 199.68,813.98 L 199.68,815.98 L 201.68,815.98 Z M 166.32,813.98 L 164.32,813.98 L 164.32,815.98 L 166.32,815.98 Z M 218.56,813.98 L 216.56,813.98 L 216.56,815.98 L 218.56,815.98 Z M 183.20,813.98 L 181.20,813.98 L 181.20,815.98 L 183.20,815.98 Z M 148.64,813.98 L 146.64,813.98 L 146.64,815.98 L 148.64,815.98 Z M 130.96,813.98 L 128.96,813.98 L 128.96,815.98 L 130.96,815.98 Z M 95.60,813.98 L 93.60,813.98 L 93.60,815.98 L 95.60,815.98 Z M 60.24,813.98 L 58.24,813.98 L 58.24,815.98 L 60.24,815.98 Z M 112.48,813.98 L 110.48,813.98 L 110.48,815.98 L 112.48,815.98 Z M 77.12,813.98 L 75.12,813.98 L 75.12,815.98 L 77.12,815.98 Z M 291.20,821.98 L 289.20,821.98 L 289.20,823.98 L 291.20,823.98 Z M 353.92,830.90 L 351.92,830.90 L 351.92,832.90 L 353.92,832.90 Z M 166.32,830.90 L 164.32,830.90 L 164.32,832.90 L 166.32,832.90 Z M 218.56,830.90 L 216.56,830.90 L 216.56,832.90 L 218.56,832.90 Z M 183.20,830.90 L 181.20,830.90 L 181.20,832.90 L 183.20,832.90 Z M 148.64,830.90 L 146.64,830.90 L 146.64,832.90 L 148.64,832.90 Z M 130.96,830.90 L 128.96,830.90 L 128.96,832.90 L 130.96,832.90 Z M 95.60,830.90 L 93.60,830.90 L 93.60,832.90 L 95.60,832.90 Z M 60.24,830.90 L 58.24,830.90 L 58.24,832.90 L 60.24,832.90 Z M 112.48,830.90 L 110.48,830.90 L 110.48,832.90 L 112.48,832.90 Z M 77.12,830.90 L 75.12,830.90 L 75.12,832.90 L 77.12,832.90 Z M 201.68,830.90 L 199.68,830.90 L 199.68,832.90 L 201.68,832.90 Z M 237.04,830.90 L 235.04,830.90 L 235.04,832.90 L 237.04,832.90 Z M 254.72,830.90 L 252.72,830.90 L 252.72,832.90 L 254.72,832.90 Z M 291.20,830.90 L 289.20,830.90 L 289.20,832.90 L 291.20,832.90 Z M 306.88,830.90 L 304.88,830.90 L 304.88,832.90 L 306.88,832.90 Z M 322.56,830.90 L 320.56,830.90 L 320.56,832.90 L 322.56,832.90 Z M 338.24,830.90 L 336.24,830.90 L 336.24,832.90 L 338.24,832.90 Z M 86.00,835.70 L 84.00,835.70 L 84.00,837.70 L 86.00,837.70 Z M 54.00,835.70 L 52.00,835.70 L 52.00,837.70 L 54.00,837.70 Z M 310.00,835.70 L 308.00,835.70 L 308.00,837.70 L 310.00,837.70 Z M 278.00,835.70 L 276.00,835.70 L 276.00,837.70 L 278.00,837.70 Z M 246.00,835.70 L 244.00,835.70 L 244.00,837.70 L 246.00,837.70 Z M 214.00,835.70 L 212.00,835.70 L 212.00,837.70 L 214.00,837.70 Z M 182.00,835.70 L 180.00,835.70 L 180.00,837.70 L 182.00,837.70 Z M 150.00,835.70 L 148.00,835.70 L 148.00,837.70 L 150.00,837.70 Z M 118.00,835.70 L 116.00,835.70 L 116.00,837.70 L 118.00,837.70 Z M 342.00,835.70 L 340.00,835.70 L 340.00,837.70 L 342.00,837.70 Z M 214.00,847.00 L 212.00,847.00 L 212.00,849.00 L 214.00,849.00 Z M 182.00,847.00 L 180.00,847.00 L 180.00,849.00 L 182.00,849.00 Z M 246.00,847.00 L 244.00,847.00 L 244.00,849.00 L 246.00,849.00 Z M 150.00,847.00 L 148.00,847.00 L 148.00,849.00 L 150.00,849.00 Z M 118.00,847.00 L 116.00,847.00 L 116.00,849.00 L 118.00,849.00 Z M 86.00,847.00 L 84.00,847.00 L 84.00,849.00 L 86.00,849.00 Z M 54.00,847.00 L 52.00,847.00 L 52.00,849.00 L 54.00,849.00 Z M 272.40,870.12 L 270.40,870.12 L 270.40,872.12 L 272.40,872.12 Z M 60.24,872.12 L 58.24,872.12 L 58.24,874.12 L 60.24,874.12 Z M 77.12,872.12 L 75.12,872.12 L 75.12,874.12 L 77.12,874.12 Z M 95.60,872.12 L 93.60,872.12 L 93.60,874.12 L 95.60,874.12 Z M 130.96,872.12 L 128.96,872.12 L 128.96,874.12 L 130.96,874.12 Z M 148.64,872.12 L 146.64,872.12 L 146.64,874.12 L 148.64,874.12 Z M 112.48,872.12 L 110.48,872.12 L 110.48,874.12 L 112.48,874.12 Z M 183.20,872.12 L 181.20,872.12 L 181.20,874.12 L 183.20,874.12 Z M 218.56,872.12 L 216.56,872.12 L 216.56,874.12 L 218.56,874.12 Z M 166.32,872.12 L 164.32,872.12 L 164.32,874.12 L 166.32,874.12 Z M 201.68,872.12 L 199.68,872.12 L 199.68,874.12 L 201.68,874.12 Z M 237.04,872.12 L 235.04,872.12 L 235.04,874.12 L 237.04,874.12 Z M 254.72,872.12 L 252.72,872.12 L 252.72,874.12 L 254.72,874.12 Z M 77.12,889.04 L 75.12,889.04 L 75.12,891.04 L 77.12,891.04 Z M 201.68,889.04 L 199.68,889.04 L 199.68,891.04 L 201.68,891.04 Z M 112.48,889.04 L 110.48,889.04 L 110.48,891.04 L 112.48,891.04 Z M 95.60,889.04 L 93.60,889.04 L 93.60,891.04 L 95.60,891.04 Z M 272.40,889.04 L 270.40,889.04 L 270.40,891.04 L 272.40,891.04 Z M 254.72,889.04 L 252.72,889.04 L 252.72,891.04 L 254.72,891.04 Z M 237.04,889.04 L 235.04,889.04 L 235.04,891.04 L 237.04,891.04 Z M 166.32,889.04 L 164.32,889.04 L 164.32,891.04 L 166.32,891.04 Z M 218.56,889.04 L 216.56,889.04 L 216.56,891.04 L 218.56,891.04 Z M 183.20,889.04 L 181.20,889.04 L 181.20,891.04 L 183.20,891.04 Z M 148.64,889.04 L 146.64,889.04 L 146.64,891.04 L 148.64,891.04 Z M 130.96,889.04 L 128.96,889.04 L 128.96,891.04 L 130.96,891.04 Z M 60.24,889.04 L 58.24,889.04 L 58.24,891.04 L 60.24,891.04 Z M 246.00,893.84 L 244.00,893.84 L 244.00,895.84 L 246.00,895.84 Z M 214.00,893.84 L 212.00,893.84 L 212.00,895.84 L 214.00,895.84 Z M 182.00,893.84 L 180.00,893.84 L 180.00,895.84 L 182.00,895.84 Z M 150.00,893.84 L 148.00,893.84 L 148.00,895.84 L 150.00,895.84 Z M 118.00,893.84 L 116.00,893.84 L 116.00,895.84 L 118.00,895.84 Z M 86.00,893.84 L 84.00,893.84 L 84.00,895.84 L 86.00,895.84 Z M 54.00,893.84 L 52.00,893.84 L 52.00,895.84 L 54.00,895.84 Z" fill="#33CC33" fill-opacity="0.5" stroke="#229922" stroke-width="0.5"/>
    <text x="10" y="938" font-family="sans-serif" font-size="11" fill="#aaaaaa">tap (65,44) - 145 polygons</text>
</g>
</svg>
