<?xml version="1.0" encoding="UTF-8"?>
<svg xmlns="http://www.w3.org/2000/svg" width="684.0" height="968.0" viewBox="0 0 684.0 968.0">
<rect width="100%" height="100%" fill="#1a1a2e"/>
<text x="342.0" y="18" font-family="sans-serif" font-size="14" fill="#eee" text-anchor="middle" font-weight="bold">tt_um_pll_sky130 - poly (66,20)</text>
<g transform="translate(0, 25)">
    <path d="M 20.00,923.04 L 664.00,923.04 L 664.00,20.00 L 20.00,20.00 Z" fill="none" stroke="#555555" stroke-width="1" stroke-dasharray="4,2"/>
    <path d="M 53.52,891.56 L 54.12,891.56 L 54.12,888.52 L 53.52,888.52 Z M 53.52,876.52 L 54.12,876.52 L 54.12,871.48 L 53.52,871.48 Z M 71.20,891.56 L 71.80,891.56 L 71.80,888.52 L 71.20,888.52 Z M 71.20,876.52 L 71.80,876.52 L 71.80,871.48 L 71.20,871.48 Z M 88.88,891.56 L 89.48,891.56 L 89.48,888.52 L 88.88,888.52 Z M 88.88,876.52 L 89.48,876.52 L 89.48,871.48 L 88.88,871.48 Z M 106.56,891.56 L 107.16,891.56 L 107.16,888.52 L 106.56,888.52 Z M 106.56,876.52 L 107.16,876.52 L 107.16,871.48 L 106.56,871.48 Z M 124.24,891.56 L 124.84,891.56 L 124.84,888.52 L 124.24,888.52 Z M 124.24,876.52 L 124.84,876.52 L 124.84,871.48 L 124.24,871.48 Z M 141.92,891.56 L 142.52,891.56 L 142.52,888.52 L 141.92,888.52 Z M 141.92,876.52 L 142.52,876.52 L 142.52,871.48 L 141.92,871.48 Z M 159.60,891.56 L 160.20,891.56 L 160.20,888.52 L 159.60,888.52 Z M 159.60,876.52 L 160.20,876.52 L 160.20,871.48 L 159.60,871.48 Z M 177.28,891.56 L 177.88,891.56 L 177.88,888.52 L 177.28,888.52 Z M 177.28,876.52 L 177.88,876.52 L 177.88,871.48 L 177.28,871.48 Z M 194.96,891.56 L 195.56,891.56 L 195.56,888.52 L 194.96,888.52 Z M 194.96,876.52 L 195.56,876.52 L 195.56,871.48 L 194.96,871.48 Z M 212.64,891.56 L 213.24,891.56 L 213.24,888.52 L 212.64,888.52 Z M 212.64,876.52 L 213.24,876.52 L 213.24,871.48 L 212.64,871.48 Z M 230.32,891.56 L 230.92,891.56 L 230.92,888.52 L 230.32,888.52 Z M 230.32,876.52 L 230.92,876.52 L 230.92,871.48 L 230.32,871.48 Z M 248.00,891.56 L 248.60,891.56 L 248.60,888.52 L 248.00,888.52 Z M 248.00,876.52 L 248.60,876.52 L 248.60,871.48 L 248.00,871.48 Z M 265.68,891.56 L 266.28,891.56 L 266.28,886.52 L 265.68,886.52 Z M 265.68,874.52 L 266.28,874.52 L 266.28,865.48 L 265.68,865.48 Z M 53.52,488.60 L 55.52,488.60 L 55.52,479.56 L 53.52,479.56 Z M 53.52,479.56 L 55.52,479.56 L 55.52,478.00 L 53.52,478.00 Z M 59.76,488.60 L 61.76,488.60 L 61.76,479.56 L 59.76,479.56 Z M 59.76,479.56 L 61.76,479.56 L 61.76,478.00 L 59.76,478.00 Z M 53.52,511.20 L 55.52,511.20 L 55.52,502.16 L 53.52,502.16 Z M 53.52,502.16 L 55.52,502.16 L 55.52,500.60 L 53.52,500.60 Z M 77.28,473.16 L 79.28,473.16 L 79.28,464.12 L 77.28,464.12 Z M 77.28,464.12 L 79.28,464.12 L 79.28,462.56 L 77.28,462.56 Z M 83.52,473.16 L 85.52,473.16 L 85.52,464.12 L 83.52,464.12 Z M 83.52,464.12 L 85.52,464.12 L 85.52,462.56 L 83.52,462.56 Z M 79.28,488.60 L 79.88,488.60 L 79.88,479.56 L 79.28,479.56 Z M 79.28,498.60 L 79.88,498.60 L 79.88,493.56 L 79.28,493.56 Z M 77.28,511.20 L 79.28,511.20 L 79.28,502.16 L 77.28,502.16 Z M 77.28,502.16 L 79.28,502.16 L 79.28,500.60 L 77.28,500.60 Z M 103.04,473.16 L 105.04,473.16 L 105.04,464.12 L 103.04,464.12 Z M 103.04,464.12 L 105.04,464.12 L 105.04,462.56 L 103.04,462.56 Z M 109.28,473.16 L 111.28,473.16 L 111.28,464.12 L 109.28,464.12 Z M 109.28,464.12 L 111.28,464.12 L 111.28,462.56 L 109.28,462.56 Z M 105.04,488.60 L 105.64,488.60 L 105.64,479.56 L 105.04,479.56 Z M 105.04,498.60 L 105.64,498.60 L 105.64,493.56 L 105.04,493.56 Z M 103.04,511.20 L 105.04,511.20 L 105.04,502.16 L 103.04,502.16 Z M 103.04,502.16 L 105.04,502.16 L 105.04,500.60 L 103.04,500.60 Z M 128.80,473.16 L 130.80,473.16 L 130.80,464.12 L 128.80,464.12 Z M 128.80,464.12 L 130.80,464.12 L 130.80,462.56 L 128.80,462.56 Z M 135.04,473.16 L 137.04,473.16 L 137.04,464.12 L 135.04,464.12 Z M 135.04,464.12 L 137.04,464.12 L 137.04,462.56 L 135.04,462.56 Z M 130.80,488.60 L 131.40,488.60 L 131.40,479.56 L 130.80,479.56 Z M 130.80,498.60 L 131.40,498.60 L 131.40,493.56 L 130.80,493.56 Z M 128.80,511.20 L 130.80,511.20 L 130.80,502.16 L 128.80,502.16 Z M 128.80,502.16 L 130.80,502.16 L 130.80,500.60 L 128.80,500.60 Z M 154.56,473.16 L 156.56,473.16 L 156.56,464.12 L 154.56,464.12 Z M 154.56,464.12 L 156.56,464.12 L 156.56,462.56 L 154.56,462.56 Z M 160.80,473.16 L 162.80,473.16 L 162.80,464.12 L 160.80,464.12 Z M 160.80,464.12 L 162.80,464.12 L 162.80,462.56 L 160.80,462.56 Z M 156.56,488.60 L 157.16,488.60 L 157.16,479.56 L 156.56,479.56 Z M 156.56,498.60 L 157.16,498.60 L 157.16,493.56 L 156.56,493.56 Z M 154.56,511.20 L 156.56,511.20 L 156.56,502.16 L 154.56,502.16 Z M 154.56,502.16 L 156.56,502.16 L 156.56,500.60 L 154.56,500.60 Z M 180.32,473.16 L 182.32,473.16 L 182.32,464.12 L 180.32,464.12 Z M 180.32,464.12 L 182.32,464.12 L 182.32,462.56 L 180.32,462.56 Z M 186.56,473.16 L 188.56,473.16 L 188.56,464.12 L 186.56,464.12 Z M 186.56,464.12 L 188.56,464.12 L 188.56,462.56 L 186.56,462.56 Z M 182.32,488.60 L 182.92,488.60 L 182.92,479.56 L 182.32,479.56 Z M 182.32,498.60 L 182.92,498.60 L 182.92,493.56 L 182.32,493.56 Z M 180.32,511.20 L 182.32,511.20 L 182.32,502.16 L 180.32,502.16 Z M 180.32,502.16 L 182.32,502.16 L 182.32,500.60 L 180.32,500.60 Z M 214.08,511.20 L 214.68,511.20 L 214.68,506.16 L 214.08,506.16 Z M 214.08,494.16 L 214.68,494.16 L 214.68,485.12 L 214.08,485.12 Z M 229.76,511.20 L 230.36,511.20 L 230.36,506.16 L 229.76,506.16 Z M 229.76,494.16 L 230.36,494.16 L 230.36,485.12 L 229.76,485.12 Z M 53.52,736.42 L 61.52,736.42 L 61.52,596.54 L 53.52,596.54 Z M 53.52,596.54 L 61.52,596.54 L 61.52,594.98 L 53.52,594.98 Z M 65.76,736.42 L 73.76,736.42 L 73.76,596.54 L 65.76,596.54 Z M 65.76,596.54 L 73.76,596.54 L 73.76,594.98 L 65.76,594.98 Z M 78.00,736.42 L 86.00,736.42 L 86.00,596.54 L 78.00,596.54 Z M 78.00,596.54 L 86.00,596.54 L 86.00,594.98 L 78.00,594.98 Z M 90.24,736.42 L 98.24,736.42 L 98.24,596.54 L 90.24,596.54 Z M 90.24,596.54 L 98.24,596.54 L 98.24,594.98 L 90.24,594.98 Z M 102.48,736.42 L 110.48,736.42 L 110.48,596.54 L 102.48,596.54 Z M 102.48,596.54 L 110.48,596.54 L 110.48,594.98 L 102.48,594.98 Z M 114.72,736.42 L 122.72,736.42 L 122.72,596.54 L 114.72,596.54 Z M 114.72,596.54 L 122.72,596.54 L 122.72,594.98 L 114.72,594.98 Z M 126.96,736.42 L 134.96,736.42 L 134.96,596.54 L 126.96,596.54 Z M 126.96,596.54 L 134.96,596.54 L 134.96,594.98 L 126.96,594.98 Z M 139.20,736.42 L 147.20,736.42 L 147.20,596.54 L 139.20,596.54 Z M 139.20,596.54 L 147.20,596.54 L 147.20,594.98 L 139.20,594.98 Z M 151.44,736.42 L 159.44,736.42 L 159.44,596.54 L 151.44,596.54 Z M 151.44,596.54 L 159.44,596.54 L 159.44,594.98 L 151.44,594.98 Z M 168.48,736.42 L 176.48,736.42 L 176.48,596.54 L 168.48,596.54 Z M 168.48,596.54 L 176.48,596.54 L 176.48,594.98 L 168.48,594.98 Z M 180.72,736.42 L 188.72,736.42 L 188.72,596.54 L 180.72,596.54 Z M 180.72,596.54 L 188.72,596.54 L 188.72,594.98 L 180.72,594.98 Z M 192.96,736.42 L 200.96,736.42 L 200.96,596.54 L 192.96,596.54 Z M 192.96,596.54 L 200.96,596.54 L 200.96,594.98 L 192.96,594.98 Z M 205.20,736.42 L 213.20,736.42 L 213.20,596.54 L 205.20,596.54 Z M 205.20,596.54 L 213.20,596.54 L 213.20,594.98 L 205.20,594.98 Z M 217.44,736.42 L 225.44,736.42 L 225.44,596.54 L 217.44,596.54 Z M 217.44,596.54 L 225.44,596.54 L 225.44,594.98 L 217.44,594.98 Z M 229.68,736.42 L 237.68,736.42 L 237.68,596.54 L 229.68,596.54 Z M 229.68,596.54 L 237.68,596.54 L 237.68,594.98 L 229.68,594.98 Z M 241.92,736.42 L 249.92,736.42 L 249.92,596.54 L 241.92,596.54 Z M 241.92,596.54 L 249.92,596.54 L 249.92,594.98 L 241.92,594.98 Z M 254.16,736.42 L 262.16,736.42 L 262.16,596.54 L 254.16,596.54 Z M 254.16,596.54 L 262.16,596.54 L 262.16,594.98 L 254.16,594.98 Z M 266.40,736.42 L 274.40,736.42 L 274.40,596.54 L 266.40,596.54 Z M 266.40,596.54 L 274.40,596.54 L 274.40,594.98 L 266.40,594.98 Z M 53.52,586.70 L 61.52,586.70 L 61.52,541.76 L 53.52,541.76 Z M 53.52,541.76 L 61.52,541.76 L 61.52,540.20 L 53.52,540.20 Z M 65.76,586.70 L 73.76,586.70 L 73.76,541.76 L 65.76,541.76 Z M 65.76,541.76 L 73.76,541.76 L 73.76,540.20 L 65.76,540.20 Z M 78.00,586.70 L 86.00,586.70 L 86.00,541.76 L 78.00,541.76 Z M 78.00,541.76 L 86.00,541.76 L 86.00,540.20 L 78.00,540.20 Z M 95.04,586.70 L 103.04,586.70 L 103.04,541.76 L 95.04,541.76 Z M 95.04,541.76 L 103.04,541.76 L 103.04,540.20 L 95.04,540.20 Z M 107.28,586.70 L 115.28,586.70 L 115.28,541.76 L 107.28,541.76 Z M 107.28,541.76 L 115.28,541.76 L 115.28,540.20 L 107.28,540.20 Z M 119.52,586.70 L 127.52,586.70 L 127.52,541.76 L 119.52,541.76 Z M 119.52,541.76 L 127.52,541.76 L 127.52,540.20 L 119.52,540.20 Z M 52.00,531.40 L 53.40,531.40 L 53.40,522.68 L 52.00,522.68 Z M 53.52,764.20 L 57.52,764.20 L 57.52,755.16 L 53.52,755.16 Z M 53.52,755.16 L 57.52,755.16 L 57.52,753.60 L 53.52,753.60 Z M 61.76,764.20 L 65.76,764.20 L 65.76,755.16 L 61.76,755.16 Z M 61.76,755.16 L 65.76,755.16 L 65.76,753.60 L 61.76,753.60 Z M 83.28,764.20 L 87.28,764.20 L 87.28,755.16 L 83.28,755.16 Z M 83.28,755.16 L 87.28,755.16 L 87.28,753.60 L 83.28,753.60 Z M 91.52,764.20 L 95.52,764.20 L 95.52,755.16 L 91.52,755.16 Z M 91.52,755.16 L 95.52,755.16 L 95.52,753.60 L 91.52,753.60 Z M 113.04,764.20 L 113.64,764.20 L 113.64,755.16 L 113.04,755.16 Z M 53.52,786.80 L 57.52,786.80 L 57.52,777.76 L 53.52,777.76 Z M 53.52,777.76 L 57.52,777.76 L 57.52,776.20 L 53.52,776.20 Z M 67.56,786.80 L 71.56,786.80 L 71.56,777.76 L 67.56,777.76 Z M 67.56,777.76 L 71.56,777.76 L 71.56,776.20 L 67.56,776.20 Z M 81.60,786.80 L 82.20,786.80 L 82.20,781.76 L 81.60,781.76 Z M 53.52,841.70 L 54.12,841.70 L 54.12,838.66 L 53.52,838.66 Z M 53.52,826.66 L 54.12,826.66 L 54.12,821.62 L 53.52,821.62 Z M 71.20,841.70 L 71.80,841.70 L 71.80,838.66 L 71.20,838.66 Z M 71.20,826.66 L 71.80,826.66 L 71.80,821.62 L 71.20,821.62 Z M 88.88,841.70 L 89.48,841.70 L 89.48,838.66 L 88.88,838.66 Z M 88.88,826.66 L 89.48,826.66 L 89.48,821.62 L 88.88,821.62 Z M 106.56,841.70 L 107.16,841.70 L 107.16,838.66 L 106.56,838.66 Z M 106.56,826.66 L 107.16,826.66 L 107.16,821.62 L 106.56,821.62 Z M 124.24,841.70 L 124.84,841.70 L 124.84,838.66 L 124.24,838.66 Z M 124.24,826.66 L 124.84,826.66 L 124.84,821.62 L 124.24,821.62 Z M 141.92,841.70 L 142.52,841.70 L 142.52,838.66 L 141.92,838.66 Z M 141.92,826.66 L 142.52,826.66 L 142.52,821.62 L 141.92,821.62 Z M 159.60,841.70 L 160.20,841.70 L 160.20,838.66 L 159.60,838.66 Z M 159.60,826.66 L 160.20,826.66 L 160.20,821.62 L 159.60,821.62 Z M 177.28,841.70 L 177.88,841.70 L 177.88,838.66 L 177.28,838.66 Z M 177.28,826.66 L 177.88,826.66 L 177.88,821.62 L 177.28,821.62 Z M 194.96,841.70 L 195.56,841.70 L 195.56,838.66 L 194.96,838.66 Z M 194.96,826.66 L 195.56,826.66 L 195.56,821.62 L 194.96,821.62 Z M 212.64,841.70 L 213.24,841.70 L 213.24,838.66 L 212.64,838.66 Z M 212.64,826.66 L 213.24,826.66 L 213.24,821.62 L 212.64,821.62 Z M 230.32,841.70 L 230.92,841.70 L 230.92,838.66 L 230.32,838.66 Z M 230.32,826.66 L 230.92,826.66 L 230.92,821.62 L 230.32,821.62 Z M 248.00,841.70 L 248.60,841.70 L 248.60,838.66 L 248.00,838.66 Z M 248.00,826.66 L 248.60,826.66 L 248.60,821.62 L 248.00,821.62 Z M 265.68,841.70 L 266.28,841.70 L 266.28,836.66 L 265.68,836.66 Z M 265.68,834.66 L 266.28,834.66 L 266.28,829.62 L 265.68,829.62 Z M 265.68,819.62 L 266.28,819.62 L 266.28,810.58 L 265.68,810.58 Z M 280.40,819.62 L 281.00,819.62 L 281.00,810.58 L 280.40,810.58 Z M 300.16,841.70 L 300.76,841.70 L 300.76,838.66 L 300.16,838.66 Z M 300.16,826.66 L 300.76,826.66 L 300.76,821.62 L 300.16,821.62 Z M 315.84,841.70 L 316.44,841.70 L 316.44,838.66 L 315.84,838.66 Z M 315.84,826.66 L 316.44,826.66 L 316.44,821.62 L 315.84,821.62 Z M 331.52,841.70 L 332.12,841.70 L 332.12,838.66 L 331.52,838.66 Z M 331.52,826.66 L 332.12,826.66 L 332.12,821.62 L 331.52,821.62 Z M 347.20,841.70 L 347.80,841.70 L 347.80,838.66 L 347.20,838.66 Z M 347.20,826.66 L 347.80,826.66 L 347.80,821.62 L 347.20,821.62 Z" fill="#FF0000" fill-opacity="0.45" stroke="#cc0000" stroke-width="0.5"/>
    <text x="10" y="938" font-family="sans-serif" font-size="11" fill="#aaaaaa">poly (66,20) - 175 polygons</text>
</g>
</svg>
