<?xml version="1.0" encoding="UTF-8"?>
<svg xmlns="http://www.w3.org/2000/svg" width="684.0" height="968.0" viewBox="0 0 684.0 968.0">
<rect width="100%" height="100%" fill="#1a1a2e"/>
<text x="342.0" y="18" font-family="sans-serif" font-size="14" fill="#eee" text-anchor="middle" font-weight="bold">tt_um_pll_sky130 - met2 (69,20)</text>
<g transform="translate(0, 25)">
    <path d="M 20.00,923.04 L 664.00,923.04 L 664.00,20.00 L 20.00,20.00 Z" fill="none" stroke="#555555" stroke-width="1" stroke-dasharray="4,2"/>
    <path d="M 28.84,122.20 L 27.16,122.20 L 27.16,123.88 L 28.84,123.88 Z M 42.84,122.20 L 41.16,122.20 L 41.16,123.88 L 42.84,123.88 Z M 28.84,322.20 L 27.16,322.20 L 27.16,323.88 L 28.84,323.88 Z M 42.84,322.20 L 41.16,322.20 L 41.16,323.88 L 42.84,323.88 Z M 180.84,479.02 L 180.84,472.54 L 179.16,472.54 L 179.16,479.02 L 79.80,479.02 L 79.80,480.70 L 179.16,480.70 L 179.16,500.32 L 180.84,500.32 L 180.84,480.70 L 186.50,480.70 L 186.50,479.02 Z M 629.88,483.02 L 628.20,483.02 L 628.20,484.70 L 629.88,484.70 Z M 552.60,483.02 L 550.92,483.02 L 550.92,484.70 L 552.60,484.70 Z M 73.76,492.70 L 152.20,492.70 L 152.20,491.02 L 73.76,491.02 Z M 172.84,500.32 L 171.16,500.32 L 171.16,751.06 L 172.84,751.06 Z M 42.84,522.20 L 41.16,522.20 L 41.16,523.88 L 42.84,523.88 Z M 28.84,522.20 L 27.16,522.20 L 27.16,523.88 L 28.84,523.88 Z M 42.84,722.20 L 41.16,722.20 L 41.16,723.88 L 42.84,723.88 Z M 28.84,722.20 L 27.16,722.20 L 27.16,723.88 L 28.84,723.88 Z M 108.84,751.06 L 107.16,751.06 L 107.16,806.72 L 108.84,806.72 Z M 116.84,751.06 L 115.16,751.06 L 115.16,806.72 L 116.84,806.72 Z M 140.84,806.72 L 139.16,806.72 L 139.16,865.96 L 140.84,865.96 Z M 42.84,882.20 L 41.16,882.20 L 41.16,883.88 L 42.84,883.88 Z M 28.84,882.20 L 27.16,882.20 L 27.16,883.88 L 28.84,883.88 Z" fill="#FF8C00" fill-opacity="0.45" stroke="#cc7000" stroke-width="0.5"/>
    <text x="10" y="938" font-family="sans-serif" font-size="11" fill="#aaaaaa">met2 (69,20) - 18 polygons</text>
</g>
</svg>
