<?xml version="1.0" encoding="UTF-8"?>
<svg xmlns="http://www.w3.org/2000/svg" width="684.0" height="968.0" viewBox="0 0 684.0 968.0">
<rect width="100%" height="100%" fill="#1a1a2e"/>
<text x="342.0" y="18" font-family="sans-serif" font-size="14" fill="#eee" text-anchor="middle" font-weight="bold">tt_um_pll_sky130 — poly (66,20)</text>
<g transform="translate(0, 25)">
    <path d="M 20.00,923.04 L 664.00,923.04 L 664.00,20.00 L 20.00,20.00 Z" fill="none" stroke="#555555" stroke-width="1" stroke-dasharray="4,2"/>
    <path d="M 33.04,837.96 L 37.04,837.96 L 37.04,828.92 L 33.04,828.92 Z M 33.04,828.92 L 37.04,828.92 L 37.04,827.44 L 33.04,827.44 Z M 39.80,837.96 L 43.80,837.96 L 43.80,828.92 L 39.80,828.92 Z M 39.80,828.92 L 43.80,828.92 L 43.80,827.44 L 39.80,827.44 Z M 57.04,837.96 L 61.04,837.96 L 61.04,828.92 L 57.04,828.92 Z M 57.04,828.92 L 61.04,828.92 L 61.04,827.44 L 57.04,827.44 Z M 63.80,837.96 L 67.80,837.96 L 67.80,828.92 L 63.80,828.92 Z M 63.80,828.92 L 67.80,828.92 L 67.80,827.44 L 63.80,827.44 Z M 81.04,837.96 L 81.64,837.96 L 81.64,828.92 L 81.04,828.92 Z M 33.04,869.96 L 37.04,869.96 L 37.04,860.92 L 33.04,860.92 Z M 33.04,860.92 L 37.04,860.92 L 37.04,859.44 L 33.04,859.44 Z M 57.04,869.96 L 61.04,869.96 L 61.04,860.92 L 57.04,860.92 Z M 57.04,860.92 L 61.04,860.92 L 61.04,859.44 L 57.04,859.44 Z M 81.04,869.96 L 81.64,869.96 L 81.64,864.92 L 81.04,864.92 Z M 175.24,911.56 L 183.24,911.56 L 183.24,750.52 L 175.24,750.52 Z M 184.96,911.56 L 192.96,911.56 L 192.96,750.52 L 184.96,750.52 Z M 194.68,911.56 L 202.68,911.56 L 202.68,750.52 L 194.68,750.52 Z M 204.40,911.56 L 212.40,911.56 L 212.40,750.52 L 204.40,750.52 Z M 214.12,911.56 L 222.12,911.56 L 222.12,750.52 L 214.12,750.52 Z M 223.84,911.56 L 231.84,911.56 L 231.84,750.52 L 223.84,750.52 Z M 233.56,911.56 L 241.56,911.56 L 241.56,750.52 L 233.56,750.52 Z M 243.28,911.56 L 251.28,911.56 L 251.28,750.52 L 243.28,750.52 Z M 253.00,911.56 L 261.00,911.56 L 261.00,750.52 L 253.00,750.52 Z M 262.72,911.56 L 270.72,911.56 L 270.72,750.52 L 262.72,750.52 Z M 272.44,911.56 L 280.44,911.56 L 280.44,750.52 L 272.44,750.52 Z M 282.16,911.56 L 290.16,911.56 L 290.16,750.52 L 282.16,750.52 Z M 291.88,911.56 L 299.88,911.56 L 299.88,750.52 L 291.88,750.52 Z M 301.60,911.56 L 309.60,911.56 L 309.60,750.52 L 301.60,750.52 Z M 311.32,911.56 L 319.32,911.56 L 319.32,750.52 L 311.32,750.52 Z M 321.04,911.56 L 329.04,911.56 L 329.04,750.52 L 321.04,750.52 Z M 175.24,750.52 L 183.24,750.52 L 183.24,748.84 L 175.24,748.84 Z M 184.96,750.52 L 192.96,750.52 L 192.96,748.84 L 184.96,748.84 Z M 194.68,750.52 L 202.68,750.52 L 202.68,748.84 L 194.68,748.84 Z M 204.40,750.52 L 212.40,750.52 L 212.40,748.84 L 204.40,748.84 Z M 214.12,750.52 L 222.12,750.52 L 222.12,748.84 L 214.12,748.84 Z M 223.84,750.52 L 231.84,750.52 L 231.84,748.84 L 223.84,748.84 Z M 233.56,750.52 L 241.56,750.52 L 241.56,748.84 L 233.56,748.84 Z M 243.28,750.52 L 251.28,750.52 L 251.28,748.84 L 243.28,748.84 Z M 253.00,750.52 L 261.00,750.52 L 261.00,748.84 L 253.00,748.84 Z M 262.72,750.52 L 270.72,750.52 L 270.72,748.84 L 262.72,748.84 Z M 272.44,750.52 L 280.44,750.52 L 280.44,748.84 L 272.44,748.84 Z M 282.16,750.52 L 290.16,750.52 L 290.16,748.84 L 282.16,748.84 Z M 291.88,750.52 L 299.88,750.52 L 299.88,748.84 L 291.88,748.84 Z M 301.60,750.52 L 309.60,750.52 L 309.60,748.84 L 301.60,748.84 Z M 311.32,750.52 L 319.32,750.52 L 319.32,748.84 L 311.32,748.84 Z M 321.04,750.52 L 329.04,750.52 L 329.04,748.84 L 321.04,748.84 Z M 175.24,731.72 L 183.24,731.72 L 183.24,676.91 L 175.24,676.91 Z M 184.96,731.72 L 192.96,731.72 L 192.96,676.91 L 184.96,676.91 Z M 194.68,731.72 L 202.68,731.72 L 202.68,676.91 L 194.68,676.91 Z M 204.40,731.72 L 212.40,731.72 L 212.40,676.91 L 204.40,676.91 Z M 214.12,731.72 L 222.12,731.72 L 222.12,676.91 L 214.12,676.91 Z M 175.24,676.91 L 183.24,676.91 L 183.24,675.23 L 175.24,675.23 Z M 184.96,676.91 L 192.96,676.91 L 192.96,675.23 L 184.96,675.23 Z M 194.68,676.91 L 202.68,676.91 L 202.68,675.23 L 194.68,675.23 Z M 204.40,676.91 L 212.40,676.91 L 212.40,675.23 L 204.40,675.23 Z M 214.12,676.91 L 222.12,676.91 L 222.12,675.23 L 214.12,675.23 Z M 174.20,657.59 L 242.46,657.59 L 242.46,656.19 L 174.20,656.19 Z M 241.06,657.59 L 242.46,657.59 L 242.46,652.79 L 241.06,652.79 Z M 174.20,654.19 L 242.46,654.19 L 242.46,652.79 L 174.20,652.79 Z M 33.04,614.11 L 35.04,614.11 L 35.04,605.07 L 33.04,605.07 Z M 33.04,605.07 L 35.04,605.07 L 35.04,603.59 L 33.04,603.59 Z M 37.80,614.11 L 39.80,614.11 L 39.80,605.07 L 37.80,605.07 Z M 37.80,605.07 L 39.80,605.07 L 39.80,603.59 L 37.80,603.59 Z M 33.04,638.11 L 35.04,638.11 L 35.04,629.07 L 33.04,629.07 Z M 33.04,629.07 L 35.04,629.07 L 35.04,627.59 L 33.04,627.59 Z M 47.04,594.11 L 49.04,594.11 L 49.04,585.07 L 47.04,585.07 Z M 47.04,585.07 L 49.04,585.07 L 49.04,583.59 L 47.04,583.59 Z M 51.80,594.11 L 53.80,594.11 L 53.80,585.07 L 51.80,585.07 Z M 51.80,585.07 L 53.80,585.07 L 53.80,583.59 L 51.80,583.59 Z M 49.04,614.11 L 49.64,614.11 L 49.64,605.07 L 49.04,605.07 Z M 49.04,626.11 L 49.64,626.11 L 49.64,621.07 L 49.04,621.07 Z M 47.04,638.11 L 49.04,638.11 L 49.04,629.07 L 47.04,629.07 Z M 47.04,629.07 L 49.04,629.07 L 49.04,627.59 L 47.04,627.59 Z M 63.04,594.11 L 65.04,594.11 L 65.04,585.07 L 63.04,585.07 Z M 63.04,585.07 L 65.04,585.07 L 65.04,583.59 L 63.04,583.59 Z M 67.80,594.11 L 69.80,594.11 L 69.80,585.07 L 67.80,585.07 Z M 67.80,585.07 L 69.80,585.07 L 69.80,583.59 L 67.80,583.59 Z M 65.04,614.11 L 65.64,614.11 L 65.64,605.07 L 65.04,605.07 Z M 65.04,626.11 L 65.64,626.11 L 65.64,621.07 L 65.04,621.07 Z M 63.04,638.11 L 65.04,638.11 L 65.04,629.07 L 63.04,629.07 Z M 63.04,629.07 L 65.04,629.07 L 65.04,627.59 L 63.04,627.59 Z M 79.04,594.11 L 81.04,594.11 L 81.04,585.07 L 79.04,585.07 Z M 79.04,585.07 L 81.04,585.07 L 81.04,583.59 L 79.04,583.59 Z M 83.80,594.11 L 85.80,594.11 L 85.80,585.07 L 83.80,585.07 Z M 83.80,585.07 L 85.80,585.07 L 85.80,583.59 L 83.80,583.59 Z M 81.04,614.11 L 81.64,614.11 L 81.64,605.07 L 81.04,605.07 Z M 81.04,626.11 L 81.64,626.11 L 81.64,621.07 L 81.04,621.07 Z M 79.04,638.11 L 81.04,638.11 L 81.04,629.07 L 79.04,629.07 Z M 79.04,629.07 L 81.04,629.07 L 81.04,627.59 L 79.04,627.59 Z M 95.04,594.11 L 97.04,594.11 L 97.04,585.07 L 95.04,585.07 Z M 95.04,585.07 L 97.04,585.07 L 97.04,583.59 L 95.04,583.59 Z M 99.80,594.11 L 101.80,594.11 L 101.80,585.07 L 99.80,585.07 Z M 99.80,585.07 L 101.80,585.07 L 101.80,583.59 L 99.80,583.59 Z M 97.04,614.11 L 97.64,614.11 L 97.64,605.07 L 97.04,605.07 Z M 97.04,626.11 L 97.64,626.11 L 97.64,621.07 L 97.04,621.07 Z M 95.04,638.11 L 97.04,638.11 L 97.04,629.07 L 95.04,629.07 Z M 95.04,629.07 L 97.04,629.07 L 97.04,627.59 L 95.04,627.59 Z M 111.04,594.11 L 113.04,594.11 L 113.04,585.07 L 111.04,585.07 Z M 111.04,585.07 L 113.04,585.07 L 113.04,583.59 L 111.04,583.59 Z M 115.80,594.11 L 117.80,594.11 L 117.80,585.07 L 115.80,585.07 Z M 115.80,585.07 L 117.80,585.07 L 117.80,583.59 L 115.80,583.59 Z M 113.04,614.11 L 113.64,614.11 L 113.64,605.07 L 113.04,605.07 Z M 113.04,626.11 L 113.64,626.11 L 113.64,621.07 L 113.04,621.07 Z M 111.04,638.11 L 113.04,638.11 L 113.04,629.07 L 111.04,629.07 Z M 111.04,629.07 L 113.04,629.07 L 113.04,627.59 L 111.04,627.59 Z" fill="#FF0000" fill-opacity="0.45" stroke="#cc0000" stroke-width="0.5"/>
    <text x="10" y="938.04" font-family="sans-serif" font-size="11" fill="#aaaaaa">poly (66,20) — 105 polygons</text>
</g>
</svg>
