<svg xmlns="http://www.w3.org/2000/svg" width="483" height="677" viewBox="0 0 483 677">
<rect width="483" height="677" fill="#1a1a2e"/>
<rect x="234.52" y="582.74" width="0.51" height="0.51" fill="#808040" fill-opacity="0.80" stroke="#404000" stroke-opacity="0.90" stroke-width="0.50"/>
<rect x="234.52" y="573.90" width="0.51" height="0.51" fill="#808040" fill-opacity="0.80" stroke="#404000" stroke-opacity="0.90" stroke-width="0.50"/>
<rect x="242.69" y="582.74" width="0.51" height="0.51" fill="#808040" fill-opacity="0.80" stroke="#404000" stroke-opacity="0.90" stroke-width="0.50"/>
<rect x="234.52" y="569.25" width="0.51" height="0.51" fill="#808040" fill-opacity="0.80" stroke="#404000" stroke-opacity="0.90" stroke-width="0.50"/>
<rect x="232.00" y="586.31" width="0.51" height="0.51" fill="#808040" fill-opacity="0.80" stroke="#404000" stroke-opacity="0.90" stroke-width="0.50"/>
<rect x="232.00" y="578.14" width="0.51" height="0.51" fill="#808040" fill-opacity="0.80" stroke="#404000" stroke-opacity="0.90" stroke-width="0.50"/>
<rect x="234.52" y="578.14" width="0.51" height="0.51" fill="#808040" fill-opacity="0.80" stroke="#404000" stroke-opacity="0.90" stroke-width="0.50"/>
<rect x="234.52" y="586.31" width="0.51" height="0.51" fill="#808040" fill-opacity="0.80" stroke="#404000" stroke-opacity="0.90" stroke-width="0.50"/>
<rect x="235.91" y="578.14" width="0.51" height="0.51" fill="#808040" fill-opacity="0.80" stroke="#404000" stroke-opacity="0.90" stroke-width="0.50"/>
<rect x="235.91" y="586.31" width="0.51" height="0.51" fill="#808040" fill-opacity="0.80" stroke="#404000" stroke-opacity="0.90" stroke-width="0.50"/>
<rect x="237.28" y="578.14" width="0.51" height="0.51" fill="#808040" fill-opacity="0.80" stroke="#404000" stroke-opacity="0.90" stroke-width="0.50"/>
<rect x="237.28" y="586.31" width="0.51" height="0.51" fill="#808040" fill-opacity="0.80" stroke="#404000" stroke-opacity="0.90" stroke-width="0.50"/>
<rect x="238.67" y="578.14" width="0.51" height="0.51" fill="#808040" fill-opacity="0.80" stroke="#404000" stroke-opacity="0.90" stroke-width="0.50"/>
<rect x="238.67" y="586.31" width="0.51" height="0.51" fill="#808040" fill-opacity="0.80" stroke="#404000" stroke-opacity="0.90" stroke-width="0.50"/>
<rect x="240.05" y="578.14" width="0.51" height="0.51" fill="#808040" fill-opacity="0.80" stroke="#404000" stroke-opacity="0.90" stroke-width="0.50"/>
<rect x="240.05" y="586.31" width="0.51" height="0.51" fill="#808040" fill-opacity="0.80" stroke="#404000" stroke-opacity="0.90" stroke-width="0.50"/>
<rect x="241.42" y="586.31" width="0.51" height="0.51" fill="#808040" fill-opacity="0.80" stroke="#404000" stroke-opacity="0.90" stroke-width="0.50"/>
<rect x="241.42" y="578.14" width="0.51" height="0.51" fill="#808040" fill-opacity="0.80" stroke="#404000" stroke-opacity="0.90" stroke-width="0.50"/>
<rect x="242.81" y="586.31" width="0.51" height="0.51" fill="#808040" fill-opacity="0.80" stroke="#404000" stroke-opacity="0.90" stroke-width="0.50"/>
<rect x="242.81" y="578.14" width="0.51" height="0.51" fill="#808040" fill-opacity="0.80" stroke="#404000" stroke-opacity="0.90" stroke-width="0.50"/>
<rect x="245.32" y="586.31" width="0.51" height="0.51" fill="#808040" fill-opacity="0.80" stroke="#404000" stroke-opacity="0.90" stroke-width="0.50"/>
<rect x="245.32" y="578.14" width="0.51" height="0.51" fill="#808040" fill-opacity="0.80" stroke="#404000" stroke-opacity="0.90" stroke-width="0.50"/>
</svg>
