<?xml version="1.0" encoding="UTF-8"?>
<svg xmlns="http://www.w3.org/2000/svg" width="684.0" height="968.0" viewBox="0 0 684.0 968.0">
<rect width="100%" height="100%" fill="#1a1a2e"/>
<text x="342.0" y="18" font-family="sans-serif" font-size="14" fill="#eee" text-anchor="middle" font-weight="bold">tt_um_pll_sky130 — psdm (94,20)</text>
<g transform="translate(0, 25)">
    <path d="M 20.00,923.04 L 664.00,923.04 L 664.00,20.00 L 20.00,20.00 Z" fill="none" stroke="#555555" stroke-width="1" stroke-dasharray="4,2"/>
    <path d="M 31.50,837.94 L 38.58,837.94 L 38.58,828.94 L 31.50,828.94 Z M 38.26,837.94 L 45.34,837.94 L 45.34,828.94 L 38.26,828.94 Z M 55.50,837.94 L 62.58,837.94 L 62.58,828.94 L 55.50,828.94 Z M 62.26,837.94 L 69.34,837.94 L 69.34,828.94 L 62.26,828.94 Z M 79.50,837.94 L 83.18,837.94 L 83.18,828.94 L 79.50,828.94 Z M 31.50,614.09 L 36.58,614.09 L 36.58,605.09 L 31.50,605.09 Z M 36.26,614.09 L 41.34,614.09 L 41.34,605.09 L 36.26,605.09 Z M 45.50,594.09 L 50.58,594.09 L 50.58,585.09 L 45.50,585.09 Z M 50.26,594.09 L 55.34,594.09 L 55.34,585.09 L 50.26,585.09 Z M 47.50,614.09 L 51.18,614.09 L 51.18,605.09 L 47.50,605.09 Z M 61.50,594.09 L 66.58,594.09 L 66.58,585.09 L 61.50,585.09 Z M 66.26,594.09 L 71.34,594.09 L 71.34,585.09 L 66.26,585.09 Z M 63.50,614.09 L 67.18,614.09 L 67.18,605.09 L 63.50,605.09 Z M 77.50,594.09 L 82.58,594.09 L 82.58,585.09 L 77.50,585.09 Z M 82.26,594.09 L 87.34,594.09 L 87.34,585.09 L 82.26,585.09 Z M 79.50,614.09 L 83.18,614.09 L 83.18,605.09 L 79.50,605.09 Z M 93.50,594.09 L 98.58,594.09 L 98.58,585.09 L 93.50,585.09 Z M 98.26,594.09 L 103.34,594.09 L 103.34,585.09 L 98.26,585.09 Z M 95.50,614.09 L 99.18,614.09 L 99.18,605.09 L 95.50,605.09 Z M 109.50,594.09 L 114.58,594.09 L 114.58,585.09 L 109.50,585.09 Z M 114.26,594.09 L 119.34,594.09 L 119.34,585.09 L 114.26,585.09 Z M 111.50,614.09 L 115.18,614.09 L 115.18,605.09 L 111.50,605.09 Z" fill="#FF69B4" fill-opacity="0.15" stroke="#cc5490" stroke-width="0.5"/>
    <text x="10" y="938.04" font-family="sans-serif" font-size="11" fill="#aaaaaa">psdm (94,20) — 22 polygons</text>
</g>
</svg>
