<?xml version="1.0" encoding="UTF-8"?>
<svg xmlns="http://www.w3.org/2000/svg" width="684.0" height="968.0" viewBox="0 0 684.0 968.0">
<rect width="100%" height="100%" fill="#1a1a2e"/>
<text x="342.0" y="18" font-family="sans-serif" font-size="14" fill="#eee" text-anchor="middle" font-weight="bold">tt_um_pll_sky130 - psdm (94,20)</text>
<g transform="translate(0, 25)">
    <path d="M 20.00,923.04 L 664.00,923.04 L 664.00,20.00 L 20.00,20.00 Z" fill="none" stroke="#555555" stroke-width="1" stroke-dasharray="4,2"/>
    <path d="M 184.34,464.14 L 178.30,464.14 L 178.30,473.14 L 184.34,473.14 Z M 81.30,464.14 L 75.26,464.14 L 75.26,473.14 L 81.30,473.14 Z M 87.54,464.14 L 81.50,464.14 L 81.50,473.14 L 87.54,473.14 Z M 107.06,464.14 L 101.02,464.14 L 101.02,473.14 L 107.06,473.14 Z M 113.30,464.14 L 107.26,464.14 L 107.26,473.14 L 113.30,473.14 Z M 132.82,464.14 L 126.78,464.14 L 126.78,473.14 L 132.82,473.14 Z M 139.06,464.14 L 133.02,464.14 L 133.02,473.14 L 139.06,473.14 Z M 158.58,464.14 L 152.54,464.14 L 152.54,473.14 L 158.58,473.14 Z M 164.82,464.14 L 158.78,464.14 L 158.78,473.14 L 164.82,473.14 Z M 190.58,464.14 L 184.54,464.14 L 184.54,473.14 L 190.58,473.14 Z M 133.42,479.58 L 128.78,479.58 L 128.78,488.58 L 133.42,488.58 Z M 107.66,479.58 L 103.02,479.58 L 103.02,488.58 L 107.66,488.58 Z M 184.94,479.58 L 180.30,479.58 L 180.30,488.58 L 184.94,488.58 Z M 81.90,479.58 L 77.26,479.58 L 77.26,488.58 L 81.90,488.58 Z M 159.18,479.58 L 154.54,479.58 L 154.54,488.58 L 159.18,488.58 Z M 63.78,479.58 L 57.74,479.58 L 57.74,488.58 L 63.78,488.58 Z M 57.54,479.58 L 51.50,479.58 L 51.50,488.58 L 57.54,488.58 Z M 216.70,485.14 L 212.06,485.14 L 212.06,494.14 L 216.70,494.14 Z M 232.38,485.14 L 227.74,485.14 L 227.74,494.14 L 232.38,494.14 Z M 148.34,506.18 L 145.34,506.18 L 145.34,509.18 L 148.34,509.18 Z M 73.06,506.18 L 70.06,506.18 L 70.06,509.18 L 73.06,509.18 Z M 174.10,506.18 L 171.10,506.18 L 171.10,509.18 L 174.10,509.18 Z M 199.86,506.18 L 196.86,506.18 L 196.86,509.18 L 199.86,509.18 Z M 122.58,506.18 L 119.58,506.18 L 119.58,509.18 L 122.58,509.18 Z M 96.82,506.18 L 93.82,506.18 L 93.82,509.18 L 96.82,509.18 Z M 221.30,508.18 L 218.30,508.18 L 218.30,511.18 L 221.30,511.18 Z M 236.98,508.18 L 233.98,508.18 L 233.98,511.18 L 236.98,511.18 Z M 54.50,512.98 L 51.50,512.98 L 51.50,515.98 L 54.50,515.98 Z M 246.50,512.98 L 243.50,512.98 L 243.50,515.98 L 246.50,515.98 Z M 214.50,512.98 L 211.50,512.98 L 211.50,515.98 L 214.50,515.98 Z M 182.50,512.98 L 179.50,512.98 L 179.50,515.98 L 182.50,515.98 Z M 150.50,512.98 L 147.50,512.98 L 147.50,515.98 L 150.50,515.98 Z M 118.50,512.98 L 115.50,512.98 L 115.50,515.98 L 118.50,515.98 Z M 86.50,512.98 L 83.50,512.98 L 83.50,515.98 L 86.50,515.98 Z M 92.62,549.68 L 89.62,549.68 L 89.62,552.68 L 92.62,552.68 Z M 138.94,549.68 L 135.94,549.68 L 135.94,552.68 L 138.94,552.68 Z M 50.50,549.68 L 47.50,549.68 L 47.50,552.68 L 50.50,552.68 Z M 134.34,562.72 L 131.34,562.72 L 131.34,565.72 L 134.34,565.72 Z M 138.94,581.68 L 135.94,581.68 L 135.94,584.68 L 138.94,584.68 Z M 50.50,581.68 L 47.50,581.68 L 47.50,584.68 L 50.50,584.68 Z M 92.62,581.68 L 89.62,581.68 L 89.62,584.68 L 92.62,584.68 Z M 50.50,603.40 L 47.50,603.40 L 47.50,606.40 L 50.50,606.40 Z M 166.06,603.40 L 163.06,603.40 L 163.06,606.40 L 166.06,606.40 Z M 285.82,603.40 L 282.82,603.40 L 282.82,606.40 L 285.82,606.40 Z M 166.06,635.40 L 163.06,635.40 L 163.06,638.40 L 166.06,638.40 Z M 285.82,635.40 L 282.82,635.40 L 282.82,638.40 L 285.82,638.40 Z M 50.50,635.40 L 47.50,635.40 L 47.50,638.40 L 50.50,638.40 Z M 281.22,664.98 L 278.22,664.98 L 278.22,667.98 L 281.22,667.98 Z M 50.50,667.40 L 47.50,667.40 L 47.50,670.40 L 50.50,670.40 Z M 166.06,667.40 L 163.06,667.40 L 163.06,670.40 L 166.06,670.40 Z M 285.82,667.40 L 282.82,667.40 L 282.82,670.40 L 285.82,670.40 Z M 285.82,699.40 L 282.82,699.40 L 282.82,702.40 L 285.82,702.40 Z M 50.50,699.40 L 47.50,699.40 L 47.50,702.40 L 50.50,702.40 Z M 166.06,699.40 L 163.06,699.40 L 163.06,702.40 L 166.06,702.40 Z M 285.82,731.40 L 282.82,731.40 L 282.82,734.40 L 285.82,734.40 Z M 50.50,731.40 L 47.50,731.40 L 47.50,734.40 L 50.50,734.40 Z M 166.06,731.40 L 163.06,731.40 L 163.06,734.40 L 166.06,734.40 Z M 59.54,755.18 L 51.50,755.18 L 51.50,764.18 L 59.54,764.18 Z M 67.78,755.18 L 59.74,755.18 L 59.74,764.18 L 67.78,764.18 Z M 115.66,755.18 L 111.02,755.18 L 111.02,764.18 L 115.66,764.18 Z M 89.30,755.18 L 81.26,755.18 L 81.26,764.18 L 89.30,764.18 Z M 97.54,755.18 L 89.50,755.18 L 89.50,764.18 L 97.54,764.18 Z M 118.50,788.58 L 115.50,788.58 L 115.50,791.58 L 118.50,791.58 Z M 86.50,788.58 L 83.50,788.58 L 83.50,791.58 L 86.50,791.58 Z M 54.50,788.58 L 51.50,788.58 L 51.50,791.58 L 54.50,791.58 Z M 283.02,810.60 L 278.38,810.60 L 278.38,819.60 L 283.02,819.60 Z M 268.30,810.60 L 263.66,810.60 L 263.66,819.60 L 268.30,819.60 Z M 56.14,821.64 L 51.50,821.64 L 51.50,826.64 L 56.14,826.64 Z M 349.82,821.64 L 345.18,821.64 L 345.18,826.64 L 349.82,826.64 Z M 334.14,821.64 L 329.50,821.64 L 329.50,826.64 L 334.14,826.64 Z M 179.90,821.64 L 175.26,821.64 L 175.26,826.64 L 179.90,826.64 Z M 162.22,821.64 L 157.58,821.64 L 157.58,826.64 L 162.22,826.64 Z M 144.54,821.64 L 139.90,821.64 L 139.90,826.64 L 144.54,826.64 Z M 126.86,821.64 L 122.22,821.64 L 122.22,826.64 L 126.86,826.64 Z M 109.18,821.64 L 104.54,821.64 L 104.54,826.64 L 109.18,826.64 Z M 91.50,821.64 L 86.86,821.64 L 86.86,826.64 L 91.50,826.64 Z M 73.82,821.64 L 69.18,821.64 L 69.18,826.64 L 73.82,826.64 Z M 215.26,821.64 L 210.62,821.64 L 210.62,826.64 L 215.26,826.64 Z M 232.94,821.64 L 228.30,821.64 L 228.30,826.64 L 232.94,826.64 Z M 250.62,821.64 L 245.98,821.64 L 245.98,826.64 L 250.62,826.64 Z M 302.78,821.64 L 298.14,821.64 L 298.14,826.64 L 302.78,826.64 Z M 318.46,821.64 L 313.82,821.64 L 313.82,826.64 L 318.46,826.64 Z M 197.58,821.64 L 192.94,821.64 L 192.94,826.64 L 197.58,826.64 Z M 291.70,831.64 L 288.70,831.64 L 288.70,834.64 L 291.70,834.64 Z M 354.42,838.68 L 351.42,838.68 L 351.42,841.68 L 354.42,841.68 Z M 166.82,838.68 L 163.82,838.68 L 163.82,841.68 L 166.82,841.68 Z M 219.06,838.68 L 216.06,838.68 L 216.06,841.68 L 219.06,841.68 Z M 183.70,838.68 L 180.70,838.68 L 180.70,841.68 L 183.70,841.68 Z M 149.14,838.68 L 146.14,838.68 L 146.14,841.68 L 149.14,841.68 Z M 131.46,838.68 L 128.46,838.68 L 128.46,841.68 L 131.46,841.68 Z M 96.10,838.68 L 93.10,838.68 L 93.10,841.68 L 96.10,841.68 Z M 60.74,838.68 L 57.74,838.68 L 57.74,841.68 L 60.74,841.68 Z M 112.98,838.68 L 109.98,838.68 L 109.98,841.68 L 112.98,841.68 Z M 77.62,838.68 L 74.62,838.68 L 74.62,841.68 L 77.62,841.68 Z M 202.18,838.68 L 199.18,838.68 L 199.18,841.68 L 202.18,841.68 Z M 237.54,838.68 L 234.54,838.68 L 234.54,841.68 L 237.54,841.68 Z M 255.22,838.68 L 252.22,838.68 L 252.22,841.68 L 255.22,841.68 Z M 291.70,838.68 L 288.70,838.68 L 288.70,841.68 L 291.70,841.68 Z M 307.38,838.68 L 304.38,838.68 L 304.38,841.68 L 307.38,841.68 Z M 323.06,838.68 L 320.06,838.68 L 320.06,841.68 L 323.06,841.68 Z M 338.74,838.68 L 335.74,838.68 L 335.74,841.68 L 338.74,841.68 Z M 86.50,843.48 L 83.50,843.48 L 83.50,846.48 L 86.50,846.48 Z M 54.50,843.48 L 51.50,843.48 L 51.50,846.48 L 54.50,846.48 Z M 310.50,843.48 L 307.50,843.48 L 307.50,846.48 L 310.50,846.48 Z M 278.50,843.48 L 275.50,843.48 L 275.50,846.48 L 278.50,846.48 Z M 246.50,843.48 L 243.50,843.48 L 243.50,846.48 L 246.50,846.48 Z M 214.50,843.48 L 211.50,843.48 L 211.50,846.48 L 214.50,846.48 Z M 182.50,843.48 L 179.50,843.48 L 179.50,846.48 L 182.50,846.48 Z M 150.50,843.48 L 147.50,843.48 L 147.50,846.48 L 150.50,846.48 Z M 118.50,843.48 L 115.50,843.48 L 115.50,846.48 L 118.50,846.48 Z M 342.50,843.48 L 339.50,843.48 L 339.50,846.48 L 342.50,846.48 Z M 268.30,865.50 L 263.66,865.50 L 263.66,874.50 L 268.30,874.50 Z M 109.18,871.50 L 104.54,871.50 L 104.54,876.50 L 109.18,876.50 Z M 126.86,871.50 L 122.22,871.50 L 122.22,876.50 L 126.86,876.50 Z M 91.50,871.50 L 86.86,871.50 L 86.86,876.50 L 91.50,876.50 Z M 144.54,871.50 L 139.90,871.50 L 139.90,876.50 L 144.54,876.50 Z M 73.82,871.50 L 69.18,871.50 L 69.18,876.50 L 73.82,876.50 Z M 56.14,871.50 L 51.50,871.50 L 51.50,876.50 L 56.14,876.50 Z M 162.22,871.50 L 157.58,871.50 L 157.58,876.50 L 162.22,876.50 Z M 179.90,871.50 L 175.26,871.50 L 175.26,876.50 L 179.90,876.50 Z M 197.58,871.50 L 192.94,871.50 L 192.94,876.50 L 197.58,876.50 Z M 215.26,871.50 L 210.62,871.50 L 210.62,876.50 L 215.26,876.50 Z M 232.94,871.50 L 228.30,871.50 L 228.30,876.50 L 232.94,876.50 Z M 250.62,871.50 L 245.98,871.50 L 245.98,876.50 L 250.62,876.50 Z M 60.74,888.54 L 57.74,888.54 L 57.74,891.54 L 60.74,891.54 Z M 112.98,888.54 L 109.98,888.54 L 109.98,891.54 L 112.98,891.54 Z M 96.10,888.54 L 93.10,888.54 L 93.10,891.54 L 96.10,891.54 Z M 255.22,888.54 L 252.22,888.54 L 252.22,891.54 L 255.22,891.54 Z M 77.62,888.54 L 74.62,888.54 L 74.62,891.54 L 77.62,891.54 Z M 131.46,888.54 L 128.46,888.54 L 128.46,891.54 L 131.46,891.54 Z M 149.14,888.54 L 146.14,888.54 L 146.14,891.54 L 149.14,891.54 Z M 183.70,888.54 L 180.70,888.54 L 180.70,891.54 L 183.70,891.54 Z M 219.06,888.54 L 216.06,888.54 L 216.06,891.54 L 219.06,891.54 Z M 166.82,888.54 L 163.82,888.54 L 163.82,891.54 L 166.82,891.54 Z M 202.18,888.54 L 199.18,888.54 L 199.18,891.54 L 202.18,891.54 Z M 237.54,888.54 L 234.54,888.54 L 234.54,891.54 L 237.54,891.54 Z M 272.90,888.54 L 269.90,888.54 L 269.90,891.54 L 272.90,891.54 Z M 246.50,893.34 L 243.50,893.34 L 243.50,896.34 L 246.50,896.34 Z M 214.50,893.34 L 211.50,893.34 L 211.50,896.34 L 214.50,896.34 Z M 182.50,893.34 L 179.50,893.34 L 179.50,896.34 L 182.50,896.34 Z M 150.50,893.34 L 147.50,893.34 L 147.50,896.34 L 150.50,896.34 Z M 118.50,893.34 L 115.50,893.34 L 115.50,896.34 L 118.50,896.34 Z M 86.50,893.34 L 83.50,893.34 L 83.50,896.34 L 86.50,896.34 Z M 54.50,893.34 L 51.50,893.34 L 51.50,896.34 L 54.50,896.34 Z" fill="#FF69B4" fill-opacity="0.15" stroke="#cc5490" stroke-width="0.5"/>
    <text x="10" y="938" font-family="sans-serif" font-size="11" fill="#aaaaaa">psdm (94,20) - 144 polygons</text>
</g>
</svg>
