<?xml version="1.0" encoding="UTF-8"?>
<svg xmlns="http://www.w3.org/2000/svg" width="684.0" height="968.0" viewBox="0 0 684.0 968.0">
<rect width="100%" height="100%" fill="#1a1a2e"/>
<text x="342.0" y="18" font-family="sans-serif" font-size="14" fill="#eee" text-anchor="middle" font-weight="bold">tt_um_pll_sky130 - diff (65,20)</text>
<g transform="translate(0, 25)">
    <path d="M 20.00,923.04 L 664.00,923.04 L 664.00,20.00 L 20.00,20.00 Z" fill="none" stroke="#555555" stroke-width="1" stroke-dasharray="4,2"/>
    <path d="M 106.56,464.64 L 101.52,464.64 L 101.52,472.64 L 106.56,472.64 Z M 138.56,464.64 L 133.52,464.64 L 133.52,472.64 L 138.56,472.64 Z M 132.32,464.64 L 127.28,464.64 L 127.28,472.64 L 132.32,472.64 Z M 158.08,464.64 L 153.04,464.64 L 153.04,472.64 L 158.08,472.64 Z M 87.04,464.64 L 82.00,464.64 L 82.00,472.64 L 87.04,472.64 Z M 164.32,464.64 L 159.28,464.64 L 159.28,472.64 L 164.32,472.64 Z M 190.08,464.64 L 185.04,464.64 L 185.04,472.64 L 190.08,472.64 Z M 112.80,464.64 L 107.76,464.64 L 107.76,472.64 L 112.80,472.64 Z M 80.80,464.64 L 75.76,464.64 L 75.76,472.64 L 80.80,472.64 Z M 183.84,464.64 L 178.80,464.64 L 178.80,472.64 L 183.84,472.64 Z M 158.68,480.08 L 155.04,480.08 L 155.04,488.08 L 158.68,488.08 Z M 81.40,480.08 L 77.76,480.08 L 77.76,488.08 L 81.40,488.08 Z M 184.44,480.08 L 180.80,480.08 L 180.80,488.08 L 184.44,488.08 Z M 107.16,480.08 L 103.52,480.08 L 103.52,488.08 L 107.16,488.08 Z M 63.28,480.08 L 58.24,480.08 L 58.24,488.08 L 63.28,488.08 Z M 57.04,480.08 L 52.00,480.08 L 52.00,488.08 L 57.04,488.08 Z M 132.92,480.08 L 129.28,480.08 L 129.28,488.08 L 132.92,488.08 Z M 216.20,485.64 L 212.56,485.64 L 212.56,493.64 L 216.20,493.64 Z M 231.88,485.64 L 228.24,485.64 L 228.24,493.64 L 231.88,493.64 Z M 132.92,494.08 L 129.28,494.08 L 129.28,498.08 L 132.92,498.08 Z M 184.44,494.08 L 180.80,494.08 L 180.80,498.08 L 184.44,498.08 Z M 107.16,494.08 L 103.52,494.08 L 103.52,498.08 L 107.16,498.08 Z M 158.68,494.08 L 155.04,494.08 L 155.04,498.08 L 158.68,498.08 Z M 81.40,494.08 L 77.76,494.08 L 77.76,498.08 L 81.40,498.08 Z M 183.84,502.68 L 178.80,502.68 L 178.80,510.68 L 183.84,510.68 Z M 132.32,502.68 L 127.28,502.68 L 127.28,510.68 L 132.32,510.68 Z M 106.56,502.68 L 101.52,502.68 L 101.52,510.68 L 106.56,510.68 Z M 57.04,502.68 L 52.00,502.68 L 52.00,510.68 L 57.04,510.68 Z M 158.08,502.68 L 153.04,502.68 L 153.04,510.68 L 158.08,510.68 Z M 80.80,502.68 L 75.76,502.68 L 75.76,510.68 L 80.80,510.68 Z M 231.88,506.68 L 228.24,506.68 L 228.24,510.68 L 231.88,510.68 Z M 216.20,506.68 L 212.56,506.68 L 212.56,510.68 L 216.20,510.68 Z M 116.80,542.28 L 105.76,542.28 L 105.76,586.18 L 116.80,586.18 Z M 104.56,542.28 L 93.52,542.28 L 93.52,586.18 L 104.56,586.18 Z M 87.52,542.28 L 76.48,542.28 L 76.48,586.18 L 87.52,586.18 Z M 129.04,542.28 L 118.00,542.28 L 118.00,586.18 L 129.04,586.18 Z M 75.28,542.28 L 64.24,542.28 L 64.24,586.18 L 75.28,586.18 Z M 63.04,542.28 L 52.00,542.28 L 52.00,586.18 L 63.04,586.18 Z M 275.92,597.06 L 264.88,597.06 L 264.88,735.90 L 275.92,735.90 Z M 263.68,597.06 L 252.64,597.06 L 252.64,735.90 L 263.68,735.90 Z M 251.44,597.06 L 240.40,597.06 L 240.40,735.90 L 251.44,735.90 Z M 239.20,597.06 L 228.16,597.06 L 228.16,735.90 L 239.20,735.90 Z M 226.96,597.06 L 215.92,597.06 L 215.92,735.90 L 226.96,735.90 Z M 214.72,597.06 L 203.68,597.06 L 203.68,735.90 L 214.72,735.90 Z M 202.48,597.06 L 191.44,597.06 L 191.44,735.90 L 202.48,735.90 Z M 190.24,597.06 L 179.20,597.06 L 179.20,735.90 L 190.24,735.90 Z M 178.00,597.06 L 166.96,597.06 L 166.96,735.90 L 178.00,735.90 Z M 160.96,597.06 L 149.92,597.06 L 149.92,735.90 L 160.96,735.90 Z M 148.72,597.06 L 137.68,597.06 L 137.68,735.90 L 148.72,735.90 Z M 136.48,597.06 L 125.44,597.06 L 125.44,735.90 L 136.48,735.90 Z M 124.24,597.06 L 113.20,597.06 L 113.20,735.90 L 124.24,735.90 Z M 112.00,597.06 L 100.96,597.06 L 100.96,735.90 L 112.00,735.90 Z M 99.76,597.06 L 88.72,597.06 L 88.72,735.90 L 99.76,735.90 Z M 87.52,597.06 L 76.48,597.06 L 76.48,735.90 L 87.52,735.90 Z M 75.28,597.06 L 64.24,597.06 L 64.24,735.90 L 75.28,735.90 Z M 63.04,597.06 L 52.00,597.06 L 52.00,735.90 L 63.04,735.90 Z M 67.28,755.68 L 60.24,755.68 L 60.24,763.68 L 67.28,763.68 Z M 88.80,755.68 L 81.76,755.68 L 81.76,763.68 L 88.80,763.68 Z M 97.04,755.68 L 90.00,755.68 L 90.00,763.68 L 97.04,763.68 Z M 115.16,755.68 L 111.52,755.68 L 111.52,763.68 L 115.16,763.68 Z M 59.04,755.68 L 52.00,755.68 L 52.00,763.68 L 59.04,763.68 Z M 59.04,778.28 L 52.00,778.28 L 52.00,786.28 L 59.04,786.28 Z M 73.08,778.28 L 66.04,778.28 L 66.04,786.28 L 73.08,786.28 Z M 83.72,782.28 L 80.08,782.28 L 80.08,786.28 L 83.72,786.28 Z M 282.52,811.10 L 278.88,811.10 L 278.88,819.10 L 282.52,819.10 Z M 267.80,811.10 L 264.16,811.10 L 264.16,819.10 L 267.80,819.10 Z M 333.64,822.14 L 330.00,822.14 L 330.00,826.14 L 333.64,826.14 Z M 214.76,822.14 L 211.12,822.14 L 211.12,826.14 L 214.76,826.14 Z M 232.44,822.14 L 228.80,822.14 L 228.80,826.14 L 232.44,826.14 Z M 250.12,822.14 L 246.48,822.14 L 246.48,826.14 L 250.12,826.14 Z M 302.28,822.14 L 298.64,822.14 L 298.64,826.14 L 302.28,826.14 Z M 317.96,822.14 L 314.32,822.14 L 314.32,826.14 L 317.96,826.14 Z M 161.72,822.14 L 158.08,822.14 L 158.08,826.14 L 161.72,826.14 Z M 349.32,822.14 L 345.68,822.14 L 345.68,826.14 L 349.32,826.14 Z M 197.08,822.14 L 193.44,822.14 L 193.44,826.14 L 197.08,826.14 Z M 179.40,822.14 L 175.76,822.14 L 175.76,826.14 L 179.40,826.14 Z M 144.04,822.14 L 140.40,822.14 L 140.40,826.14 L 144.04,826.14 Z M 126.36,822.14 L 122.72,822.14 L 122.72,826.14 L 126.36,826.14 Z M 108.68,822.14 L 105.04,822.14 L 105.04,826.14 L 108.68,826.14 Z M 91.00,822.14 L 87.36,822.14 L 87.36,826.14 L 91.00,826.14 Z M 73.32,822.14 L 69.68,822.14 L 69.68,826.14 L 73.32,826.14 Z M 55.64,822.14 L 52.00,822.14 L 52.00,826.14 L 55.64,826.14 Z M 267.80,830.14 L 264.16,830.14 L 264.16,834.14 L 267.80,834.14 Z M 267.80,837.18 L 264.16,837.18 L 264.16,841.18 L 267.80,841.18 Z M 349.32,839.18 L 345.68,839.18 L 345.68,841.18 L 349.32,841.18 Z M 73.32,839.18 L 69.68,839.18 L 69.68,841.18 L 73.32,841.18 Z M 55.64,839.18 L 52.00,839.18 L 52.00,841.18 L 55.64,841.18 Z M 333.64,839.18 L 330.00,839.18 L 330.00,841.18 L 333.64,841.18 Z M 317.96,839.18 L 314.32,839.18 L 314.32,841.18 L 317.96,841.18 Z M 302.28,839.18 L 298.64,839.18 L 298.64,841.18 L 302.28,841.18 Z M 250.12,839.18 L 246.48,839.18 L 246.48,841.18 L 250.12,841.18 Z M 232.44,839.18 L 228.80,839.18 L 228.80,841.18 L 232.44,841.18 Z M 214.76,839.18 L 211.12,839.18 L 211.12,841.18 L 214.76,841.18 Z M 197.08,839.18 L 193.44,839.18 L 193.44,841.18 L 197.08,841.18 Z M 179.40,839.18 L 175.76,839.18 L 175.76,841.18 L 179.40,841.18 Z M 161.72,839.18 L 158.08,839.18 L 158.08,841.18 L 161.72,841.18 Z M 144.04,839.18 L 140.40,839.18 L 140.40,841.18 L 144.04,841.18 Z M 126.36,839.18 L 122.72,839.18 L 122.72,841.18 L 126.36,841.18 Z M 108.68,839.18 L 105.04,839.18 L 105.04,841.18 L 108.68,841.18 Z M 91.00,839.18 L 87.36,839.18 L 87.36,841.18 L 91.00,841.18 Z M 267.80,866.00 L 264.16,866.00 L 264.16,874.00 L 267.80,874.00 Z M 126.36,872.00 L 122.72,872.00 L 122.72,876.00 L 126.36,876.00 Z M 144.04,872.00 L 140.40,872.00 L 140.40,876.00 L 144.04,876.00 Z M 108.68,872.00 L 105.04,872.00 L 105.04,876.00 L 108.68,876.00 Z M 91.00,872.00 L 87.36,872.00 L 87.36,876.00 L 91.00,876.00 Z M 161.72,872.00 L 158.08,872.00 L 158.08,876.00 L 161.72,876.00 Z M 179.40,872.00 L 175.76,872.00 L 175.76,876.00 L 179.40,876.00 Z M 73.32,872.00 L 69.68,872.00 L 69.68,876.00 L 73.32,876.00 Z M 197.08,872.00 L 193.44,872.00 L 193.44,876.00 L 197.08,876.00 Z M 214.76,872.00 L 211.12,872.00 L 211.12,876.00 L 214.76,876.00 Z M 55.64,872.00 L 52.00,872.00 L 52.00,876.00 L 55.64,876.00 Z M 232.44,872.00 L 228.80,872.00 L 228.80,876.00 L 232.44,876.00 Z M 250.12,872.00 L 246.48,872.00 L 246.48,876.00 L 250.12,876.00 Z M 267.80,887.04 L 264.16,887.04 L 264.16,891.04 L 267.80,891.04 Z M 73.32,889.04 L 69.68,889.04 L 69.68,891.04 L 73.32,891.04 Z M 91.00,889.04 L 87.36,889.04 L 87.36,891.04 L 91.00,891.04 Z M 108.68,889.04 L 105.04,889.04 L 105.04,891.04 L 108.68,891.04 Z M 55.64,889.04 L 52.00,889.04 L 52.00,891.04 L 55.64,891.04 Z M 126.36,889.04 L 122.72,889.04 L 122.72,891.04 L 126.36,891.04 Z M 144.04,889.04 L 140.40,889.04 L 140.40,891.04 L 144.04,891.04 Z M 161.72,889.04 L 158.08,889.04 L 158.08,891.04 L 161.72,891.04 Z M 179.40,889.04 L 175.76,889.04 L 175.76,891.04 L 179.40,891.04 Z M 197.08,889.04 L 193.44,889.04 L 193.44,891.04 L 197.08,891.04 Z M 214.76,889.04 L 211.12,889.04 L 211.12,891.04 L 214.76,891.04 Z M 232.44,889.04 L 228.80,889.04 L 228.80,891.04 L 232.44,891.04 Z M 250.12,889.04 L 246.48,889.04 L 246.48,891.04 L 250.12,891.04 Z" fill="#228B22" fill-opacity="0.5" stroke="#1a6b1a" stroke-width="0.5"/>
    <text x="10" y="938" font-family="sans-serif" font-size="11" fill="#aaaaaa">diff (65,20) - 126 polygons</text>
</g>
</svg>
