<?xml version="1.0" encoding="UTF-8"?>
<svg xmlns="http://www.w3.org/2000/svg" width="684.0" height="968.0" viewBox="0 0 684.0 968.0">
<rect width="100%" height="100%" fill="#1a1a2e"/>
<text x="342.0" y="18" font-family="sans-serif" font-size="14" fill="#eee" text-anchor="middle" font-weight="bold">tt_um_pll_sky130 — via3 (70,44)</text>
<g transform="translate(0, 25)">
    <path d="M 20.00,923.04 L 664.00,923.04 L 664.00,20.00 L 20.00,20.00 Z" fill="none" stroke="#555555" stroke-width="1" stroke-dasharray="4,2"/>
    <path d="M 24.80,918.24 L 25.60,918.24 L 25.60,917.44 L 24.80,917.44 Z M 24.80,35.20 L 25.60,35.20 L 25.60,34.40 L 24.80,34.40 Z M 656.80,918.24 L 657.60,918.24 L 657.60,917.44 L 656.80,917.44 Z M 656.80,35.20 L 657.60,35.20 L 657.60,34.40 L 656.80,34.40 Z M 36.40,890.24 L 37.20,890.24 L 37.20,889.44 L 36.40,889.44 Z M 22.00,604.98 L 22.80,604.98 L 22.80,604.18 L 22.00,604.18 Z M 644.40,604.98 L 645.20,604.98 L 645.20,604.18 L 644.40,604.18 Z" fill="#FFFFFF" fill-opacity="0.8" stroke="#aaaaaa" stroke-width="0.5"/>
    <text x="10" y="938.04" font-family="sans-serif" font-size="11" fill="#aaaaaa">via3 (70,44) — 7 polygons</text>
</g>
</svg>
