<?xml version="1.0" encoding="UTF-8"?>
<svg xmlns="http://www.w3.org/2000/svg" width="684.0" height="968.0" viewBox="0 0 684.0 968.0">
<rect width="100%" height="100%" fill="#1a1a2e"/>
<text x="342.0" y="18" font-family="sans-serif" font-size="14" fill="#eee" text-anchor="middle" font-weight="bold">tt_um_pll_sky130 - npc (95,20)</text>
<g transform="translate(0, 25)">
    <path d="M 20.00,923.04 L 664.00,923.04 L 664.00,20.00 L 20.00,20.00 Z" fill="none" stroke="#555555" stroke-width="1" stroke-dasharray="4,2"/>
    <path d="M 111.68,462.76 L 108.88,462.76 L 108.88,463.84 L 111.68,463.84 Z M 105.44,462.76 L 102.64,462.76 L 102.64,463.84 L 105.44,463.84 Z M 131.20,462.76 L 128.40,462.76 L 128.40,463.84 L 131.20,463.84 Z M 79.68,462.76 L 76.88,462.76 L 76.88,463.84 L 79.68,463.84 Z M 85.92,462.76 L 83.12,462.76 L 83.12,463.84 L 85.92,463.84 Z M 188.96,462.76 L 186.16,462.76 L 186.16,463.84 L 188.96,463.84 Z M 182.72,462.76 L 179.92,462.76 L 179.92,463.84 L 182.72,463.84 Z M 137.44,462.76 L 134.64,462.76 L 134.64,463.84 L 137.44,463.84 Z M 163.20,462.76 L 160.40,462.76 L 160.40,463.84 L 163.20,463.84 Z M 156.96,462.76 L 154.16,462.76 L 154.16,463.84 L 156.96,463.84 Z M 55.92,478.20 L 53.12,478.20 L 53.12,479.28 L 55.92,479.28 Z M 62.16,478.20 L 59.36,478.20 L 59.36,479.28 L 62.16,479.28 Z M 131.20,500.80 L 128.40,500.80 L 128.40,501.88 L 131.20,501.88 Z M 156.96,500.80 L 154.16,500.80 L 154.16,501.88 L 156.96,501.88 Z M 182.72,500.80 L 179.92,500.80 L 179.92,501.88 L 182.72,501.88 Z M 105.44,500.80 L 102.64,500.80 L 102.64,501.88 L 105.44,501.88 Z M 79.68,500.80 L 76.88,500.80 L 76.88,501.88 L 79.68,501.88 Z M 55.92,500.80 L 53.12,500.80 L 53.12,501.88 L 55.92,501.88 Z M 53.80,522.84 L 51.60,522.84 L 51.60,523.92 L 53.80,523.92 Z M 53.80,530.16 L 51.60,530.16 L 51.60,531.24 L 53.80,531.24 Z M 61.92,540.40 L 53.12,540.40 L 53.12,541.48 L 61.92,541.48 Z M 74.16,540.40 L 65.36,540.40 L 65.36,541.48 L 74.16,541.48 Z M 86.40,540.40 L 77.60,540.40 L 77.60,541.48 L 86.40,541.48 Z M 103.44,540.40 L 94.64,540.40 L 94.64,541.48 L 103.44,541.48 Z M 115.68,540.40 L 106.88,540.40 L 106.88,541.48 L 115.68,541.48 Z M 127.92,540.40 L 119.12,540.40 L 119.12,541.48 L 127.92,541.48 Z M 135.36,595.18 L 126.56,595.18 L 126.56,596.26 L 135.36,596.26 Z M 61.92,595.18 L 53.12,595.18 L 53.12,596.26 L 61.92,596.26 Z M 74.16,595.18 L 65.36,595.18 L 65.36,596.26 L 74.16,596.26 Z M 98.64,595.18 L 89.84,595.18 L 89.84,596.26 L 98.64,596.26 Z M 274.80,595.18 L 266.00,595.18 L 266.00,596.26 L 274.80,596.26 Z M 262.56,595.18 L 253.76,595.18 L 253.76,596.26 L 262.56,596.26 Z M 250.32,595.18 L 241.52,595.18 L 241.52,596.26 L 250.32,596.26 Z M 238.08,595.18 L 229.28,595.18 L 229.28,596.26 L 238.08,596.26 Z M 225.84,595.18 L 217.04,595.18 L 217.04,596.26 L 225.84,596.26 Z M 213.60,595.18 L 204.80,595.18 L 204.80,596.26 L 213.60,596.26 Z M 201.36,595.18 L 192.56,595.18 L 192.56,596.26 L 201.36,596.26 Z M 189.12,595.18 L 180.32,595.18 L 180.32,596.26 L 189.12,596.26 Z M 176.88,595.18 L 168.08,595.18 L 168.08,596.26 L 176.88,596.26 Z M 159.84,595.18 L 151.04,595.18 L 151.04,596.26 L 159.84,596.26 Z M 147.60,595.18 L 138.80,595.18 L 138.80,596.26 L 147.60,596.26 Z M 123.12,595.18 L 114.32,595.18 L 114.32,596.26 L 123.12,596.26 Z M 110.88,595.18 L 102.08,595.18 L 102.08,596.26 L 110.88,596.26 Z M 86.40,595.18 L 77.60,595.18 L 77.60,596.26 L 86.40,596.26 Z M 57.92,753.80 L 53.12,753.80 L 53.12,754.88 L 57.92,754.88 Z M 66.16,753.80 L 61.36,753.80 L 61.36,754.88 L 66.16,754.88 Z M 87.68,753.80 L 82.88,753.80 L 82.88,754.88 L 87.68,754.88 Z M 95.92,753.80 L 91.12,753.80 L 91.12,754.88 L 95.92,754.88 Z M 71.96,776.40 L 67.16,776.40 L 67.16,777.48 L 71.96,777.48 Z M 57.92,776.40 L 53.12,776.40 L 53.12,777.48 L 57.92,777.48 Z" fill="#9400D3" fill-opacity="0.2" stroke="#7500a8" stroke-width="0.5"/>
    <text x="10" y="938" font-family="sans-serif" font-size="11" fill="#aaaaaa">npc (95,20) - 50 polygons</text>
</g>
</svg>
