<?xml version="1.0" encoding="UTF-8"?>
<svg xmlns="http://www.w3.org/2000/svg" width="684.0" height="968.0" viewBox="0 0 684.0 968.0">
<rect width="100%" height="100%" fill="#1a1a2e"/>
<text x="342.0" y="18" font-family="sans-serif" font-size="14" fill="#eee" text-anchor="middle" font-weight="bold">tt_um_pll_sky130 - via (68,44)</text>
<g transform="translate(0, 25)">
    <path d="M 20.00,923.04 L 664.00,923.04 L 664.00,20.00 L 20.00,20.00 Z" fill="none" stroke="#555555" stroke-width="1" stroke-dasharray="4,2"/>
    <path d="M 27.70,883.34 L 28.30,883.34 L 28.30,882.74 L 27.70,882.74 Z M 41.70,883.34 L 42.30,883.34 L 42.30,882.74 L 41.70,882.74 Z M 27.70,723.34 L 28.30,723.34 L 28.30,722.74 L 27.70,722.74 Z M 41.70,723.34 L 42.30,723.34 L 42.30,722.74 L 41.70,722.74 Z M 27.70,523.34 L 28.30,523.34 L 28.30,522.74 L 27.70,522.74 Z M 41.70,523.34 L 42.30,523.34 L 42.30,522.74 L 41.70,522.74 Z M 27.70,323.34 L 28.30,323.34 L 28.30,322.74 L 27.70,322.74 Z M 41.70,323.34 L 42.30,323.34 L 42.30,322.74 L 41.70,322.74 Z M 27.70,123.34 L 28.30,123.34 L 28.30,122.74 L 27.70,122.74 Z M 41.70,123.34 L 42.30,123.34 L 42.30,122.74 L 41.70,122.74 Z M 27.70,837.80 L 28.30,837.80 L 28.30,837.20 L 27.70,837.20 Z M 51.00,837.80 L 51.60,837.80 L 51.60,837.20 L 51.00,837.20 Z M 41.70,892.54 L 42.30,892.54 L 42.30,891.94 L 41.70,891.94 Z M 51.00,892.54 L 51.60,892.54 L 51.60,891.94 L 51.00,891.94 Z M 27.70,777.46 L 28.30,777.46 L 28.30,776.86 L 27.70,776.86 Z M 51.00,777.46 L 51.60,777.46 L 51.60,776.86 L 51.00,776.86 Z M 41.70,834.40 L 42.30,834.40 L 42.30,833.80 L 41.70,833.80 Z M 51.00,834.40 L 51.60,834.40 L 51.60,833.80 L 51.00,833.80 Z M 27.70,726.44 L 28.30,726.44 L 28.30,725.84 L 27.70,725.84 Z M 51.00,726.44 L 51.60,726.44 L 51.60,725.84 L 51.00,725.84 Z M 41.70,774.06 L 42.30,774.06 L 42.30,773.46 L 41.70,773.46 Z M 51.00,774.06 L 51.60,774.06 L 51.60,773.46 L 51.00,773.46 Z M 27.70,501.22 L 28.30,501.22 L 28.30,500.62 L 27.70,500.62 Z M 51.00,501.22 L 51.60,501.22 L 51.60,500.62 L 51.00,500.62 Z M 41.70,723.04 L 42.30,723.04 L 42.30,722.44 L 41.70,722.44 Z M 51.00,723.04 L 51.60,723.04 L 51.60,722.44 L 51.00,722.44 Z M 27.70,445.66 L 28.30,445.66 L 28.30,445.06 L 27.70,445.06 Z M 51.00,445.66 L 51.60,445.66 L 51.60,445.06 L 51.00,445.06 Z M 41.70,497.82 L 42.30,497.82 L 42.30,497.22 L 41.70,497.22 Z M 51.00,497.82 L 51.60,497.82 L 51.60,497.22 L 51.00,497.22 Z M 628.74,484.16 L 629.34,484.16 L 629.34,483.56 L 628.74,483.56 Z M 186.42,484.16 L 187.02,484.16 L 187.02,483.56 L 186.42,483.56 Z M 551.46,487.36 L 552.06,487.36 L 552.06,486.76 L 551.46,486.76 Z M 186.42,487.36 L 187.02,487.36 L 187.02,486.76 L 186.42,486.76 Z M 179.70,500.62 L 180.30,500.62 L 180.30,500.02 L 179.70,500.02 Z M 179.70,472.84 L 180.30,472.84 L 180.30,472.24 L 179.70,472.24 Z M 171.70,751.36 L 172.30,751.36 L 172.30,750.76 L 171.70,750.76 Z M 171.70,500.62 L 172.30,500.62 L 172.30,500.02 L 171.70,500.02 Z M 179.70,751.36 L 180.30,751.36 L 180.30,750.76 L 179.70,750.76 Z M 107.70,807.02 L 108.30,807.02 L 108.30,806.42 L 107.70,806.42 Z M 107.70,751.36 L 108.30,751.36 L 108.30,750.76 L 107.70,750.76 Z M 115.70,807.02 L 116.30,807.02 L 116.30,806.42 L 115.70,806.42 Z M 115.70,751.36 L 116.30,751.36 L 116.30,750.76 L 115.70,750.76 Z M 139.70,866.26 L 140.30,866.26 L 140.30,865.66 L 139.70,865.66 Z M 139.70,807.02 L 140.30,807.02 L 140.30,806.42 L 139.70,806.42 Z M 80.34,480.16 L 80.94,480.16 L 80.94,479.56 L 80.34,479.56 Z M 96.96,480.16 L 97.56,480.16 L 97.56,479.56 L 96.96,479.56 Z M 98.02,480.16 L 98.62,480.16 L 98.62,479.56 L 98.02,479.56 Z M 114.64,480.16 L 115.24,480.16 L 115.24,479.56 L 114.64,479.56 Z M 115.70,480.16 L 116.30,480.16 L 116.30,479.56 L 115.70,479.56 Z M 132.32,480.16 L 132.92,480.16 L 132.92,479.56 L 132.32,479.56 Z M 133.38,480.16 L 133.98,480.16 L 133.98,479.56 L 133.38,479.56 Z M 150.00,480.16 L 150.60,480.16 L 150.60,479.56 L 150.00,479.56 Z M 151.06,492.16 L 151.66,492.16 L 151.66,491.56 L 151.06,491.56 Z M 79.28,492.16 L 79.88,492.16 L 79.88,491.56 L 79.28,491.56 Z M 151.06,480.16 L 151.66,480.16 L 151.66,479.56 L 151.06,479.56 Z M 167.68,480.16 L 168.28,480.16 L 168.28,479.56 L 167.68,479.56 Z M 168.74,480.16 L 169.34,480.16 L 169.34,479.56 L 168.74,479.56 Z M 185.36,480.16 L 185.96,480.16 L 185.96,479.56 L 185.36,479.56 Z M 125.46,456.26 L 126.06,456.26 L 126.06,455.66 L 125.46,455.66 Z M 90.82,572.12 L 91.42,572.12 L 91.42,571.52 L 90.82,571.52 Z M 87.46,736.14 L 88.06,736.14 L 88.06,735.54 L 87.46,735.54 Z M 205.02,793.56 L 205.62,793.56 L 205.62,792.96 L 205.02,792.96 Z M 164.26,853.90 L 164.86,853.90 L 164.86,853.30 L 164.26,853.30 Z" fill="#FFFFFF" fill-opacity="0.8" stroke="#aaaaaa" stroke-width="0.5"/>
    <text x="10" y="938" font-family="sans-serif" font-size="11" fill="#aaaaaa">via (68,44) - 64 polygons</text>
</g>
</svg>
