<?xml version="1.0" encoding="UTF-8"?>
<svg xmlns="http://www.w3.org/2000/svg" width="684.0" height="968.0" viewBox="0 0 684.0 968.0">
<rect width="100%" height="100%" fill="#1a1a2e"/>
<text x="342.0" y="18" font-family="sans-serif" font-size="14" fill="#eee" text-anchor="middle" font-weight="bold">tt_um_pll_sky130 - met2 (69,20)</text>
<g transform="translate(0, 25)">
    <path d="M 20.00,923.04 L 664.00,923.04 L 664.00,20.00 L 20.00,20.00 Z" fill="none" stroke="#555555" stroke-width="1" stroke-dasharray="4,2"/>
    <path d="M 42.84,122.20 L 41.16,122.20 L 41.16,123.88 L 42.84,123.88 Z M 28.84,122.20 L 27.16,122.20 L 27.16,123.88 L 28.84,123.88 Z M 42.84,322.20 L 41.16,322.20 L 41.16,323.88 L 42.84,323.88 Z M 28.84,322.20 L 27.16,322.20 L 27.16,323.88 L 28.84,323.88 Z M 52.14,444.52 L 50.46,444.52 L 50.46,446.20 L 52.14,446.20 Z M 28.84,444.52 L 27.16,444.52 L 27.16,446.20 L 28.84,446.20 Z M 186.50,480.70 L 186.50,479.02 L 180.84,479.02 L 180.84,471.70 L 179.16,471.70 L 179.16,479.02 L 79.80,479.02 L 79.80,480.70 L 179.16,480.70 L 179.16,501.16 L 180.84,501.16 L 180.84,480.70 Z M 629.88,483.02 L 628.20,483.02 L 628.20,484.70 L 629.88,484.70 Z M 187.56,483.02 L 185.88,483.02 L 185.88,484.70 L 187.56,484.70 Z M 552.60,486.22 L 550.92,486.22 L 550.92,487.90 L 552.60,487.90 Z M 187.56,486.22 L 185.88,486.22 L 185.88,487.90 L 187.56,487.90 Z M 73.76,492.70 L 152.20,492.70 L 152.20,491.02 L 73.76,491.02 Z M 42.84,496.68 L 41.16,496.68 L 41.16,498.36 L 42.84,498.36 Z M 52.14,496.68 L 50.46,496.68 L 50.46,498.36 L 52.14,498.36 Z M 171.16,499.48 L 171.16,751.90 L 172.84,751.90 L 172.84,499.48 Z M 28.84,500.08 L 27.16,500.08 L 27.16,501.76 L 28.84,501.76 Z M 52.14,500.08 L 50.46,500.08 L 50.46,501.76 L 52.14,501.76 Z M 28.84,522.20 L 27.16,522.20 L 27.16,523.88 L 28.84,523.88 Z M 42.84,522.20 L 41.16,522.20 L 41.16,523.88 L 42.84,523.88 Z M 41.16,721.90 L 41.16,723.88 L 42.84,723.88 L 42.84,721.90 Z M 52.14,721.90 L 50.46,721.90 L 50.46,723.58 L 52.14,723.58 Z M 28.84,722.20 L 27.16,722.20 L 27.16,723.88 L 28.84,723.88 Z M 52.14,725.30 L 50.46,725.30 L 50.46,726.98 L 52.14,726.98 Z M 28.84,725.30 L 27.16,725.30 L 27.16,726.98 L 28.84,726.98 Z M 107.16,750.22 L 107.16,807.56 L 108.84,807.56 L 108.84,750.22 Z M 115.16,750.22 L 115.16,807.56 L 116.84,807.56 L 116.84,750.22 Z M 180.84,750.22 L 179.16,750.22 L 179.16,751.90 L 180.84,751.90 Z M 52.14,772.92 L 50.46,772.92 L 50.46,774.60 L 52.14,774.60 Z M 42.84,772.92 L 41.16,772.92 L 41.16,774.60 L 42.84,774.60 Z M 52.14,776.32 L 50.46,776.32 L 50.46,778.00 L 52.14,778.00 Z M 28.84,776.32 L 27.16,776.32 L 27.16,778.00 L 28.84,778.00 Z M 139.16,805.88 L 139.16,866.80 L 140.84,866.80 L 140.84,805.88 Z M 52.14,833.26 L 50.46,833.26 L 50.46,834.94 L 52.14,834.94 Z M 42.84,833.26 L 41.16,833.26 L 41.16,834.94 L 42.84,834.94 Z M 28.84,836.66 L 27.16,836.66 L 27.16,838.34 L 28.84,838.34 Z M 52.14,836.66 L 50.46,836.66 L 50.46,838.34 L 52.14,838.34 Z M 42.84,882.20 L 41.16,882.20 L 41.16,883.88 L 42.84,883.88 Z M 28.84,882.20 L 27.16,882.20 L 27.16,883.88 L 28.84,883.88 Z M 42.84,891.40 L 41.16,891.40 L 41.16,893.08 L 42.84,893.08 Z M 52.14,891.40 L 50.46,891.40 L 50.46,893.08 L 52.14,893.08 Z M 124.92,456.80 L 126.60,456.80 L 126.60,455.12 L 124.92,455.12 Z M 90.28,572.66 L 91.96,572.66 L 91.96,570.98 L 90.28,570.98 Z M 86.92,736.68 L 88.60,736.68 L 88.60,735.00 L 86.92,735.00 Z M 204.48,794.10 L 206.16,794.10 L 206.16,792.42 L 204.48,792.42 Z M 163.72,854.44 L 165.40,854.44 L 165.40,852.76 L 163.72,852.76 Z" fill="#FF8C00" fill-opacity="0.45" stroke="#cc7000" stroke-width="0.5"/>
    <text x="10" y="938" font-family="sans-serif" font-size="11" fill="#aaaaaa">met2 (69,20) - 45 polygons</text>
</g>
</svg>
