<?xml version="1.0" encoding="UTF-8"?>
<svg xmlns="http://www.w3.org/2000/svg" width="684.0" height="968.0" viewBox="0 0 684.0 968.0">
<rect width="100%" height="100%" fill="#1a1a2e"/>
<text x="342.0" y="18" font-family="sans-serif" font-size="14" fill="#eee" text-anchor="middle" font-weight="bold">tt_um_pll_sky130 - via (68,44)</text>
<g transform="translate(0, 25)">
    <path d="M 20.00,923.04 L 664.00,923.04 L 664.00,20.00 L 20.00,20.00 Z" fill="none" stroke="#555555" stroke-width="1" stroke-dasharray="4,2"/>
    <path d="M 27.70,883.34 L 28.30,883.34 L 28.30,882.74 L 27.70,882.74 Z M 41.70,883.34 L 42.30,883.34 L 42.30,882.74 L 41.70,882.74 Z M 27.70,723.34 L 28.30,723.34 L 28.30,722.74 L 27.70,722.74 Z M 41.70,723.34 L 42.30,723.34 L 42.30,722.74 L 41.70,722.74 Z M 27.70,523.34 L 28.30,523.34 L 28.30,522.74 L 27.70,522.74 Z M 41.70,523.34 L 42.30,523.34 L 42.30,522.74 L 41.70,522.74 Z M 27.70,323.34 L 28.30,323.34 L 28.30,322.74 L 27.70,322.74 Z M 41.70,323.34 L 42.30,323.34 L 42.30,322.74 L 41.70,322.74 Z M 27.70,123.34 L 28.30,123.34 L 28.30,122.74 L 27.70,122.74 Z M 41.70,123.34 L 42.30,123.34 L 42.30,122.74 L 41.70,122.74 Z M 628.74,484.16 L 629.34,484.16 L 629.34,483.56 L 628.74,483.56 Z M 551.46,484.16 L 552.06,484.16 L 552.06,483.56 L 551.46,483.56 Z M 80.34,480.16 L 80.94,480.16 L 80.94,479.56 L 80.34,479.56 Z M 96.96,480.16 L 97.56,480.16 L 97.56,479.56 L 96.96,479.56 Z M 98.02,480.16 L 98.62,480.16 L 98.62,479.56 L 98.02,479.56 Z M 114.64,480.16 L 115.24,480.16 L 115.24,479.56 L 114.64,479.56 Z M 115.70,480.16 L 116.30,480.16 L 116.30,479.56 L 115.70,479.56 Z M 132.32,480.16 L 132.92,480.16 L 132.92,479.56 L 132.32,479.56 Z M 133.38,480.16 L 133.98,480.16 L 133.98,479.56 L 133.38,479.56 Z M 150.00,480.16 L 150.60,480.16 L 150.60,479.56 L 150.00,479.56 Z M 151.06,492.16 L 151.66,492.16 L 151.66,491.56 L 151.06,491.56 Z M 79.28,492.16 L 79.88,492.16 L 79.88,491.56 L 79.28,491.56 Z M 151.06,480.16 L 151.66,480.16 L 151.66,479.56 L 151.06,479.56 Z M 167.68,480.16 L 168.28,480.16 L 168.28,479.56 L 167.68,479.56 Z M 168.74,480.16 L 169.34,480.16 L 169.34,479.56 L 168.74,479.56 Z M 185.36,480.16 L 185.96,480.16 L 185.96,479.56 L 185.36,479.56 Z" fill="#FFFFFF" fill-opacity="0.8" stroke="#aaaaaa" stroke-width="0.5"/>
    <text x="10" y="938" font-family="sans-serif" font-size="11" fill="#aaaaaa">via (68,44) - 26 polygons</text>
</g>
</svg>
