<?xml version="1.0" encoding="UTF-8"?>
<svg xmlns="http://www.w3.org/2000/svg" width="684.0" height="968.0"
     viewBox="0 0 684.0 968.0">
  <rect width="100%" height="100%" fill="#1a1a2e"/>
  <text x="342.0" y="18" font-family="sans-serif" font-size="16" fill="#222" text-anchor="middle" font-weight="bold">tt_um_hvt006_cs_amp — met1 (68,20)</text>
  <g transform="translate(0, 25)">
    <path d="M 20.00,923.04 L 664.00,923.04 L 664.00,20.00 L 20.00,20.00 Z" fill="none" stroke="#555555" stroke-width="1" stroke-dasharray="4,2"/>
    <path d="M 355.22,478.00 L 356.58,478.00 L 356.58,476.64 L 355.22,476.64 Z M 325.22,478.00 L 326.58,478.00 L 326.58,476.64 L 325.22,476.64 Z M 355.34,477.88 L 356.46,477.88 L 356.46,468.48 L 355.34,468.48 Z M 325.34,469.60 L 356.46,469.60 L 356.46,468.48 L 325.34,468.48 Z M 325.34,477.88 L 326.46,477.88 L 326.46,468.48 L 325.34,468.48 Z M 320.00,472.16 L 374.64,472.16 L 374.64,470.24 L 320.00,470.24 Z M 320.00,483.04 L 374.64,483.04 L 374.64,481.12 L 320.00,481.12 Z M 323.00,472.20 L 325.00,472.20 L 325.00,470.20 L 323.00,470.20 Z M 323.00,483.08 L 325.00,483.08 L 325.00,481.08 L 323.00,481.08 Z M 628.04,900.04 L 630.04,900.04 L 630.04,898.04 L 628.04,898.04 Z M 325.34,899.60 L 629.60,899.60 L 629.60,898.48 L 325.34,898.48 Z M 325.34,899.04 L 326.46,899.04 L 326.46,477.32 L 325.34,477.32 Z M 550.76,900.04 L 552.76,900.04 L 552.76,898.04 L 550.76,898.04 Z M 366.92,478.00 L 368.28,478.00 L 368.28,476.64 L 366.92,476.64 Z M 367.04,899.60 L 552.32,899.60 L 552.32,898.48 L 367.04,898.48 Z M 367.04,899.04 L 368.16,899.04 L 368.16,477.32 L 367.04,477.32 Z" fill="#4169E1" fill-opacity="0.5" stroke="#2a4a9e" stroke-width="0.5"/>
    <text x="10" y="938.04" font-family="sans-serif" font-size="11" fill="#aaaaaa">met1 (68,20) — 16 polygons</text>
  </g>
</svg>
