<svg xmlns="http://www.w3.org/2000/svg" width="483" height="677" viewBox="0 0 483 677">
<rect width="483" height="677" fill="#1a1a2e"/>
<rect x="5.28" y="577.68" width="241.86" height="1.44" fill="#6060ff" fill-opacity="0.50" stroke="#0000cc" stroke-opacity="0.70" stroke-width="0.50"/>
<rect x="15.78" y="585.84" width="231.36" height="1.44" fill="#6060ff" fill-opacity="0.50" stroke="#0000cc" stroke-opacity="0.70" stroke-width="0.50"/>
<rect x="242.52" y="566.58" width="0.84" height="16.41" fill="#6060ff" fill-opacity="0.50" stroke="#0000cc" stroke-opacity="0.70" stroke-width="0.50"/>
<rect x="234.26" y="568.98" width="1.05" height="1.05" fill="#6060ff" fill-opacity="0.50" stroke="#0000cc" stroke-opacity="0.70" stroke-width="0.50"/>
<rect x="234.36" y="566.16" width="9.00" height="0.84" fill="#6060ff" fill-opacity="0.50" stroke="#0000cc" stroke-opacity="0.70" stroke-width="0.50"/>
<rect x="5.47" y="577.88" width="1.05" height="1.05" fill="#6060ff" fill-opacity="0.50" stroke="#0000cc" stroke-opacity="0.70" stroke-width="0.50"/>
<rect x="15.98" y="586.03" width="1.05" height="1.05" fill="#6060ff" fill-opacity="0.50" stroke="#0000cc" stroke-opacity="0.70" stroke-width="0.50"/>
<rect x="234.26" y="582.47" width="1.05" height="1.05" fill="#6060ff" fill-opacity="0.50" stroke="#0000cc" stroke-opacity="0.70" stroke-width="0.50"/>
<rect x="242.42" y="566.06" width="1.05" height="1.05" fill="#6060ff" fill-opacity="0.50" stroke="#0000cc" stroke-opacity="0.70" stroke-width="0.50"/>
<rect x="231.57" y="585.84" width="1.38" height="1.44" fill="#6060ff" fill-opacity="0.50" stroke="#0000cc" stroke-opacity="0.70" stroke-width="0.50"/>
<rect x="231.57" y="577.68" width="1.38" height="1.44" fill="#6060ff" fill-opacity="0.50" stroke="#0000cc" stroke-opacity="0.70" stroke-width="0.50"/>
<rect x="234.09" y="577.68" width="9.66" height="1.44" fill="#6060ff" fill-opacity="0.50" stroke="#0000cc" stroke-opacity="0.70" stroke-width="0.50"/>
<rect x="234.09" y="585.84" width="9.66" height="1.44" fill="#6060ff" fill-opacity="0.50" stroke="#0000cc" stroke-opacity="0.70" stroke-width="0.50"/>
<rect x="234.09" y="577.68" width="9.66" height="1.44" fill="#6060ff" fill-opacity="0.50" stroke="#0000cc" stroke-opacity="0.70" stroke-width="0.50"/>
<rect x="234.09" y="585.84" width="9.66" height="1.44" fill="#6060ff" fill-opacity="0.50" stroke="#0000cc" stroke-opacity="0.70" stroke-width="0.50"/>
<rect x="244.89" y="585.84" width="1.38" height="1.44" fill="#6060ff" fill-opacity="0.50" stroke="#0000cc" stroke-opacity="0.70" stroke-width="0.50"/>
<rect x="244.89" y="577.68" width="1.38" height="1.44" fill="#6060ff" fill-opacity="0.50" stroke="#0000cc" stroke-opacity="0.70" stroke-width="0.50"/>
</svg>
