<?xml version="1.0" encoding="UTF-8"?>
<svg xmlns="http://www.w3.org/2000/svg" width="684.0" height="968.0"
     viewBox="0 0 684.0 968.0">
  <rect width="100%" height="100%" fill="#1a1a2e"/>
  <text x="342.0" y="18" font-family="sans-serif" font-size="16" fill="#222" text-anchor="middle" font-weight="bold">tt_um_hvt006_cs_amp — met4_pin (71,16)</text>
  <g transform="translate(0, 25)">
    <path d="M 20.00,923.04 L 664.00,923.04 L 664.00,20.00 L 20.00,20.00 Z" fill="none" stroke="#555555" stroke-width="1" stroke-dasharray="4,2"/>
    <path d="M 627.24,923.04 L 630.84,923.04 L 630.84,919.04 L 627.24,919.04 Z M 549.96,923.04 L 553.56,923.04 L 553.56,919.04 L 549.96,919.04 Z M 472.68,923.04 L 476.28,923.04 L 476.28,919.04 L 472.68,919.04 Z M 395.40,923.04 L 399.00,923.04 L 399.00,919.04 L 395.40,919.04 Z M 318.12,923.04 L 321.72,923.04 L 321.72,919.04 L 318.12,919.04 Z M 240.84,923.04 L 244.44,923.04 L 244.44,919.04 L 240.84,919.04 Z M 163.56,923.04 L 167.16,923.04 L 167.16,919.04 L 163.56,919.04 Z M 86.28,923.04 L 89.88,923.04 L 89.88,919.04 L 86.28,919.04 Z M 595.32,24.00 L 596.52,24.00 L 596.52,20.00 L 595.32,20.00 Z M 606.36,24.00 L 607.56,24.00 L 607.56,20.00 L 606.36,20.00 Z M 584.28,24.00 L 585.48,24.00 L 585.48,20.00 L 584.28,20.00 Z M 573.24,24.00 L 574.44,24.00 L 574.44,20.00 L 573.24,20.00 Z M 396.60,24.00 L 397.80,24.00 L 397.80,20.00 L 396.60,20.00 Z M 484.92,24.00 L 486.12,24.00 L 486.12,20.00 L 484.92,20.00 Z M 308.28,24.00 L 309.48,24.00 L 309.48,20.00 L 308.28,20.00 Z M 219.96,24.00 L 221.16,24.00 L 221.16,20.00 L 219.96,20.00 Z M 562.20,24.00 L 563.40,24.00 L 563.40,20.00 L 562.20,20.00 Z M 385.56,24.00 L 386.76,24.00 L 386.76,20.00 L 385.56,20.00 Z M 473.88,24.00 L 475.08,24.00 L 475.08,20.00 L 473.88,20.00 Z M 297.24,24.00 L 298.44,24.00 L 298.44,20.00 L 297.24,20.00 Z M 208.92,24.00 L 210.12,24.00 L 210.12,20.00 L 208.92,20.00 Z M 551.16,24.00 L 552.36,24.00 L 552.36,20.00 L 551.16,20.00 Z M 374.52,24.00 L 375.72,24.00 L 375.72,20.00 L 374.52,20.00 Z M 462.84,24.00 L 464.04,24.00 L 464.04,20.00 L 462.84,20.00 Z M 286.20,24.00 L 287.40,24.00 L 287.40,20.00 L 286.20,20.00 Z M 197.88,24.00 L 199.08,24.00 L 199.08,20.00 L 197.88,20.00 Z M 540.12,24.00 L 541.32,24.00 L 541.32,20.00 L 540.12,20.00 Z M 363.48,24.00 L 364.68,24.00 L 364.68,20.00 L 363.48,20.00 Z M 451.80,24.00 L 453.00,24.00 L 453.00,20.00 L 451.80,20.00 Z M 275.16,24.00 L 276.36,24.00 L 276.36,20.00 L 275.16,20.00 Z M 186.84,24.00 L 188.04,24.00 L 188.04,20.00 L 186.84,20.00 Z M 529.08,24.00 L 530.28,24.00 L 530.28,20.00 L 529.08,20.00 Z M 352.44,24.00 L 353.64,24.00 L 353.64,20.00 L 352.44,20.00 Z M 440.76,24.00 L 441.96,24.00 L 441.96,20.00 L 440.76,20.00 Z M 264.12,24.00 L 265.32,24.00 L 265.32,20.00 L 264.12,20.00 Z M 175.80,24.00 L 177.00,24.00 L 177.00,20.00 L 175.80,20.00 Z M 518.04,24.00 L 519.24,24.00 L 519.24,20.00 L 518.04,20.00 Z M 341.40,24.00 L 342.60,24.00 L 342.60,20.00 L 341.40,20.00 Z M 429.72,24.00 L 430.92,24.00 L 430.92,20.00 L 429.72,20.00 Z M 253.08,24.00 L 254.28,24.00 L 254.28,20.00 L 253.08,20.00 Z M 164.76,24.00 L 165.96,24.00 L 165.96,20.00 L 164.76,20.00 Z M 507.00,24.00 L 508.20,24.00 L 508.20,20.00 L 507.00,20.00 Z M 330.36,24.00 L 331.56,24.00 L 331.56,20.00 L 330.36,20.00 Z M 418.68,24.00 L 419.88,24.00 L 419.88,20.00 L 418.68,20.00 Z M 242.04,24.00 L 243.24,24.00 L 243.24,20.00 L 242.04,20.00 Z M 153.72,24.00 L 154.92,24.00 L 154.92,20.00 L 153.72,20.00 Z M 495.96,24.00 L 497.16,24.00 L 497.16,20.00 L 495.96,20.00 Z M 319.32,24.00 L 320.52,24.00 L 320.52,20.00 L 319.32,20.00 Z M 407.64,24.00 L 408.84,24.00 L 408.84,20.00 L 407.64,20.00 Z M 231.00,24.00 L 232.20,24.00 L 232.20,20.00 L 231.00,20.00 Z M 142.68,24.00 L 143.88,24.00 L 143.88,20.00 L 142.68,20.00 Z M 24.00,903.04 L 32.00,903.04 L 32.00,40.00 L 24.00,40.00 Z M 38.00,903.04 L 46.00,903.04 L 46.00,40.00 L 38.00,40.00 Z" fill="#FF6347" fill-opacity="0.4" stroke="#cc4f38" stroke-width="0.5"/>
    <text x="10" y="938.04" font-family="sans-serif" font-size="11" fill="#aaaaaa">met4_pin (71,16) — 53 polygons</text>
  </g>
</svg>
