<?xml version="1.0" encoding="UTF-8"?>
<svg xmlns="http://www.w3.org/2000/svg" width="684.0" height="968.0" viewBox="0 0 684.0 968.0">
<rect width="100%" height="100%" fill="#1a1a2e"/>
<text x="342.0" y="18" font-family="sans-serif" font-size="14" fill="#eee" text-anchor="middle" font-weight="bold">tt_um_pll_sky130 — npc (95,20)</text>
<g transform="translate(0, 25)">
    <path d="M 20.00,923.04 L 664.00,923.04 L 664.00,20.00 L 20.00,20.00 Z" fill="none" stroke="#555555" stroke-width="1" stroke-dasharray="4,2"/>
    <path d="M 32.64,828.72 L 37.44,828.72 L 37.44,827.64 L 32.64,827.64 Z M 39.40,828.72 L 44.20,828.72 L 44.20,827.64 L 39.40,827.64 Z M 56.64,828.72 L 61.44,828.72 L 61.44,827.64 L 56.64,827.64 Z M 63.40,828.72 L 68.20,828.72 L 68.20,827.64 L 63.40,827.64 Z M 32.64,860.72 L 37.44,860.72 L 37.44,859.64 L 32.64,859.64 Z M 56.64,860.72 L 61.44,860.72 L 61.44,859.64 L 56.64,859.64 Z M 175.04,750.12 L 183.44,750.12 L 183.44,749.04 L 175.04,749.04 Z M 184.76,750.12 L 193.16,750.12 L 193.16,749.04 L 184.76,749.04 Z M 194.48,750.12 L 202.88,750.12 L 202.88,749.04 L 194.48,749.04 Z M 204.20,750.12 L 212.60,750.12 L 212.60,749.04 L 204.20,749.04 Z M 213.92,750.12 L 222.32,750.12 L 222.32,749.04 L 213.92,749.04 Z M 223.64,750.12 L 232.04,750.12 L 232.04,749.04 L 223.64,749.04 Z M 233.36,750.12 L 241.76,750.12 L 241.76,749.04 L 233.36,749.04 Z M 243.08,750.12 L 251.48,750.12 L 251.48,749.04 L 243.08,749.04 Z M 252.80,750.12 L 261.20,750.12 L 261.20,749.04 L 252.80,749.04 Z M 262.52,750.12 L 270.92,750.12 L 270.92,749.04 L 262.52,749.04 Z M 272.24,750.12 L 280.64,750.12 L 280.64,749.04 L 272.24,749.04 Z M 281.96,750.12 L 290.36,750.12 L 290.36,749.04 L 281.96,749.04 Z M 291.68,750.12 L 300.08,750.12 L 300.08,749.04 L 291.68,749.04 Z M 301.40,750.12 L 309.80,750.12 L 309.80,749.04 L 301.40,749.04 Z M 311.12,750.12 L 319.52,750.12 L 319.52,749.04 L 311.12,749.04 Z M 320.84,750.12 L 329.24,750.12 L 329.24,749.04 L 320.84,749.04 Z M 175.04,676.51 L 183.44,676.51 L 183.44,675.43 L 175.04,675.43 Z M 184.76,676.51 L 193.16,676.51 L 193.16,675.43 L 184.76,675.43 Z M 194.48,676.51 L 202.88,676.51 L 202.88,675.43 L 194.48,675.43 Z M 204.20,676.51 L 212.60,676.51 L 212.60,675.43 L 204.20,675.43 Z M 213.92,676.51 L 222.32,676.51 L 222.32,675.43 L 213.92,675.43 Z M 174.00,657.79 L 175.26,657.79 L 175.26,656.53 L 174.00,656.53 Z M 174.00,654.39 L 175.26,654.39 L 175.26,653.13 L 174.00,653.13 Z M 32.64,604.87 L 35.44,604.87 L 35.44,603.79 L 32.64,603.79 Z M 37.40,604.87 L 40.20,604.87 L 40.20,603.79 L 37.40,603.79 Z M 32.64,628.87 L 35.44,628.87 L 35.44,627.79 L 32.64,627.79 Z M 46.64,584.87 L 49.44,584.87 L 49.44,583.79 L 46.64,583.79 Z M 51.40,584.87 L 54.20,584.87 L 54.20,583.79 L 51.40,583.79 Z M 46.64,628.87 L 49.44,628.87 L 49.44,627.79 L 46.64,627.79 Z M 62.64,584.87 L 65.44,584.87 L 65.44,583.79 L 62.64,583.79 Z M 67.40,584.87 L 70.20,584.87 L 70.20,583.79 L 67.40,583.79 Z M 62.64,628.87 L 65.44,628.87 L 65.44,627.79 L 62.64,627.79 Z M 78.64,584.87 L 81.44,584.87 L 81.44,583.79 L 78.64,583.79 Z M 83.40,584.87 L 86.20,584.87 L 86.20,583.79 L 83.40,583.79 Z M 78.64,628.87 L 81.44,628.87 L 81.44,627.79 L 78.64,627.79 Z M 94.64,584.87 L 97.44,584.87 L 97.44,583.79 L 94.64,583.79 Z M 99.40,584.87 L 102.20,584.87 L 102.20,583.79 L 99.40,583.79 Z M 94.64,628.87 L 97.44,628.87 L 97.44,627.79 L 94.64,627.79 Z M 110.64,584.87 L 113.44,584.87 L 113.44,583.79 L 110.64,583.79 Z M 115.40,584.87 L 118.20,584.87 L 118.20,583.79 L 115.40,583.79 Z M 110.64,628.87 L 113.44,628.87 L 113.44,627.79 L 110.64,627.79 Z" fill="#9400D3" fill-opacity="0.2" stroke="#7500a8" stroke-width="0.5"/>
    <text x="10" y="938.04" font-family="sans-serif" font-size="11" fill="#aaaaaa">npc (95,20) — 47 polygons</text>
</g>
</svg>
