<?xml version="1.0" encoding="UTF-8"?>
<svg xmlns="http://www.w3.org/2000/svg" width="684.0" height="968.0" viewBox="0 0 684.0 968.0">
<rect width="100%" height="100%" fill="#1a1a2e"/>
<text x="342.0" y="18" font-family="sans-serif" font-size="14" fill="#eee" text-anchor="middle" font-weight="bold">tt_um_pll_sky130 - poly (66,20)</text>
<g transform="translate(0, 25)">
    <path d="M 20.00,923.04 L 664.00,923.04 L 664.00,20.00 L 20.00,20.00 Z" fill="none" stroke="#555555" stroke-width="1" stroke-dasharray="4,2"/>
    <path d="M 53.52,888.52 L 54.12,888.52 L 54.12,874.64 L 53.52,874.64 Z M 53.52,891.56 L 54.12,891.56 L 54.12,888.52 L 53.52,888.52 Z M 53.28,888.72 L 54.36,888.72 L 54.36,886.64 L 53.28,886.64 Z M 53.52,874.64 L 54.12,874.64 L 54.12,869.60 L 53.52,869.60 Z M 53.28,869.80 L 54.36,869.80 L 54.36,867.72 L 53.28,867.72 Z M 71.20,891.56 L 71.80,891.56 L 71.80,888.52 L 71.20,888.52 Z M 70.96,888.72 L 72.04,888.72 L 72.04,886.64 L 70.96,886.64 Z M 71.20,874.64 L 71.80,874.64 L 71.80,869.60 L 71.20,869.60 Z M 70.96,869.80 L 72.04,869.80 L 72.04,867.72 L 70.96,867.72 Z M 88.88,888.52 L 89.48,888.52 L 89.48,874.64 L 88.88,874.64 Z M 88.88,891.56 L 89.48,891.56 L 89.48,888.52 L 88.88,888.52 Z M 88.64,888.72 L 89.72,888.72 L 89.72,886.64 L 88.64,886.64 Z M 88.88,874.64 L 89.48,874.64 L 89.48,869.60 L 88.88,869.60 Z M 88.64,869.80 L 89.72,869.80 L 89.72,867.72 L 88.64,867.72 Z M 106.56,891.56 L 107.16,891.56 L 107.16,888.52 L 106.56,888.52 Z M 106.32,888.72 L 107.40,888.72 L 107.40,886.64 L 106.32,886.64 Z M 106.56,874.64 L 107.16,874.64 L 107.16,869.60 L 106.56,869.60 Z M 106.32,869.80 L 107.40,869.80 L 107.40,867.72 L 106.32,867.72 Z M 124.24,888.52 L 124.84,888.52 L 124.84,874.64 L 124.24,874.64 Z M 124.24,891.56 L 124.84,891.56 L 124.84,888.52 L 124.24,888.52 Z M 124.00,888.72 L 125.08,888.72 L 125.08,886.64 L 124.00,886.64 Z M 124.24,874.64 L 124.84,874.64 L 124.84,869.60 L 124.24,869.60 Z M 124.00,869.80 L 125.08,869.80 L 125.08,867.72 L 124.00,867.72 Z M 141.92,888.52 L 142.52,888.52 L 142.52,874.64 L 141.92,874.64 Z M 141.92,891.56 L 142.52,891.56 L 142.52,888.52 L 141.92,888.52 Z M 141.68,888.72 L 142.76,888.72 L 142.76,886.64 L 141.68,886.64 Z M 141.92,874.64 L 142.52,874.64 L 142.52,869.60 L 141.92,869.60 Z M 141.68,869.80 L 142.76,869.80 L 142.76,867.72 L 141.68,867.72 Z M 159.60,888.52 L 160.20,888.52 L 160.20,874.64 L 159.60,874.64 Z M 159.60,891.56 L 160.20,891.56 L 160.20,888.52 L 159.60,888.52 Z M 159.36,888.72 L 160.44,888.72 L 160.44,886.64 L 159.36,886.64 Z M 159.60,874.64 L 160.20,874.64 L 160.20,869.60 L 159.60,869.60 Z M 159.36,869.80 L 160.44,869.80 L 160.44,867.72 L 159.36,867.72 Z M 177.28,891.56 L 177.88,891.56 L 177.88,888.52 L 177.28,888.52 Z M 177.04,888.72 L 178.12,888.72 L 178.12,886.64 L 177.04,886.64 Z M 177.28,874.64 L 177.88,874.64 L 177.88,869.60 L 177.28,869.60 Z M 177.04,869.80 L 178.12,869.80 L 178.12,867.72 L 177.04,867.72 Z M 194.96,888.52 L 195.56,888.52 L 195.56,874.64 L 194.96,874.64 Z M 194.96,891.56 L 195.56,891.56 L 195.56,888.52 L 194.96,888.52 Z M 194.72,888.72 L 195.80,888.72 L 195.80,886.64 L 194.72,886.64 Z M 194.96,874.64 L 195.56,874.64 L 195.56,869.60 L 194.96,869.60 Z M 194.72,869.80 L 195.80,869.80 L 195.80,867.72 L 194.72,867.72 Z M 212.64,891.56 L 213.24,891.56 L 213.24,888.52 L 212.64,888.52 Z M 212.40,888.72 L 213.48,888.72 L 213.48,886.64 L 212.40,886.64 Z M 212.64,874.64 L 213.24,874.64 L 213.24,869.60 L 212.64,869.60 Z M 212.40,869.80 L 213.48,869.80 L 213.48,867.72 L 212.40,867.72 Z M 230.32,888.52 L 230.92,888.52 L 230.92,874.64 L 230.32,874.64 Z M 230.32,891.56 L 230.92,891.56 L 230.92,888.52 L 230.32,888.52 Z M 230.08,888.72 L 231.16,888.72 L 231.16,886.64 L 230.08,886.64 Z M 230.32,874.64 L 230.92,874.64 L 230.92,869.60 L 230.32,869.60 Z M 230.08,869.80 L 231.16,869.80 L 231.16,867.72 L 230.08,867.72 Z M 248.00,888.52 L 248.60,888.52 L 248.60,874.64 L 248.00,874.64 Z M 248.00,891.56 L 248.60,891.56 L 248.60,888.52 L 248.00,888.52 Z M 247.76,888.72 L 248.84,888.72 L 248.84,886.64 L 247.76,886.64 Z M 248.00,874.64 L 248.60,874.64 L 248.60,869.60 L 248.00,869.60 Z M 247.76,869.80 L 248.84,869.80 L 248.84,867.72 L 247.76,867.72 Z M 265.68,886.52 L 266.28,886.52 L 266.28,872.64 L 265.68,872.64 Z M 265.68,891.56 L 266.28,891.56 L 266.28,886.52 L 265.68,886.52 Z M 265.44,886.72 L 266.52,886.72 L 266.52,884.64 L 265.44,884.64 Z M 265.68,872.64 L 266.28,872.64 L 266.28,863.60 L 265.68,863.60 Z M 265.44,863.80 L 266.52,863.80 L 266.52,861.72 L 265.44,861.72 Z M 53.52,470.82 L 55.52,470.82 L 55.52,461.78 L 53.52,461.78 Z M 53.52,461.98 L 55.52,461.98 L 55.52,459.90 L 53.52,459.90 Z M 59.76,470.82 L 61.76,470.82 L 61.76,461.78 L 59.76,461.78 Z M 59.76,461.98 L 61.76,461.98 L 61.76,459.90 L 59.76,459.90 Z M 53.52,496.84 L 55.52,496.84 L 55.52,487.80 L 53.52,487.80 Z M 53.52,488.00 L 55.52,488.00 L 55.52,485.92 L 53.52,485.92 Z M 79.28,491.80 L 79.88,491.80 L 79.88,477.92 L 79.28,477.92 Z M 79.28,496.84 L 79.88,496.84 L 79.88,491.80 L 79.28,491.80 Z M 79.04,492.00 L 80.12,492.00 L 80.12,489.92 L 79.04,489.92 Z M 79.28,477.92 L 79.88,477.92 L 79.88,468.88 L 79.28,468.88 Z M 79.04,469.08 L 80.12,469.08 L 80.12,467.00 L 79.04,467.00 Z M 96.96,491.80 L 97.56,491.80 L 97.56,477.92 L 96.96,477.92 Z M 96.96,496.84 L 97.56,496.84 L 97.56,491.80 L 96.96,491.80 Z M 96.72,492.00 L 97.80,492.00 L 97.80,489.92 L 96.72,489.92 Z M 96.96,477.92 L 97.56,477.92 L 97.56,468.88 L 96.96,468.88 Z M 96.72,469.08 L 97.80,469.08 L 97.80,467.00 L 96.72,467.00 Z M 114.64,491.80 L 115.24,491.80 L 115.24,477.92 L 114.64,477.92 Z M 114.64,496.84 L 115.24,496.84 L 115.24,491.80 L 114.64,491.80 Z M 114.40,492.00 L 115.48,492.00 L 115.48,489.92 L 114.40,489.92 Z M 114.64,477.92 L 115.24,477.92 L 115.24,468.88 L 114.64,468.88 Z M 114.40,469.08 L 115.48,469.08 L 115.48,467.00 L 114.40,467.00 Z M 132.32,491.80 L 132.92,491.80 L 132.92,477.92 L 132.32,477.92 Z M 132.32,496.84 L 132.92,496.84 L 132.92,491.80 L 132.32,491.80 Z M 132.08,492.00 L 133.16,492.00 L 133.16,489.92 L 132.08,489.92 Z M 132.32,477.92 L 132.92,477.92 L 132.92,468.88 L 132.32,468.88 Z M 132.08,469.08 L 133.16,469.08 L 133.16,467.00 L 132.08,467.00 Z M 150.00,491.80 L 150.60,491.80 L 150.60,477.92 L 150.00,477.92 Z M 150.00,496.84 L 150.60,496.84 L 150.60,491.80 L 150.00,491.80 Z M 149.76,492.00 L 150.84,492.00 L 150.84,489.92 L 149.76,489.92 Z M 150.00,477.92 L 150.60,477.92 L 150.60,468.88 L 150.00,468.88 Z M 149.76,469.08 L 150.84,469.08 L 150.84,467.00 L 149.76,467.00 Z M 167.68,491.80 L 168.28,491.80 L 168.28,477.92 L 167.68,477.92 Z M 167.68,496.84 L 168.28,496.84 L 168.28,491.80 L 167.68,491.80 Z M 167.44,492.00 L 168.52,492.00 L 168.52,489.92 L 167.44,489.92 Z M 167.68,477.92 L 168.28,477.92 L 168.28,468.88 L 167.68,468.88 Z M 167.44,469.08 L 168.52,469.08 L 168.52,467.00 L 167.44,467.00 Z M 185.36,491.80 L 185.96,491.80 L 185.96,477.92 L 185.36,477.92 Z M 185.36,496.84 L 185.96,496.84 L 185.96,491.80 L 185.36,491.80 Z M 185.12,492.00 L 186.20,492.00 L 186.20,489.92 L 185.12,489.92 Z M 185.36,477.92 L 185.96,477.92 L 185.96,468.88 L 185.36,468.88 Z M 185.12,469.08 L 186.20,469.08 L 186.20,467.00 L 185.12,467.00 Z M 53.52,722.06 L 61.52,722.06 L 61.52,582.18 L 53.52,582.18 Z M 53.52,582.18 L 61.52,582.18 L 61.52,580.62 L 53.52,580.62 Z M 65.76,722.06 L 73.76,722.06 L 73.76,582.18 L 65.76,582.18 Z M 65.76,582.18 L 73.76,582.18 L 73.76,580.62 L 65.76,580.62 Z M 78.00,722.06 L 86.00,722.06 L 86.00,582.18 L 78.00,582.18 Z M 78.00,582.18 L 86.00,582.18 L 86.00,580.62 L 78.00,580.62 Z M 90.24,722.06 L 98.24,722.06 L 98.24,582.18 L 90.24,582.18 Z M 90.24,582.18 L 98.24,582.18 L 98.24,580.62 L 90.24,580.62 Z M 102.48,722.06 L 110.48,722.06 L 110.48,582.18 L 102.48,582.18 Z M 102.48,582.18 L 110.48,582.18 L 110.48,580.62 L 102.48,580.62 Z M 114.72,722.06 L 122.72,722.06 L 122.72,582.18 L 114.72,582.18 Z M 114.72,582.18 L 122.72,582.18 L 122.72,580.62 L 114.72,580.62 Z M 126.96,722.06 L 134.96,722.06 L 134.96,582.18 L 126.96,582.18 Z M 126.96,582.18 L 134.96,582.18 L 134.96,580.62 L 126.96,580.62 Z M 139.20,722.06 L 147.20,722.06 L 147.20,582.18 L 139.20,582.18 Z M 139.20,582.18 L 147.20,582.18 L 147.20,580.62 L 139.20,580.62 Z M 151.44,722.06 L 159.44,722.06 L 159.44,582.18 L 151.44,582.18 Z M 151.44,582.18 L 159.44,582.18 L 159.44,580.62 L 151.44,580.62 Z M 168.48,722.06 L 176.48,722.06 L 176.48,582.18 L 168.48,582.18 Z M 168.48,582.18 L 176.48,582.18 L 176.48,580.62 L 168.48,580.62 Z M 180.72,722.06 L 188.72,722.06 L 188.72,582.18 L 180.72,582.18 Z M 180.72,582.18 L 188.72,582.18 L 188.72,580.62 L 180.72,580.62 Z M 192.96,722.06 L 200.96,722.06 L 200.96,582.18 L 192.96,582.18 Z M 192.96,582.18 L 200.96,582.18 L 200.96,580.62 L 192.96,580.62 Z M 205.20,722.06 L 213.20,722.06 L 213.20,582.18 L 205.20,582.18 Z M 205.20,582.18 L 213.20,582.18 L 213.20,580.62 L 205.20,580.62 Z M 217.44,722.06 L 225.44,722.06 L 225.44,582.18 L 217.44,582.18 Z M 217.44,582.18 L 225.44,582.18 L 225.44,580.62 L 217.44,580.62 Z M 229.68,722.06 L 237.68,722.06 L 237.68,582.18 L 229.68,582.18 Z M 229.68,582.18 L 237.68,582.18 L 237.68,580.62 L 229.68,580.62 Z M 241.92,722.06 L 249.92,722.06 L 249.92,582.18 L 241.92,582.18 Z M 241.92,582.18 L 249.92,582.18 L 249.92,580.62 L 241.92,580.62 Z M 254.16,722.06 L 262.16,722.06 L 262.16,582.18 L 254.16,582.18 Z M 254.16,582.18 L 262.16,582.18 L 262.16,580.62 L 254.16,580.62 Z M 266.40,722.06 L 274.40,722.06 L 274.40,582.18 L 266.40,582.18 Z M 266.40,582.18 L 274.40,582.18 L 274.40,580.62 L 266.40,580.62 Z M 53.52,572.34 L 61.52,572.34 L 61.52,527.40 L 53.52,527.40 Z M 53.52,527.40 L 61.52,527.40 L 61.52,525.84 L 53.52,525.84 Z M 65.76,572.34 L 73.76,572.34 L 73.76,527.40 L 65.76,527.40 Z M 65.76,527.40 L 73.76,527.40 L 73.76,525.84 L 65.76,525.84 Z M 78.00,572.34 L 86.00,572.34 L 86.00,527.40 L 78.00,527.40 Z M 78.00,527.40 L 86.00,527.40 L 86.00,525.84 L 78.00,525.84 Z M 95.04,572.34 L 103.04,572.34 L 103.04,527.40 L 95.04,527.40 Z M 95.04,527.40 L 103.04,527.40 L 103.04,525.84 L 95.04,525.84 Z M 107.28,572.34 L 115.28,572.34 L 115.28,527.40 L 107.28,527.40 Z M 107.28,527.40 L 115.28,527.40 L 115.28,525.84 L 107.28,525.84 Z M 119.52,572.34 L 127.52,572.34 L 127.52,527.40 L 119.52,527.40 Z M 119.52,527.40 L 127.52,527.40 L 127.52,525.84 L 119.52,525.84 Z M 52.00,517.04 L 53.40,517.04 L 53.40,508.32 L 52.00,508.32 Z M 53.52,750.16 L 57.52,750.16 L 57.52,741.12 L 53.52,741.12 Z M 53.52,741.32 L 57.52,741.32 L 57.52,739.24 L 53.52,739.24 Z M 61.76,750.16 L 65.76,750.16 L 65.76,741.12 L 61.76,741.12 Z M 61.76,741.32 L 65.76,741.32 L 65.76,739.24 L 61.76,739.24 Z M 83.28,750.16 L 87.28,750.16 L 87.28,741.12 L 83.28,741.12 Z M 83.28,741.32 L 87.28,741.32 L 87.28,739.24 L 83.28,739.24 Z M 91.52,750.16 L 95.52,750.16 L 95.52,741.12 L 91.52,741.12 Z M 91.52,741.32 L 95.52,741.32 L 95.52,739.24 L 91.52,739.24 Z M 113.04,750.16 L 113.64,750.16 L 113.64,741.12 L 113.04,741.12 Z M 112.80,741.32 L 113.88,741.32 L 113.88,739.24 L 112.80,739.24 Z M 53.52,773.08 L 57.52,773.08 L 57.52,764.04 L 53.52,764.04 Z M 53.52,764.24 L 57.52,764.24 L 57.52,762.16 L 53.52,762.16 Z M 67.56,773.08 L 71.56,773.08 L 71.56,764.04 L 67.56,764.04 Z M 67.56,764.24 L 71.56,764.24 L 71.56,762.16 L 67.56,762.16 Z M 81.60,773.08 L 82.20,773.08 L 82.20,768.04 L 81.60,768.04 Z M 81.36,768.24 L 82.44,768.24 L 82.44,766.16 L 81.36,766.16 Z M 53.52,830.38 L 54.12,830.38 L 54.12,816.50 L 53.52,816.50 Z M 53.52,833.42 L 54.12,833.42 L 54.12,830.38 L 53.52,830.38 Z M 53.28,830.58 L 54.36,830.58 L 54.36,828.50 L 53.28,828.50 Z M 53.52,816.50 L 54.12,816.50 L 54.12,811.46 L 53.52,811.46 Z M 53.28,811.66 L 54.36,811.66 L 54.36,809.58 L 53.28,809.58 Z M 71.20,833.42 L 71.80,833.42 L 71.80,830.38 L 71.20,830.38 Z M 70.96,830.58 L 72.04,830.58 L 72.04,828.50 L 70.96,828.50 Z M 71.20,816.50 L 71.80,816.50 L 71.80,811.46 L 71.20,811.46 Z M 70.96,811.66 L 72.04,811.66 L 72.04,809.58 L 70.96,809.58 Z M 88.88,830.38 L 89.48,830.38 L 89.48,816.50 L 88.88,816.50 Z M 88.88,833.42 L 89.48,833.42 L 89.48,830.38 L 88.88,830.38 Z M 88.64,830.58 L 89.72,830.58 L 89.72,828.50 L 88.64,828.50 Z M 88.88,816.50 L 89.48,816.50 L 89.48,811.46 L 88.88,811.46 Z M 88.64,811.66 L 89.72,811.66 L 89.72,809.58 L 88.64,809.58 Z M 106.56,833.42 L 107.16,833.42 L 107.16,830.38 L 106.56,830.38 Z M 106.32,830.58 L 107.40,830.58 L 107.40,828.50 L 106.32,828.50 Z M 106.56,816.50 L 107.16,816.50 L 107.16,811.46 L 106.56,811.46 Z M 106.32,811.66 L 107.40,811.66 L 107.40,809.58 L 106.32,809.58 Z M 124.24,830.38 L 124.84,830.38 L 124.84,816.50 L 124.24,816.50 Z M 124.24,833.42 L 124.84,833.42 L 124.84,830.38 L 124.24,830.38 Z M 124.00,830.58 L 125.08,830.58 L 125.08,828.50 L 124.00,828.50 Z M 124.24,816.50 L 124.84,816.50 L 124.84,811.46 L 124.24,811.46 Z M 124.00,811.66 L 125.08,811.66 L 125.08,809.58 L 124.00,809.58 Z M 141.92,830.38 L 142.52,830.38 L 142.52,816.50 L 141.92,816.50 Z M 141.92,833.42 L 142.52,833.42 L 142.52,830.38 L 141.92,830.38 Z M 141.68,830.58 L 142.76,830.58 L 142.76,828.50 L 141.68,828.50 Z M 141.92,816.50 L 142.52,816.50 L 142.52,811.46 L 141.92,811.46 Z M 141.68,811.66 L 142.76,811.66 L 142.76,809.58 L 141.68,809.58 Z M 159.60,830.38 L 160.20,830.38 L 160.20,816.50 L 159.60,816.50 Z M 159.60,833.42 L 160.20,833.42 L 160.20,830.38 L 159.60,830.38 Z M 159.36,830.58 L 160.44,830.58 L 160.44,828.50 L 159.36,828.50 Z M 159.60,816.50 L 160.20,816.50 L 160.20,811.46 L 159.60,811.46 Z M 159.36,811.66 L 160.44,811.66 L 160.44,809.58 L 159.36,809.58 Z M 177.28,833.42 L 177.88,833.42 L 177.88,830.38 L 177.28,830.38 Z M 177.04,830.58 L 178.12,830.58 L 178.12,828.50 L 177.04,828.50 Z M 177.28,816.50 L 177.88,816.50 L 177.88,811.46 L 177.28,811.46 Z M 177.04,811.66 L 178.12,811.66 L 178.12,809.58 L 177.04,809.58 Z M 194.96,830.38 L 195.56,830.38 L 195.56,816.50 L 194.96,816.50 Z M 194.96,833.42 L 195.56,833.42 L 195.56,830.38 L 194.96,830.38 Z M 194.72,830.58 L 195.80,830.58 L 195.80,828.50 L 194.72,828.50 Z M 194.96,816.50 L 195.56,816.50 L 195.56,811.46 L 194.96,811.46 Z M 194.72,811.66 L 195.80,811.66 L 195.80,809.58 L 194.72,809.58 Z M 212.64,833.42 L 213.24,833.42 L 213.24,830.38 L 212.64,830.38 Z M 212.40,830.58 L 213.48,830.58 L 213.48,828.50 L 212.40,828.50 Z M 212.64,816.50 L 213.24,816.50 L 213.24,811.46 L 212.64,811.46 Z M 212.40,811.66 L 213.48,811.66 L 213.48,809.58 L 212.40,809.58 Z M 230.32,830.38 L 230.92,830.38 L 230.92,816.50 L 230.32,816.50 Z M 230.32,833.42 L 230.92,833.42 L 230.92,830.38 L 230.32,830.38 Z M 230.08,830.58 L 231.16,830.58 L 231.16,828.50 L 230.08,828.50 Z M 230.32,816.50 L 230.92,816.50 L 230.92,811.46 L 230.32,811.46 Z M 230.08,811.66 L 231.16,811.66 L 231.16,809.58 L 230.08,809.58 Z M 248.00,830.38 L 248.60,830.38 L 248.60,816.50 L 248.00,816.50 Z M 248.00,833.42 L 248.60,833.42 L 248.60,830.38 L 248.00,830.38 Z M 247.76,830.58 L 248.84,830.58 L 248.84,828.50 L 247.76,828.50 Z M 248.00,816.50 L 248.60,816.50 L 248.60,811.46 L 248.00,811.46 Z M 247.76,811.66 L 248.84,811.66 L 248.84,809.58 L 247.76,809.58 Z M 265.68,833.42 L 266.28,833.42 L 266.28,828.38 L 265.68,828.38 Z M 265.44,828.58 L 266.52,828.58 L 266.52,826.50 L 265.44,826.50 Z M 265.68,824.50 L 266.28,824.50 L 266.28,819.46 L 265.68,819.46 Z M 265.44,819.66 L 266.52,819.66 L 266.52,817.58 L 265.44,817.58 Z M 265.68,807.58 L 266.28,807.58 L 266.28,798.54 L 265.68,798.54 Z M 265.44,798.74 L 266.52,798.74 L 266.52,796.66 L 265.44,796.66 Z M 280.40,807.58 L 281.00,807.58 L 281.00,798.54 L 280.40,798.54 Z M 280.16,798.74 L 281.24,798.74 L 281.24,796.66 L 280.16,796.66 Z M 300.16,830.38 L 300.76,830.38 L 300.76,816.50 L 300.16,816.50 Z M 300.16,833.42 L 300.76,833.42 L 300.76,830.38 L 300.16,830.38 Z M 299.92,830.58 L 301.00,830.58 L 301.00,828.50 L 299.92,828.50 Z M 300.16,816.50 L 300.76,816.50 L 300.76,811.46 L 300.16,811.46 Z M 299.92,811.66 L 301.00,811.66 L 301.00,809.58 L 299.92,809.58 Z M 315.84,830.38 L 316.44,830.38 L 316.44,816.50 L 315.84,816.50 Z M 315.84,833.42 L 316.44,833.42 L 316.44,830.38 L 315.84,830.38 Z M 315.60,830.58 L 316.68,830.58 L 316.68,828.50 L 315.60,828.50 Z M 315.84,816.50 L 316.44,816.50 L 316.44,811.46 L 315.84,811.46 Z M 315.60,811.66 L 316.68,811.66 L 316.68,809.58 L 315.60,809.58 Z M 331.52,830.38 L 332.12,830.38 L 332.12,816.50 L 331.52,816.50 Z M 331.52,833.42 L 332.12,833.42 L 332.12,830.38 L 331.52,830.38 Z M 331.28,830.58 L 332.36,830.58 L 332.36,828.50 L 331.28,828.50 Z M 331.52,816.50 L 332.12,816.50 L 332.12,811.46 L 331.52,811.46 Z M 331.28,811.66 L 332.36,811.66 L 332.36,809.58 L 331.28,809.58 Z M 347.20,830.38 L 347.80,830.38 L 347.80,816.50 L 347.20,816.50 Z M 347.20,833.42 L 347.80,833.42 L 347.80,830.38 L 347.20,830.38 Z M 346.96,830.58 L 348.04,830.58 L 348.04,828.50 L 346.96,828.50 Z M 347.20,816.50 L 347.80,816.50 L 347.80,811.46 L 347.20,811.46 Z M 346.96,811.66 L 348.04,811.66 L 348.04,809.58 L 346.96,809.58 Z" fill="#FF0000" fill-opacity="0.45" stroke="#cc0000" stroke-width="0.5"/>
    <text x="10" y="938" font-family="sans-serif" font-size="11" fill="#aaaaaa">poly (66,20) - 251 polygons</text>
</g>
</svg>
