<?xml version="1.0" encoding="UTF-8"?>
<svg xmlns="http://www.w3.org/2000/svg" width="684.0" height="968.0" viewBox="0 0 684.0 968.0">
<rect width="100%" height="100%" fill="#1a1a2e"/>
<text x="342.0" y="18" font-family="sans-serif" font-size="14" fill="#eee" text-anchor="middle" font-weight="bold">tt_um_pll_sky130 - psdm (94,20)</text>
<g transform="translate(0, 25)">
    <path d="M 20.00,923.04 L 664.00,923.04 L 664.00,20.00 L 20.00,20.00 Z" fill="none" stroke="#555555" stroke-width="1" stroke-dasharray="4,2"/>
    <path d="M 63.78,461.80 L 57.74,461.80 L 57.74,470.80 L 63.78,470.80 Z M 57.54,461.80 L 51.50,461.80 L 51.50,470.80 L 57.54,470.80 Z M 134.94,468.90 L 130.30,468.90 L 130.30,477.90 L 134.94,477.90 Z M 170.30,468.90 L 165.66,468.90 L 165.66,477.90 L 170.30,477.90 Z M 187.98,468.90 L 183.34,468.90 L 183.34,477.90 L 187.98,477.90 Z M 99.58,468.90 L 94.94,468.90 L 94.94,477.90 L 99.58,477.90 Z M 81.90,468.90 L 77.26,468.90 L 77.26,477.90 L 81.90,477.90 Z M 117.26,468.90 L 112.62,468.90 L 112.62,477.90 L 117.26,477.90 Z M 152.62,468.90 L 147.98,468.90 L 147.98,477.90 L 152.62,477.90 Z M 73.06,491.82 L 70.06,491.82 L 70.06,494.82 L 73.06,494.82 Z M 139.54,493.82 L 136.54,493.82 L 136.54,496.82 L 139.54,496.82 Z M 104.18,493.82 L 101.18,493.82 L 101.18,496.82 L 104.18,496.82 Z M 157.22,493.82 L 154.22,493.82 L 154.22,496.82 L 157.22,496.82 Z M 86.50,493.82 L 83.50,493.82 L 83.50,496.82 L 86.50,496.82 Z M 121.86,493.82 L 118.86,493.82 L 118.86,496.82 L 121.86,496.82 Z M 192.58,493.82 L 189.58,493.82 L 189.58,496.82 L 192.58,496.82 Z M 174.90,493.82 L 171.90,493.82 L 171.90,496.82 L 174.90,496.82 Z M 182.50,498.62 L 179.50,498.62 L 179.50,501.62 L 182.50,501.62 Z M 86.50,498.62 L 83.50,498.62 L 83.50,501.62 L 86.50,501.62 Z M 150.50,498.62 L 147.50,498.62 L 147.50,501.62 L 150.50,501.62 Z M 54.50,498.62 L 51.50,498.62 L 51.50,501.62 L 54.50,501.62 Z M 118.50,498.62 L 115.50,498.62 L 115.50,501.62 L 118.50,501.62 Z M 138.94,535.32 L 135.94,535.32 L 135.94,538.32 L 138.94,538.32 Z M 92.62,535.32 L 89.62,535.32 L 89.62,538.32 L 92.62,538.32 Z M 50.50,535.32 L 47.50,535.32 L 47.50,538.32 L 50.50,538.32 Z M 134.34,548.36 L 131.34,548.36 L 131.34,551.36 L 134.34,551.36 Z M 50.50,567.32 L 47.50,567.32 L 47.50,570.32 L 50.50,570.32 Z M 92.62,567.32 L 89.62,567.32 L 89.62,570.32 L 92.62,570.32 Z M 138.94,567.32 L 135.94,567.32 L 135.94,570.32 L 138.94,570.32 Z M 166.06,589.04 L 163.06,589.04 L 163.06,592.04 L 166.06,592.04 Z M 50.50,589.04 L 47.50,589.04 L 47.50,592.04 L 50.50,592.04 Z M 285.82,589.04 L 282.82,589.04 L 282.82,592.04 L 285.82,592.04 Z M 166.06,621.04 L 163.06,621.04 L 163.06,624.04 L 166.06,624.04 Z M 285.82,621.04 L 282.82,621.04 L 282.82,624.04 L 285.82,624.04 Z M 50.50,621.04 L 47.50,621.04 L 47.50,624.04 L 50.50,624.04 Z M 281.22,650.62 L 278.22,650.62 L 278.22,653.62 L 281.22,653.62 Z M 50.50,653.04 L 47.50,653.04 L 47.50,656.04 L 50.50,656.04 Z M 166.06,653.04 L 163.06,653.04 L 163.06,656.04 L 166.06,656.04 Z M 285.82,653.04 L 282.82,653.04 L 282.82,656.04 L 285.82,656.04 Z M 166.06,685.04 L 163.06,685.04 L 163.06,688.04 L 166.06,688.04 Z M 50.50,685.04 L 47.50,685.04 L 47.50,688.04 L 50.50,688.04 Z M 285.82,685.04 L 282.82,685.04 L 282.82,688.04 L 285.82,688.04 Z M 166.06,717.04 L 163.06,717.04 L 163.06,720.04 L 166.06,720.04 Z M 50.50,717.04 L 47.50,717.04 L 47.50,720.04 L 50.50,720.04 Z M 285.82,717.04 L 282.82,717.04 L 282.82,720.04 L 285.82,720.04 Z M 59.54,741.14 L 51.50,741.14 L 51.50,750.14 L 59.54,750.14 Z M 67.78,741.14 L 59.74,741.14 L 59.74,750.14 L 67.78,750.14 Z M 89.30,741.14 L 81.26,741.14 L 81.26,750.14 L 89.30,750.14 Z M 97.54,741.14 L 89.50,741.14 L 89.50,750.14 L 97.54,750.14 Z M 115.66,741.14 L 111.02,741.14 L 111.02,750.14 L 115.66,750.14 Z M 118.50,774.86 L 115.50,774.86 L 115.50,777.86 L 118.50,777.86 Z M 86.50,774.86 L 83.50,774.86 L 83.50,777.86 L 86.50,777.86 Z M 54.50,774.86 L 51.50,774.86 L 51.50,777.86 L 54.50,777.86 Z M 283.02,798.56 L 278.38,798.56 L 278.38,807.56 L 283.02,807.56 Z M 268.30,798.56 L 263.66,798.56 L 263.66,807.56 L 268.30,807.56 Z M 73.82,811.48 L 69.18,811.48 L 69.18,816.48 L 73.82,816.48 Z M 318.46,811.48 L 313.82,811.48 L 313.82,816.48 L 318.46,816.48 Z M 302.78,811.48 L 298.14,811.48 L 298.14,816.48 L 302.78,816.48 Z M 250.62,811.48 L 245.98,811.48 L 245.98,816.48 L 250.62,816.48 Z M 232.94,811.48 L 228.30,811.48 L 228.30,816.48 L 232.94,816.48 Z M 334.14,811.48 L 329.50,811.48 L 329.50,816.48 L 334.14,816.48 Z M 349.82,811.48 L 345.18,811.48 L 345.18,816.48 L 349.82,816.48 Z M 215.26,811.48 L 210.62,811.48 L 210.62,816.48 L 215.26,816.48 Z M 197.58,811.48 L 192.94,811.48 L 192.94,816.48 L 197.58,816.48 Z M 179.90,811.48 L 175.26,811.48 L 175.26,816.48 L 179.90,816.48 Z M 162.22,811.48 L 157.58,811.48 L 157.58,816.48 L 162.22,816.48 Z M 144.54,811.48 L 139.90,811.48 L 139.90,816.48 L 144.54,816.48 Z M 126.86,811.48 L 122.22,811.48 L 122.22,816.48 L 126.86,816.48 Z M 109.18,811.48 L 104.54,811.48 L 104.54,816.48 L 109.18,816.48 Z M 91.50,811.48 L 86.86,811.48 L 86.86,816.48 L 91.50,816.48 Z M 56.14,811.48 L 51.50,811.48 L 51.50,816.48 L 56.14,816.48 Z M 291.70,821.48 L 288.70,821.48 L 288.70,824.48 L 291.70,824.48 Z M 354.42,830.40 L 351.42,830.40 L 351.42,833.40 L 354.42,833.40 Z M 166.82,830.40 L 163.82,830.40 L 163.82,833.40 L 166.82,833.40 Z M 219.06,830.40 L 216.06,830.40 L 216.06,833.40 L 219.06,833.40 Z M 183.70,830.40 L 180.70,830.40 L 180.70,833.40 L 183.70,833.40 Z M 149.14,830.40 L 146.14,830.40 L 146.14,833.40 L 149.14,833.40 Z M 131.46,830.40 L 128.46,830.40 L 128.46,833.40 L 131.46,833.40 Z M 96.10,830.40 L 93.10,830.40 L 93.10,833.40 L 96.10,833.40 Z M 60.74,830.40 L 57.74,830.40 L 57.74,833.40 L 60.74,833.40 Z M 112.98,830.40 L 109.98,830.40 L 109.98,833.40 L 112.98,833.40 Z M 77.62,830.40 L 74.62,830.40 L 74.62,833.40 L 77.62,833.40 Z M 202.18,830.40 L 199.18,830.40 L 199.18,833.40 L 202.18,833.40 Z M 237.54,830.40 L 234.54,830.40 L 234.54,833.40 L 237.54,833.40 Z M 255.22,830.40 L 252.22,830.40 L 252.22,833.40 L 255.22,833.40 Z M 291.70,830.40 L 288.70,830.40 L 288.70,833.40 L 291.70,833.40 Z M 307.38,830.40 L 304.38,830.40 L 304.38,833.40 L 307.38,833.40 Z M 323.06,830.40 L 320.06,830.40 L 320.06,833.40 L 323.06,833.40 Z M 338.74,830.40 L 335.74,830.40 L 335.74,833.40 L 338.74,833.40 Z M 86.50,835.20 L 83.50,835.20 L 83.50,838.20 L 86.50,838.20 Z M 54.50,835.20 L 51.50,835.20 L 51.50,838.20 L 54.50,838.20 Z M 310.50,835.20 L 307.50,835.20 L 307.50,838.20 L 310.50,838.20 Z M 278.50,835.20 L 275.50,835.20 L 275.50,838.20 L 278.50,838.20 Z M 246.50,835.20 L 243.50,835.20 L 243.50,838.20 L 246.50,838.20 Z M 214.50,835.20 L 211.50,835.20 L 211.50,838.20 L 214.50,838.20 Z M 182.50,835.20 L 179.50,835.20 L 179.50,838.20 L 182.50,838.20 Z M 150.50,835.20 L 147.50,835.20 L 147.50,838.20 L 150.50,838.20 Z M 118.50,835.20 L 115.50,835.20 L 115.50,838.20 L 118.50,838.20 Z M 342.50,835.20 L 339.50,835.20 L 339.50,838.20 L 342.50,838.20 Z M 268.30,863.62 L 263.66,863.62 L 263.66,872.62 L 268.30,872.62 Z M 109.18,869.62 L 104.54,869.62 L 104.54,874.62 L 109.18,874.62 Z M 126.86,869.62 L 122.22,869.62 L 122.22,874.62 L 126.86,874.62 Z M 91.50,869.62 L 86.86,869.62 L 86.86,874.62 L 91.50,874.62 Z M 144.54,869.62 L 139.90,869.62 L 139.90,874.62 L 144.54,874.62 Z M 73.82,869.62 L 69.18,869.62 L 69.18,874.62 L 73.82,874.62 Z M 56.14,869.62 L 51.50,869.62 L 51.50,874.62 L 56.14,874.62 Z M 162.22,869.62 L 157.58,869.62 L 157.58,874.62 L 162.22,874.62 Z M 179.90,869.62 L 175.26,869.62 L 175.26,874.62 L 179.90,874.62 Z M 197.58,869.62 L 192.94,869.62 L 192.94,874.62 L 197.58,874.62 Z M 215.26,869.62 L 210.62,869.62 L 210.62,874.62 L 215.26,874.62 Z M 232.94,869.62 L 228.30,869.62 L 228.30,874.62 L 232.94,874.62 Z M 250.62,869.62 L 245.98,869.62 L 245.98,874.62 L 250.62,874.62 Z M 60.74,888.54 L 57.74,888.54 L 57.74,891.54 L 60.74,891.54 Z M 112.98,888.54 L 109.98,888.54 L 109.98,891.54 L 112.98,891.54 Z M 96.10,888.54 L 93.10,888.54 L 93.10,891.54 L 96.10,891.54 Z M 255.22,888.54 L 252.22,888.54 L 252.22,891.54 L 255.22,891.54 Z M 77.62,888.54 L 74.62,888.54 L 74.62,891.54 L 77.62,891.54 Z M 131.46,888.54 L 128.46,888.54 L 128.46,891.54 L 131.46,891.54 Z M 149.14,888.54 L 146.14,888.54 L 146.14,891.54 L 149.14,891.54 Z M 183.70,888.54 L 180.70,888.54 L 180.70,891.54 L 183.70,891.54 Z M 219.06,888.54 L 216.06,888.54 L 216.06,891.54 L 219.06,891.54 Z M 166.82,888.54 L 163.82,888.54 L 163.82,891.54 L 166.82,891.54 Z M 202.18,888.54 L 199.18,888.54 L 199.18,891.54 L 202.18,891.54 Z M 237.54,888.54 L 234.54,888.54 L 234.54,891.54 L 237.54,891.54 Z M 272.90,888.54 L 269.90,888.54 L 269.90,891.54 L 272.90,891.54 Z M 246.50,893.34 L 243.50,893.34 L 243.50,896.34 L 246.50,896.34 Z M 214.50,893.34 L 211.50,893.34 L 211.50,896.34 L 214.50,896.34 Z M 182.50,893.34 L 179.50,893.34 L 179.50,896.34 L 182.50,896.34 Z M 150.50,893.34 L 147.50,893.34 L 147.50,896.34 L 150.50,896.34 Z M 118.50,893.34 L 115.50,893.34 L 115.50,896.34 L 118.50,896.34 Z M 86.50,893.34 L 83.50,893.34 L 83.50,896.34 L 86.50,896.34 Z M 54.50,893.34 L 51.50,893.34 L 51.50,896.34 L 54.50,896.34 Z" fill="#FF69B4" fill-opacity="0.15" stroke="#cc5490" stroke-width="0.5"/>
    <text x="10" y="938" font-family="sans-serif" font-size="11" fill="#aaaaaa">psdm (94,20) - 132 polygons</text>
</g>
</svg>
