<?xml version="1.0" encoding="UTF-8"?>
<svg xmlns="http://www.w3.org/2000/svg" width="684.0" height="968.0" viewBox="0 0 684.0 968.0">
<rect width="100%" height="100%" fill="#1a1a2e"/>
<text x="342.0" y="18" font-family="sans-serif" font-size="14" fill="#eee" text-anchor="middle" font-weight="bold">tt_um_pll_sky130 - met4 (71,20)</text>
<g transform="translate(0, 25)">
    <path d="M 20.00,923.04 L 664.00,923.04 L 664.00,20.00 L 20.00,20.00 Z" fill="none" stroke="#555555" stroke-width="1" stroke-dasharray="4,2"/>
    <path d="M 210.12,20.00 L 208.92,20.00 L 208.92,24.00 L 210.12,24.00 Z M 530.28,20.00 L 529.08,20.00 L 529.08,24.00 L 530.28,24.00 Z M 188.04,20.00 L 186.84,20.00 L 186.84,24.00 L 188.04,24.00 Z M 276.36,20.00 L 275.16,20.00 L 275.16,24.00 L 276.36,24.00 Z M 453.00,20.00 L 451.80,20.00 L 451.80,24.00 L 453.00,24.00 Z M 364.68,20.00 L 363.48,20.00 L 363.48,24.00 L 364.68,24.00 Z M 541.32,20.00 L 540.12,20.00 L 540.12,24.00 L 541.32,24.00 Z M 199.08,20.00 L 197.88,20.00 L 197.88,24.00 L 199.08,24.00 Z M 287.40,20.00 L 286.20,20.00 L 286.20,24.00 L 287.40,24.00 Z M 464.04,20.00 L 462.84,20.00 L 462.84,24.00 L 464.04,24.00 Z M 375.72,20.00 L 374.52,20.00 L 374.52,24.00 L 375.72,24.00 Z M 552.36,20.00 L 551.16,20.00 L 551.16,24.00 L 552.36,24.00 Z M 353.64,20.00 L 352.44,20.00 L 352.44,24.00 L 353.64,24.00 Z M 298.44,20.00 L 297.24,20.00 L 297.24,24.00 L 298.44,24.00 Z M 475.08,20.00 L 473.88,20.00 L 473.88,24.00 L 475.08,24.00 Z M 386.76,20.00 L 385.56,20.00 L 385.56,24.00 L 386.76,24.00 Z M 563.40,20.00 L 562.20,20.00 L 562.20,24.00 L 563.40,24.00 Z M 221.16,20.00 L 219.96,20.00 L 219.96,24.00 L 221.16,24.00 Z M 309.48,20.00 L 308.28,20.00 L 308.28,24.00 L 309.48,24.00 Z M 486.12,20.00 L 484.92,20.00 L 484.92,24.00 L 486.12,24.00 Z M 397.80,20.00 L 396.60,20.00 L 396.60,24.00 L 397.80,24.00 Z M 574.44,20.00 L 573.24,20.00 L 573.24,24.00 L 574.44,24.00 Z M 585.48,20.00 L 584.28,20.00 L 584.28,24.00 L 585.48,24.00 Z M 441.96,20.00 L 440.76,20.00 L 440.76,24.00 L 441.96,24.00 Z M 596.52,20.00 L 595.32,20.00 L 595.32,24.00 L 596.52,24.00 Z M 607.56,20.00 L 606.36,20.00 L 606.36,24.00 L 607.56,24.00 Z M 143.88,20.00 L 142.68,20.00 L 142.68,24.00 L 143.88,24.00 Z M 232.20,20.00 L 231.00,20.00 L 231.00,24.00 L 232.20,24.00 Z M 408.84,20.00 L 407.64,20.00 L 407.64,24.00 L 408.84,24.00 Z M 320.52,20.00 L 319.32,20.00 L 319.32,24.00 L 320.52,24.00 Z M 497.16,20.00 L 495.96,20.00 L 495.96,24.00 L 497.16,24.00 Z M 154.92,20.00 L 153.72,20.00 L 153.72,24.00 L 154.92,24.00 Z M 243.24,20.00 L 242.04,20.00 L 242.04,24.00 L 243.24,24.00 Z M 419.88,20.00 L 418.68,20.00 L 418.68,24.00 L 419.88,24.00 Z M 331.56,20.00 L 330.36,20.00 L 330.36,24.00 L 331.56,24.00 Z M 508.20,20.00 L 507.00,20.00 L 507.00,24.00 L 508.20,24.00 Z M 165.96,20.00 L 164.76,20.00 L 164.76,24.00 L 165.96,24.00 Z M 254.28,20.00 L 253.08,20.00 L 253.08,24.00 L 254.28,24.00 Z M 430.92,20.00 L 429.72,20.00 L 429.72,24.00 L 430.92,24.00 Z M 342.60,20.00 L 341.40,20.00 L 341.40,24.00 L 342.60,24.00 Z M 519.24,20.00 L 518.04,20.00 L 518.04,24.00 L 519.24,24.00 Z M 177.00,20.00 L 175.80,20.00 L 175.80,24.00 L 177.00,24.00 Z M 265.32,20.00 L 264.12,20.00 L 264.12,24.00 L 265.32,24.00 Z M 32.00,40.00 L 24.00,40.00 L 24.00,903.04 L 32.00,903.04 Z M 46.00,40.00 L 38.00,40.00 L 38.00,903.04 L 46.00,903.04 Z M 630.84,923.04 L 630.84,475.86 L 627.24,475.86 L 627.24,923.04 Z M 553.56,923.04 L 553.56,479.06 L 549.96,479.06 L 549.96,923.04 Z M 476.28,919.04 L 472.68,919.04 L 472.68,923.04 L 476.28,923.04 Z M 399.00,919.04 L 395.40,919.04 L 395.40,923.04 L 399.00,923.04 Z M 321.72,919.04 L 318.12,919.04 L 318.12,923.04 L 321.72,923.04 Z M 244.44,919.04 L 240.84,919.04 L 240.84,923.04 L 244.44,923.04 Z M 167.16,919.04 L 163.56,919.04 L 163.56,923.04 L 167.16,923.04 Z M 89.88,919.04 L 86.28,919.04 L 86.28,923.04 L 89.88,923.04 Z" fill="#DA70D6" fill-opacity="0.5" stroke="#b05aaa" stroke-width="0.5"/>
    <text x="10" y="938" font-family="sans-serif" font-size="11" fill="#aaaaaa">met4 (71,20) - 53 polygons</text>
</g>
</svg>
