<?xml version="1.0" encoding="UTF-8"?>
<svg xmlns="http://www.w3.org/2000/svg" width="684.0" height="968.0" viewBox="0 0 684.0 968.0">
<rect width="100%" height="100%" fill="#1a1a2e"/>
<text x="342.0" y="18" font-family="sans-serif" font-size="14" fill="#eee" text-anchor="middle" font-weight="bold">tt_um_pll_sky130 — mcon (67,44)</text>
<g transform="translate(0, 25)">
    <path d="M 20.00,923.04 L 664.00,923.04 L 664.00,20.00 L 20.00,20.00 Z" fill="none" stroke="#555555" stroke-width="1" stroke-dasharray="4,2"/>
    <path d="M 32.18,837.26 L 32.86,837.26 L 32.86,836.58 L 32.18,836.58 Z M 37.22,837.26 L 37.90,837.26 L 37.90,836.58 L 37.22,836.58 Z M 38.94,837.26 L 39.62,837.26 L 39.62,836.58 L 38.94,836.58 Z M 43.98,837.26 L 44.66,837.26 L 44.66,836.58 L 43.98,836.58 Z M 56.18,837.26 L 56.86,837.26 L 56.86,836.58 L 56.18,836.58 Z M 61.22,837.26 L 61.90,837.26 L 61.90,836.58 L 61.22,836.58 Z M 62.94,837.26 L 63.62,837.26 L 63.62,836.58 L 62.94,836.58 Z M 67.98,837.26 L 68.66,837.26 L 68.66,836.58 L 67.98,836.58 Z M 80.18,837.26 L 80.86,837.26 L 80.86,836.58 L 80.18,836.58 Z M 81.82,837.26 L 82.50,837.26 L 82.50,836.58 L 81.82,836.58 Z M 32.18,869.26 L 32.86,869.26 L 32.86,868.58 L 32.18,868.58 Z M 37.22,869.26 L 37.90,869.26 L 37.90,868.58 L 37.22,868.58 Z M 56.18,869.26 L 56.86,869.26 L 56.86,868.58 L 56.18,868.58 Z M 61.22,869.26 L 61.90,869.26 L 61.90,868.58 L 61.22,868.58 Z M 80.18,869.26 L 80.86,869.26 L 80.86,868.58 L 80.18,868.58 Z M 81.82,869.26 L 82.50,869.26 L 82.50,868.58 L 81.82,868.58 Z M 178.90,749.92 L 179.58,749.92 L 179.58,749.24 L 178.90,749.24 Z M 188.62,749.92 L 189.30,749.92 L 189.30,749.24 L 188.62,749.24 Z M 198.34,749.92 L 199.02,749.92 L 199.02,749.24 L 198.34,749.24 Z M 208.06,749.92 L 208.74,749.92 L 208.74,749.24 L 208.06,749.24 Z M 217.78,749.92 L 218.46,749.92 L 218.46,749.24 L 217.78,749.24 Z M 227.50,749.92 L 228.18,749.92 L 228.18,749.24 L 227.50,749.24 Z M 237.22,749.92 L 237.90,749.92 L 237.90,749.24 L 237.22,749.24 Z M 246.94,749.92 L 247.62,749.92 L 247.62,749.24 L 246.94,749.24 Z M 256.66,749.92 L 257.34,749.92 L 257.34,749.24 L 256.66,749.24 Z M 266.38,749.92 L 267.06,749.92 L 267.06,749.24 L 266.38,749.24 Z M 276.10,749.92 L 276.78,749.92 L 276.78,749.24 L 276.10,749.24 Z M 285.82,749.92 L 286.50,749.92 L 286.50,749.24 L 285.82,749.24 Z M 295.54,749.92 L 296.22,749.92 L 296.22,749.24 L 295.54,749.24 Z M 305.26,749.92 L 305.94,749.92 L 305.94,749.24 L 305.26,749.24 Z M 314.98,749.92 L 315.66,749.92 L 315.66,749.24 L 314.98,749.24 Z M 324.70,749.92 L 325.38,749.92 L 325.38,749.24 L 324.70,749.24 Z M 174.38,910.86 L 175.06,910.86 L 175.06,910.18 L 174.38,910.18 Z M 184.10,910.86 L 184.78,910.86 L 184.78,910.18 L 184.10,910.18 Z M 193.82,910.86 L 194.50,910.86 L 194.50,910.18 L 193.82,910.18 Z M 178.90,676.31 L 179.58,676.31 L 179.58,675.63 L 178.90,675.63 Z M 188.62,676.31 L 189.30,676.31 L 189.30,675.63 L 188.62,675.63 Z M 198.34,676.31 L 199.02,676.31 L 199.02,675.63 L 198.34,675.63 Z M 208.06,676.31 L 208.74,676.31 L 208.74,675.63 L 208.06,675.63 Z M 217.78,676.31 L 218.46,676.31 L 218.46,675.63 L 217.78,675.63 Z M 174.38,731.02 L 175.06,731.02 L 175.06,730.34 L 174.38,730.34 Z M 184.10,731.02 L 184.78,731.02 L 184.78,730.34 L 184.10,730.34 Z M 193.82,731.02 L 194.50,731.02 L 194.50,730.34 L 193.82,730.34 Z M 174.38,657.41 L 175.06,657.41 L 175.06,656.73 L 174.38,656.73 Z M 174.38,654.01 L 175.06,654.01 L 175.06,653.33 L 174.38,653.33 Z M 32.18,613.41 L 32.86,613.41 L 32.86,612.73 L 32.18,612.73 Z M 35.22,613.41 L 35.90,613.41 L 35.90,612.73 L 35.22,612.73 Z M 36.94,613.41 L 37.62,613.41 L 37.62,612.73 L 36.94,612.73 Z M 39.98,613.41 L 40.66,613.41 L 40.66,612.73 L 39.98,612.73 Z M 32.18,637.41 L 32.86,637.41 L 32.86,636.73 L 32.18,636.73 Z M 35.22,637.41 L 35.90,637.41 L 35.90,636.73 L 35.22,636.73 Z M 46.18,593.41 L 46.86,593.41 L 46.86,592.73 L 46.18,592.73 Z M 49.22,593.41 L 49.90,593.41 L 49.90,592.73 L 49.22,592.73 Z M 50.94,593.41 L 51.62,593.41 L 51.62,592.73 L 50.94,592.73 Z M 53.98,593.41 L 54.66,593.41 L 54.66,592.73 L 53.98,592.73 Z M 48.18,613.41 L 48.86,613.41 L 48.86,612.73 L 48.18,612.73 Z M 49.82,613.41 L 50.50,613.41 L 50.50,612.73 L 49.82,612.73 Z M 48.18,625.41 L 48.86,625.41 L 48.86,624.73 L 48.18,624.73 Z M 49.82,625.41 L 50.50,625.41 L 50.50,624.73 L 49.82,624.73 Z M 46.18,637.41 L 46.86,637.41 L 46.86,636.73 L 46.18,636.73 Z M 49.22,637.41 L 49.90,637.41 L 49.90,636.73 L 49.22,636.73 Z M 62.18,593.41 L 62.86,593.41 L 62.86,592.73 L 62.18,592.73 Z M 65.22,593.41 L 65.90,593.41 L 65.90,592.73 L 65.22,592.73 Z M 66.94,593.41 L 67.62,593.41 L 67.62,592.73 L 66.94,592.73 Z M 69.98,593.41 L 70.66,593.41 L 70.66,592.73 L 69.98,592.73 Z M 64.18,613.41 L 64.86,613.41 L 64.86,612.73 L 64.18,612.73 Z M 65.82,613.41 L 66.50,613.41 L 66.50,612.73 L 65.82,612.73 Z M 64.18,625.41 L 64.86,625.41 L 64.86,624.73 L 64.18,624.73 Z M 65.82,625.41 L 66.50,625.41 L 66.50,624.73 L 65.82,624.73 Z M 62.18,637.41 L 62.86,637.41 L 62.86,636.73 L 62.18,636.73 Z M 65.22,637.41 L 65.90,637.41 L 65.90,636.73 L 65.22,636.73 Z M 78.18,593.41 L 78.86,593.41 L 78.86,592.73 L 78.18,592.73 Z M 81.22,593.41 L 81.90,593.41 L 81.90,592.73 L 81.22,592.73 Z M 82.94,593.41 L 83.62,593.41 L 83.62,592.73 L 82.94,592.73 Z M 85.98,593.41 L 86.66,593.41 L 86.66,592.73 L 85.98,592.73 Z M 80.18,613.41 L 80.86,613.41 L 80.86,612.73 L 80.18,612.73 Z M 81.82,613.41 L 82.50,613.41 L 82.50,612.73 L 81.82,612.73 Z M 80.18,625.41 L 80.86,625.41 L 80.86,624.73 L 80.18,624.73 Z M 81.82,625.41 L 82.50,625.41 L 82.50,624.73 L 81.82,624.73 Z M 78.18,637.41 L 78.86,637.41 L 78.86,636.73 L 78.18,636.73 Z M 81.22,637.41 L 81.90,637.41 L 81.90,636.73 L 81.22,636.73 Z M 94.18,593.41 L 94.86,593.41 L 94.86,592.73 L 94.18,592.73 Z M 97.22,593.41 L 97.90,593.41 L 97.90,592.73 L 97.22,592.73 Z M 98.94,593.41 L 99.62,593.41 L 99.62,592.73 L 98.94,592.73 Z M 101.98,593.41 L 102.66,593.41 L 102.66,592.73 L 101.98,592.73 Z M 96.18,613.41 L 96.86,613.41 L 96.86,612.73 L 96.18,612.73 Z M 97.82,613.41 L 98.50,613.41 L 98.50,612.73 L 97.82,612.73 Z M 96.18,625.41 L 96.86,625.41 L 96.86,624.73 L 96.18,624.73 Z M 97.82,625.41 L 98.50,625.41 L 98.50,624.73 L 97.82,624.73 Z M 94.18,637.41 L 94.86,637.41 L 94.86,636.73 L 94.18,636.73 Z M 97.22,637.41 L 97.90,637.41 L 97.90,636.73 L 97.22,636.73 Z M 110.18,593.41 L 110.86,593.41 L 110.86,592.73 L 110.18,592.73 Z M 113.22,593.41 L 113.90,593.41 L 113.90,592.73 L 113.22,592.73 Z M 114.94,593.41 L 115.62,593.41 L 115.62,592.73 L 114.94,592.73 Z M 117.98,593.41 L 118.66,593.41 L 118.66,592.73 L 117.98,592.73 Z M 112.18,613.41 L 112.86,613.41 L 112.86,612.73 L 112.18,612.73 Z M 113.82,613.41 L 114.50,613.41 L 114.50,612.73 L 113.82,612.73 Z M 112.18,625.41 L 112.86,625.41 L 112.86,624.73 L 112.18,624.73 Z M 113.82,625.41 L 114.50,625.41 L 114.50,624.73 L 113.82,624.73 Z M 110.18,637.41 L 110.86,637.41 L 110.86,636.73 L 110.18,636.73 Z M 113.22,637.41 L 113.90,637.41 L 113.90,636.73 L 113.22,636.73 Z" fill="#FFD700" fill-opacity="0.7" stroke="#ccaa00" stroke-width="0.5"/>
    <text x="10" y="938.04" font-family="sans-serif" font-size="11" fill="#aaaaaa">mcon (67,44) — 101 polygons</text>
</g>
</svg>
