<?xml version="1.0" encoding="UTF-8"?>
<svg xmlns="http://www.w3.org/2000/svg" width="684.0" height="968.0" viewBox="0 0 684.0 968.0">
<rect width="100%" height="100%" fill="#1a1a2e"/>
<text x="342.0" y="18" font-family="sans-serif" font-size="14" fill="#eee" text-anchor="middle" font-weight="bold">tt_um_pll_sky130 — li1 (67,20)</text>
<g transform="translate(0, 25)">
    <path d="M 20.00,923.04 L 664.00,923.04 L 664.00,20.00 L 20.00,20.00 Z" fill="none" stroke="#555555" stroke-width="1" stroke-dasharray="4,2"/>
    <path d="M 32.16,837.28 L 32.88,837.28 L 32.88,836.56 L 32.16,836.56 Z M 32.16,835.92 L 32.88,835.92 L 32.88,835.20 L 32.16,835.20 Z M 32.16,834.56 L 32.88,834.56 L 32.88,833.84 L 32.16,833.84 Z M 32.16,833.20 L 32.88,833.20 L 32.88,832.48 L 32.16,832.48 Z M 32.16,831.84 L 32.88,831.84 L 32.88,831.12 L 32.16,831.12 Z M 37.20,837.28 L 37.92,837.28 L 37.92,836.56 L 37.20,836.56 Z M 37.20,835.92 L 37.92,835.92 L 37.92,835.20 L 37.20,835.20 Z M 37.20,834.56 L 37.92,834.56 L 37.92,833.84 L 37.20,833.84 Z M 37.20,833.20 L 37.92,833.20 L 37.92,832.48 L 37.20,832.48 Z M 37.20,831.84 L 37.92,831.84 L 37.92,831.12 L 37.20,831.12 Z M 34.68,828.54 L 35.40,828.54 L 35.40,827.82 L 34.68,827.82 Z M 38.92,837.28 L 39.64,837.28 L 39.64,836.56 L 38.92,836.56 Z M 38.92,835.92 L 39.64,835.92 L 39.64,835.20 L 38.92,835.20 Z M 38.92,834.56 L 39.64,834.56 L 39.64,833.84 L 38.92,833.84 Z M 38.92,833.20 L 39.64,833.20 L 39.64,832.48 L 38.92,832.48 Z M 38.92,831.84 L 39.64,831.84 L 39.64,831.12 L 38.92,831.12 Z M 43.96,837.28 L 44.68,837.28 L 44.68,836.56 L 43.96,836.56 Z M 43.96,835.92 L 44.68,835.92 L 44.68,835.20 L 43.96,835.20 Z M 43.96,834.56 L 44.68,834.56 L 44.68,833.84 L 43.96,833.84 Z M 43.96,833.20 L 44.68,833.20 L 44.68,832.48 L 43.96,832.48 Z M 43.96,831.84 L 44.68,831.84 L 44.68,831.12 L 43.96,831.12 Z M 41.44,828.54 L 42.16,828.54 L 42.16,827.82 L 41.44,827.82 Z M 32.00,837.44 L 33.04,837.44 L 33.04,829.44 L 32.00,829.44 Z M 37.04,837.44 L 38.08,837.44 L 38.08,829.44 L 37.04,829.44 Z M 38.76,837.44 L 39.80,837.44 L 39.80,829.44 L 38.76,829.44 Z M 43.80,837.44 L 44.84,837.44 L 44.84,829.44 L 43.80,829.44 Z M 56.16,837.28 L 56.88,837.28 L 56.88,836.56 L 56.16,836.56 Z M 56.16,835.92 L 56.88,835.92 L 56.88,835.20 L 56.16,835.20 Z M 56.16,834.56 L 56.88,834.56 L 56.88,833.84 L 56.16,833.84 Z M 56.16,833.20 L 56.88,833.20 L 56.88,832.48 L 56.16,832.48 Z M 56.16,831.84 L 56.88,831.84 L 56.88,831.12 L 56.16,831.12 Z M 61.20,837.28 L 61.92,837.28 L 61.92,836.56 L 61.20,836.56 Z M 61.20,835.92 L 61.92,835.92 L 61.92,835.20 L 61.20,835.20 Z M 61.20,834.56 L 61.92,834.56 L 61.92,833.84 L 61.20,833.84 Z M 61.20,833.20 L 61.92,833.20 L 61.92,832.48 L 61.20,832.48 Z M 61.20,831.84 L 61.92,831.84 L 61.92,831.12 L 61.20,831.12 Z M 58.68,828.54 L 59.40,828.54 L 59.40,827.82 L 58.68,827.82 Z M 62.92,837.28 L 63.64,837.28 L 63.64,836.56 L 62.92,836.56 Z M 62.92,835.92 L 63.64,835.92 L 63.64,835.20 L 62.92,835.20 Z M 62.92,834.56 L 63.64,834.56 L 63.64,833.84 L 62.92,833.84 Z M 62.92,833.20 L 63.64,833.20 L 63.64,832.48 L 62.92,832.48 Z M 62.92,831.84 L 63.64,831.84 L 63.64,831.12 L 62.92,831.12 Z M 67.96,837.28 L 68.68,837.28 L 68.68,836.56 L 67.96,836.56 Z M 67.96,835.92 L 68.68,835.92 L 68.68,835.20 L 67.96,835.20 Z M 67.96,834.56 L 68.68,834.56 L 68.68,833.84 L 67.96,833.84 Z M 67.96,833.20 L 68.68,833.20 L 68.68,832.48 L 67.96,832.48 Z M 67.96,831.84 L 68.68,831.84 L 68.68,831.12 L 67.96,831.12 Z M 65.44,828.54 L 66.16,828.54 L 66.16,827.82 L 65.44,827.82 Z M 56.00,837.44 L 57.04,837.44 L 57.04,829.44 L 56.00,829.44 Z M 61.04,837.44 L 62.08,837.44 L 62.08,829.44 L 61.04,829.44 Z M 62.76,837.44 L 63.80,837.44 L 63.80,829.44 L 62.76,829.44 Z M 67.80,837.44 L 68.84,837.44 L 68.84,829.44 L 67.80,829.44 Z M 80.16,837.28 L 80.88,837.28 L 80.88,836.56 L 80.16,836.56 Z M 80.16,835.92 L 80.88,835.92 L 80.88,835.20 L 80.16,835.20 Z M 80.16,834.56 L 80.88,834.56 L 80.88,833.84 L 80.16,833.84 Z M 80.16,833.20 L 80.88,833.20 L 80.88,832.48 L 80.16,832.48 Z M 80.16,831.84 L 80.88,831.84 L 80.88,831.12 L 80.16,831.12 Z M 81.80,837.28 L 82.52,837.28 L 82.52,836.56 L 81.80,836.56 Z M 81.80,835.92 L 82.52,835.92 L 82.52,835.20 L 81.80,835.20 Z M 81.80,834.56 L 82.52,834.56 L 82.52,833.84 L 81.80,833.84 Z M 81.80,833.20 L 82.52,833.20 L 82.52,832.48 L 81.80,832.48 Z M 81.80,831.84 L 82.52,831.84 L 82.52,831.12 L 81.80,831.12 Z M 80.00,837.44 L 81.04,837.44 L 81.04,829.44 L 80.00,829.44 Z M 81.64,837.44 L 82.68,837.44 L 82.68,829.44 L 81.64,829.44 Z M 32.16,869.28 L 32.88,869.28 L 32.88,868.56 L 32.16,868.56 Z M 32.16,867.92 L 32.88,867.92 L 32.88,867.20 L 32.16,867.20 Z M 32.16,866.56 L 32.88,866.56 L 32.88,865.84 L 32.16,865.84 Z M 32.16,865.20 L 32.88,865.20 L 32.88,864.48 L 32.16,864.48 Z M 32.16,863.84 L 32.88,863.84 L 32.88,863.12 L 32.16,863.12 Z M 37.20,869.28 L 37.92,869.28 L 37.92,868.56 L 37.20,868.56 Z M 37.20,867.92 L 37.92,867.92 L 37.92,867.20 L 37.20,867.20 Z M 37.20,866.56 L 37.92,866.56 L 37.92,865.84 L 37.20,865.84 Z M 37.20,865.20 L 37.92,865.20 L 37.92,864.48 L 37.20,864.48 Z M 37.20,863.84 L 37.92,863.84 L 37.92,863.12 L 37.20,863.12 Z M 34.68,860.54 L 35.40,860.54 L 35.40,859.82 L 34.68,859.82 Z M 32.00,869.44 L 33.04,869.44 L 33.04,861.44 L 32.00,861.44 Z M 37.04,869.44 L 38.08,869.44 L 38.08,861.44 L 37.04,861.44 Z M 56.16,869.28 L 56.88,869.28 L 56.88,868.56 L 56.16,868.56 Z M 56.16,867.92 L 56.88,867.92 L 56.88,867.20 L 56.16,867.20 Z M 56.16,866.56 L 56.88,866.56 L 56.88,865.84 L 56.16,865.84 Z M 56.16,865.20 L 56.88,865.20 L 56.88,864.48 L 56.16,864.48 Z M 56.16,863.84 L 56.88,863.84 L 56.88,863.12 L 56.16,863.12 Z M 61.20,869.28 L 61.92,869.28 L 61.92,868.56 L 61.20,868.56 Z M 61.20,867.92 L 61.92,867.92 L 61.92,867.20 L 61.20,867.20 Z M 61.20,866.56 L 61.92,866.56 L 61.92,865.84 L 61.20,865.84 Z M 61.20,865.20 L 61.92,865.20 L 61.92,864.48 L 61.20,864.48 Z M 61.20,863.84 L 61.92,863.84 L 61.92,863.12 L 61.20,863.12 Z M 58.68,860.54 L 59.40,860.54 L 59.40,859.82 L 58.68,859.82 Z M 56.00,869.44 L 57.04,869.44 L 57.04,861.44 L 56.00,861.44 Z M 61.04,869.44 L 62.08,869.44 L 62.08,861.44 L 61.04,861.44 Z M 80.16,869.28 L 80.88,869.28 L 80.88,868.56 L 80.16,868.56 Z M 80.16,867.92 L 80.88,867.92 L 80.88,867.20 L 80.16,867.20 Z M 81.80,869.28 L 82.52,869.28 L 82.52,868.56 L 81.80,868.56 Z M 81.80,867.92 L 82.52,867.92 L 82.52,867.20 L 81.80,867.20 Z M 80.00,869.44 L 81.04,869.44 L 81.04,865.44 L 80.00,865.44 Z M 81.64,869.44 L 82.68,869.44 L 82.68,865.44 L 81.64,865.44 Z M 174.20,911.04 L 175.24,911.04 L 175.24,751.04 L 174.20,751.04 Z M 183.92,911.04 L 184.96,911.04 L 184.96,751.04 L 183.92,751.04 Z M 193.64,911.04 L 194.68,911.04 L 194.68,751.04 L 193.64,751.04 Z M 203.36,911.04 L 204.40,911.04 L 204.40,751.04 L 203.36,751.04 Z M 213.08,911.04 L 214.12,911.04 L 214.12,751.04 L 213.08,751.04 Z M 222.80,911.04 L 223.84,911.04 L 223.84,751.04 L 222.80,751.04 Z M 232.52,911.04 L 233.56,911.04 L 233.56,751.04 L 232.52,751.04 Z M 242.24,911.04 L 243.28,911.04 L 243.28,751.04 L 242.24,751.04 Z M 251.96,911.04 L 253.00,911.04 L 253.00,751.04 L 251.96,751.04 Z M 261.68,911.04 L 262.72,911.04 L 262.72,751.04 L 261.68,751.04 Z M 271.40,911.04 L 272.44,911.04 L 272.44,751.04 L 271.40,751.04 Z M 281.12,911.04 L 282.16,911.04 L 282.16,751.04 L 281.12,751.04 Z M 290.84,911.04 L 291.88,911.04 L 291.88,751.04 L 290.84,751.04 Z M 300.56,911.04 L 301.60,911.04 L 301.60,751.04 L 300.56,751.04 Z M 310.28,911.04 L 311.32,911.04 L 311.32,751.04 L 310.28,751.04 Z M 320.00,911.04 L 321.04,911.04 L 321.04,751.04 L 320.00,751.04 Z M 329.72,911.04 L 330.76,911.04 L 330.76,751.04 L 329.72,751.04 Z M 174.20,911.04 L 330.76,911.04 L 330.76,910.36 L 174.20,910.36 Z M 178.88,749.94 L 179.60,749.94 L 179.60,749.22 L 178.88,749.22 Z M 188.60,749.94 L 189.32,749.94 L 189.32,749.22 L 188.60,749.22 Z M 198.32,749.94 L 199.04,749.94 L 199.04,749.22 L 198.32,749.22 Z M 208.04,749.94 L 208.76,749.94 L 208.76,749.22 L 208.04,749.22 Z M 217.76,749.94 L 218.48,749.94 L 218.48,749.22 L 217.76,749.22 Z M 227.48,749.94 L 228.20,749.94 L 228.20,749.22 L 227.48,749.22 Z M 237.20,749.94 L 237.92,749.94 L 237.92,749.22 L 237.20,749.22 Z M 246.92,749.94 L 247.64,749.94 L 247.64,749.22 L 246.92,749.22 Z M 256.64,749.94 L 257.36,749.94 L 257.36,749.22 L 256.64,749.22 Z M 266.36,749.94 L 267.08,749.94 L 267.08,749.22 L 266.36,749.22 Z M 276.08,749.94 L 276.80,749.94 L 276.80,749.22 L 276.08,749.22 Z M 285.80,749.94 L 286.52,749.94 L 286.52,749.22 L 285.80,749.22 Z M 295.52,749.94 L 296.24,749.94 L 296.24,749.22 L 295.52,749.22 Z M 305.24,749.94 L 305.96,749.94 L 305.96,749.22 L 305.24,749.22 Z M 314.96,749.94 L 315.68,749.94 L 315.68,749.22 L 314.96,749.22 Z M 324.68,749.94 L 325.40,749.94 L 325.40,749.22 L 324.68,749.22 Z M 174.20,731.20 L 175.24,731.20 L 175.24,677.43 L 174.20,677.43 Z M 183.92,731.20 L 184.96,731.20 L 184.96,677.43 L 183.92,677.43 Z M 193.64,731.20 L 194.68,731.20 L 194.68,677.43 L 193.64,677.43 Z M 203.36,731.20 L 204.40,731.20 L 204.40,677.43 L 203.36,677.43 Z M 213.08,731.20 L 214.12,731.20 L 214.12,677.43 L 213.08,677.43 Z M 222.80,731.20 L 223.84,731.20 L 223.84,677.43 L 222.80,677.43 Z M 174.20,731.20 L 223.84,731.20 L 223.84,730.52 L 174.20,730.52 Z M 178.88,676.33 L 179.60,676.33 L 179.60,675.61 L 178.88,675.61 Z M 188.60,676.33 L 189.32,676.33 L 189.32,675.61 L 188.60,675.61 Z M 198.32,676.33 L 199.04,676.33 L 199.04,675.61 L 198.32,675.61 Z M 208.04,676.33 L 208.76,676.33 L 208.76,675.61 L 208.04,675.61 Z M 217.76,676.33 L 218.48,676.33 L 218.48,675.61 L 217.76,675.61 Z M 174.20,657.59 L 175.24,657.59 L 175.24,656.19 L 174.20,656.19 Z M 174.20,654.19 L 175.24,654.19 L 175.24,652.79 L 174.20,652.79 Z M 32.16,613.43 L 32.88,613.43 L 32.88,612.71 L 32.16,612.71 Z M 32.16,612.07 L 32.88,612.07 L 32.88,611.35 L 32.16,611.35 Z M 32.16,610.71 L 32.88,610.71 L 32.88,609.99 L 32.16,609.99 Z M 32.16,609.35 L 32.88,609.35 L 32.88,608.63 L 32.16,608.63 Z M 32.16,607.99 L 32.88,607.99 L 32.88,607.27 L 32.16,607.27 Z M 35.20,613.43 L 35.92,613.43 L 35.92,612.71 L 35.20,612.71 Z M 35.20,612.07 L 35.92,612.07 L 35.92,611.35 L 35.20,611.35 Z M 35.20,610.71 L 35.92,610.71 L 35.92,609.99 L 35.20,609.99 Z M 35.20,609.35 L 35.92,609.35 L 35.92,608.63 L 35.20,608.63 Z M 35.20,607.99 L 35.92,607.99 L 35.92,607.27 L 35.20,607.27 Z M 33.68,604.69 L 34.40,604.69 L 34.40,603.97 L 33.68,603.97 Z M 36.92,613.43 L 37.64,613.43 L 37.64,612.71 L 36.92,612.71 Z M 36.92,612.07 L 37.64,612.07 L 37.64,611.35 L 36.92,611.35 Z M 36.92,610.71 L 37.64,610.71 L 37.64,609.99 L 36.92,609.99 Z M 36.92,609.35 L 37.64,609.35 L 37.64,608.63 L 36.92,608.63 Z M 36.92,607.99 L 37.64,607.99 L 37.64,607.27 L 36.92,607.27 Z M 39.96,613.43 L 40.68,613.43 L 40.68,612.71 L 39.96,612.71 Z M 39.96,612.07 L 40.68,612.07 L 40.68,611.35 L 39.96,611.35 Z M 39.96,610.71 L 40.68,610.71 L 40.68,609.99 L 39.96,609.99 Z M 39.96,609.35 L 40.68,609.35 L 40.68,608.63 L 39.96,608.63 Z M 39.96,607.99 L 40.68,607.99 L 40.68,607.27 L 39.96,607.27 Z M 38.44,604.69 L 39.16,604.69 L 39.16,603.97 L 38.44,603.97 Z M 32.00,613.59 L 33.04,613.59 L 33.04,605.59 L 32.00,605.59 Z M 35.04,613.59 L 36.08,613.59 L 36.08,605.59 L 35.04,605.59 Z M 36.76,613.59 L 37.80,613.59 L 37.80,605.59 L 36.76,605.59 Z M 39.80,613.59 L 40.84,613.59 L 40.84,605.59 L 39.80,605.59 Z M 32.16,637.43 L 32.88,637.43 L 32.88,636.71 L 32.16,636.71 Z M 32.16,636.07 L 32.88,636.07 L 32.88,635.35 L 32.16,635.35 Z M 32.16,634.71 L 32.88,634.71 L 32.88,633.99 L 32.16,633.99 Z M 32.16,633.35 L 32.88,633.35 L 32.88,632.63 L 32.16,632.63 Z M 32.16,631.99 L 32.88,631.99 L 32.88,631.27 L 32.16,631.27 Z M 35.20,637.43 L 35.92,637.43 L 35.92,636.71 L 35.20,636.71 Z M 35.20,636.07 L 35.92,636.07 L 35.92,635.35 L 35.20,635.35 Z M 35.20,634.71 L 35.92,634.71 L 35.92,633.99 L 35.20,633.99 Z M 35.20,633.35 L 35.92,633.35 L 35.92,632.63 L 35.20,632.63 Z M 35.20,631.99 L 35.92,631.99 L 35.92,631.27 L 35.20,631.27 Z M 33.68,628.69 L 34.40,628.69 L 34.40,627.97 L 33.68,627.97 Z M 32.00,637.59 L 33.04,637.59 L 33.04,629.59 L 32.00,629.59 Z M 35.04,637.59 L 36.08,637.59 L 36.08,629.59 L 35.04,629.59 Z M 46.16,593.43 L 46.88,593.43 L 46.88,592.71 L 46.16,592.71 Z M 46.16,592.07 L 46.88,592.07 L 46.88,591.35 L 46.16,591.35 Z M 46.16,590.71 L 46.88,590.71 L 46.88,589.99 L 46.16,589.99 Z M 46.16,589.35 L 46.88,589.35 L 46.88,588.63 L 46.16,588.63 Z M 46.16,587.99 L 46.88,587.99 L 46.88,587.27 L 46.16,587.27 Z M 49.20,593.43 L 49.92,593.43 L 49.92,592.71 L 49.20,592.71 Z M 49.20,592.07 L 49.92,592.07 L 49.92,591.35 L 49.20,591.35 Z M 49.20,590.71 L 49.92,590.71 L 49.92,589.99 L 49.20,589.99 Z M 49.20,589.35 L 49.92,589.35 L 49.92,588.63 L 49.20,588.63 Z M 49.20,587.99 L 49.92,587.99 L 49.92,587.27 L 49.20,587.27 Z M 47.68,584.69 L 48.40,584.69 L 48.40,583.97 L 47.68,583.97 Z M 50.92,593.43 L 51.64,593.43 L 51.64,592.71 L 50.92,592.71 Z M 50.92,592.07 L 51.64,592.07 L 51.64,591.35 L 50.92,591.35 Z M 50.92,590.71 L 51.64,590.71 L 51.64,589.99 L 50.92,589.99 Z M 50.92,589.35 L 51.64,589.35 L 51.64,588.63 L 50.92,588.63 Z M 50.92,587.99 L 51.64,587.99 L 51.64,587.27 L 50.92,587.27 Z M 53.96,593.43 L 54.68,593.43 L 54.68,592.71 L 53.96,592.71 Z M 53.96,592.07 L 54.68,592.07 L 54.68,591.35 L 53.96,591.35 Z M 53.96,590.71 L 54.68,590.71 L 54.68,589.99 L 53.96,589.99 Z M 53.96,589.35 L 54.68,589.35 L 54.68,588.63 L 53.96,588.63 Z M 53.96,587.99 L 54.68,587.99 L 54.68,587.27 L 53.96,587.27 Z M 52.44,584.69 L 53.16,584.69 L 53.16,583.97 L 52.44,583.97 Z M 46.00,593.59 L 47.04,593.59 L 47.04,585.59 L 46.00,585.59 Z M 49.04,593.59 L 50.08,593.59 L 50.08,585.59 L 49.04,585.59 Z M 50.76,593.59 L 51.80,593.59 L 51.80,585.59 L 50.76,585.59 Z M 53.80,593.59 L 54.84,593.59 L 54.84,585.59 L 53.80,585.59 Z M 48.16,613.43 L 48.88,613.43 L 48.88,612.71 L 48.16,612.71 Z M 48.16,612.07 L 48.88,612.07 L 48.88,611.35 L 48.16,611.35 Z M 48.16,610.71 L 48.88,610.71 L 48.88,609.99 L 48.16,609.99 Z M 48.16,609.35 L 48.88,609.35 L 48.88,608.63 L 48.16,608.63 Z M 48.16,607.99 L 48.88,607.99 L 48.88,607.27 L 48.16,607.27 Z M 49.80,613.43 L 50.52,613.43 L 50.52,612.71 L 49.80,612.71 Z M 49.80,612.07 L 50.52,612.07 L 50.52,611.35 L 49.80,611.35 Z M 49.80,610.71 L 50.52,610.71 L 50.52,609.99 L 49.80,609.99 Z M 49.80,609.35 L 50.52,609.35 L 50.52,608.63 L 49.80,608.63 Z M 49.80,607.99 L 50.52,607.99 L 50.52,607.27 L 49.80,607.27 Z M 48.00,613.59 L 49.04,613.59 L 49.04,605.59 L 48.00,605.59 Z M 49.64,613.59 L 50.68,613.59 L 50.68,605.59 L 49.64,605.59 Z M 48.16,625.43 L 48.88,625.43 L 48.88,624.71 L 48.16,624.71 Z M 48.16,624.07 L 48.88,624.07 L 48.88,623.35 L 48.16,623.35 Z M 49.80,625.43 L 50.52,625.43 L 50.52,624.71 L 49.80,624.71 Z M 49.80,624.07 L 50.52,624.07 L 50.52,623.35 L 49.80,623.35 Z M 48.00,625.59 L 49.04,625.59 L 49.04,621.59 L 48.00,621.59 Z M 49.64,625.59 L 50.68,625.59 L 50.68,621.59 L 49.64,621.59 Z M 46.16,637.43 L 46.88,637.43 L 46.88,636.71 L 46.16,636.71 Z M 46.16,636.07 L 46.88,636.07 L 46.88,635.35 L 46.16,635.35 Z M 46.16,634.71 L 46.88,634.71 L 46.88,633.99 L 46.16,633.99 Z M 46.16,633.35 L 46.88,633.35 L 46.88,632.63 L 46.16,632.63 Z M 46.16,631.99 L 46.88,631.99 L 46.88,631.27 L 46.16,631.27 Z M 49.20,637.43 L 49.92,637.43 L 49.92,636.71 L 49.20,636.71 Z M 49.20,636.07 L 49.92,636.07 L 49.92,635.35 L 49.20,635.35 Z M 49.20,634.71 L 49.92,634.71 L 49.92,633.99 L 49.20,633.99 Z M 49.20,633.35 L 49.92,633.35 L 49.92,632.63 L 49.20,632.63 Z M 49.20,631.99 L 49.92,631.99 L 49.92,631.27 L 49.20,631.27 Z M 47.68,628.69 L 48.40,628.69 L 48.40,627.97 L 47.68,627.97 Z M 46.00,637.59 L 47.04,637.59 L 47.04,629.59 L 46.00,629.59 Z M 49.04,637.59 L 50.08,637.59 L 50.08,629.59 L 49.04,629.59 Z M 62.16,593.43 L 62.88,593.43 L 62.88,592.71 L 62.16,592.71 Z M 62.16,592.07 L 62.88,592.07 L 62.88,591.35 L 62.16,591.35 Z M 62.16,590.71 L 62.88,590.71 L 62.88,589.99 L 62.16,589.99 Z M 62.16,589.35 L 62.88,589.35 L 62.88,588.63 L 62.16,588.63 Z M 62.16,587.99 L 62.88,587.99 L 62.88,587.27 L 62.16,587.27 Z M 65.20,593.43 L 65.92,593.43 L 65.92,592.71 L 65.20,592.71 Z M 65.20,592.07 L 65.92,592.07 L 65.92,591.35 L 65.20,591.35 Z M 65.20,590.71 L 65.92,590.71 L 65.92,589.99 L 65.20,589.99 Z M 65.20,589.35 L 65.92,589.35 L 65.92,588.63 L 65.20,588.63 Z M 65.20,587.99 L 65.92,587.99 L 65.92,587.27 L 65.20,587.27 Z M 63.68,584.69 L 64.40,584.69 L 64.40,583.97 L 63.68,583.97 Z M 66.92,593.43 L 67.64,593.43 L 67.64,592.71 L 66.92,592.71 Z M 66.92,592.07 L 67.64,592.07 L 67.64,591.35 L 66.92,591.35 Z M 66.92,590.71 L 67.64,590.71 L 67.64,589.99 L 66.92,589.99 Z M 66.92,589.35 L 67.64,589.35 L 67.64,588.63 L 66.92,588.63 Z M 66.92,587.99 L 67.64,587.99 L 67.64,587.27 L 66.92,587.27 Z M 69.96,593.43 L 70.68,593.43 L 70.68,592.71 L 69.96,592.71 Z M 69.96,592.07 L 70.68,592.07 L 70.68,591.35 L 69.96,591.35 Z M 69.96,590.71 L 70.68,590.71 L 70.68,589.99 L 69.96,589.99 Z M 69.96,589.35 L 70.68,589.35 L 70.68,588.63 L 69.96,588.63 Z M 69.96,587.99 L 70.68,587.99 L 70.68,587.27 L 69.96,587.27 Z M 68.44,584.69 L 69.16,584.69 L 69.16,583.97 L 68.44,583.97 Z M 62.00,593.59 L 63.04,593.59 L 63.04,585.59 L 62.00,585.59 Z M 65.04,593.59 L 66.08,593.59 L 66.08,585.59 L 65.04,585.59 Z M 66.76,593.59 L 67.80,593.59 L 67.80,585.59 L 66.76,585.59 Z M 69.80,593.59 L 70.84,593.59 L 70.84,585.59 L 69.80,585.59 Z M 64.16,613.43 L 64.88,613.43 L 64.88,612.71 L 64.16,612.71 Z M 64.16,612.07 L 64.88,612.07 L 64.88,611.35 L 64.16,611.35 Z M 64.16,610.71 L 64.88,610.71 L 64.88,609.99 L 64.16,609.99 Z M 64.16,609.35 L 64.88,609.35 L 64.88,608.63 L 64.16,608.63 Z M 64.16,607.99 L 64.88,607.99 L 64.88,607.27 L 64.16,607.27 Z M 65.80,613.43 L 66.52,613.43 L 66.52,612.71 L 65.80,612.71 Z M 65.80,612.07 L 66.52,612.07 L 66.52,611.35 L 65.80,611.35 Z M 65.80,610.71 L 66.52,610.71 L 66.52,609.99 L 65.80,609.99 Z M 65.80,609.35 L 66.52,609.35 L 66.52,608.63 L 65.80,608.63 Z M 65.80,607.99 L 66.52,607.99 L 66.52,607.27 L 65.80,607.27 Z M 64.00,613.59 L 65.04,613.59 L 65.04,605.59 L 64.00,605.59 Z M 65.64,613.59 L 66.68,613.59 L 66.68,605.59 L 65.64,605.59 Z M 64.16,625.43 L 64.88,625.43 L 64.88,624.71 L 64.16,624.71 Z M 64.16,624.07 L 64.88,624.07 L 64.88,623.35 L 64.16,623.35 Z M 65.80,625.43 L 66.52,625.43 L 66.52,624.71 L 65.80,624.71 Z M 65.80,624.07 L 66.52,624.07 L 66.52,623.35 L 65.80,623.35 Z M 64.00,625.59 L 65.04,625.59 L 65.04,621.59 L 64.00,621.59 Z M 65.64,625.59 L 66.68,625.59 L 66.68,621.59 L 65.64,621.59 Z M 62.16,637.43 L 62.88,637.43 L 62.88,636.71 L 62.16,636.71 Z M 62.16,636.07 L 62.88,636.07 L 62.88,635.35 L 62.16,635.35 Z M 62.16,634.71 L 62.88,634.71 L 62.88,633.99 L 62.16,633.99 Z M 62.16,633.35 L 62.88,633.35 L 62.88,632.63 L 62.16,632.63 Z M 62.16,631.99 L 62.88,631.99 L 62.88,631.27 L 62.16,631.27 Z M 65.20,637.43 L 65.92,637.43 L 65.92,636.71 L 65.20,636.71 Z M 65.20,636.07 L 65.92,636.07 L 65.92,635.35 L 65.20,635.35 Z M 65.20,634.71 L 65.92,634.71 L 65.92,633.99 L 65.20,633.99 Z M 65.20,633.35 L 65.92,633.35 L 65.92,632.63 L 65.20,632.63 Z M 65.20,631.99 L 65.92,631.99 L 65.92,631.27 L 65.20,631.27 Z M 63.68,628.69 L 64.40,628.69 L 64.40,627.97 L 63.68,627.97 Z M 62.00,637.59 L 63.04,637.59 L 63.04,629.59 L 62.00,629.59 Z M 65.04,637.59 L 66.08,637.59 L 66.08,629.59 L 65.04,629.59 Z M 78.16,593.43 L 78.88,593.43 L 78.88,592.71 L 78.16,592.71 Z M 78.16,592.07 L 78.88,592.07 L 78.88,591.35 L 78.16,591.35 Z M 78.16,590.71 L 78.88,590.71 L 78.88,589.99 L 78.16,589.99 Z M 78.16,589.35 L 78.88,589.35 L 78.88,588.63 L 78.16,588.63 Z M 78.16,587.99 L 78.88,587.99 L 78.88,587.27 L 78.16,587.27 Z M 81.20,593.43 L 81.92,593.43 L 81.92,592.71 L 81.20,592.71 Z M 81.20,592.07 L 81.92,592.07 L 81.92,591.35 L 81.20,591.35 Z M 81.20,590.71 L 81.92,590.71 L 81.92,589.99 L 81.20,589.99 Z M 81.20,589.35 L 81.92,589.35 L 81.92,588.63 L 81.20,588.63 Z M 81.20,587.99 L 81.92,587.99 L 81.92,587.27 L 81.20,587.27 Z M 79.68,584.69 L 80.40,584.69 L 80.40,583.97 L 79.68,583.97 Z M 82.92,593.43 L 83.64,593.43 L 83.64,592.71 L 82.92,592.71 Z M 82.92,592.07 L 83.64,592.07 L 83.64,591.35 L 82.92,591.35 Z M 82.92,590.71 L 83.64,590.71 L 83.64,589.99 L 82.92,589.99 Z M 82.92,589.35 L 83.64,589.35 L 83.64,588.63 L 82.92,588.63 Z M 82.92,587.99 L 83.64,587.99 L 83.64,587.27 L 82.92,587.27 Z M 85.96,593.43 L 86.68,593.43 L 86.68,592.71 L 85.96,592.71 Z M 85.96,592.07 L 86.68,592.07 L 86.68,591.35 L 85.96,591.35 Z M 85.96,590.71 L 86.68,590.71 L 86.68,589.99 L 85.96,589.99 Z M 85.96,589.35 L 86.68,589.35 L 86.68,588.63 L 85.96,588.63 Z M 85.96,587.99 L 86.68,587.99 L 86.68,587.27 L 85.96,587.27 Z M 84.44,584.69 L 85.16,584.69 L 85.16,583.97 L 84.44,583.97 Z M 78.00,593.59 L 79.04,593.59 L 79.04,585.59 L 78.00,585.59 Z M 81.04,593.59 L 82.08,593.59 L 82.08,585.59 L 81.04,585.59 Z M 82.76,593.59 L 83.80,593.59 L 83.80,585.59 L 82.76,585.59 Z M 85.80,593.59 L 86.84,593.59 L 86.84,585.59 L 85.80,585.59 Z M 80.16,613.43 L 80.88,613.43 L 80.88,612.71 L 80.16,612.71 Z M 80.16,612.07 L 80.88,612.07 L 80.88,611.35 L 80.16,611.35 Z M 80.16,610.71 L 80.88,610.71 L 80.88,609.99 L 80.16,609.99 Z M 80.16,609.35 L 80.88,609.35 L 80.88,608.63 L 80.16,608.63 Z M 80.16,607.99 L 80.88,607.99 L 80.88,607.27 L 80.16,607.27 Z M 81.80,613.43 L 82.52,613.43 L 82.52,612.71 L 81.80,612.71 Z M 81.80,612.07 L 82.52,612.07 L 82.52,611.35 L 81.80,611.35 Z M 81.80,610.71 L 82.52,610.71 L 82.52,609.99 L 81.80,609.99 Z M 81.80,609.35 L 82.52,609.35 L 82.52,608.63 L 81.80,608.63 Z M 81.80,607.99 L 82.52,607.99 L 82.52,607.27 L 81.80,607.27 Z M 80.00,613.59 L 81.04,613.59 L 81.04,605.59 L 80.00,605.59 Z M 81.64,613.59 L 82.68,613.59 L 82.68,605.59 L 81.64,605.59 Z M 80.16,625.43 L 80.88,625.43 L 80.88,624.71 L 80.16,624.71 Z M 80.16,624.07 L 80.88,624.07 L 80.88,623.35 L 80.16,623.35 Z M 81.80,625.43 L 82.52,625.43 L 82.52,624.71 L 81.80,624.71 Z M 81.80,624.07 L 82.52,624.07 L 82.52,623.35 L 81.80,623.35 Z M 80.00,625.59 L 81.04,625.59 L 81.04,621.59 L 80.00,621.59 Z M 81.64,625.59 L 82.68,625.59 L 82.68,621.59 L 81.64,621.59 Z M 78.16,637.43 L 78.88,637.43 L 78.88,636.71 L 78.16,636.71 Z M 78.16,636.07 L 78.88,636.07 L 78.88,635.35 L 78.16,635.35 Z M 78.16,634.71 L 78.88,634.71 L 78.88,633.99 L 78.16,633.99 Z M 78.16,633.35 L 78.88,633.35 L 78.88,632.63 L 78.16,632.63 Z M 78.16,631.99 L 78.88,631.99 L 78.88,631.27 L 78.16,631.27 Z M 81.20,637.43 L 81.92,637.43 L 81.92,636.71 L 81.20,636.71 Z M 81.20,636.07 L 81.92,636.07 L 81.92,635.35 L 81.20,635.35 Z M 81.20,634.71 L 81.92,634.71 L 81.92,633.99 L 81.20,633.99 Z M 81.20,633.35 L 81.92,633.35 L 81.92,632.63 L 81.20,632.63 Z M 81.20,631.99 L 81.92,631.99 L 81.92,631.27 L 81.20,631.27 Z M 79.68,628.69 L 80.40,628.69 L 80.40,627.97 L 79.68,627.97 Z M 78.00,637.59 L 79.04,637.59 L 79.04,629.59 L 78.00,629.59 Z M 81.04,637.59 L 82.08,637.59 L 82.08,629.59 L 81.04,629.59 Z M 94.16,593.43 L 94.88,593.43 L 94.88,592.71 L 94.16,592.71 Z M 94.16,592.07 L 94.88,592.07 L 94.88,591.35 L 94.16,591.35 Z M 94.16,590.71 L 94.88,590.71 L 94.88,589.99 L 94.16,589.99 Z M 94.16,589.35 L 94.88,589.35 L 94.88,588.63 L 94.16,588.63 Z M 94.16,587.99 L 94.88,587.99 L 94.88,587.27 L 94.16,587.27 Z M 97.20,593.43 L 97.92,593.43 L 97.92,592.71 L 97.20,592.71 Z M 97.20,592.07 L 97.92,592.07 L 97.92,591.35 L 97.20,591.35 Z M 97.20,590.71 L 97.92,590.71 L 97.92,589.99 L 97.20,589.99 Z M 97.20,589.35 L 97.92,589.35 L 97.92,588.63 L 97.20,588.63 Z M 97.20,587.99 L 97.92,587.99 L 97.92,587.27 L 97.20,587.27 Z M 95.68,584.69 L 96.40,584.69 L 96.40,583.97 L 95.68,583.97 Z M 98.92,593.43 L 99.64,593.43 L 99.64,592.71 L 98.92,592.71 Z M 98.92,592.07 L 99.64,592.07 L 99.64,591.35 L 98.92,591.35 Z M 98.92,590.71 L 99.64,590.71 L 99.64,589.99 L 98.92,589.99 Z M 98.92,589.35 L 99.64,589.35 L 99.64,588.63 L 98.92,588.63 Z M 98.92,587.99 L 99.64,587.99 L 99.64,587.27 L 98.92,587.27 Z M 101.96,593.43 L 102.68,593.43 L 102.68,592.71 L 101.96,592.71 Z M 101.96,592.07 L 102.68,592.07 L 102.68,591.35 L 101.96,591.35 Z M 101.96,590.71 L 102.68,590.71 L 102.68,589.99 L 101.96,589.99 Z M 101.96,589.35 L 102.68,589.35 L 102.68,588.63 L 101.96,588.63 Z M 101.96,587.99 L 102.68,587.99 L 102.68,587.27 L 101.96,587.27 Z M 100.44,584.69 L 101.16,584.69 L 101.16,583.97 L 100.44,583.97 Z M 94.00,593.59 L 95.04,593.59 L 95.04,585.59 L 94.00,585.59 Z M 97.04,593.59 L 98.08,593.59 L 98.08,585.59 L 97.04,585.59 Z M 98.76,593.59 L 99.80,593.59 L 99.80,585.59 L 98.76,585.59 Z M 101.80,593.59 L 102.84,593.59 L 102.84,585.59 L 101.80,585.59 Z M 96.16,613.43 L 96.88,613.43 L 96.88,612.71 L 96.16,612.71 Z M 96.16,612.07 L 96.88,612.07 L 96.88,611.35 L 96.16,611.35 Z M 96.16,610.71 L 96.88,610.71 L 96.88,609.99 L 96.16,609.99 Z M 96.16,609.35 L 96.88,609.35 L 96.88,608.63 L 96.16,608.63 Z M 96.16,607.99 L 96.88,607.99 L 96.88,607.27 L 96.16,607.27 Z M 97.80,613.43 L 98.52,613.43 L 98.52,612.71 L 97.80,612.71 Z M 97.80,612.07 L 98.52,612.07 L 98.52,611.35 L 97.80,611.35 Z M 97.80,610.71 L 98.52,610.71 L 98.52,609.99 L 97.80,609.99 Z M 97.80,609.35 L 98.52,609.35 L 98.52,608.63 L 97.80,608.63 Z M 97.80,607.99 L 98.52,607.99 L 98.52,607.27 L 97.80,607.27 Z M 96.00,613.59 L 97.04,613.59 L 97.04,605.59 L 96.00,605.59 Z M 97.64,613.59 L 98.68,613.59 L 98.68,605.59 L 97.64,605.59 Z M 96.16,625.43 L 96.88,625.43 L 96.88,624.71 L 96.16,624.71 Z M 96.16,624.07 L 96.88,624.07 L 96.88,623.35 L 96.16,623.35 Z M 97.80,625.43 L 98.52,625.43 L 98.52,624.71 L 97.80,624.71 Z M 97.80,624.07 L 98.52,624.07 L 98.52,623.35 L 97.80,623.35 Z M 96.00,625.59 L 97.04,625.59 L 97.04,621.59 L 96.00,621.59 Z M 97.64,625.59 L 98.68,625.59 L 98.68,621.59 L 97.64,621.59 Z M 94.16,637.43 L 94.88,637.43 L 94.88,636.71 L 94.16,636.71 Z M 94.16,636.07 L 94.88,636.07 L 94.88,635.35 L 94.16,635.35 Z M 94.16,634.71 L 94.88,634.71 L 94.88,633.99 L 94.16,633.99 Z M 94.16,633.35 L 94.88,633.35 L 94.88,632.63 L 94.16,632.63 Z M 94.16,631.99 L 94.88,631.99 L 94.88,631.27 L 94.16,631.27 Z M 97.20,637.43 L 97.92,637.43 L 97.92,636.71 L 97.20,636.71 Z M 97.20,636.07 L 97.92,636.07 L 97.92,635.35 L 97.20,635.35 Z M 97.20,634.71 L 97.92,634.71 L 97.92,633.99 L 97.20,633.99 Z M 97.20,633.35 L 97.92,633.35 L 97.92,632.63 L 97.20,632.63 Z M 97.20,631.99 L 97.92,631.99 L 97.92,631.27 L 97.20,631.27 Z M 95.68,628.69 L 96.40,628.69 L 96.40,627.97 L 95.68,627.97 Z M 94.00,637.59 L 95.04,637.59 L 95.04,629.59 L 94.00,629.59 Z M 97.04,637.59 L 98.08,637.59 L 98.08,629.59 L 97.04,629.59 Z M 110.16,593.43 L 110.88,593.43 L 110.88,592.71 L 110.16,592.71 Z M 110.16,592.07 L 110.88,592.07 L 110.88,591.35 L 110.16,591.35 Z M 110.16,590.71 L 110.88,590.71 L 110.88,589.99 L 110.16,589.99 Z M 110.16,589.35 L 110.88,589.35 L 110.88,588.63 L 110.16,588.63 Z M 110.16,587.99 L 110.88,587.99 L 110.88,587.27 L 110.16,587.27 Z M 113.20,593.43 L 113.92,593.43 L 113.92,592.71 L 113.20,592.71 Z M 113.20,592.07 L 113.92,592.07 L 113.92,591.35 L 113.20,591.35 Z M 113.20,590.71 L 113.92,590.71 L 113.92,589.99 L 113.20,589.99 Z M 113.20,589.35 L 113.92,589.35 L 113.92,588.63 L 113.20,588.63 Z M 113.20,587.99 L 113.92,587.99 L 113.92,587.27 L 113.20,587.27 Z M 111.68,584.69 L 112.40,584.69 L 112.40,583.97 L 111.68,583.97 Z M 114.92,593.43 L 115.64,593.43 L 115.64,592.71 L 114.92,592.71 Z M 114.92,592.07 L 115.64,592.07 L 115.64,591.35 L 114.92,591.35 Z M 114.92,590.71 L 115.64,590.71 L 115.64,589.99 L 114.92,589.99 Z M 114.92,589.35 L 115.64,589.35 L 115.64,588.63 L 114.92,588.63 Z M 114.92,587.99 L 115.64,587.99 L 115.64,587.27 L 114.92,587.27 Z M 117.96,593.43 L 118.68,593.43 L 118.68,592.71 L 117.96,592.71 Z M 117.96,592.07 L 118.68,592.07 L 118.68,591.35 L 117.96,591.35 Z M 117.96,590.71 L 118.68,590.71 L 118.68,589.99 L 117.96,589.99 Z M 117.96,589.35 L 118.68,589.35 L 118.68,588.63 L 117.96,588.63 Z M 117.96,587.99 L 118.68,587.99 L 118.68,587.27 L 117.96,587.27 Z M 116.44,584.69 L 117.16,584.69 L 117.16,583.97 L 116.44,583.97 Z M 110.00,593.59 L 111.04,593.59 L 111.04,585.59 L 110.00,585.59 Z M 113.04,593.59 L 114.08,593.59 L 114.08,585.59 L 113.04,585.59 Z M 114.76,593.59 L 115.80,593.59 L 115.80,585.59 L 114.76,585.59 Z M 117.80,593.59 L 118.84,593.59 L 118.84,585.59 L 117.80,585.59 Z M 112.16,613.43 L 112.88,613.43 L 112.88,612.71 L 112.16,612.71 Z M 112.16,612.07 L 112.88,612.07 L 112.88,611.35 L 112.16,611.35 Z M 112.16,610.71 L 112.88,610.71 L 112.88,609.99 L 112.16,609.99 Z M 112.16,609.35 L 112.88,609.35 L 112.88,608.63 L 112.16,608.63 Z M 112.16,607.99 L 112.88,607.99 L 112.88,607.27 L 112.16,607.27 Z M 113.80,613.43 L 114.52,613.43 L 114.52,612.71 L 113.80,612.71 Z M 113.80,612.07 L 114.52,612.07 L 114.52,611.35 L 113.80,611.35 Z M 113.80,610.71 L 114.52,610.71 L 114.52,609.99 L 113.80,609.99 Z M 113.80,609.35 L 114.52,609.35 L 114.52,608.63 L 113.80,608.63 Z M 113.80,607.99 L 114.52,607.99 L 114.52,607.27 L 113.80,607.27 Z M 112.00,613.59 L 113.04,613.59 L 113.04,605.59 L 112.00,605.59 Z M 113.64,613.59 L 114.68,613.59 L 114.68,605.59 L 113.64,605.59 Z M 112.16,625.43 L 112.88,625.43 L 112.88,624.71 L 112.16,624.71 Z M 112.16,624.07 L 112.88,624.07 L 112.88,623.35 L 112.16,623.35 Z M 113.80,625.43 L 114.52,625.43 L 114.52,624.71 L 113.80,624.71 Z M 113.80,624.07 L 114.52,624.07 L 114.52,623.35 L 113.80,623.35 Z M 112.00,625.59 L 113.04,625.59 L 113.04,621.59 L 112.00,621.59 Z M 113.64,625.59 L 114.68,625.59 L 114.68,621.59 L 113.64,621.59 Z M 110.16,637.43 L 110.88,637.43 L 110.88,636.71 L 110.16,636.71 Z M 110.16,636.07 L 110.88,636.07 L 110.88,635.35 L 110.16,635.35 Z M 110.16,634.71 L 110.88,634.71 L 110.88,633.99 L 110.16,633.99 Z M 110.16,633.35 L 110.88,633.35 L 110.88,632.63 L 110.16,632.63 Z M 110.16,631.99 L 110.88,631.99 L 110.88,631.27 L 110.16,631.27 Z M 113.20,637.43 L 113.92,637.43 L 113.92,636.71 L 113.20,636.71 Z M 113.20,636.07 L 113.92,636.07 L 113.92,635.35 L 113.20,635.35 Z M 113.20,634.71 L 113.92,634.71 L 113.92,633.99 L 113.20,633.99 Z M 113.20,633.35 L 113.92,633.35 L 113.92,632.63 L 113.20,632.63 Z M 113.20,631.99 L 113.92,631.99 L 113.92,631.27 L 113.20,631.27 Z M 111.68,628.69 L 112.40,628.69 L 112.40,627.97 L 111.68,627.97 Z M 110.00,637.59 L 111.04,637.59 L 111.04,629.59 L 110.00,629.59 Z M 113.04,637.59 L 114.08,637.59 L 114.08,629.59 L 113.04,629.59 Z" fill="#00BFFF" fill-opacity="0.55" stroke="#0099cc" stroke-width="0.5"/>
    <text x="10" y="938.04" font-family="sans-serif" font-size="11" fill="#aaaaaa">li1 (67,20) — 468 polygons</text>
</g>
</svg>
