<?xml version="1.0" encoding="UTF-8"?>
<svg xmlns="http://www.w3.org/2000/svg" width="684.0" height="968.0" viewBox="0 0 684.0 968.0">
<rect width="100%" height="100%" fill="#1a1a2e"/>
<text x="342.0" y="18" font-family="sans-serif" font-size="14" fill="#eee" text-anchor="middle" font-weight="bold">tt_um_pll_sky130 - mcon (67,44)</text>
<g transform="translate(0, 25)">
    <path d="M 20.00,923.04 L 664.00,923.04 L 664.00,20.00 L 20.00,20.00 Z" fill="none" stroke="#555555" stroke-width="1" stroke-dasharray="4,2"/>
    <path d="M 52.66,895.18 L 53.34,895.18 L 53.34,894.50 L 52.66,894.50 Z M 84.66,895.18 L 85.34,895.18 L 85.34,894.50 L 84.66,894.50 Z M 116.66,895.18 L 117.34,895.18 L 117.34,894.50 L 116.66,894.50 Z M 148.66,895.18 L 149.34,895.18 L 149.34,894.50 L 148.66,894.50 Z M 180.66,895.18 L 181.34,895.18 L 181.34,894.50 L 180.66,894.50 Z M 212.66,895.18 L 213.34,895.18 L 213.34,894.50 L 212.66,894.50 Z M 244.66,895.18 L 245.34,895.18 L 245.34,894.50 L 244.66,894.50 Z M 52.66,856.62 L 53.34,856.62 L 53.34,855.94 L 52.66,855.94 Z M 84.66,856.62 L 85.34,856.62 L 85.34,855.94 L 84.66,855.94 Z M 116.66,856.62 L 117.34,856.62 L 117.34,855.94 L 116.66,855.94 Z M 148.66,856.62 L 149.34,856.62 L 149.34,855.94 L 148.66,855.94 Z M 180.66,856.62 L 181.34,856.62 L 181.34,855.94 L 180.66,855.94 Z M 212.66,856.62 L 213.34,856.62 L 213.34,855.94 L 212.66,855.94 Z M 244.66,856.62 L 245.34,856.62 L 245.34,855.94 L 244.66,855.94 Z M 75.78,890.38 L 76.46,890.38 L 76.46,889.70 L 75.78,889.70 Z M 75.78,875.34 L 76.46,875.34 L 76.46,874.66 L 75.78,874.66 Z M 111.14,890.38 L 111.82,890.38 L 111.82,889.70 L 111.14,889.70 Z M 111.14,875.34 L 111.82,875.34 L 111.82,874.66 L 111.14,874.66 Z M 58.90,890.38 L 59.58,890.38 L 59.58,889.70 L 58.90,889.70 Z M 58.90,875.34 L 59.58,875.34 L 59.58,874.66 L 58.90,874.66 Z M 52.42,890.38 L 53.10,890.38 L 53.10,889.70 L 52.42,889.70 Z M 54.54,890.38 L 55.22,890.38 L 55.22,889.70 L 54.54,889.70 Z M 52.42,874.34 L 53.10,874.34 L 53.10,873.66 L 52.42,873.66 Z M 54.54,874.34 L 55.22,874.34 L 55.22,873.66 L 54.54,873.66 Z M 70.10,890.38 L 70.78,890.38 L 70.78,889.70 L 70.10,889.70 Z M 72.22,890.38 L 72.90,890.38 L 72.90,889.70 L 72.22,889.70 Z M 70.10,874.34 L 70.78,874.34 L 70.78,873.66 L 70.10,873.66 Z M 72.22,874.34 L 72.90,874.34 L 72.90,873.66 L 72.22,873.66 Z M 94.26,890.38 L 94.94,890.38 L 94.94,889.70 L 94.26,889.70 Z M 94.26,875.34 L 94.94,875.34 L 94.94,874.66 L 94.26,874.66 Z M 87.78,890.38 L 88.46,890.38 L 88.46,889.70 L 87.78,889.70 Z M 89.90,890.38 L 90.58,890.38 L 90.58,889.70 L 89.90,889.70 Z M 87.78,874.34 L 88.46,874.34 L 88.46,873.66 L 87.78,873.66 Z M 89.90,874.34 L 90.58,874.34 L 90.58,873.66 L 89.90,873.66 Z M 105.46,890.38 L 106.14,890.38 L 106.14,889.70 L 105.46,889.70 Z M 107.58,890.38 L 108.26,890.38 L 108.26,889.70 L 107.58,889.70 Z M 105.46,874.34 L 106.14,874.34 L 106.14,873.66 L 105.46,873.66 Z M 107.58,874.34 L 108.26,874.34 L 108.26,873.66 L 107.58,873.66 Z M 129.62,890.38 L 130.30,890.38 L 130.30,889.70 L 129.62,889.70 Z M 129.62,875.34 L 130.30,875.34 L 130.30,874.66 L 129.62,874.66 Z M 123.14,890.38 L 123.82,890.38 L 123.82,889.70 L 123.14,889.70 Z M 125.26,890.38 L 125.94,890.38 L 125.94,889.70 L 125.26,889.70 Z M 123.14,874.34 L 123.82,874.34 L 123.82,873.66 L 123.14,873.66 Z M 125.26,874.34 L 125.94,874.34 L 125.94,873.66 L 125.26,873.66 Z M 147.30,890.38 L 147.98,890.38 L 147.98,889.70 L 147.30,889.70 Z M 147.30,875.34 L 147.98,875.34 L 147.98,874.66 L 147.30,874.66 Z M 140.82,890.38 L 141.50,890.38 L 141.50,889.70 L 140.82,889.70 Z M 142.94,890.38 L 143.62,890.38 L 143.62,889.70 L 142.94,889.70 Z M 140.82,874.34 L 141.50,874.34 L 141.50,873.66 L 140.82,873.66 Z M 142.94,874.34 L 143.62,874.34 L 143.62,873.66 L 142.94,873.66 Z M 181.86,890.38 L 182.54,890.38 L 182.54,889.70 L 181.86,889.70 Z M 181.86,875.34 L 182.54,875.34 L 182.54,874.66 L 181.86,874.66 Z M 217.22,890.38 L 217.90,890.38 L 217.90,889.70 L 217.22,889.70 Z M 217.22,875.34 L 217.90,875.34 L 217.90,874.66 L 217.22,874.66 Z M 164.98,890.38 L 165.66,890.38 L 165.66,889.70 L 164.98,889.70 Z M 164.98,875.34 L 165.66,875.34 L 165.66,874.66 L 164.98,874.66 Z M 158.50,890.38 L 159.18,890.38 L 159.18,889.70 L 158.50,889.70 Z M 160.62,890.38 L 161.30,890.38 L 161.30,889.70 L 160.62,889.70 Z M 158.50,874.34 L 159.18,874.34 L 159.18,873.66 L 158.50,873.66 Z M 160.62,874.34 L 161.30,874.34 L 161.30,873.66 L 160.62,873.66 Z M 176.18,890.38 L 176.86,890.38 L 176.86,889.70 L 176.18,889.70 Z M 178.30,890.38 L 178.98,890.38 L 178.98,889.70 L 178.30,889.70 Z M 176.18,874.34 L 176.86,874.34 L 176.86,873.66 L 176.18,873.66 Z M 178.30,874.34 L 178.98,874.34 L 178.98,873.66 L 178.30,873.66 Z M 200.34,890.38 L 201.02,890.38 L 201.02,889.70 L 200.34,889.70 Z M 200.34,875.34 L 201.02,875.34 L 201.02,874.66 L 200.34,874.66 Z M 193.86,890.38 L 194.54,890.38 L 194.54,889.70 L 193.86,889.70 Z M 195.98,890.38 L 196.66,890.38 L 196.66,889.70 L 195.98,889.70 Z M 193.86,874.34 L 194.54,874.34 L 194.54,873.66 L 193.86,873.66 Z M 195.98,874.34 L 196.66,874.34 L 196.66,873.66 L 195.98,873.66 Z M 211.54,890.38 L 212.22,890.38 L 212.22,889.70 L 211.54,889.70 Z M 213.66,890.38 L 214.34,890.38 L 214.34,889.70 L 213.66,889.70 Z M 211.54,874.34 L 212.22,874.34 L 212.22,873.66 L 211.54,873.66 Z M 213.66,874.34 L 214.34,874.34 L 214.34,873.66 L 213.66,873.66 Z M 235.70,890.38 L 236.38,890.38 L 236.38,889.70 L 235.70,889.70 Z M 235.70,875.34 L 236.38,875.34 L 236.38,874.66 L 235.70,874.66 Z M 229.22,890.38 L 229.90,890.38 L 229.90,889.70 L 229.22,889.70 Z M 231.34,890.38 L 232.02,890.38 L 232.02,889.70 L 231.34,889.70 Z M 229.22,874.34 L 229.90,874.34 L 229.90,873.66 L 229.22,873.66 Z M 231.34,874.34 L 232.02,874.34 L 232.02,873.66 L 231.34,873.66 Z M 253.38,890.38 L 254.06,890.38 L 254.06,889.70 L 253.38,889.70 Z M 253.38,875.34 L 254.06,875.34 L 254.06,874.66 L 253.38,874.66 Z M 246.90,890.38 L 247.58,890.38 L 247.58,889.70 L 246.90,889.70 Z M 249.02,890.38 L 249.70,890.38 L 249.70,889.70 L 249.02,889.70 Z M 246.90,874.34 L 247.58,874.34 L 247.58,873.66 L 246.90,873.66 Z M 249.02,874.34 L 249.70,874.34 L 249.70,873.66 L 249.02,873.66 Z M 271.06,890.38 L 271.74,890.38 L 271.74,889.70 L 271.06,889.70 Z M 271.06,873.34 L 271.74,873.34 L 271.74,872.66 L 271.06,872.66 Z M 264.58,889.38 L 265.26,889.38 L 265.26,888.70 L 264.58,888.70 Z M 266.70,889.38 L 267.38,889.38 L 267.38,888.70 L 266.70,888.70 Z M 264.58,870.34 L 265.26,870.34 L 265.26,869.66 L 264.58,869.66 Z M 266.70,870.34 L 267.38,870.34 L 267.38,869.66 L 266.70,869.66 Z M 71.22,508.02 L 71.90,508.02 L 71.90,507.34 L 71.22,507.34 Z M 71.22,485.42 L 71.90,485.42 L 71.90,484.74 L 71.22,484.74 Z M 94.98,508.02 L 95.66,508.02 L 95.66,507.34 L 94.98,507.34 Z M 94.98,485.42 L 95.66,485.42 L 95.66,484.74 L 94.98,484.74 Z M 120.74,508.02 L 121.42,508.02 L 121.42,507.34 L 120.74,507.34 Z M 120.74,485.42 L 121.42,485.42 L 121.42,484.74 L 120.74,484.74 Z M 146.50,508.02 L 147.18,508.02 L 147.18,507.34 L 146.50,507.34 Z M 146.50,485.42 L 147.18,485.42 L 147.18,484.74 L 146.50,484.74 Z M 172.26,508.02 L 172.94,508.02 L 172.94,507.34 L 172.26,507.34 Z M 172.26,485.42 L 172.94,485.42 L 172.94,484.74 L 172.26,484.74 Z M 198.02,508.02 L 198.70,508.02 L 198.70,507.34 L 198.02,507.34 Z M 198.02,485.42 L 198.70,485.42 L 198.70,484.74 L 198.02,484.74 Z M 52.66,514.82 L 53.34,514.82 L 53.34,514.14 L 52.66,514.14 Z M 84.66,514.82 L 85.34,514.82 L 85.34,514.14 L 84.66,514.14 Z M 116.66,514.82 L 117.34,514.82 L 117.34,514.14 L 116.66,514.14 Z M 148.66,514.82 L 149.34,514.82 L 149.34,514.14 L 148.66,514.14 Z M 180.66,514.82 L 181.34,514.82 L 181.34,514.14 L 180.66,514.14 Z M 212.66,514.82 L 213.34,514.82 L 213.34,514.14 L 212.66,514.14 Z M 244.66,514.82 L 245.34,514.82 L 245.34,514.14 L 244.66,514.14 Z M 52.42,484.42 L 53.10,484.42 L 53.10,483.74 L 52.42,483.74 Z M 55.94,484.42 L 56.62,484.42 L 56.62,483.74 L 55.94,483.74 Z M 54.18,479.08 L 54.86,479.08 L 54.86,478.40 L 54.18,478.40 Z M 58.66,484.42 L 59.34,484.42 L 59.34,483.74 L 58.66,483.74 Z M 62.18,484.42 L 62.86,484.42 L 62.86,483.74 L 62.18,483.74 Z M 60.42,479.08 L 61.10,479.08 L 61.10,478.40 L 60.42,478.40 Z M 52.42,507.02 L 53.10,507.02 L 53.10,506.34 L 52.42,506.34 Z M 55.94,507.02 L 56.62,507.02 L 56.62,506.34 L 55.94,506.34 Z M 54.18,501.68 L 54.86,501.68 L 54.86,501.00 L 54.18,501.00 Z M 76.18,468.98 L 76.86,468.98 L 76.86,468.30 L 76.18,468.30 Z M 79.70,468.98 L 80.38,468.98 L 80.38,468.30 L 79.70,468.30 Z M 77.94,463.64 L 78.62,463.64 L 78.62,462.96 L 77.94,462.96 Z M 82.42,468.98 L 83.10,468.98 L 83.10,468.30 L 82.42,468.30 Z M 85.94,468.98 L 86.62,468.98 L 86.62,468.30 L 85.94,468.30 Z M 84.18,463.64 L 84.86,463.64 L 84.86,462.96 L 84.18,462.96 Z M 78.18,484.42 L 78.86,484.42 L 78.86,483.74 L 78.18,483.74 Z M 80.30,484.42 L 80.98,484.42 L 80.98,483.74 L 80.30,483.74 Z M 78.18,496.42 L 78.86,496.42 L 78.86,495.74 L 78.18,495.74 Z M 80.30,496.42 L 80.98,496.42 L 80.98,495.74 L 80.30,495.74 Z M 76.18,507.02 L 76.86,507.02 L 76.86,506.34 L 76.18,506.34 Z M 79.70,507.02 L 80.38,507.02 L 80.38,506.34 L 79.70,506.34 Z M 77.94,501.68 L 78.62,501.68 L 78.62,501.00 L 77.94,501.00 Z M 101.94,468.98 L 102.62,468.98 L 102.62,468.30 L 101.94,468.30 Z M 105.46,468.98 L 106.14,468.98 L 106.14,468.30 L 105.46,468.30 Z M 103.70,463.64 L 104.38,463.64 L 104.38,462.96 L 103.70,462.96 Z M 108.18,468.98 L 108.86,468.98 L 108.86,468.30 L 108.18,468.30 Z M 111.70,468.98 L 112.38,468.98 L 112.38,468.30 L 111.70,468.30 Z M 109.94,463.64 L 110.62,463.64 L 110.62,462.96 L 109.94,462.96 Z M 103.94,484.42 L 104.62,484.42 L 104.62,483.74 L 103.94,483.74 Z M 106.06,484.42 L 106.74,484.42 L 106.74,483.74 L 106.06,483.74 Z M 103.94,496.42 L 104.62,496.42 L 104.62,495.74 L 103.94,495.74 Z M 106.06,496.42 L 106.74,496.42 L 106.74,495.74 L 106.06,495.74 Z M 101.94,507.02 L 102.62,507.02 L 102.62,506.34 L 101.94,506.34 Z M 105.46,507.02 L 106.14,507.02 L 106.14,506.34 L 105.46,506.34 Z M 103.70,501.68 L 104.38,501.68 L 104.38,501.00 L 103.70,501.00 Z M 127.70,468.98 L 128.38,468.98 L 128.38,468.30 L 127.70,468.30 Z M 131.22,468.98 L 131.90,468.98 L 131.90,468.30 L 131.22,468.30 Z M 129.46,463.64 L 130.14,463.64 L 130.14,462.96 L 129.46,462.96 Z M 133.94,468.98 L 134.62,468.98 L 134.62,468.30 L 133.94,468.30 Z M 137.46,468.98 L 138.14,468.98 L 138.14,468.30 L 137.46,468.30 Z M 135.70,463.64 L 136.38,463.64 L 136.38,462.96 L 135.70,462.96 Z M 129.70,484.42 L 130.38,484.42 L 130.38,483.74 L 129.70,483.74 Z M 131.82,484.42 L 132.50,484.42 L 132.50,483.74 L 131.82,483.74 Z M 129.70,496.42 L 130.38,496.42 L 130.38,495.74 L 129.70,495.74 Z M 131.82,496.42 L 132.50,496.42 L 132.50,495.74 L 131.82,495.74 Z M 127.70,507.02 L 128.38,507.02 L 128.38,506.34 L 127.70,506.34 Z M 131.22,507.02 L 131.90,507.02 L 131.90,506.34 L 131.22,506.34 Z M 129.46,501.68 L 130.14,501.68 L 130.14,501.00 L 129.46,501.00 Z M 153.46,468.98 L 154.14,468.98 L 154.14,468.30 L 153.46,468.30 Z M 156.98,468.98 L 157.66,468.98 L 157.66,468.30 L 156.98,468.30 Z M 155.22,463.64 L 155.90,463.64 L 155.90,462.96 L 155.22,462.96 Z M 159.70,468.98 L 160.38,468.98 L 160.38,468.30 L 159.70,468.30 Z M 163.22,468.98 L 163.90,468.98 L 163.90,468.30 L 163.22,468.30 Z M 161.46,463.64 L 162.14,463.64 L 162.14,462.96 L 161.46,462.96 Z M 155.46,484.42 L 156.14,484.42 L 156.14,483.74 L 155.46,483.74 Z M 157.58,484.42 L 158.26,484.42 L 158.26,483.74 L 157.58,483.74 Z M 155.46,496.42 L 156.14,496.42 L 156.14,495.74 L 155.46,495.74 Z M 157.58,496.42 L 158.26,496.42 L 158.26,495.74 L 157.58,495.74 Z M 153.46,507.02 L 154.14,507.02 L 154.14,506.34 L 153.46,506.34 Z M 156.98,507.02 L 157.66,507.02 L 157.66,506.34 L 156.98,506.34 Z M 155.22,501.68 L 155.90,501.68 L 155.90,501.00 L 155.22,501.00 Z M 179.22,468.98 L 179.90,468.98 L 179.90,468.30 L 179.22,468.30 Z M 182.74,468.98 L 183.42,468.98 L 183.42,468.30 L 182.74,468.30 Z M 180.98,463.64 L 181.66,463.64 L 181.66,462.96 L 180.98,462.96 Z M 185.46,468.98 L 186.14,468.98 L 186.14,468.30 L 185.46,468.30 Z M 188.98,468.98 L 189.66,468.98 L 189.66,468.30 L 188.98,468.30 Z M 187.22,463.64 L 187.90,463.64 L 187.90,462.96 L 187.22,462.96 Z M 181.22,484.42 L 181.90,484.42 L 181.90,483.74 L 181.22,483.74 Z M 183.34,484.42 L 184.02,484.42 L 184.02,483.74 L 183.34,483.74 Z M 181.22,496.42 L 181.90,496.42 L 181.90,495.74 L 181.22,495.74 Z M 183.34,496.42 L 184.02,496.42 L 184.02,495.74 L 183.34,495.74 Z M 179.22,507.02 L 179.90,507.02 L 179.90,506.34 L 179.22,506.34 Z M 182.74,507.02 L 183.42,507.02 L 183.42,506.34 L 182.74,506.34 Z M 180.98,501.68 L 181.66,501.68 L 181.66,501.00 L 180.98,501.00 Z M 219.46,510.02 L 220.14,510.02 L 220.14,509.34 L 219.46,509.34 Z M 219.46,492.98 L 220.14,492.98 L 220.14,492.30 L 219.46,492.30 Z M 212.98,509.02 L 213.66,509.02 L 213.66,508.34 L 212.98,508.34 Z M 215.10,509.02 L 215.78,509.02 L 215.78,508.34 L 215.10,508.34 Z M 212.98,489.98 L 213.66,489.98 L 213.66,489.30 L 212.98,489.30 Z M 215.10,489.98 L 215.78,489.98 L 215.78,489.30 L 215.10,489.30 Z M 235.14,510.02 L 235.82,510.02 L 235.82,509.34 L 235.14,509.34 Z M 235.14,492.98 L 235.82,492.98 L 235.82,492.30 L 235.14,492.30 Z M 228.66,509.02 L 229.34,509.02 L 229.34,508.34 L 228.66,508.34 Z M 230.78,509.02 L 231.46,509.02 L 231.46,508.34 L 230.78,508.34 Z M 228.66,489.98 L 229.34,489.98 L 229.34,489.30 L 228.66,489.30 Z M 230.78,489.98 L 231.46,489.98 L 231.46,489.30 L 230.78,489.30 Z M 48.66,733.24 L 49.34,733.24 L 49.34,732.56 L 48.66,732.56 Z M 283.98,733.24 L 284.66,733.24 L 284.66,732.56 L 283.98,732.56 Z M 48.66,701.24 L 49.34,701.24 L 49.34,700.56 L 48.66,700.56 Z M 283.98,701.24 L 284.66,701.24 L 284.66,700.56 L 283.98,700.56 Z M 48.66,669.24 L 49.34,669.24 L 49.34,668.56 L 48.66,668.56 Z M 283.98,669.24 L 284.66,669.24 L 284.66,668.56 L 283.98,668.56 Z M 48.66,637.24 L 49.34,637.24 L 49.34,636.56 L 48.66,636.56 Z M 283.98,637.24 L 284.66,637.24 L 284.66,636.56 L 283.98,636.56 Z M 48.66,605.24 L 49.34,605.24 L 49.34,604.56 L 48.66,604.56 Z M 283.98,605.24 L 284.66,605.24 L 284.66,604.56 L 283.98,604.56 Z M 48.66,583.52 L 49.34,583.52 L 49.34,582.84 L 48.66,582.84 Z M 137.10,583.52 L 137.78,583.52 L 137.78,582.84 L 137.10,582.84 Z M 48.66,551.52 L 49.34,551.52 L 49.34,550.84 L 48.66,550.84 Z M 137.10,551.52 L 137.78,551.52 L 137.78,550.84 L 137.10,550.84 Z M 52.42,666.82 L 53.10,666.82 L 53.10,666.14 L 52.42,666.14 Z M 57.18,596.06 L 57.86,596.06 L 57.86,595.38 L 57.18,595.38 Z M 64.66,666.82 L 65.34,666.82 L 65.34,666.14 L 64.66,666.14 Z M 69.42,596.06 L 70.10,596.06 L 70.10,595.38 L 69.42,595.38 Z M 76.90,666.82 L 77.58,666.82 L 77.58,666.14 L 76.90,666.14 Z M 81.66,596.06 L 82.34,596.06 L 82.34,595.38 L 81.66,595.38 Z M 89.14,666.82 L 89.82,666.82 L 89.82,666.14 L 89.14,666.14 Z M 93.90,596.06 L 94.58,596.06 L 94.58,595.38 L 93.90,595.38 Z M 101.38,666.82 L 102.06,666.82 L 102.06,666.14 L 101.38,666.14 Z M 106.14,596.06 L 106.82,596.06 L 106.82,595.38 L 106.14,595.38 Z M 113.62,666.82 L 114.30,666.82 L 114.30,666.14 L 113.62,666.14 Z M 118.38,596.06 L 119.06,596.06 L 119.06,595.38 L 118.38,595.38 Z M 125.86,666.82 L 126.54,666.82 L 126.54,666.14 L 125.86,666.14 Z M 130.62,596.06 L 131.30,596.06 L 131.30,595.38 L 130.62,595.38 Z M 138.10,666.82 L 138.78,666.82 L 138.78,666.14 L 138.10,666.14 Z M 142.86,596.06 L 143.54,596.06 L 143.54,595.38 L 142.86,595.38 Z M 150.34,666.82 L 151.02,666.82 L 151.02,666.14 L 150.34,666.14 Z M 155.10,596.06 L 155.78,596.06 L 155.78,595.38 L 155.10,595.38 Z M 167.38,666.82 L 168.06,666.82 L 168.06,666.14 L 167.38,666.14 Z M 172.14,596.06 L 172.82,596.06 L 172.82,595.38 L 172.14,595.38 Z M 179.62,666.82 L 180.30,666.82 L 180.30,666.14 L 179.62,666.14 Z M 184.38,596.06 L 185.06,596.06 L 185.06,595.38 L 184.38,595.38 Z M 191.86,666.82 L 192.54,666.82 L 192.54,666.14 L 191.86,666.14 Z M 196.62,596.06 L 197.30,596.06 L 197.30,595.38 L 196.62,595.38 Z M 204.10,666.82 L 204.78,666.82 L 204.78,666.14 L 204.10,666.14 Z M 208.86,596.06 L 209.54,596.06 L 209.54,595.38 L 208.86,595.38 Z M 216.34,666.82 L 217.02,666.82 L 217.02,666.14 L 216.34,666.14 Z M 221.10,596.06 L 221.78,596.06 L 221.78,595.38 L 221.10,595.38 Z M 228.58,666.82 L 229.26,666.82 L 229.26,666.14 L 228.58,666.14 Z M 233.34,596.06 L 234.02,596.06 L 234.02,595.38 L 233.34,595.38 Z M 240.82,666.82 L 241.50,666.82 L 241.50,666.14 L 240.82,666.14 Z M 245.58,596.06 L 246.26,596.06 L 246.26,595.38 L 245.58,595.38 Z M 253.06,666.82 L 253.74,666.82 L 253.74,666.14 L 253.06,666.14 Z M 257.82,596.06 L 258.50,596.06 L 258.50,595.38 L 257.82,595.38 Z M 265.30,666.82 L 265.98,666.82 L 265.98,666.14 L 265.30,666.14 Z M 270.06,596.06 L 270.74,596.06 L 270.74,595.38 L 270.06,595.38 Z M 279.38,666.82 L 280.06,666.82 L 280.06,666.14 L 279.38,666.14 Z M 164.22,733.24 L 164.90,733.24 L 164.90,732.56 L 164.22,732.56 Z M 164.22,701.24 L 164.90,701.24 L 164.90,700.56 L 164.22,700.56 Z M 164.22,669.24 L 164.90,669.24 L 164.90,668.56 L 164.22,668.56 Z M 164.22,637.24 L 164.90,637.24 L 164.90,636.56 L 164.22,636.56 Z M 164.22,605.24 L 164.90,605.24 L 164.90,604.56 L 164.22,604.56 Z M 52.42,564.56 L 53.10,564.56 L 53.10,563.88 L 52.42,563.88 Z M 57.18,541.28 L 57.86,541.28 L 57.86,540.60 L 57.18,540.60 Z M 64.66,564.56 L 65.34,564.56 L 65.34,563.88 L 64.66,563.88 Z M 69.42,541.28 L 70.10,541.28 L 70.10,540.60 L 69.42,540.60 Z M 76.90,564.56 L 77.58,564.56 L 77.58,563.88 L 76.90,563.88 Z M 81.66,541.28 L 82.34,541.28 L 82.34,540.60 L 81.66,540.60 Z M 93.94,564.56 L 94.62,564.56 L 94.62,563.88 L 93.94,563.88 Z M 98.70,541.28 L 99.38,541.28 L 99.38,540.60 L 98.70,540.60 Z M 106.18,564.56 L 106.86,564.56 L 106.86,563.88 L 106.18,563.88 Z M 110.94,541.28 L 111.62,541.28 L 111.62,540.60 L 110.94,540.60 Z M 118.42,564.56 L 119.10,564.56 L 119.10,563.88 L 118.42,563.88 Z M 123.18,541.28 L 123.86,541.28 L 123.86,540.60 L 123.18,540.60 Z M 132.50,564.56 L 133.18,564.56 L 133.18,563.88 L 132.50,563.88 Z M 90.78,583.52 L 91.46,583.52 L 91.46,582.84 L 90.78,582.84 Z M 90.78,551.52 L 91.46,551.52 L 91.46,550.84 L 90.78,550.84 Z M 52.36,531.04 L 53.04,531.04 L 53.04,530.36 L 52.36,530.36 Z M 52.36,523.72 L 53.04,523.72 L 53.04,523.04 L 52.36,523.04 Z M 52.66,790.42 L 53.34,790.42 L 53.34,789.74 L 52.66,789.74 Z M 84.66,790.42 L 85.34,790.42 L 85.34,789.74 L 84.66,789.74 Z M 116.66,790.42 L 117.34,790.42 L 117.34,789.74 L 116.66,789.74 Z M 77.22,761.02 L 77.90,761.02 L 77.90,760.34 L 77.22,760.34 Z M 106.98,761.02 L 107.66,761.02 L 107.66,760.34 L 106.98,760.34 Z M 121.70,761.02 L 122.38,761.02 L 122.38,760.34 L 121.70,760.34 Z M 52.42,760.02 L 53.10,760.02 L 53.10,759.34 L 52.42,759.34 Z M 57.94,760.02 L 58.62,760.02 L 58.62,759.34 L 57.94,759.34 Z M 55.18,754.68 L 55.86,754.68 L 55.86,754.00 L 55.18,754.00 Z M 60.66,760.02 L 61.34,760.02 L 61.34,759.34 L 60.66,759.34 Z M 66.18,760.02 L 66.86,760.02 L 66.86,759.34 L 66.18,759.34 Z M 63.42,754.68 L 64.10,754.68 L 64.10,754.00 L 63.42,754.00 Z M 82.18,760.02 L 82.86,760.02 L 82.86,759.34 L 82.18,759.34 Z M 87.70,760.02 L 88.38,760.02 L 88.38,759.34 L 87.70,759.34 Z M 84.94,754.68 L 85.62,754.68 L 85.62,754.00 L 84.94,754.00 Z M 90.42,760.02 L 91.10,760.02 L 91.10,759.34 L 90.42,759.34 Z M 95.94,760.02 L 96.62,760.02 L 96.62,759.34 L 95.94,759.34 Z M 93.18,754.68 L 93.86,754.68 L 93.86,754.00 L 93.18,754.00 Z M 111.94,760.02 L 112.62,760.02 L 112.62,759.34 L 111.94,759.34 Z M 114.06,760.02 L 114.74,760.02 L 114.74,759.34 L 114.06,759.34 Z M 52.42,782.62 L 53.10,782.62 L 53.10,781.94 L 52.42,781.94 Z M 57.94,782.62 L 58.62,782.62 L 58.62,781.94 L 57.94,781.94 Z M 55.18,777.28 L 55.86,777.28 L 55.86,776.60 L 55.18,776.60 Z M 66.46,782.62 L 67.14,782.62 L 67.14,781.94 L 66.46,781.94 Z M 71.98,782.62 L 72.66,782.62 L 72.66,781.94 L 71.98,781.94 Z M 69.22,777.28 L 69.90,777.28 L 69.90,776.60 L 69.22,776.60 Z M 80.50,784.62 L 81.18,784.62 L 81.18,783.94 L 80.50,783.94 Z M 82.62,784.62 L 83.30,784.62 L 83.30,783.94 L 82.62,783.94 Z M 52.66,845.32 L 53.34,845.32 L 53.34,844.64 L 52.66,844.64 Z M 84.66,845.32 L 85.34,845.32 L 85.34,844.64 L 84.66,844.64 Z M 116.66,845.32 L 117.34,845.32 L 117.34,844.64 L 116.66,844.64 Z M 148.66,845.32 L 149.34,845.32 L 149.34,844.64 L 148.66,844.64 Z M 180.66,845.32 L 181.34,845.32 L 181.34,844.64 L 180.66,844.64 Z M 212.66,845.32 L 213.34,845.32 L 213.34,844.64 L 212.66,844.64 Z M 244.66,845.32 L 245.34,845.32 L 245.34,844.64 L 244.66,844.64 Z M 276.66,845.32 L 277.34,845.32 L 277.34,844.64 L 276.66,844.64 Z M 308.66,845.32 L 309.34,845.32 L 309.34,844.64 L 308.66,844.64 Z M 340.66,845.32 L 341.34,845.32 L 341.34,844.64 L 340.66,844.64 Z M 52.66,801.72 L 53.34,801.72 L 53.34,801.04 L 52.66,801.04 Z M 84.66,801.72 L 85.34,801.72 L 85.34,801.04 L 84.66,801.04 Z M 116.66,801.72 L 117.34,801.72 L 117.34,801.04 L 116.66,801.04 Z M 148.66,801.72 L 149.34,801.72 L 149.34,801.04 L 148.66,801.04 Z M 180.66,801.72 L 181.34,801.72 L 181.34,801.04 L 180.66,801.04 Z M 212.66,801.72 L 213.34,801.72 L 213.34,801.04 L 212.66,801.04 Z M 244.66,801.72 L 245.34,801.72 L 245.34,801.04 L 244.66,801.04 Z M 276.66,801.72 L 277.34,801.72 L 277.34,801.04 L 276.66,801.04 Z M 308.66,801.72 L 309.34,801.72 L 309.34,801.04 L 308.66,801.04 Z M 340.66,801.72 L 341.34,801.72 L 341.34,801.04 L 340.66,801.04 Z M 75.78,840.52 L 76.46,840.52 L 76.46,839.84 L 75.78,839.84 Z M 75.78,825.48 L 76.46,825.48 L 76.46,824.80 L 75.78,824.80 Z M 111.14,840.52 L 111.82,840.52 L 111.82,839.84 L 111.14,839.84 Z M 111.14,825.48 L 111.82,825.48 L 111.82,824.80 L 111.14,824.80 Z M 58.90,840.52 L 59.58,840.52 L 59.58,839.84 L 58.90,839.84 Z M 58.90,825.48 L 59.58,825.48 L 59.58,824.80 L 58.90,824.80 Z M 52.42,840.52 L 53.10,840.52 L 53.10,839.84 L 52.42,839.84 Z M 54.54,840.52 L 55.22,840.52 L 55.22,839.84 L 54.54,839.84 Z M 52.42,824.48 L 53.10,824.48 L 53.10,823.80 L 52.42,823.80 Z M 54.54,824.48 L 55.22,824.48 L 55.22,823.80 L 54.54,823.80 Z M 70.10,840.52 L 70.78,840.52 L 70.78,839.84 L 70.10,839.84 Z M 72.22,840.52 L 72.90,840.52 L 72.90,839.84 L 72.22,839.84 Z M 70.10,824.48 L 70.78,824.48 L 70.78,823.80 L 70.10,823.80 Z M 72.22,824.48 L 72.90,824.48 L 72.90,823.80 L 72.22,823.80 Z M 94.26,840.52 L 94.94,840.52 L 94.94,839.84 L 94.26,839.84 Z M 94.26,825.48 L 94.94,825.48 L 94.94,824.80 L 94.26,824.80 Z M 87.78,840.52 L 88.46,840.52 L 88.46,839.84 L 87.78,839.84 Z M 89.90,840.52 L 90.58,840.52 L 90.58,839.84 L 89.90,839.84 Z M 87.78,824.48 L 88.46,824.48 L 88.46,823.80 L 87.78,823.80 Z M 89.90,824.48 L 90.58,824.48 L 90.58,823.80 L 89.90,823.80 Z M 105.46,840.52 L 106.14,840.52 L 106.14,839.84 L 105.46,839.84 Z M 107.58,840.52 L 108.26,840.52 L 108.26,839.84 L 107.58,839.84 Z M 105.46,824.48 L 106.14,824.48 L 106.14,823.80 L 105.46,823.80 Z M 107.58,824.48 L 108.26,824.48 L 108.26,823.80 L 107.58,823.80 Z M 129.62,840.52 L 130.30,840.52 L 130.30,839.84 L 129.62,839.84 Z M 129.62,825.48 L 130.30,825.48 L 130.30,824.80 L 129.62,824.80 Z M 123.14,840.52 L 123.82,840.52 L 123.82,839.84 L 123.14,839.84 Z M 125.26,840.52 L 125.94,840.52 L 125.94,839.84 L 125.26,839.84 Z M 123.14,824.48 L 123.82,824.48 L 123.82,823.80 L 123.14,823.80 Z M 125.26,824.48 L 125.94,824.48 L 125.94,823.80 L 125.26,823.80 Z M 147.30,840.52 L 147.98,840.52 L 147.98,839.84 L 147.30,839.84 Z M 147.30,825.48 L 147.98,825.48 L 147.98,824.80 L 147.30,824.80 Z M 140.82,840.52 L 141.50,840.52 L 141.50,839.84 L 140.82,839.84 Z M 142.94,840.52 L 143.62,840.52 L 143.62,839.84 L 142.94,839.84 Z M 140.82,824.48 L 141.50,824.48 L 141.50,823.80 L 140.82,823.80 Z M 142.94,824.48 L 143.62,824.48 L 143.62,823.80 L 142.94,823.80 Z M 181.86,840.52 L 182.54,840.52 L 182.54,839.84 L 181.86,839.84 Z M 181.86,825.48 L 182.54,825.48 L 182.54,824.80 L 181.86,824.80 Z M 217.22,840.52 L 217.90,840.52 L 217.90,839.84 L 217.22,839.84 Z M 217.22,825.48 L 217.90,825.48 L 217.90,824.80 L 217.22,824.80 Z M 164.98,840.52 L 165.66,840.52 L 165.66,839.84 L 164.98,839.84 Z M 164.98,825.48 L 165.66,825.48 L 165.66,824.80 L 164.98,824.80 Z M 158.50,840.52 L 159.18,840.52 L 159.18,839.84 L 158.50,839.84 Z M 160.62,840.52 L 161.30,840.52 L 161.30,839.84 L 160.62,839.84 Z M 158.50,824.48 L 159.18,824.48 L 159.18,823.80 L 158.50,823.80 Z M 160.62,824.48 L 161.30,824.48 L 161.30,823.80 L 160.62,823.80 Z M 176.18,840.52 L 176.86,840.52 L 176.86,839.84 L 176.18,839.84 Z M 178.30,840.52 L 178.98,840.52 L 178.98,839.84 L 178.30,839.84 Z M 176.18,824.48 L 176.86,824.48 L 176.86,823.80 L 176.18,823.80 Z M 178.30,824.48 L 178.98,824.48 L 178.98,823.80 L 178.30,823.80 Z M 200.34,840.52 L 201.02,840.52 L 201.02,839.84 L 200.34,839.84 Z M 200.34,825.48 L 201.02,825.48 L 201.02,824.80 L 200.34,824.80 Z M 193.86,840.52 L 194.54,840.52 L 194.54,839.84 L 193.86,839.84 Z M 195.98,840.52 L 196.66,840.52 L 196.66,839.84 L 195.98,839.84 Z M 193.86,824.48 L 194.54,824.48 L 194.54,823.80 L 193.86,823.80 Z M 195.98,824.48 L 196.66,824.48 L 196.66,823.80 L 195.98,823.80 Z M 211.54,840.52 L 212.22,840.52 L 212.22,839.84 L 211.54,839.84 Z M 213.66,840.52 L 214.34,840.52 L 214.34,839.84 L 213.66,839.84 Z M 211.54,824.48 L 212.22,824.48 L 212.22,823.80 L 211.54,823.80 Z M 213.66,824.48 L 214.34,824.48 L 214.34,823.80 L 213.66,823.80 Z M 235.70,840.52 L 236.38,840.52 L 236.38,839.84 L 235.70,839.84 Z M 235.70,825.48 L 236.38,825.48 L 236.38,824.80 L 235.70,824.80 Z M 229.22,840.52 L 229.90,840.52 L 229.90,839.84 L 229.22,839.84 Z M 231.34,840.52 L 232.02,840.52 L 232.02,839.84 L 231.34,839.84 Z M 229.22,824.48 L 229.90,824.48 L 229.90,823.80 L 229.22,823.80 Z M 231.34,824.48 L 232.02,824.48 L 232.02,823.80 L 231.34,823.80 Z M 253.38,840.52 L 254.06,840.52 L 254.06,839.84 L 253.38,839.84 Z M 253.38,825.48 L 254.06,825.48 L 254.06,824.80 L 253.38,824.80 Z M 246.90,840.52 L 247.58,840.52 L 247.58,839.84 L 246.90,839.84 Z M 249.02,840.52 L 249.70,840.52 L 249.70,839.84 L 249.02,839.84 Z M 246.90,824.48 L 247.58,824.48 L 247.58,823.80 L 246.90,823.80 Z M 249.02,824.48 L 249.70,824.48 L 249.70,823.80 L 249.02,823.80 Z M 289.86,840.52 L 290.54,840.52 L 290.54,839.84 L 289.86,839.84 Z M 289.86,833.48 L 290.54,833.48 L 290.54,832.80 L 289.86,832.80 Z M 289.86,818.44 L 290.54,818.44 L 290.54,817.76 L 289.86,817.76 Z M 264.58,839.52 L 265.26,839.52 L 265.26,838.84 L 264.58,838.84 Z M 266.70,839.52 L 267.38,839.52 L 267.38,838.84 L 266.70,838.84 Z M 264.58,832.48 L 265.26,832.48 L 265.26,831.80 L 264.58,831.80 Z M 266.70,832.48 L 267.38,832.48 L 267.38,831.80 L 266.70,831.80 Z M 264.58,815.44 L 265.26,815.44 L 265.26,814.76 L 264.58,814.76 Z M 266.70,815.44 L 267.38,815.44 L 267.38,814.76 L 266.70,814.76 Z M 279.30,815.44 L 279.98,815.44 L 279.98,814.76 L 279.30,814.76 Z M 281.42,815.44 L 282.10,815.44 L 282.10,814.76 L 281.42,814.76 Z M 305.54,840.52 L 306.22,840.52 L 306.22,839.84 L 305.54,839.84 Z M 305.54,825.48 L 306.22,825.48 L 306.22,824.80 L 305.54,824.80 Z M 299.06,840.52 L 299.74,840.52 L 299.74,839.84 L 299.06,839.84 Z M 301.18,840.52 L 301.86,840.52 L 301.86,839.84 L 301.18,839.84 Z M 299.06,824.48 L 299.74,824.48 L 299.74,823.80 L 299.06,823.80 Z M 301.18,824.48 L 301.86,824.48 L 301.86,823.80 L 301.18,823.80 Z M 321.22,840.52 L 321.90,840.52 L 321.90,839.84 L 321.22,839.84 Z M 321.22,825.48 L 321.90,825.48 L 321.90,824.80 L 321.22,824.80 Z M 314.74,840.52 L 315.42,840.52 L 315.42,839.84 L 314.74,839.84 Z M 316.86,840.52 L 317.54,840.52 L 317.54,839.84 L 316.86,839.84 Z M 314.74,824.48 L 315.42,824.48 L 315.42,823.80 L 314.74,823.80 Z M 316.86,824.48 L 317.54,824.48 L 317.54,823.80 L 316.86,823.80 Z M 336.90,840.52 L 337.58,840.52 L 337.58,839.84 L 336.90,839.84 Z M 336.90,825.48 L 337.58,825.48 L 337.58,824.80 L 336.90,824.80 Z M 330.42,840.52 L 331.10,840.52 L 331.10,839.84 L 330.42,839.84 Z M 332.54,840.52 L 333.22,840.52 L 333.22,839.84 L 332.54,839.84 Z M 330.42,824.48 L 331.10,824.48 L 331.10,823.80 L 330.42,823.80 Z M 332.54,824.48 L 333.22,824.48 L 333.22,823.80 L 332.54,823.80 Z M 352.58,840.52 L 353.26,840.52 L 353.26,839.84 L 352.58,839.84 Z M 352.58,825.48 L 353.26,825.48 L 353.26,824.80 L 352.58,824.80 Z M 346.10,840.52 L 346.78,840.52 L 346.78,839.84 L 346.10,839.84 Z M 348.22,840.52 L 348.90,840.52 L 348.90,839.84 L 348.22,839.84 Z M 346.10,824.48 L 346.78,824.48 L 346.78,823.80 L 346.10,823.80 Z M 348.22,824.48 L 348.90,824.48 L 348.90,823.80 L 348.22,823.80 Z" fill="#FFD700" fill-opacity="0.7" stroke="#ccaa00" stroke-width="0.5"/>
    <text x="10" y="938" font-family="sans-serif" font-size="11" fill="#aaaaaa">mcon (67,44) - 425 polygons</text>
</g>
</svg>
