<svg xmlns="http://www.w3.org/2000/svg" width="483" height="677" viewBox="0 0 483 677">
<rect width="483" height="677" fill="#1a1a2e"/>
<rect x="234.52" y="573.90" width="0.51" height="0.51" fill="#b060b0" fill-opacity="0.80" stroke="#600060" stroke-opacity="0.90" stroke-width="0.50"/>
<rect x="234.52" y="569.25" width="0.51" height="0.51" fill="#b060b0" fill-opacity="0.80" stroke="#600060" stroke-opacity="0.90" stroke-width="0.50"/>
<rect x="232.00" y="584.38" width="0.51" height="0.51" fill="#b060b0" fill-opacity="0.80" stroke="#600060" stroke-opacity="0.90" stroke-width="0.50"/>
<rect x="232.00" y="581.12" width="0.51" height="0.51" fill="#b060b0" fill-opacity="0.80" stroke="#600060" stroke-opacity="0.90" stroke-width="0.50"/>
<rect x="232.00" y="579.72" width="0.51" height="0.51" fill="#b060b0" fill-opacity="0.80" stroke="#600060" stroke-opacity="0.90" stroke-width="0.50"/>
<rect x="241.42" y="579.28" width="0.51" height="0.51" fill="#b060b0" fill-opacity="0.80" stroke="#600060" stroke-opacity="0.90" stroke-width="0.50"/>
<rect x="234.62" y="579.28" width="0.51" height="0.51" fill="#b060b0" fill-opacity="0.80" stroke="#600060" stroke-opacity="0.90" stroke-width="0.50"/>
<rect x="234.62" y="580.31" width="0.51" height="0.51" fill="#b060b0" fill-opacity="0.80" stroke="#600060" stroke-opacity="0.90" stroke-width="0.50"/>
<rect x="234.62" y="581.32" width="0.51" height="0.51" fill="#b060b0" fill-opacity="0.80" stroke="#600060" stroke-opacity="0.90" stroke-width="0.50"/>
<rect x="234.65" y="582.82" width="0.51" height="0.51" fill="#b060b0" fill-opacity="0.80" stroke="#600060" stroke-opacity="0.90" stroke-width="0.50"/>
<rect x="234.76" y="585.16" width="0.51" height="0.51" fill="#b060b0" fill-opacity="0.80" stroke="#600060" stroke-opacity="0.90" stroke-width="0.50"/>
<rect x="236.38" y="580.31" width="0.51" height="0.51" fill="#b060b0" fill-opacity="0.80" stroke="#600060" stroke-opacity="0.90" stroke-width="0.50"/>
<rect x="240.17" y="579.28" width="0.51" height="0.51" fill="#b060b0" fill-opacity="0.80" stroke="#600060" stroke-opacity="0.90" stroke-width="0.50"/>
<rect x="236.38" y="579.28" width="0.51" height="0.51" fill="#b060b0" fill-opacity="0.80" stroke="#600060" stroke-opacity="0.90" stroke-width="0.50"/>
<rect x="239.92" y="582.82" width="0.51" height="0.51" fill="#b060b0" fill-opacity="0.80" stroke="#600060" stroke-opacity="0.90" stroke-width="0.50"/>
<rect x="238.91" y="585.04" width="0.51" height="0.51" fill="#b060b0" fill-opacity="0.80" stroke="#600060" stroke-opacity="0.90" stroke-width="0.50"/>
<rect x="240.17" y="580.31" width="0.51" height="0.51" fill="#b060b0" fill-opacity="0.80" stroke="#600060" stroke-opacity="0.90" stroke-width="0.50"/>
<rect x="238.91" y="581.32" width="0.51" height="0.51" fill="#b060b0" fill-opacity="0.80" stroke="#600060" stroke-opacity="0.90" stroke-width="0.50"/>
<rect x="238.91" y="580.31" width="0.51" height="0.51" fill="#b060b0" fill-opacity="0.80" stroke="#600060" stroke-opacity="0.90" stroke-width="0.50"/>
<rect x="238.91" y="579.28" width="0.51" height="0.51" fill="#b060b0" fill-opacity="0.80" stroke="#600060" stroke-opacity="0.90" stroke-width="0.50"/>
<rect x="238.67" y="582.82" width="0.51" height="0.51" fill="#b060b0" fill-opacity="0.80" stroke="#600060" stroke-opacity="0.90" stroke-width="0.50"/>
<rect x="240.17" y="585.16" width="0.51" height="0.51" fill="#b060b0" fill-opacity="0.80" stroke="#600060" stroke-opacity="0.90" stroke-width="0.50"/>
<rect x="237.65" y="585.16" width="0.51" height="0.51" fill="#b060b0" fill-opacity="0.80" stroke="#600060" stroke-opacity="0.90" stroke-width="0.50"/>
<rect x="237.65" y="580.31" width="0.51" height="0.51" fill="#b060b0" fill-opacity="0.80" stroke="#600060" stroke-opacity="0.90" stroke-width="0.50"/>
<rect x="237.65" y="579.28" width="0.51" height="0.51" fill="#b060b0" fill-opacity="0.80" stroke="#600060" stroke-opacity="0.90" stroke-width="0.50"/>
<rect x="241.19" y="582.82" width="0.51" height="0.51" fill="#b060b0" fill-opacity="0.80" stroke="#600060" stroke-opacity="0.90" stroke-width="0.50"/>
<rect x="236.38" y="585.04" width="0.51" height="0.51" fill="#b060b0" fill-opacity="0.80" stroke="#600060" stroke-opacity="0.90" stroke-width="0.50"/>
<rect x="236.38" y="581.32" width="0.51" height="0.51" fill="#b060b0" fill-opacity="0.80" stroke="#600060" stroke-opacity="0.90" stroke-width="0.50"/>
<rect x="241.42" y="580.31" width="0.51" height="0.51" fill="#b060b0" fill-opacity="0.80" stroke="#600060" stroke-opacity="0.90" stroke-width="0.50"/>
<rect x="241.42" y="581.32" width="0.51" height="0.51" fill="#b060b0" fill-opacity="0.80" stroke="#600060" stroke-opacity="0.90" stroke-width="0.50"/>
<rect x="241.42" y="585.04" width="0.51" height="0.51" fill="#b060b0" fill-opacity="0.80" stroke="#600060" stroke-opacity="0.90" stroke-width="0.50"/>
<rect x="242.69" y="585.15" width="0.51" height="0.51" fill="#b060b0" fill-opacity="0.80" stroke="#600060" stroke-opacity="0.90" stroke-width="0.50"/>
<rect x="242.69" y="579.28" width="0.51" height="0.51" fill="#b060b0" fill-opacity="0.80" stroke="#600060" stroke-opacity="0.90" stroke-width="0.50"/>
<rect x="245.32" y="584.38" width="0.51" height="0.51" fill="#b060b0" fill-opacity="0.80" stroke="#600060" stroke-opacity="0.90" stroke-width="0.50"/>
<rect x="245.32" y="581.12" width="0.51" height="0.51" fill="#b060b0" fill-opacity="0.80" stroke="#600060" stroke-opacity="0.90" stroke-width="0.50"/>
<rect x="245.32" y="579.72" width="0.51" height="0.51" fill="#b060b0" fill-opacity="0.80" stroke="#600060" stroke-opacity="0.90" stroke-width="0.50"/>
</svg>
