<?xml version="1.0" encoding="UTF-8"?>
<svg xmlns="http://www.w3.org/2000/svg" width="684.0" height="968.0" viewBox="0 0 684.0 968.0">
<rect width="100%" height="100%" fill="#1a1a2e"/>
<text x="342.0" y="18" font-family="sans-serif" font-size="14" fill="#eee" text-anchor="middle" font-weight="bold">tt_um_pll_sky130 - via2 (69,44)</text>
<g transform="translate(0, 25)">
    <path d="M 20.00,923.04 L 664.00,923.04 L 664.00,20.00 L 20.00,20.00 Z" fill="none" stroke="#555555" stroke-width="1" stroke-dasharray="4,2"/>
    <path d="M 27.60,883.44 L 28.40,883.44 L 28.40,882.64 L 27.60,882.64 Z M 41.60,883.44 L 42.40,883.44 L 42.40,882.64 L 41.60,882.64 Z M 27.60,723.44 L 28.40,723.44 L 28.40,722.64 L 27.60,722.64 Z M 41.60,723.44 L 42.40,723.44 L 42.40,722.64 L 41.60,722.64 Z M 27.60,523.44 L 28.40,523.44 L 28.40,522.64 L 27.60,522.64 Z M 41.60,523.44 L 42.40,523.44 L 42.40,522.64 L 41.60,522.64 Z M 27.60,323.44 L 28.40,323.44 L 28.40,322.64 L 27.60,322.64 Z M 41.60,323.44 L 42.40,323.44 L 42.40,322.64 L 41.60,322.64 Z M 27.60,123.44 L 28.40,123.44 L 28.40,122.64 L 27.60,122.64 Z M 41.60,123.44 L 42.40,123.44 L 42.40,122.64 L 41.60,122.64 Z M 628.64,805.44 L 629.44,805.44 L 629.44,804.64 L 628.64,804.64 Z M 551.36,845.44 L 552.16,845.44 L 552.16,844.64 L 551.36,844.64 Z" fill="#FFFFFF" fill-opacity="0.8" stroke="#aaaaaa" stroke-width="0.5"/>
    <text x="10" y="938" font-family="sans-serif" font-size="11" fill="#aaaaaa">via2 (69,44) - 12 polygons</text>
</g>
</svg>
