<?xml version="1.0" encoding="UTF-8"?>
<svg xmlns="http://www.w3.org/2000/svg" width="684.0" height="968.0" viewBox="0 0 684.0 968.0">
<rect width="100%" height="100%" fill="#1a1a2e"/>
<text x="342.0" y="18" font-family="sans-serif" font-size="14" fill="#eee" text-anchor="middle" font-weight="bold">tt_um_pll_sky130 - met3 (70,20)</text>
<g transform="translate(0, 25)">
    <path d="M 20.00,923.04 L 664.00,923.04 L 664.00,20.00 L 20.00,20.00 Z" fill="none" stroke="#555555" stroke-width="1" stroke-dasharray="4,2"/>
    <path d="M 43.20,121.84 L 40.80,121.84 L 40.80,124.24 L 43.20,124.24 Z M 29.20,121.84 L 26.80,121.84 L 26.80,124.24 L 29.20,124.24 Z M 43.20,321.84 L 40.80,321.84 L 40.80,324.24 L 43.20,324.24 Z M 29.20,321.84 L 26.80,321.84 L 26.80,324.24 L 29.20,324.24 Z M 185.52,485.06 L 630.24,485.06 L 630.24,482.66 L 185.52,482.66 Z M 185.52,488.26 L 552.96,488.26 L 552.96,485.86 L 185.52,485.86 Z M 43.20,521.84 L 40.80,521.84 L 40.80,524.24 L 43.20,524.24 Z M 29.20,521.84 L 26.80,521.84 L 26.80,524.24 L 29.20,524.24 Z M 43.20,721.84 L 40.80,721.84 L 40.80,724.24 L 43.20,724.24 Z M 29.20,721.84 L 26.80,721.84 L 26.80,724.24 L 29.20,724.24 Z M 43.20,881.84 L 40.80,881.84 L 40.80,884.24 L 43.20,884.24 Z M 29.20,881.84 L 26.80,881.84 L 26.80,884.24 L 29.20,884.24 Z" fill="#32CD32" fill-opacity="0.45" stroke="#28a428" stroke-width="0.5"/>
    <text x="10" y="938" font-family="sans-serif" font-size="11" fill="#aaaaaa">met3 (70,20) - 12 polygons</text>
</g>
</svg>
