<?xml version="1.0" encoding="UTF-8"?>
<svg xmlns="http://www.w3.org/2000/svg" width="684.0" height="968.0" viewBox="0 0 684.0 968.0">
<rect width="100%" height="100%" fill="#1a1a2e"/>
<text x="342.0" y="18" font-family="sans-serif" font-size="14" fill="#eee" text-anchor="middle" font-weight="bold">tt_um_pll_sky130 - npc (95,20)</text>
<g transform="translate(0, 25)">
    <path d="M 20.00,923.04 L 664.00,923.04 L 664.00,20.00 L 20.00,20.00 Z" fill="none" stroke="#555555" stroke-width="1" stroke-dasharray="4,2"/>
    <path d="M 55.16,460.20 L 53.88,460.20 L 53.88,461.48 L 55.16,461.48 Z M 61.40,460.20 L 60.12,460.20 L 60.12,461.48 L 61.40,461.48 Z M 168.62,467.30 L 167.34,467.30 L 167.34,468.58 L 168.62,468.58 Z M 186.30,467.30 L 185.02,467.30 L 185.02,468.58 L 186.30,468.58 Z M 150.94,467.30 L 149.66,467.30 L 149.66,468.58 L 150.94,468.58 Z M 133.26,467.30 L 131.98,467.30 L 131.98,468.58 L 133.26,468.58 Z M 115.58,467.30 L 114.30,467.30 L 114.30,468.58 L 115.58,468.58 Z M 97.90,467.30 L 96.62,467.30 L 96.62,468.58 L 97.90,468.58 Z M 80.22,467.30 L 78.94,467.30 L 78.94,468.58 L 80.22,468.58 Z M 55.16,486.22 L 53.88,486.22 L 53.88,487.50 L 55.16,487.50 Z M 186.30,490.22 L 185.02,490.22 L 185.02,491.50 L 186.30,491.50 Z M 168.62,490.22 L 167.34,490.22 L 167.34,491.50 L 168.62,491.50 Z M 150.94,490.22 L 149.66,490.22 L 149.66,491.50 L 150.94,491.50 Z M 133.26,490.22 L 131.98,490.22 L 131.98,491.50 L 133.26,491.50 Z M 115.58,490.22 L 114.30,490.22 L 114.30,491.50 L 115.58,491.50 Z M 97.90,490.22 L 96.62,490.22 L 96.62,491.50 L 97.90,491.50 Z M 80.22,490.22 L 78.94,490.22 L 78.94,491.50 L 80.22,491.50 Z M 53.90,508.38 L 51.50,508.38 L 51.50,509.66 L 53.90,509.66 Z M 53.90,515.70 L 51.50,515.70 L 51.50,516.98 L 53.90,516.98 Z M 74.16,526.04 L 65.36,526.04 L 65.36,527.12 L 74.16,527.12 Z M 86.40,526.04 L 77.60,526.04 L 77.60,527.12 L 86.40,527.12 Z M 103.44,526.04 L 94.64,526.04 L 94.64,527.12 L 103.44,527.12 Z M 115.68,526.04 L 106.88,526.04 L 106.88,527.12 L 115.68,527.12 Z M 127.92,526.04 L 119.12,526.04 L 119.12,527.12 L 127.92,527.12 Z M 61.92,526.04 L 53.12,526.04 L 53.12,527.12 L 61.92,527.12 Z M 61.92,580.82 L 53.12,580.82 L 53.12,581.90 L 61.92,581.90 Z M 274.80,580.82 L 266.00,580.82 L 266.00,581.90 L 274.80,581.90 Z M 159.84,580.82 L 151.04,580.82 L 151.04,581.90 L 159.84,581.90 Z M 262.56,580.82 L 253.76,580.82 L 253.76,581.90 L 262.56,581.90 Z M 74.16,580.82 L 65.36,580.82 L 65.36,581.90 L 74.16,581.90 Z M 86.40,580.82 L 77.60,580.82 L 77.60,581.90 L 86.40,581.90 Z M 147.60,580.82 L 138.80,580.82 L 138.80,581.90 L 147.60,581.90 Z M 176.88,580.82 L 168.08,580.82 L 168.08,581.90 L 176.88,581.90 Z M 189.12,580.82 L 180.32,580.82 L 180.32,581.90 L 189.12,581.90 Z M 135.36,580.82 L 126.56,580.82 L 126.56,581.90 L 135.36,581.90 Z M 201.36,580.82 L 192.56,580.82 L 192.56,581.90 L 201.36,581.90 Z M 123.12,580.82 L 114.32,580.82 L 114.32,581.90 L 123.12,581.90 Z M 213.60,580.82 L 204.80,580.82 L 204.80,581.90 L 213.60,581.90 Z M 110.88,580.82 L 102.08,580.82 L 102.08,581.90 L 110.88,581.90 Z M 225.84,580.82 L 217.04,580.82 L 217.04,581.90 L 225.84,581.90 Z M 98.64,580.82 L 89.84,580.82 L 89.84,581.90 L 98.64,581.90 Z M 238.08,580.82 L 229.28,580.82 L 229.28,581.90 L 238.08,581.90 Z M 250.32,580.82 L 241.52,580.82 L 241.52,581.90 L 250.32,581.90 Z M 113.98,739.54 L 112.70,739.54 L 112.70,740.82 L 113.98,740.82 Z M 94.16,739.54 L 92.88,739.54 L 92.88,740.82 L 94.16,740.82 Z M 85.92,739.54 L 84.64,739.54 L 84.64,740.82 L 85.92,740.82 Z M 64.40,739.54 L 63.12,739.54 L 63.12,740.82 L 64.40,740.82 Z M 56.16,739.54 L 54.88,739.54 L 54.88,740.82 L 56.16,740.82 Z M 56.16,762.46 L 54.88,762.46 L 54.88,763.74 L 56.16,763.74 Z M 70.20,762.46 L 68.92,762.46 L 68.92,763.74 L 70.20,763.74 Z M 82.54,766.46 L 81.26,766.46 L 81.26,767.74 L 82.54,767.74 Z M 281.34,796.96 L 280.06,796.96 L 280.06,798.24 L 281.34,798.24 Z M 266.62,796.96 L 265.34,796.96 L 265.34,798.24 L 266.62,798.24 Z M 213.58,809.88 L 212.30,809.88 L 212.30,811.16 L 213.58,811.16 Z M 348.14,809.88 L 346.86,809.88 L 346.86,811.16 L 348.14,811.16 Z M 332.46,809.88 L 331.18,809.88 L 331.18,811.16 L 332.46,811.16 Z M 316.78,809.88 L 315.50,809.88 L 315.50,811.16 L 316.78,811.16 Z M 301.10,809.88 L 299.82,809.88 L 299.82,811.16 L 301.10,811.16 Z M 248.94,809.88 L 247.66,809.88 L 247.66,811.16 L 248.94,811.16 Z M 231.26,809.88 L 229.98,809.88 L 229.98,811.16 L 231.26,811.16 Z M 195.90,809.88 L 194.62,809.88 L 194.62,811.16 L 195.90,811.16 Z M 178.22,809.88 L 176.94,809.88 L 176.94,811.16 L 178.22,811.16 Z M 160.54,809.88 L 159.26,809.88 L 159.26,811.16 L 160.54,811.16 Z M 142.86,809.88 L 141.58,809.88 L 141.58,811.16 L 142.86,811.16 Z M 125.18,809.88 L 123.90,809.88 L 123.90,811.16 L 125.18,811.16 Z M 107.50,809.88 L 106.22,809.88 L 106.22,811.16 L 107.50,811.16 Z M 89.82,809.88 L 88.54,809.88 L 88.54,811.16 L 89.82,811.16 Z M 72.14,809.88 L 70.86,809.88 L 70.86,811.16 L 72.14,811.16 Z M 54.46,809.88 L 53.18,809.88 L 53.18,811.16 L 54.46,811.16 Z M 266.62,817.88 L 265.34,817.88 L 265.34,819.16 L 266.62,819.16 Z M 266.62,826.80 L 265.34,826.80 L 265.34,828.08 L 266.62,828.08 Z M 348.14,828.80 L 346.86,828.80 L 346.86,830.08 L 348.14,830.08 Z M 72.14,828.80 L 70.86,828.80 L 70.86,830.08 L 72.14,830.08 Z M 54.46,828.80 L 53.18,828.80 L 53.18,830.08 L 54.46,830.08 Z M 332.46,828.80 L 331.18,828.80 L 331.18,830.08 L 332.46,830.08 Z M 316.78,828.80 L 315.50,828.80 L 315.50,830.08 L 316.78,830.08 Z M 301.10,828.80 L 299.82,828.80 L 299.82,830.08 L 301.10,830.08 Z M 248.94,828.80 L 247.66,828.80 L 247.66,830.08 L 248.94,830.08 Z M 231.26,828.80 L 229.98,828.80 L 229.98,830.08 L 231.26,830.08 Z M 213.58,828.80 L 212.30,828.80 L 212.30,830.08 L 213.58,830.08 Z M 195.90,828.80 L 194.62,828.80 L 194.62,830.08 L 195.90,830.08 Z M 178.22,828.80 L 176.94,828.80 L 176.94,830.08 L 178.22,830.08 Z M 160.54,828.80 L 159.26,828.80 L 159.26,830.08 L 160.54,830.08 Z M 142.86,828.80 L 141.58,828.80 L 141.58,830.08 L 142.86,830.08 Z M 125.18,828.80 L 123.90,828.80 L 123.90,830.08 L 125.18,830.08 Z M 107.50,828.80 L 106.22,828.80 L 106.22,830.08 L 107.50,830.08 Z M 89.82,828.80 L 88.54,828.80 L 88.54,830.08 L 89.82,830.08 Z M 266.62,862.02 L 265.34,862.02 L 265.34,863.30 L 266.62,863.30 Z M 125.18,868.02 L 123.90,868.02 L 123.90,869.30 L 125.18,869.30 Z M 142.86,868.02 L 141.58,868.02 L 141.58,869.30 L 142.86,869.30 Z M 107.50,868.02 L 106.22,868.02 L 106.22,869.30 L 107.50,869.30 Z M 89.82,868.02 L 88.54,868.02 L 88.54,869.30 L 89.82,869.30 Z M 160.54,868.02 L 159.26,868.02 L 159.26,869.30 L 160.54,869.30 Z M 178.22,868.02 L 176.94,868.02 L 176.94,869.30 L 178.22,869.30 Z M 72.14,868.02 L 70.86,868.02 L 70.86,869.30 L 72.14,869.30 Z M 195.90,868.02 L 194.62,868.02 L 194.62,869.30 L 195.90,869.30 Z M 213.58,868.02 L 212.30,868.02 L 212.30,869.30 L 213.58,869.30 Z M 54.46,868.02 L 53.18,868.02 L 53.18,869.30 L 54.46,869.30 Z M 231.26,868.02 L 229.98,868.02 L 229.98,869.30 L 231.26,869.30 Z M 248.94,868.02 L 247.66,868.02 L 247.66,869.30 L 248.94,869.30 Z M 266.62,884.94 L 265.34,884.94 L 265.34,886.22 L 266.62,886.22 Z M 72.14,886.94 L 70.86,886.94 L 70.86,888.22 L 72.14,888.22 Z M 89.82,886.94 L 88.54,886.94 L 88.54,888.22 L 89.82,888.22 Z M 107.50,886.94 L 106.22,886.94 L 106.22,888.22 L 107.50,888.22 Z M 54.46,886.94 L 53.18,886.94 L 53.18,888.22 L 54.46,888.22 Z M 125.18,886.94 L 123.90,886.94 L 123.90,888.22 L 125.18,888.22 Z M 142.86,886.94 L 141.58,886.94 L 141.58,888.22 L 142.86,888.22 Z M 160.54,886.94 L 159.26,886.94 L 159.26,888.22 L 160.54,888.22 Z M 178.22,886.94 L 176.94,886.94 L 176.94,888.22 L 178.22,888.22 Z M 195.90,886.94 L 194.62,886.94 L 194.62,888.22 L 195.90,888.22 Z M 213.58,886.94 L 212.30,886.94 L 212.30,888.22 L 213.58,888.22 Z M 231.26,886.94 L 229.98,886.94 L 229.98,888.22 L 231.26,888.22 Z M 248.94,886.94 L 247.66,886.94 L 247.66,888.22 L 248.94,888.22 Z" fill="#9400D3" fill-opacity="0.2" stroke="#7500a8" stroke-width="0.5"/>
    <text x="10" y="938" font-family="sans-serif" font-size="11" fill="#aaaaaa">npc (95,20) - 113 polygons</text>
</g>
</svg>
