<?xml version="1.0" encoding="UTF-8"?>
<svg xmlns="http://www.w3.org/2000/svg" width="684.0" height="968.0" viewBox="0 0 684.0 968.0">
<rect width="100%" height="100%" fill="#1a1a2e"/>
<text x="342.0" y="18" font-family="sans-serif" font-size="14" fill="#eee" text-anchor="middle" font-weight="bold">tt_um_pll_sky130 — diff (65,20)</text>
<g transform="translate(0, 25)">
    <path d="M 20.00,923.04 L 664.00,923.04 L 664.00,20.00 L 20.00,20.00 Z" fill="none" stroke="#555555" stroke-width="1" stroke-dasharray="4,2"/>
    <path d="M 32.00,837.44 L 38.08,837.44 L 38.08,829.44 L 32.00,829.44 Z M 38.76,837.44 L 44.84,837.44 L 44.84,829.44 L 38.76,829.44 Z M 56.00,837.44 L 62.08,837.44 L 62.08,829.44 L 56.00,829.44 Z M 62.76,837.44 L 68.84,837.44 L 68.84,829.44 L 62.76,829.44 Z M 80.00,837.44 L 82.68,837.44 L 82.68,829.44 L 80.00,829.44 Z M 32.00,869.44 L 38.08,869.44 L 38.08,861.44 L 32.00,861.44 Z M 56.00,869.44 L 62.08,869.44 L 62.08,861.44 L 56.00,861.44 Z M 80.00,869.44 L 82.68,869.44 L 82.68,865.44 L 80.00,865.44 Z M 174.20,911.04 L 330.76,911.04 L 330.76,751.04 L 174.20,751.04 Z M 174.20,731.20 L 223.84,731.20 L 223.84,677.43 L 174.20,677.43 Z M 32.00,613.59 L 36.08,613.59 L 36.08,605.59 L 32.00,605.59 Z M 36.76,613.59 L 40.84,613.59 L 40.84,605.59 L 36.76,605.59 Z M 32.00,637.59 L 36.08,637.59 L 36.08,629.59 L 32.00,629.59 Z M 46.00,593.59 L 50.08,593.59 L 50.08,585.59 L 46.00,585.59 Z M 50.76,593.59 L 54.84,593.59 L 54.84,585.59 L 50.76,585.59 Z M 48.00,613.59 L 50.68,613.59 L 50.68,605.59 L 48.00,605.59 Z M 48.00,625.59 L 50.68,625.59 L 50.68,621.59 L 48.00,621.59 Z M 46.00,637.59 L 50.08,637.59 L 50.08,629.59 L 46.00,629.59 Z M 62.00,593.59 L 66.08,593.59 L 66.08,585.59 L 62.00,585.59 Z M 66.76,593.59 L 70.84,593.59 L 70.84,585.59 L 66.76,585.59 Z M 64.00,613.59 L 66.68,613.59 L 66.68,605.59 L 64.00,605.59 Z M 64.00,625.59 L 66.68,625.59 L 66.68,621.59 L 64.00,621.59 Z M 62.00,637.59 L 66.08,637.59 L 66.08,629.59 L 62.00,629.59 Z M 78.00,593.59 L 82.08,593.59 L 82.08,585.59 L 78.00,585.59 Z M 82.76,593.59 L 86.84,593.59 L 86.84,585.59 L 82.76,585.59 Z M 80.00,613.59 L 82.68,613.59 L 82.68,605.59 L 80.00,605.59 Z M 80.00,625.59 L 82.68,625.59 L 82.68,621.59 L 80.00,621.59 Z M 78.00,637.59 L 82.08,637.59 L 82.08,629.59 L 78.00,629.59 Z M 94.00,593.59 L 98.08,593.59 L 98.08,585.59 L 94.00,585.59 Z M 98.76,593.59 L 102.84,593.59 L 102.84,585.59 L 98.76,585.59 Z M 96.00,613.59 L 98.68,613.59 L 98.68,605.59 L 96.00,605.59 Z M 96.00,625.59 L 98.68,625.59 L 98.68,621.59 L 96.00,621.59 Z M 94.00,637.59 L 98.08,637.59 L 98.08,629.59 L 94.00,629.59 Z M 110.00,593.59 L 114.08,593.59 L 114.08,585.59 L 110.00,585.59 Z M 114.76,593.59 L 118.84,593.59 L 118.84,585.59 L 114.76,585.59 Z M 112.00,613.59 L 114.68,613.59 L 114.68,605.59 L 112.00,605.59 Z M 112.00,625.59 L 114.68,625.59 L 114.68,621.59 L 112.00,621.59 Z M 110.00,637.59 L 114.08,637.59 L 114.08,629.59 L 110.00,629.59 Z" fill="#228B22" fill-opacity="0.5" stroke="#1a6b1a" stroke-width="0.5"/>
    <text x="10" y="938.04" font-family="sans-serif" font-size="11" fill="#aaaaaa">diff (65,20) — 38 polygons</text>
</g>
</svg>
